<?xml version="1.0" standalone="no"?>
<!DOCTYPE svg PUBLIC "-//W3C//DTD SVG 20010904//EN"
 "http://www.w3.org/TR/2001/REC-SVG-20010904/DTD/svg10.dtd">
<svg version="1.0" xmlns="http://www.w3.org/2000/svg"
 width="512.000000pt" height="512.000000pt" viewBox="0 0 512.000000 512.000000"
 preserveAspectRatio="xMidYMid meet">

<g transform="translate(0.000000,512.000000) scale(0.100000,-0.100000)"
fill="#000000" stroke="none">
<path d="M2388 5104 c-373 -68 -677 -350 -774 -719 -24 -89 -27 -123 -32 -317
l-4 -218 -338 0 c-215 0 -349 -4 -367 -11 -34 -12 -80 -55 -98 -89 -7 -14 -16
-45 -19 -70 -4 -25 -76 -823 -162 -1775 -170 -1899 -164 -1781 -100 -1846 62
-63 -88 -59 2066 -59 1633 0 1976 2 2003 14 45 19 96 74 107 117 14 52 -301
3573 -323 3616 -20 37 -65 79 -100 92 -18 7 -152 11 -367 11 l-338 0 -4 218
c-5 194 -8 228 -32 317 -131 494 -620 809 -1118 719z m327 -374 c214 -55 388
-233 439 -450 11 -46 16 -119 16 -247 l0 -183 -610 0 -610 0 0 183 c0 209 11
272 68 387 46 94 149 202 243 254 134 74 302 95 454 56z m-1133 -1443 c3 -185
4 -195 27 -229 85 -124 260 -110 322 27 16 34 19 67 19 218 l0 177 610 0 610
0 0 -177 c0 -151 3 -184 19 -218 62 -137 237 -151 322 -27 23 34 24 44 27 229
l4 193 236 -2 237 -3 137 -1525 c75 -839 137 -1537 138 -1552 l0 -28 -1730 0
c-952 0 -1730 3 -1731 8 0 4 62 703 138 1554 l138 1548 237 0 236 0 4 -193z"/>
</g>
</svg>
