<?xml version="1.0" standalone="no"?>
<!DOCTYPE svg PUBLIC "-//W3C//DTD SVG 20010904//EN"
 "http://www.w3.org/TR/2001/REC-SVG-20010904/DTD/svg10.dtd">
<svg version="1.0" xmlns="http://www.w3.org/2000/svg"
 width="512.000000pt" height="512.000000pt" viewBox="0 0 512.000000 512.000000"
 preserveAspectRatio="xMidYMid meet">

<g transform="translate(0.000000,512.000000) scale(0.100000,-0.100000)"
fill="#000000" stroke="none">
<path d="M810 4883 c-33 -12 -77 -67 -436 -545 l-374 -498 650 0 650 0 260
520 c143 286 260 522 260 525 0 7 -991 5 -1010 -2z"/>
<path d="M1852 4365 l-262 -525 970 0 970 0 -262 525 -263 525 -445 0 -445 0
-263 -525z"/>
<path d="M3300 4885 c0 -3 117 -239 260 -525 l260 -520 650 0 650 0 -374 498
c-205 273 -385 508 -400 522 l-28 25 -509 3 c-280 1 -509 0 -509 -3z"/>
<path d="M7 3568 c6 -7 488 -668 1073 -1468 584 -800 1068 -1461 1076 -1469
17 -18 70 -199 -440 1499 l-433 1445 -643 3 c-515 2 -641 0 -633 -10z"/>
<path d="M1560 3573 c0 -18 994 -3323 1000 -3323 6 0 1000 3305 1000 3323 0 9
-2000 9 -2000 0z"/>
<path d="M3835 3568 c-2 -7 -200 -668 -440 -1468 -240 -800 -438 -1461 -440
-1467 -2 -7 -3 -13 0 -13 2 0 480 651 1061 1447 582 797 1068 1463 1082 1481
l24 32 -641 0 c-504 0 -643 -3 -646 -12z"/>
</g>
</svg>
