<?xml version="1.0" standalone="no"?>
<!DOCTYPE svg PUBLIC "-//W3C//DTD SVG 20010904//EN" "http://www.w3.org/TR/2001/REC-SVG-20010904/DTD/svg10.dtd">
<svg version="1.0" xmlns="http://www.w3.org/2000/svg"
    width="512.000000pt" height="512.000000pt" viewBox="0 0 512.000000 512.000000"
    preserveAspectRatio="xMidYMid meet">

    <g transform="translate(0.000000,512.000000) scale(0.100000,-0.100000)"
    fill="#000000" stroke="none">
        <path d="M433 5108 c-31 -41 -123 -207 -178 -321 -175 -368 -266 -769 -252
        -1112 11 -241 38 -360 197 -840 123 -372 159 -501 194 -695 75 -410 110 -901
        123 -1712 l6 -428 200 0 200 0 -6 438 c-16 1038 -77 1665 -205 2107 -26 90
        -28 103 -16 127 53 104 227 -28 419 -317 235 -353 497 -935 766 -1704 90 -258
        131 -335 234 -436 75 -75 147 -122 245 -162 135 -54 109 -53 1486 -53 l1274 0
        0 200 0 200 -521 0 -520 0 6 23 c46 163 112 310 198 437 64 96 77 112 203 247
        l104 112 -377 186 c-208 103 -443 226 -522 273 l-144 86 -86 -90 c-315 -329
        -547 -798 -606 -1227 l-6 -49 -152 4 c-175 4 -212 15 -292 89 -59 55 -71 79
        -151 306 -85 242 -200 548 -274 727 l-58 141 -6 465 c-6 490 -14 661 -47 930
        -81 674 -289 1143 -680 1533 l-128 127 835 0 834 0 0 200 0 200 -1144 0 c-903
        0 -1146 -3 -1153 -12z m261 -615 c469 -352 705 -814 785 -1538 11 -99 23 -245
        27 -325 l6 -145 -70 103 c-100 146 -158 216 -256 310 -98 94 -169 142 -264
        179 -91 36 -250 38 -328 6 l-51 -22 -41 132 c-115 368 -129 580 -61 912 32
        153 135 455 156 455 4 0 48 -30 97 -67z m3093 -3326 l161 -82 -59 -100 c-98
        -166 -187 -399 -205 -535 l-7 -50 -212 0 -213 0 14 70 c43 229 137 452 283
        673 39 59 72 107 74 107 2 0 76 -37 164 -83z"/>
    </g>
</svg>
