<?xml version="1.0" standalone="no"?>
<!DOCTYPE svg PUBLIC "-//W3C//DTD SVG 20010904//EN"
 "http://www.w3.org/TR/2001/REC-SVG-20010904/DTD/svg10.dtd">
<svg version="1.0" xmlns="http://www.w3.org/2000/svg"
 width="750.000000pt" height="1125.000000pt" viewBox="0 0 750.000000 1125.000000"
 preserveAspectRatio="xMidYMid meet">
<metadata>
Created by potrace 1.16, written by Peter Selinger 2001-2019
</metadata>
<g transform="translate(0.000000,1125.000000) scale(0.100000,-0.100000)"
fill="#000000" stroke="none">
<path d="M3958 11090 c-2 -7 -15 -14 -30 -15 -14 -2 -35 -8 -46 -14 -11 -6
-28 -11 -36 -11 -21 0 -89 -47 -101 -70 -5 -10 -26 -29 -45 -42 -19 -13 -36
-33 -38 -45 -2 -15 -13 -24 -35 -28 -67 -13 -64 -8 -71 -112 -4 -54 -11 -100
-16 -103 -9 -6 -14 -76 -11 -165 0 -22 0 -49 -2 -60 -1 -12 3 -19 11 -17 14 2
16 -32 2 -58 -13 -24 8 -224 26 -248 12 -15 14 -13 20 18 7 33 8 34 14 10 4
-14 3 -33 -2 -44 -14 -27 5 -42 36 -28 l25 11 -26 63 c-14 35 -25 68 -24 73 8
138 13 260 14 340 2 117 26 181 81 215 46 28 53 26 59 -17 7 -49 28 -102 34
-85 3 7 0 19 -6 26 -12 14 -18 97 -7 114 15 24 103 43 168 36 54 -6 81 -10 96
-13 2 -1 -7 -18 -19 -40 -16 -29 -26 -37 -40 -34 -14 4 -18 1 -13 -10 3 -10
-5 -21 -25 -33 -47 -28 -37 -37 14 -12 24 12 42 25 39 30 -3 4 2 8 10 8 26 0
18 -20 -11 -31 -20 -7 -24 -12 -14 -18 10 -7 6 -15 -18 -37 -44 -39 -29 -44
18 -6 39 32 78 35 67 6 -7 -18 4 -18 30 1 12 8 24 11 28 8 3 -3 15 2 26 12 11
10 20 13 20 7 0 -6 -4 -14 -10 -17 -5 -3 -15 -16 -21 -28 -6 -14 2 -8 21 13
130 145 124 141 137 124 6 -9 15 -35 19 -57 3 -23 10 -44 14 -47 4 -3 10 -15
14 -27 5 -16 2 -23 -11 -26 -14 -4 -13 -5 5 -6 28 -1 29 -32 1 -49 -12 -7 -18
-16 -15 -19 3 -3 13 0 22 8 15 12 16 6 13 -68 -5 -97 13 -97 22 0 l6 62 2 -70
c2 -100 8 -115 42 -115 16 0 29 5 29 10 0 6 5 10 10 10 6 0 10 -7 10 -16 0 -8
5 -12 10 -9 16 10 12 35 -6 35 -9 0 -14 6 -11 13 2 6 11 11 20 9 21 -3 24 4
36 74 7 47 5 80 -9 154 -23 121 -35 153 -86 220 -22 30 -46 65 -53 78 -6 12
-17 22 -24 22 -14 0 -40 37 -33 48 3 5 -34 28 -82 52 -80 40 -95 44 -178 48
-67 3 -93 1 -96 -8z"/>
<path d="M4153 10570 c-82 -17 -113 -45 -113 -103 0 -56 44 -112 95 -121 29
-6 44 -2 81 21 24 15 44 31 44 34 0 7 -45 39 -70 51 -11 5 -10 7 5 7 11 1 31
-6 43 -15 13 -9 26 -14 28 -11 12 12 -19 48 -58 68 -40 20 -41 22 -22 36 10 8
29 12 42 10 29 -6 38 9 13 22 -22 12 -29 12 -88 1z"/>
<path d="M3683 10536 c-28 -24 -51 -86 -31 -86 4 0 8 -5 8 -11 0 -6 -7 -9 -15
-5 -9 3 -15 0 -15 -8 0 -15 33 -85 40 -84 3 1 22 -4 43 -11 28 -9 54 -10 103
-2 78 12 112 31 119 69 4 15 12 41 20 58 7 17 10 35 7 41 -17 26 -96 54 -170
60 -73 5 -79 4 -109 -21z"/>
<path d="M3913 10293 c-30 -4 -38 -13 -34 -37 1 -4 -3 -14 -10 -22 -14 -17 25
-84 49 -84 24 -1 -23 -36 -67 -51 -30 -10 -35 -9 -45 7 -5 11 -11 24 -12 29 0
6 -2 15 -2 22 -1 6 -12 15 -24 19 -13 3 -30 13 -40 21 -13 12 -20 12 -36 2
-18 -11 -18 -16 -7 -43 7 -17 16 -47 20 -66 4 -19 15 -43 24 -54 20 -23 23
-99 2 -91 -9 4 -12 -1 -8 -15 4 -17 3 -19 -9 -9 -12 9 -12 7 -3 -19 6 -17 17
-36 25 -43 16 -13 20 -99 5 -99 -5 0 -22 5 -37 11 -36 13 -61 6 -99 -26 -97
-85 -127 -108 -190 -151 -38 -26 -81 -57 -96 -70 -14 -14 -38 -24 -55 -24 -16
-1 -65 -8 -109 -16 -44 -8 -114 -19 -156 -24 -42 -5 -86 -14 -97 -21 -46 -29
-169 -302 -216 -479 -19 -69 -52 -174 -75 -235 -23 -60 -52 -144 -65 -185 -75
-240 -156 -515 -171 -580 -10 -41 -26 -89 -37 -107 -19 -32 -19 -33 7 -175 15
-79 40 -184 56 -233 16 -50 38 -153 50 -230 24 -156 32 -202 49 -290 20 -106
22 -129 12 -187 -10 -62 -7 -72 9 -35 8 19 9 18 4 -8 -3 -16 -5 -37 -4 -45 0
-8 1 -40 1 -70 0 -42 2 -49 8 -30 7 21 8 18 10 -20 1 -25 2 -54 1 -65 -1 -11
5 -37 14 -58 8 -20 15 -39 15 -42 -1 -13 32 -65 40 -65 6 0 10 -5 10 -11 0
-22 62 -99 84 -105 13 -3 34 -17 47 -30 12 -13 28 -24 35 -24 6 0 18 -15 25
-32 7 -18 29 -55 47 -81 31 -43 35 -56 38 -128 2 -44 0 -78 -5 -75 -4 3 -6 -5
-4 -19 3 -13 -2 -34 -11 -47 -9 -13 -16 -43 -16 -70 0 -27 -9 -74 -21 -106
-12 -31 -25 -77 -30 -101 -5 -24 -13 -49 -18 -55 -4 -6 -15 -31 -24 -56 -8
-25 -43 -117 -77 -205 -74 -192 -143 -398 -200 -595 -45 -158 -91 -305 -121
-388 -34 -95 -21 -325 26 -444 14 -35 51 -304 74 -538 27 -265 61 -854 76
-1295 6 -178 16 -266 40 -373 8 -35 15 -90 15 -123 l0 -59 -237 -2 c-131 0
-716 0 -1300 1 l-1063 2 0 -305 1 -305 27 -4 27 -4 -27 -2 c-31 -1 -37 -15
-12 -25 8 -3 13 -10 10 -15 -3 -5 16 -11 43 -15 50 -7 75 -23 63 -42 -10 -16
-52 -28 -52 -15 0 20 -22 12 -27 -10 -4 -16 -11 -19 -29 -15 -19 5 -24 2 -24
-14 0 -11 5 -20 10 -20 6 0 10 -9 10 -20 0 -11 7 -20 15 -20 8 0 15 5 15 10 0
18 18 11 25 -10 7 -24 37 -26 55 -5 7 8 9 15 4 16 -5 0 2 4 14 10 27 10 42 4
42 -17 0 -11 7 -13 26 -8 19 5 25 4 20 -5 -4 -6 -3 -11 3 -11 5 0 13 5 16 10
3 6 15 10 26 10 10 0 19 -4 19 -10 0 -5 -7 -10 -15 -10 -21 0 -19 -30 3 -31 9
-1 31 -3 47 -6 17 -2 42 -4 58 -5 27 -1 27 -1 7 -15 -13 -9 -36 -13 -55 -11
-23 3 -36 -1 -40 -10 -4 -11 0 -13 17 -8 13 3 48 6 78 6 39 0 51 3 40 10 -11
7 -11 10 -2 10 7 0 10 5 7 10 -3 5 1 10 9 10 9 0 16 -4 16 -10 0 -5 7 -7 16
-3 13 5 13 8 2 15 -9 7 -7 8 7 3 11 -4 28 -7 38 -7 20 1 22 -9 5 -26 -19 -19
53 -15 80 3 20 15 21 14 16 0 -6 -13 1 -16 40 -14 52 3 60 -1 40 -19 -8 -7
-14 -8 -14 -2 0 5 -7 10 -15 10 -9 0 -12 -6 -8 -16 5 -12 18 -15 64 -12 31 1
61 0 65 -5 4 -4 -2 -7 -13 -7 -11 0 -26 -7 -33 -15 -7 -8 -18 -15 -24 -15 -6
0 -4 4 4 10 8 5 12 12 8 15 -9 10 -59 -6 -65 -21 -3 -8 -9 -14 -15 -14 -5 0
-6 5 -3 10 3 6 4 14 0 20 -8 12 -35 1 -35 -15 0 -7 -11 -16 -25 -19 -24 -6
-36 -36 -15 -36 6 0 10 5 10 10 0 6 5 10 10 10 6 0 10 -7 10 -15 0 -9 -9 -15
-25 -15 -19 0 -31 -10 -46 -35 -13 -22 -29 -35 -42 -36 -12 0 -16 -3 -10 -6
21 -8 14 -25 -7 -18 -16 5 -19 2 -18 -14 2 -11 -1 -20 -7 -21 -5 -1 -14 -5
-20 -10 -5 -4 -30 -10 -55 -11 -35 -3 -45 -1 -45 11 0 20 65 27 76 8 6 -9 9
-7 9 8 0 18 -5 20 -43 17 -23 -2 -47 -10 -53 -18 -6 -8 -18 -15 -27 -15 -9 0
-19 -5 -22 -10 -4 -6 -11 -8 -16 -5 -5 3 -6 -1 -3 -9 5 -12 -2 -15 -30 -13
-20 1 -36 6 -36 11 0 5 -7 3 -15 -4 -8 -7 -15 -18 -15 -25 0 -22 -24 -23 -42
-1 -17 21 -17 21 -11 -3 5 -20 3 -23 -11 -18 -9 4 -15 3 -11 -2 3 -5 -1 -12
-7 -14 -7 -3 9 -4 35 -4 44 2 49 4 54 30 5 27 23 38 23 15 0 -9 4 -8 10 2 8
12 10 12 11 -5 0 -11 3 -14 6 -7 2 6 10 12 16 12 7 0 7 -4 -1 -12 -7 -7 -20
-13 -30 -13 -11 0 -18 -10 -20 -28 -3 -25 -1 -27 27 -25 17 1 31 8 31 14 0 7
7 15 16 18 23 9 24 8 24 -12 0 -17 8 -19 84 -17 94 3 113 9 95 31 -7 9 -8 14
-1 14 6 0 13 -9 17 -19 4 -12 12 -18 21 -14 7 3 14 0 14 -6 0 -17 3277 -16
3283 2 4 9 7 9 18 0 9 -10 63 -13 192 -13 l180 0 -6 35 c-4 26 -2 35 9 35 8 0
14 -4 14 -10 0 -5 10 -9 23 -9 14 1 17 3 6 6 -14 3 -15 8 -5 28 7 17 17 23 29
19 9 -3 17 0 17 6 0 6 7 27 16 48 19 43 24 88 12 119 -6 17 -3 25 12 33 11 6
20 17 20 24 0 8 10 17 23 21 l22 7 -25 7 c-14 4 -25 12 -24 19 1 7 2 18 3 26
0 7 16 16 34 20 25 5 29 9 17 16 -9 6 -10 10 -3 10 20 0 43 -12 38 -20 -6 -10
31 -23 44 -16 5 4 11 0 14 -6 3 -10 7 -10 17 -1 10 9 8 14 -9 25 -11 7 -21 23
-21 35 0 24 -24 53 -44 53 -9 0 -12 9 -8 25 3 19 11 25 31 26 39 2 55 -2 63
-14 6 -9 8 -9 8 0 0 6 -9 18 -21 26 -34 24 -4 30 44 8 51 -23 168 -52 180 -44
5 3 3 -5 -4 -18 -11 -22 -11 -23 4 -10 9 7 24 10 33 7 11 -4 15 -2 11 8 -8 20
4 28 20 14 8 -6 45 -12 83 -12 38 -1 72 -5 76 -9 11 -11 44 -9 44 3 0 6 -6 10
-14 10 -14 0 -32 48 -21 58 3 3 5 0 5 -6 0 -17 19 -15 36 3 18 17 44 20 44 4
0 -6 9 -4 21 4 18 13 24 13 47 1 31 -16 56 -18 47 -4 -3 5 1 10 10 10 28 0 10
24 -26 35 -51 15 -62 24 -49 40 7 8 9 19 5 25 -3 5 -1 10 4 10 6 0 11 -7 11
-15 0 -24 51 -19 57 5 3 13 14 20 29 20 17 0 22 -4 18 -15 -5 -11 1 -15 22
-16 16 0 46 -1 67 -3 22 -2 42 2 48 11 6 7 20 13 29 13 28 0 50 11 50 24 0 14
51 46 74 46 10 0 16 9 16 26 0 24 -1 24 -22 10 -12 -9 -29 -16 -37 -16 -7 0
-24 -11 -37 -25 -13 -14 -28 -25 -34 -25 -6 0 2 14 19 31 17 17 31 35 31 40 0
5 8 9 18 9 9 0 25 7 35 14 20 15 76 7 103 -14 8 -7 17 -10 21 -6 3 3 1 6 -5 6
-7 0 -3 15 10 36 l21 35 -24 17 c-22 15 -39 32 -66 66 -7 8 -11 21 -8 28 5 17
-36 100 -52 106 -8 2 -13 -6 -13 -21 0 -14 6 -27 13 -30 7 -2 8 -8 3 -13 -5
-5 -11 -4 -13 4 -3 6 -11 12 -19 12 -10 0 -14 12 -14 40 0 32 -4 40 -18 40
-12 0 -25 14 -37 40 -11 24 -25 40 -35 40 -9 0 -27 11 -40 24 l-23 25 29 6
c76 16 79 20 17 23 -35 2 -71 -2 -82 -8 -11 -5 -42 -10 -70 -10 -27 0 -53 -5
-56 -10 -4 -6 -10 -8 -14 -6 -4 3 -13 1 -21 -5 -13 -7 -12 -9 1 -9 9 0 20 -7
23 -16 4 -10 2 -13 -7 -9 -6 4 1 -3 16 -15 22 -18 25 -25 16 -36 -12 -15 -37
-18 -63 -8 -22 8 -21 44 2 45 13 0 12 2 -5 9 -16 6 -21 14 -16 26 6 17 0 17
-84 -3 -28 -6 -30 8 -3 24 44 28 116 37 345 43 151 5 -23 7 -467 6 l-708 -1
-6 115 c-3 63 -6 124 -6 135 -1 11 22 85 50 165 28 80 69 218 91 307 23 89 63
229 90 310 53 163 93 299 145 503 19 74 51 189 71 255 20 66 42 140 49 165 7
25 29 86 49 136 42 103 55 216 39 334 l-8 65 42 46 c27 30 47 64 57 100 37
127 96 374 121 506 29 156 88 619 106 838 15 177 29 611 29 869 0 109 2 201 5
203 3 3 13 -2 22 -12 50 -50 126 -37 191 31 66 70 77 112 69 257 -10 165 -10
164 -18 173 -5 4 -8 14 -8 23 0 9 -7 30 -16 46 -18 34 -21 202 -4 219 7 7 10
5 11 -5 0 -7 5 -3 10 10 7 18 6 27 -3 33 -10 6 -10 8 0 8 6 0 12 11 12 25 0
15 21 51 55 92 30 38 55 77 55 88 0 11 -11 65 -25 120 -13 55 -34 156 -45 225
-12 69 -35 188 -51 265 -16 77 -41 194 -55 260 -14 66 -29 140 -34 165 -18 88
-91 384 -127 518 -8 31 -21 56 -31 59 -9 4 -20 12 -24 18 -4 7 -36 23 -70 36
-35 12 -77 33 -93 45 -17 13 -69 40 -116 62 -77 36 -88 44 -107 84 -12 24 -36
66 -54 93 -17 28 -39 64 -48 80 -42 75 -92 161 -100 169 -5 5 -48 14 -96 21
-100 13 -100 13 -90 -68 5 -36 3 -47 -4 -37 -8 12 -10 9 -10 -13 0 -27 -15
-66 -30 -77 -4 -3 -19 -26 -34 -53 -16 -26 -44 -61 -64 -77 -24 -19 -31 -30
-20 -30 14 0 14 -4 -3 -37 -10 -21 -19 -43 -19 -51 0 -7 -3 -11 -7 -9 -28 17
-1 -152 30 -191 14 -17 101 -275 128 -377 38 -146 39 -169 11 -258 l-25 -80
17 -74 c12 -49 16 -89 11 -122 -8 -57 5 -88 41 -101 13 -5 24 -14 24 -20 0 -6
-4 -9 -9 -6 -11 7 -41 -66 -41 -100 0 -37 16 -61 50 -72 33 -12 37 -23 15 -42
-12 -10 -28 -10 -72 -1 -50 10 -75 9 -62 -3 2 -2 38 -14 79 -27 70 -22 75 -26
75 -52 1 -16 7 -32 14 -37 11 -6 10 -13 -6 -36 -33 -48 -34 -60 -5 -86 15 -14
36 -28 46 -32 18 -6 18 -8 -6 -34 -14 -15 -31 -44 -38 -65 -11 -34 -10 -39 10
-55 13 -10 25 -36 30 -61 9 -52 10 -51 -151 -79 -63 -11 -103 -20 -90 -21 20
-1 22 -4 16 -28 -4 -16 -8 -29 -10 -31 -1 -2 -36 -5 -76 -8 -41 -3 -81 -8 -89
-11 -8 -3 -22 -7 -30 -8 -8 -1 -25 -5 -37 -9 -18 -6 -22 -4 -17 8 4 11 2 15
-8 11 -22 -9 -167 -11 -162 -3 3 5 -25 9 -63 9 l-68 2 65 7 c146 16 335 43
340 48 3 2 -24 2 -60 -2 -172 -18 -303 -27 -500 -32 l-216 -7 -2 36 c-2 20 3
39 10 44 7 4 36 33 65 64 29 31 54 52 57 45 2 -6 5 4 5 22 1 19 5 31 11 27 6
-3 10 2 10 12 0 15 2 16 10 3 8 -12 10 -11 10 8 0 13 6 22 15 22 8 0 15 4 15
9 0 5 8 12 18 15 10 4 23 18 30 34 11 26 11 26 7 2 l-5 -25 12 23 c10 20 8 25
-11 38 l-22 15 31 39 c16 21 30 48 30 60 0 42 -32 79 -82 96 -26 8 -48 20 -48
26 0 6 7 7 16 4 8 -3 12 -2 9 4 -3 6 1 10 9 10 13 0 16 12 16 54 0 31 5 58 12
62 7 5 8 3 3 -6 -5 -9 -4 -11 3 -6 7 4 12 26 11 49 0 34 -2 38 -10 22 -8 -17
-8 -16 -3 5 4 14 7 41 8 61 1 25 5 35 14 32 6 -3 12 2 12 11 0 9 7 16 15 16
10 0 15 10 16 28 0 24 1 25 9 7 6 -14 9 0 7 45 -1 46 -6 64 -14 62 -7 -1 -13
5 -13 13 0 13 3 13 20 3 15 -9 20 -25 22 -58 l1 -45 4 44 c4 39 6 42 26 37 12
-3 31 -9 43 -12 17 -4 26 2 43 31 11 20 21 43 21 51 0 18 -64 90 -99 110 l-27
16 23 71 c12 40 37 120 54 180 25 84 36 107 51 108 10 1 23 3 28 4 6 1 13 3
18 4 4 1 -1 8 -11 15 -16 12 -15 14 14 20 20 4 38 1 52 -9 25 -17 73 -20 82
-4 4 6 2 31 -5 55 -14 49 -38 67 -103 79 -31 6 -37 11 -37 32 0 44 22 113 36
113 8 0 14 5 14 11 0 6 14 31 30 56 17 24 30 51 30 59 0 7 5 14 11 14 7 0 10
22 7 65 -3 41 -1 66 6 69 7 3 6 5 -1 5 -7 1 -13 6 -13 11 0 6 27 10 61 10 55
0 64 3 90 31 31 33 39 81 17 96 -7 4 -29 14 -48 20 -19 7 -25 11 -12 9 12 -2
20 0 16 5 -3 5 -11 9 -19 9 -12 0 -11 8 3 48 9 26 20 49 25 50 4 2 7 15 7 29
0 14 7 37 15 51 8 15 25 52 39 83 18 41 33 60 55 70 31 14 32 29 2 29 -23 0
-124 41 -133 54 -3 5 -31 11 -62 14 -99 8 -78 42 38 62 l76 13 -4 31 c-2 23
-9 32 -25 34 -11 2 -21 8 -21 13 0 19 32 21 82 5 62 -20 69 -20 62 -1 -4 8
-11 15 -18 15 -6 0 -31 14 -56 30 -25 17 -62 33 -82 36 -28 5 -38 11 -38 25 0
28 19 33 29 7 9 -21 10 -20 12 12 1 19 0 42 -1 50 -2 13 1 13 16 -1 11 -9 27
-19 37 -22 14 -5 17 -1 17 23 0 27 -3 30 -30 30 -16 0 -30 4 -30 8 0 8 -48 35
-53 30 -1 0 -17 -3 -34 -5z m1145 -3411 c18 -14 37 -33 42 -43 16 -28 10 -81
-11 -114 -11 -16 -22 -38 -25 -47 -4 -10 -11 -18 -16 -18 -5 0 -6 -5 -3 -10 3
-6 -1 -18 -11 -27 -11 -11 -13 -18 -5 -21 6 -2 9 -8 5 -13 -3 -5 -2 -9 3 -8
18 3 33 -2 33 -11 0 -13 -104 -13 -128 -1 -9 5 -55 24 -102 42 -47 18 -102 43
-124 56 -47 30 -120 102 -135 134 -8 15 0 10 19 -13 36 -42 46 -46 54 -20 14
41 124 105 221 127 11 3 36 9 55 14 47 12 88 4 128 -27z m-1147 -2004 c27 -18
49 -40 49 -49 0 -9 6 -19 14 -22 9 -4 18 -36 26 -89 26 -176 -35 -692 -110
-923 -49 -152 -78 -291 -104 -510 -27 -221 -45 -342 -76 -515 -11 -58 -24
-145 -31 -195 -6 -49 -19 -149 -30 -222 -24 -168 -24 -231 2 -323 19 -70 19
-77 4 -102 -8 -15 -35 -64 -59 -109 -33 -61 -45 -77 -50 -63 -24 79 -58 294
-66 419 -11 184 -24 295 -50 445 -11 63 -29 180 -40 260 -26 187 -55 324 -90
430 -16 47 -36 120 -45 163 -15 71 -15 86 0 170 9 51 18 151 22 222 4 95 10
142 24 174 12 28 19 67 19 110 0 50 6 79 26 121 14 30 44 112 65 183 21 70 50
153 65 185 55 120 78 162 97 179 11 10 18 13 14 8 -3 -6 -2 -17 4 -25 6 -11 9
-12 9 -2 0 7 13 27 30 45 16 18 30 26 30 19 0 -7 5 -10 10 -7 6 4 8 16 4 28
-6 20 -6 20 10 4 10 -9 21 -17 25 -17 4 0 13 -11 19 -24 10 -22 52 -43 52 -27
0 14 60 91 71 91 5 0 32 -15 60 -32z m38 -3744 c32 -5 45 -3 52 7 7 11 9 10 9
-3 0 -12 8 -18 23 -18 17 0 19 2 7 10 -8 5 -12 11 -10 14 9 8 47 -30 65 -64
10 -19 38 -87 62 -150 110 -286 115 -304 98 -397 l-8 -42 -45 50 c-25 28 -67
62 -95 76 -34 17 -46 27 -37 33 7 4 11 13 8 20 -3 9 -8 8 -20 -4 -10 -9 -24
-13 -33 -10 -13 6 -14 8 -3 15 10 7 8 9 -7 10 -89 8 -102 15 -130 77 -14 31
-30 59 -36 63 -24 14 -28 240 -5 277 5 8 0 12 -13 12 -12 0 -21 4 -21 10 0 17
34 30 65 25 17 -2 50 -7 74 -11z m-774 -343 c-3 -11 -15 -23 -26 -26 -10 -4
-19 -13 -19 -21 0 -8 -4 -14 -9 -14 -6 0 -22 -22 -36 -48 -25 -46 -28 -48 -72
-51 -25 -1 -52 -9 -60 -17 -8 -7 -18 -14 -23 -14 -14 0 -22 38 -11 58 14 26 3
62 -20 62 -13 0 -17 -5 -13 -17 3 -10 -1 -7 -9 6 -15 25 -12 57 6 68 6 3 7 1
3 -6 -5 -8 3 -10 31 -6 21 3 48 7 61 9 13 1 27 8 32 16 5 8 18 11 39 7 20 -4
31 -3 31 5 0 7 6 4 13 -6 13 -17 14 -17 30 -1 9 9 21 14 26 10 5 -3 13 0 16 6
11 16 18 3 10 -20z m-270 -211 c11 -19 -71 -129 -97 -131 -10 0 -10 -2 0 -6
15 -6 -36 -63 -56 -63 -7 0 -11 -4 -8 -9 7 -11 -62 -31 -107 -31 -28 0 -35 3
-31 15 4 8 1 15 -5 15 -6 0 -11 7 -11 15 0 8 -9 19 -19 25 -20 10 -20 11 2 45
18 28 28 35 52 33 32 -1 95 21 95 34 0 4 13 8 29 8 18 0 41 10 56 24 15 14 39
27 53 29 15 2 30 5 34 6 4 0 10 -4 13 -9z"/>
</g>
</svg>
