<?xml version="1.0" standalone="no"?>
<!DOCTYPE svg PUBLIC "-//W3C//DTD SVG 20010904//EN"
 "http://www.w3.org/TR/2001/REC-SVG-20010904/DTD/svg10.dtd">
<svg version="1.0" xmlns="http://www.w3.org/2000/svg"
 width="750.000000pt" height="1125.000000pt" viewBox="0 0 750.000000 1125.000000"
 preserveAspectRatio="xMidYMid meet">
<metadata>
Created by potrace 1.16, written by Peter Selinger 2001-2019
</metadata>
<g transform="translate(0.000000,1125.000000) scale(0.100000,-0.100000)"
fill="#000000" stroke="none">
<path d="M5955 7028 c-104 -52 -308 -194 -400 -279 -27 -25 -88 -81 -135 -124
-47 -43 -99 -99 -117 -124 -17 -26 -59 -72 -93 -104 -37 -35 -60 -64 -56 -72
3 -9 0 -12 -8 -9 -7 3 -17 -6 -24 -20 -10 -23 -10 -24 18 -16 32 9 44 1 34
-24 -4 -9 -1 -16 6 -16 6 0 14 9 17 20 3 11 9 17 14 14 5 -3 9 -1 9 5 0 5 -4
13 -10 16 -16 10 -12 35 5 29 8 -4 15 -1 15 5 0 10 -14 15 -34 12 -5 -1 -4 5
4 13 14 17 35 22 25 6 -3 -5 0 -10 8 -10 17 0 113 88 110 100 -2 5 4 7 11 4
15 -6 32 29 27 59 -1 9 3 17 8 17 6 0 11 8 11 17 0 15 -2 15 -18 -3 -10 -10
-29 -35 -42 -54 -26 -37 -102 -111 -108 -105 -2 1 12 18 30 36 19 19 53 60 77
92 24 31 47 57 51 57 4 0 52 42 107 93 117 109 228 200 327 266 81 55 165 101
183 101 7 0 13 5 13 10 0 14 -19 11 -65 -12z"/>
<path d="M6355 6443 c-17 -53 -32 -88 -98 -238 -12 -27 -104 -215 -204 -418
-101 -202 -183 -370 -183 -372 0 -3 -15 -37 -34 -77 -42 -92 -247 -546 -314
-698 -28 -63 -67 -147 -86 -187 -19 -40 -67 -148 -107 -240 -162 -381 -229
-507 -359 -678 -85 -111 -138 -166 -208 -213 -117 -80 -199 -121 -320 -162
-87 -29 -100 -31 -185 -25 -72 6 -98 4 -120 -8 -34 -18 -28 -22 43 -32 30 -4
64 -9 75 -12 64 -14 221 4 249 29 6 4 18 8 27 8 9 0 19 6 22 14 3 8 16 13 31
12 15 -2 27 3 31 12 3 8 8 12 11 9 4 -3 15 3 27 14 11 10 27 19 34 19 7 0 13
5 13 10 0 6 7 10 16 10 8 0 12 4 9 10 -3 5 5 15 19 21 14 7 23 16 20 20 -3 5
1 9 9 9 33 0 205 167 267 261 22 33 40 63 40 67 0 4 14 27 30 50 40 60 129
235 180 357 23 55 47 106 52 113 6 6 7 12 3 12 -4 0 0 11 9 25 9 13 16 29 16
34 0 5 14 39 30 74 17 36 30 68 30 71 0 2 20 48 45 100 25 53 45 98 45 101 0
2 20 48 45 101 25 53 45 101 45 108 0 7 4 16 9 22 5 5 27 50 49 99 22 50 83
178 136 286 53 108 96 201 96 207 0 6 3 12 8 14 4 2 85 158 179 348 169 338
198 408 263 638 34 120 37 172 5 75z"/>
<path d="M3373 6358 c-121 -151 -236 -346 -423 -718 -88 -176 -234 -454 -250
-475 -4 -5 -31 -55 -59 -110 -28 -55 -69 -119 -91 -142 -21 -24 -37 -43 -34
-43 11 0 93 61 124 92 38 38 56 65 150 233 174 311 310 583 315 629 2 20 8 42
13 49 12 14 34 67 28 67 -2 0 -13 -17 -24 -37 -10 -21 -30 -56 -42 -78 -13
-22 -45 -84 -72 -138 -28 -54 -52 -96 -54 -94 -6 6 153 322 223 445 54 94 163
259 229 345 57 74 32 55 -33 -25z"/>
<path d="M4705 6176 c-117 -56 -183 -118 -147 -140 10 -6 21 0 157 82 106 64
128 82 101 82 -8 0 -16 4 -18 9 -1 5 -43 -10 -93 -33z"/>
<path d="M4171 6062 c-67 -88 -268 -391 -330 -497 -63 -108 -179 -347 -286
-590 -187 -425 -315 -626 -487 -761 -113 -88 -119 -101 -10 -22 28 21 52 34
52 29 0 -6 -16 -21 -35 -34 -19 -13 -32 -27 -27 -32 4 -5 2 -6 -4 -2 -5 3 -23
-5 -40 -18 -20 -17 -24 -24 -13 -25 9 0 22 7 29 15 7 8 16 13 20 10 8 -5 93
88 92 101 0 5 21 32 47 59 90 96 174 222 260 392 54 107 141 291 141 299 0 12
168 371 215 459 86 162 241 407 341 536 43 56 107 159 99 159 -2 0 -31 -35
-64 -78z"/>
<path d="M4952 6028 c-23 -29 -117 -196 -169 -301 -103 -207 -211 -381 -370
-592 -451 -599 -641 -814 -903 -1022 -41 -33 -82 -68 -90 -78 -14 -18 -14 -18
15 0 17 11 43 32 59 47 16 15 34 25 39 21 6 -3 7 -1 4 4 -4 6 4 18 18 27 29
19 39 20 29 4 -4 -7 -3 -8 5 -4 6 4 9 11 6 16 -6 10 22 33 33 26 27 -16 293
238 423 405 35 45 84 107 108 137 24 30 39 53 33 51 -5 -2 -42 -44 -83 -94
-40 -49 -85 -103 -99 -120 -15 -16 -61 -68 -102 -115 -72 -82 -253 -250 -270
-250 -4 0 47 53 113 118 132 127 231 242 469 545 333 424 398 515 525 729 45
75 92 149 104 165 20 25 56 78 93 138 7 11 21 32 31 47 23 35 22 58 -3 58 -17
0 -18 4 -10 25 10 27 8 32 -8 13z"/>
<path d="M6678 5761 c-1 -5 -23 -18 -47 -30 -35 -16 -47 -18 -53 -9 -5 10 -8
10 -8 1 0 -12 -31 -26 -60 -29 -23 -1 -80 -27 -80 -36 0 -4 -5 -8 -10 -8 -6 0
-20 -8 -30 -18 -34 -32 -152 -92 -180 -92 -45 0 -77 -36 -135 -151 -59 -118
-62 -124 -42 -112 6 4 18 8 24 9 7 1 20 9 29 18 8 9 21 16 28 16 7 0 26 12 42
26 16 14 39 32 52 41 12 8 22 22 22 29 0 8 5 14 10 14 6 0 10 7 10 16 0 18 25
46 33 38 3 -4 11 -3 17 1 9 6 9 10 -1 17 -11 7 -11 8 1 7 44 -7 189 55 245
103 88 77 164 158 147 158 -6 0 -12 -4 -14 -9z"/>
<path d="M5876 5671 c-21 -17 -42 -31 -45 -31 -12 0 -88 -75 -95 -93 -3 -11
-15 -21 -25 -24 -11 -3 -22 -12 -25 -21 -4 -10 -13 -29 -21 -44 -17 -29 -11
-55 13 -61 15 -4 15 -5 0 -6 -29 -2 -20 -21 12 -28 17 -3 33 -10 36 -14 9 -15
37 -10 31 6 -5 11 -1 12 20 4 14 -5 27 -8 29 -7 5 6 144 293 144 298 0 3 -8
15 -18 28 l-18 23 -38 -30z"/>
<path d="M4750 5543 c-93 -153 -161 -256 -225 -338 -34 -44 -97 -127 -140
-185 -44 -58 -82 -107 -85 -110 -13 -11 -70 -88 -70 -95 0 -3 27 27 59 67 91
111 105 125 121 121 13 -4 13 -3 0 6 -13 9 -12 12 5 17 11 3 36 26 55 51 19
24 47 59 62 76 15 18 28 38 28 45 0 6 4 12 8 12 4 0 17 14 27 31 11 17 28 43
37 58 9 14 29 50 44 79 15 28 31 52 36 52 4 0 8 9 8 19 0 11 6 26 13 33 10 11
28 43 75 141 2 4 1 7 -1 7 -2 0 -28 -39 -57 -87z"/>
<path d="M6595 5466 c-61 -61 -155 -151 -210 -200 -231 -206 -479 -477 -535
-586 -7 -14 -25 -41 -40 -60 -48 -63 -65 -99 -53 -111 8 -8 16 -3 29 22 30 59
140 221 211 309 37 47 135 150 217 230 426 412 507 494 494 505 -2 1 -53 -47
-113 -109z"/>
<path d="M6545 5283 c-55 -59 -113 -123 -128 -142 -16 -20 -61 -70 -101 -111
-153 -159 -346 -428 -435 -607 -38 -76 -28 -84 13 -10 16 28 48 81 71 117 23
36 57 91 76 123 55 94 194 275 282 368 164 173 337 369 325 369 -2 0 -48 -48
-103 -107z"/>
<path d="M4735 4619 c-16 -5 -51 -6 -77 -3 -48 7 -48 6 -64 -31 -8 -20 -13
-43 -10 -50 7 -20 92 -28 147 -15 60 15 73 34 51 76 -15 28 -20 30 -47 23z"/>
<path d="M2519 4156 c12 -14 12 -19 1 -26 -30 -18 120 -81 194 -81 11 0 29 -5
40 -11 19 -10 20 -10 7 5 -9 11 -10 17 -2 17 6 0 11 6 11 14 0 9 19 15 59 19
55 6 147 35 138 43 -2 2 -23 -3 -47 -11 -66 -23 -174 -19 -271 11 -46 14 -97
28 -114 31 -27 6 -29 5 -16 -11z"/>
<path d="M5597 4142 c-4 -6 -14 -9 -22 -6 -9 4 -19 -6 -28 -28 -27 -65 -99
-280 -104 -311 -4 -27 -3 -29 10 -19 8 7 18 25 22 39 5 20 9 23 15 14 6 -11
10 -9 18 6 20 36 103 294 100 305 -3 9 -6 9 -11 0z"/>
<path d="M5417 4007 c-41 -104 -118 -390 -116 -435 1 -26 1 -26 8 4 9 35 51
114 62 114 4 0 10 8 14 18 6 15 42 146 50 182 2 8 11 35 19 59 20 53 20 88 1
46 -8 -16 -14 -23 -14 -15 0 20 27 79 28 62 1 -16 21 -6 21 10 0 6 -3 8 -6 5
-4 -3 -15 -2 -24 3 -16 8 -22 1 -43 -53z"/>
<path d="M2430 4026 c-5 -14 -18 -34 -28 -44 -10 -10 -45 -61 -77 -113 -32
-52 -72 -114 -90 -139 -38 -53 -156 -240 -151 -240 2 0 18 6 36 14 27 11 41
11 81 1 49 -13 49 -13 70 16 12 17 18 33 15 37 -4 3 -10 2 -14 -4 -8 -13 -42
-14 -42 -2 0 4 -7 8 -16 8 -8 0 -13 4 -9 9 3 5 1 12 -5 16 -5 3 -10 2 -10 -3
0 -5 -9 -12 -20 -15 -22 -6 -20 -1 14 46 11 15 28 27 38 27 10 0 18 5 18 10 0
6 5 10 12 10 6 0 9 -3 5 -6 -3 -4 0 -19 8 -34 12 -24 12 -29 -3 -43 -11 -12
-12 -17 -4 -17 19 0 69 58 82 94 27 72 47 115 86 184 41 71 90 189 83 196 -2
2 -19 7 -36 11 -29 6 -34 4 -43 -19z"/>
<path d="M2633 3928 c-18 -46 -66 -159 -106 -253 l-73 -170 -85 -19 c-104 -23
-113 -25 -108 -31 4 -3 90 11 179 31 19 4 63 6 96 5 45 -1 63 2 67 13 3 8 28
17 59 21 56 8 125 32 116 40 -3 3 -16 1 -30 -4 -46 -17 -132 -22 -187 -9 -46
11 -52 15 -39 26 13 10 18 10 29 0 16 -15 82 -21 73 -7 -3 5 -1 9 4 9 5 0 16
26 25 57 16 61 14 87 -3 37 -8 -22 -17 -29 -40 -31 -17 -1 -30 2 -30 7 0 21
-30 9 -45 -17 -43 -75 -1 26 121 295 22 46 36 40 30 -13 -6 -57 18 -63 33 -7
6 20 17 47 26 59 18 25 12 30 -41 38 l-39 6 -32 -83z"/>
<path d="M2125 3907 c-36 -35 -102 -70 -115 -62 -6 4 -17 -1 -26 -10 -9 -9
-23 -14 -32 -10 -17 6 -33 -10 -191 -193 -123 -143 -138 -166 -97 -139 21 14
48 19 111 19 l83 1 63 86 c164 225 240 333 237 335 -2 2 -16 -10 -33 -27z"/>
<path d="M6030 3890 c0 -5 -12 -22 -26 -39 -25 -30 -25 -33 -10 -56 33 -50
139 -79 209 -56 54 18 62 33 47 85 l-12 44 -57 -5 c-45 -4 -68 -1 -104 15 -26
12 -47 17 -47 12z"/>
<path d="M1519 3689 c-43 -37 -58 -41 -214 -54 -60 -5 -94 -12 -102 -22 -6 -8
-17 -12 -23 -8 -6 4 -17 1 -25 -5 -8 -7 -22 -10 -30 -6 -8 3 -15 0 -15 -5 0
-7 -11 -9 -25 -7 -14 3 -25 2 -25 -3 0 -4 -15 -11 -32 -14 -18 -4 -39 -12 -45
-17 -7 -6 -13 -8 -13 -5 0 13 -262 -81 -384 -137 -123 -57 -196 -109 -196
-142 0 -2 15 -4 33 -4 31 0 91 16 277 74 98 31 100 31 160 41 25 4 63 14 85
22 34 12 140 28 250 37 31 3 41 6 110 36 32 14 129 104 254 236 14 15 -20 0
-40 -17z"/>
<path d="M2363 3426 c-21 -22 -68 -36 -124 -36 -15 0 -38 -9 -52 -20 -17 -14
-47 -21 -98 -26 -41 -3 -87 -10 -103 -15 -41 -13 -42 -6 -4 31 37 37 23 57
-15 22 -23 -21 -148 -52 -210 -52 -18 0 -38 -5 -45 -12 -7 -7 -63 -17 -125
-24 -61 -6 -120 -15 -129 -19 -30 -12 -20 8 17 35 19 14 30 29 25 34 -5 5 -23
-2 -41 -15 -26 -18 -54 -25 -149 -34 -87 -8 -124 -16 -145 -30 -64 -46 -81
-55 -94 -50 -7 3 -101 -5 -210 -16 -108 -12 -265 -22 -348 -23 -104 -1 -153
-5 -153 -12 0 -14 156 -26 264 -19 234 14 306 15 306 5 0 -5 -6 -10 -14 -10
-20 0 -98 -77 -86 -85 12 -7 329 13 385 24 22 5 83 14 135 20 52 5 194 22 315
37 121 15 258 31 305 36 47 5 152 20 235 33 82 14 158 25 168 25 27 0 245 194
223 198 -10 2 -25 -3 -35 -12 -9 -8 -37 -18 -61 -21 -25 -3 -65 -8 -89 -11
-48 -7 -49 -2 -8 44 20 21 20 22 1 22 -10 0 -29 -11 -41 -24z"/>
<path d="M4352 3052 c-13 -2 -21 -9 -19 -15 2 -7 12 -10 22 -9 16 3 17 1 6
-12 -8 -9 -22 -16 -32 -16 -27 0 -35 -24 -49 -145 -7 -60 -26 -162 -42 -225
-27 -103 -47 -160 -48 -136 0 11 -30 -14 -30 -25 0 -5 8 -9 19 -9 13 0 26 18
46 63 33 73 52 98 71 90 8 -3 21 0 29 7 12 10 15 9 15 -4 0 -27 20 -18 35 17
19 45 45 229 45 316 0 63 -2 71 -19 71 -11 0 -21 8 -23 18 -2 11 -10 16 -26
14z"/>
<path d="M3880 3009 c-18 -29 -26 -36 -32 -25 -6 11 -13 12 -33 3 -14 -7 -25
-15 -25 -19 0 -5 -4 -8 -10 -8 -5 0 -7 8 -3 18 3 9 -11 -4 -33 -30 -46 -55
-165 -240 -273 -423 -42 -71 -80 -129 -86 -129 -5 1 -19 -5 -30 -12 -11 -8
-28 -14 -38 -14 -10 0 -16 -4 -13 -9 3 -5 19 -8 35 -7 32 2 31 -4 -2 -41 -11
-13 -30 -23 -41 -23 -11 0 -34 -13 -51 -29 -31 -30 -110 -51 -188 -51 -22 0
-54 -8 -71 -19 -21 -12 -67 -22 -141 -29 -60 -6 -132 -19 -158 -28 -56 -19
-75 -12 -26 9 60 25 169 120 265 230 28 31 51 48 70 51 16 2 46 11 66 20 28
12 44 13 64 6 38 -15 55 -6 87 42 15 24 42 64 60 90 35 51 87 134 189 298 82
134 80 130 74 130 -2 0 -23 -29 -45 -64 -56 -89 -99 -136 -125 -136 -17 0 -18
-2 -6 -10 18 -12 5 -13 -18 -2 -10 5 -33 4 -57 -4 -22 -7 -33 -13 -25 -13 13
-1 13 -2 0 -11 -8 -5 -22 -10 -30 -10 -13 0 -13 1 0 10 13 9 13 10 0 9 -8 0
-28 -17 -45 -39 -16 -21 -85 -110 -152 -197 -68 -87 -131 -167 -140 -178 -28
-32 -115 -55 -207 -55 -44 0 -96 -4 -114 -9 -24 -7 -31 -7 -26 2 4 7 -12 -6
-34 -27 -23 -22 -39 -43 -35 -49 3 -5 8 -5 12 2 4 6 18 14 32 16 13 3 56 12
94 20 39 8 79 15 90 15 11 0 29 1 40 1 11 0 30 -1 41 -2 20 -3 21 -5 7 -26
-10 -15 -25 -23 -43 -23 -26 0 -66 -24 -100 -61 -20 -21 -94 -37 -216 -47 -95
-8 -104 -11 -135 -40 -27 -25 -43 -32 -76 -32 -23 0 -120 -11 -215 -25 -360
-51 -415 -55 -537 -45 -62 6 -117 13 -122 16 -23 14 -6 -28 17 -43 23 -14 52
-17 208 -16 99 0 170 -2 156 -4 -23 -5 -24 -6 -5 -14 17 -6 17 -8 3 -8 -19 -1
-58 -35 -58 -51 0 -20 58 -23 179 -7 387 50 518 70 631 96 69 16 154 32 190
36 36 3 157 21 270 40 113 18 239 36 280 40 41 4 116 13 165 21 50 7 181 27
291 44 111 16 223 34 248 40 25 5 79 15 118 20 162 23 581 129 723 183 72 27
205 93 246 121 9 6 51 44 95 85 l79 73 -55 -34 c-172 -107 -429 -194 -691
-234 -57 -9 -112 -20 -122 -25 -21 -11 -189 -40 -195 -34 -2 2 6 18 18 35 32
45 19 61 -18 22 -30 -33 -105 -62 -158 -62 -11 0 -28 -8 -38 -19 -12 -13 -37
-20 -94 -24 -42 -3 -88 -9 -102 -13 -23 -7 -22 -4 13 34 20 23 37 44 37 47 0
14 -28 2 -55 -23 -35 -32 -115 -62 -164 -62 -21 0 -43 -8 -57 -21 -17 -16 -42
-22 -120 -29 -55 -5 -111 -12 -126 -16 -24 -5 -17 4 43 67 39 41 94 107 122
148 47 66 107 115 142 116 6 0 14 5 18 10 5 6 6 -2 3 -17 -6 -25 -4 -28 22
-28 36 0 50 16 100 115 56 113 203 437 200 440 -2 2 -14 -15 -28 -36z"/>
<path d="M4072 3017 c-5 -6 -26 -61 -47 -122 -39 -112 -90 -241 -152 -376 -30
-66 -39 -77 -71 -89 -36 -13 -36 -14 -12 -21 28 -7 42 5 98 85 23 34 38 46 49
42 9 -4 25 4 41 19 29 29 47 33 38 8 -4 -11 2 -8 13 7 23 29 141 395 141 437
0 5 -10 10 -22 10 -13 1 -33 5 -44 7 -12 3 -26 0 -32 -7z"/>
<path d="M2959 2831 c-6 -16 -240 -261 -250 -261 -5 0 -18 -9 -29 -20 -11 -11
-33 -20 -50 -20 -16 0 -30 -4 -30 -9 0 -9 -120 -22 -228 -24 -33 -1 -58 -6
-55 -10 3 -5 -5 -6 -17 -2 -17 5 -20 4 -15 -5 6 -10 1 -12 -19 -8 -14 3 -29 1
-32 -4 -3 -5 -13 -7 -21 -3 -14 5 -14 3 -2 -11 13 -16 12 -16 -10 -5 -13 7
-21 8 -17 3 7 -12 -29 -26 -44 -17 -5 3 -17 1 -27 -4 -10 -5 -47 -17 -83 -26
-36 -10 -70 -21 -76 -26 -7 -6 -16 -9 -20 -8 -25 4 -54 -2 -49 -11 4 -6 -7
-10 -25 -10 -18 0 -29 -4 -25 -10 4 -6 -7 -11 -24 -11 -17 -1 -34 -2 -38 -3
-5 -1 -24 -5 -45 -9 -20 -4 -39 -15 -43 -24 -5 -14 -8 -15 -14 -4 -7 10 -23 6
-77 -20 -38 -19 -70 -37 -72 -41 -2 -5 -8 -8 -13 -8 -15 0 -116 -77 -133 -102
-27 -38 -21 -57 17 -52 17 2 64 8 103 13 43 5 96 21 135 39 107 51 396 123
520 130 73 4 91 1 127 -17 67 -34 130 -25 186 27 15 15 62 68 104 117 67 79
236 271 252 285 31 29 151 172 147 176 -3 3 -7 1 -8 -5z"/>
</g>
</svg>
