<?xml version="1.0" standalone="no"?>
<!DOCTYPE svg PUBLIC "-//W3C//DTD SVG 20010904//EN"
 "http://www.w3.org/TR/2001/REC-SVG-20010904/DTD/svg10.dtd">
<svg version="1.0" xmlns="http://www.w3.org/2000/svg"
 width="750.000000pt" height="1125.000000pt" viewBox="0 0 750.000000 1125.000000"
 preserveAspectRatio="xMidYMid meet">
<metadata>
Created by potrace 1.16, written by Peter Selinger 2001-2019
</metadata>
<g transform="translate(0.000000,1125.000000) scale(0.100000,-0.100000)"
fill="#000000" stroke="none">
<path d="M4732 5789 c-13 -5 -53 -26 -90 -48 -88 -50 -153 -86 -289 -156 -62
-32 -113 -62 -113 -67 0 -4 -7 -8 -15 -8 -9 0 -21 -5 -28 -10 -7 -6 -28 -24
-47 -40 -19 -16 -38 -30 -42 -30 -22 0 -90 -85 -141 -177 -28 -49 -33 -64 -22
-73 9 -8 14 -5 19 12 7 22 7 22 16 3 6 -15 9 -16 9 -4 1 16 95 119 109 119 4
0 21 14 39 30 18 17 36 30 42 30 5 0 11 4 13 9 4 11 48 25 48 14 0 -4 -16 -18
-35 -31 -19 -12 -35 -27 -35 -33 0 -5 -4 -7 -10 -4 -5 3 -10 2 -10 -3 0 -5
-30 -33 -66 -62 -37 -30 -61 -56 -55 -58 27 -9 49 -123 52 -264 1 -49 5 -88 9
-88 28 0 155 185 186 271 14 41 44 107 65 147 44 82 49 112 19 112 -29 0 -24
28 8 43 15 6 30 16 34 22 4 5 8 6 8 1 0 -4 15 5 34 22 19 17 44 33 56 37 12 4
30 15 40 25 10 10 24 20 31 22 8 3 11 8 8 11 -6 8 -69 -14 -69 -24 0 -4 -13
-10 -30 -14 -16 -4 -32 -11 -35 -16 -4 -5 -15 -9 -26 -9 -10 0 -19 -4 -19 -10
0 -5 -10 -10 -22 -10 -22 1 -22 1 -3 12 11 7 26 17 32 24 7 7 26 18 43 26 16
7 30 17 30 23 0 10 45 35 62 35 5 0 22 14 38 30 16 17 36 30 45 30 8 0 15 5
15 10 0 6 7 10 15 10 8 0 15 7 15 15 0 8 9 15 20 15 11 0 20 5 20 11 0 5 5 7
10 4 6 -3 10 -1 10 4 0 6 11 21 25 33 40 35 29 48 -23 27z"/>
<path d="M6570 5333 c-8 -3 -17 -9 -20 -12 -3 -3 -32 -28 -65 -55 -62 -51
-295 -283 -330 -329 -117 -154 -120 -157 -133 -139 -11 15 -10 17 7 20 26 4
27 19 4 25 -14 4 -12 5 5 6 23 1 28 26 13 66 -8 17 -11 15 -26 -22 -9 -24 -20
-41 -24 -39 -3 2 -7 -13 -7 -35 -1 -21 2 -36 6 -34 4 3 13 -2 19 -9 8 -9 8
-17 2 -20 -5 -3 -12 0 -14 6 -3 7 -6 1 -6 -13 -1 -15 -8 -32 -16 -39 -8 -7
-13 -16 -10 -20 3 -5 -2 -16 -11 -25 -21 -20 -30 -96 -15 -121 9 -17 10 -17
11 -1 0 9 5 17 10 17 6 0 10 -5 10 -11 0 -5 4 -8 8 -5 4 3 9 -11 9 -30 1 -19
-3 -37 -8 -40 -5 -3 -7 -10 -4 -15 4 -5 -4 -9 -17 -9 -17 0 -19 -3 -9 -9 14
-9 8 -60 -8 -71 -11 -7 -20 -99 -11 -105 4 -3 11 7 14 23 12 48 168 354 231
452 82 127 78 121 63 115 -7 -3 -29 -30 -48 -60 -19 -31 -45 -62 -57 -71 -30
-19 -29 -6 2 30 29 34 28 31 14 58 -6 11 -8 22 -5 25 3 3 9 -4 14 -17 7 -20
10 -21 15 -7 4 10 2 17 -3 17 -6 0 -10 5 -10 10 0 6 8 10 18 8 12 -2 18 5 20
22 2 14 8 29 13 34 13 14 11 39 -3 30 -7 -4 -8 -3 -4 5 4 6 11 9 16 6 4 -3 10
5 14 18 3 12 18 37 33 56 32 38 208 216 250 252 29 26 69 70 62 68 -2 0 -11
-3 -19 -6z"/>
<path d="M5285 5053 c-10 -15 -19 -38 -20 -52 -3 -39 -4 -41 -20 -35 -8 4 -15
1 -15 -5 0 -6 5 -11 10 -11 6 0 10 -5 10 -11 0 -6 -7 -8 -16 -5 -8 3 -12 2 -9
-4 3 -5 -3 -17 -15 -27 -20 -17 -28 -39 -11 -28 6 3 9 -3 8 -14 -1 -14 -5 -17
-13 -10 -8 7 -15 6 -20 -2 -4 -8 -3 -9 4 -5 8 5 12 -1 12 -14 0 -16 -4 -20
-16 -16 -11 4 -15 2 -11 -8 3 -8 2 -27 -3 -43 -8 -27 -8 -27 -9 -4 -1 19 -8
11 -33 -37 -26 -50 -30 -65 -19 -71 9 -6 10 -11 2 -15 -6 -4 -11 -2 -11 4 0 6
-5 8 -11 4 -6 -3 -9 -15 -6 -25 3 -11 2 -17 -3 -14 -4 3 -16 -12 -25 -33 -129
-281 -241 -461 -364 -582 -110 -108 -166 -150 -284 -210 -25 -13 -26 -15 -10
-21 21 -9 236 1 243 11 3 3 24 14 47 23 31 12 43 13 46 4 3 -8 11 -4 22 11 9
12 26 22 38 21 l22 0 -22 -9 c-13 -5 -23 -12 -23 -14 0 -16 46 15 48 32 4 24
32 36 61 27 19 -6 61 24 61 43 0 4 6 7 13 7 6 0 18 13 26 28 8 15 16 25 19 22
3 -2 11 3 18 13 12 15 15 15 24 2 8 -13 10 -13 10 3 0 11 8 17 21 17 17 0 19
3 10 13 -14 17 -4 27 27 27 19 0 23 4 19 20 -3 11 1 27 9 34 8 8 14 19 14 24
0 5 9 17 20 27 11 10 20 24 20 31 0 7 7 20 16 28 8 9 11 16 5 16 -6 0 -11 5
-11 11 0 5 4 8 9 5 5 -3 14 1 21 9 7 8 9 15 5 15 -4 0 -2 6 4 13 6 8 9 16 6
19 -3 2 4 22 15 43 11 22 20 51 20 65 0 14 7 58 15 99 12 56 13 76 4 87 -9 11
-9 17 1 29 16 19 13 286 -4 313 -3 6 0 12 6 15 10 3 11 9 1 26 -18 29 -16 61
4 83 9 10 14 20 11 23 -3 3 -13 -7 -23 -22z"/>
<path d="M4199 4893 c-91 -122 -99 -138 -105 -215 -9 -110 -32 -242 -58 -324
-24 -75 -24 -84 3 -84 9 0 22 -9 29 -20 10 -16 23 -20 65 -20 28 0 70 5 92 10
22 6 73 14 113 19 40 5 75 11 78 14 4 4 -12 39 -46 97 -4 8 -18 40 -30 70 -12
30 -28 69 -36 85 -31 68 -60 229 -66 363 l-3 53 -36 -48z"/>
<path d="M5670 4594 c-7 -19 -18 -38 -25 -40 -7 -3 -16 -16 -19 -30 -4 -13
-11 -24 -16 -24 -6 0 -10 -5 -10 -11 0 -19 -27 -38 -47 -33 -17 5 -20 2 -16
-18 3 -16 -4 -32 -26 -53 -37 -36 -38 -45 -8 -46 17 -1 15 -3 -9 -10 -23 -6
-34 -17 -39 -37 -3 -15 -13 -34 -22 -44 -8 -9 -16 -23 -17 -32 -1 -9 -12 -26
-24 -39 -13 -13 -24 -38 -25 -54 -1 -17 -5 -29 -9 -26 -5 2 -8 -5 -8 -16 0
-12 -7 -21 -14 -21 -8 0 -21 -12 -29 -27 -7 -16 -19 -27 -26 -25 -7 1 -11 -3
-9 -10 3 -7 -5 -21 -17 -33 -12 -11 -27 -30 -34 -43 -7 -12 -16 -20 -20 -18
-4 3 -6 -5 -4 -18 4 -17 -1 -25 -16 -29 -12 -3 -24 -13 -28 -24 -3 -10 -10
-20 -14 -23 -13 -9 -14 -91 -1 -99 7 -4 10 -15 6 -26 -5 -13 -3 -16 7 -11 8 3
22 9 32 12 9 4 17 11 17 16 0 5 5 6 10 3 6 -3 10 -15 10 -26 0 -13 -7 -19 -24
-19 -19 0 -23 -4 -19 -20 5 -17 0 -20 -31 -20 -34 0 -35 -1 -26 -25 7 -19 6
-25 -4 -25 -8 0 -17 8 -21 18 -6 15 -7 16 -18 1 -7 -9 -23 -19 -37 -22 -14 -4
-19 -4 -12 -1 6 3 12 10 12 15 0 6 -5 7 -10 4 -6 -4 -17 -2 -24 4 -9 7 -17 5
-29 -9 -16 -19 -16 -20 9 -20 30 0 28 -23 -2 -29 -23 -4 -43 -31 -37 -47 2 -7
-3 -23 -11 -37 -9 -13 -14 -31 -11 -40 9 -23 -8 -28 -72 -19 -32 4 -77 5 -100
2 -24 -4 -48 -3 -55 2 -9 5 -7 8 6 8 11 0 17 3 13 6 -3 4 -19 2 -34 -3 -27
-10 -83 -6 -175 12 -24 4 -38 3 -38 -3 0 -5 15 -13 33 -16 50 -9 68 -13 122
-26 28 -7 82 -18 120 -25 124 -22 279 -56 323 -71 24 -8 47 -12 51 -10 4 3 29
-1 56 -8 51 -12 51 -15 0 -41 -11 -6 -21 -21 -23 -34 -3 -21 -1 -22 29 -16 18
4 41 16 53 26 11 11 26 19 33 19 7 0 13 5 13 12 0 6 9 30 20 52 37 79 170 453
170 482 0 12 7 25 16 28 13 5 14 9 4 22 -10 11 -10 18 -2 26 7 7 12 22 12 35
0 13 5 23 11 23 6 0 9 9 6 20 -3 12 -1 35 5 53 17 54 29 101 34 132 3 17 9 39
13 50 14 31 41 116 50 155 8 34 21 65 83 200 55 119 54 112 6 124 -24 5 -28 2
-38 -30z"/>
<path d="M5433 4613 c-7 -2 -13 -13 -13 -24 0 -12 -10 -23 -25 -29 -26 -10
-33 -26 -13 -32 7 -3 9 -11 4 -24 -6 -12 -10 -15 -13 -6 -8 22 -18 13 -18 -17
0 -31 20 -58 30 -41 3 6 1 10 -4 10 -6 0 -11 8 -11 17 0 15 2 14 14 -2 16 -23
12 -34 -38 -89 -20 -22 -36 -44 -36 -50 0 -6 8 1 18 17 9 15 23 27 32 27 9 0
11 -3 4 -8 -5 -4 -18 -24 -28 -45 -9 -20 -21 -35 -26 -32 -4 3 -6 -3 -3 -14 3
-10 0 -22 -6 -25 -14 -9 -14 -26 -1 -26 13 0 140 262 140 289 0 11 5 21 10 21
6 0 10 8 10 18 0 12 -3 13 -8 5 -5 -8 -8 1 -8 22 0 19 4 31 10 28 5 -3 6 -1 2
5 -4 7 -8 12 -9 11 -1 0 -8 -3 -14 -6z"/>
<path d="M5812 4509 c-12 -28 -20 -54 -17 -59 4 -6 -1 -10 -9 -10 -15 0 -21
-12 -17 -34 1 -5 -7 -15 -17 -22 -11 -7 -26 -34 -33 -59 -7 -25 -19 -45 -26
-45 -7 0 -13 -11 -13 -24 0 -13 -6 -26 -13 -29 -7 -2 -19 -29 -26 -58 -15 -59
-32 -78 -43 -51 -5 9 -5 2 -2 -15 4 -24 2 -33 -8 -33 -10 0 -9 -3 2 -10 12 -8
13 -13 3 -30 -7 -11 -13 -27 -13 -37 0 -9 -12 -34 -27 -56 -21 -30 -24 -40
-14 -46 10 -7 9 -14 -5 -37 -11 -15 -14 -25 -7 -21 6 4 18 0 26 -8 9 -8 21
-15 27 -15 6 0 9 -4 5 -9 -3 -5 -1 -12 4 -15 9 -6 32 36 56 104 8 22 21 51 30
63 l15 21 1 -24 c0 -15 14 11 35 65 19 50 38 97 43 105 5 9 12 31 16 50 4 19
32 92 61 162 35 83 54 141 53 165 0 21 -3 32 -6 26 -9 -24 -23 -13 -17 12 5
19 2 25 -10 25 -9 0 -16 -8 -17 -17 0 -16 -1 -16 -7 -1 -5 12 -13 4 -30 -33z"/>
<path d="M6108 4462 c-26 -42 -75 -140 -109 -217 l-62 -140 -8 -145 c-10 -167
-23 -249 -50 -302 -10 -20 -19 -43 -19 -51 0 -16 92 -47 140 -47 38 0 298 68
317 82 9 8 5 24 -17 69 -133 263 -180 495 -150 738 6 46 9 85 8 87 -2 2 -25
-32 -50 -74z"/>
<path d="M1432 4264 c-34 -12 -68 -26 -75 -32 -16 -12 -67 -26 -89 -23 -12 1
-15 -3 -11 -19 6 -22 -7 -26 -25 -8 -10 10 -17 6 -36 -17 -19 -24 -22 -33 -12
-50 6 -11 15 -23 20 -26 4 -4 3 -10 -4 -14 -6 -4 -19 0 -29 9 -26 24 -34 19
-15 -9 28 -43 53 -41 152 14 50 27 123 71 163 96 76 47 97 52 130 35 16 -9 19
-7 19 15 0 21 -4 25 -19 20 -12 -4 -24 1 -33 12 -18 24 -61 23 -136 -3z"/>
<path d="M5370 4258 c-7 -13 -28 -50 -45 -83 -16 -33 -40 -71 -53 -85 -12 -13
-22 -29 -22 -35 0 -6 -9 -17 -20 -25 -11 -8 -20 -17 -20 -21 0 -6 -69 -77
-129 -131 -16 -16 -35 -28 -40 -28 -6 0 -10 -5 -9 -11 2 -6 -3 -14 -11 -17 -8
-3 -11 0 -7 7 5 7 1 9 -9 4 -12 -4 -13 -8 -4 -13 8 -5 -7 -17 -42 -33 -30 -14
-94 -44 -142 -66 -49 -23 -93 -41 -98 -41 -5 0 -21 -7 -34 -16 -13 -9 -34 -17
-47 -19 -53 -9 -158 -41 -158 -48 0 -9 46 -2 125 18 119 30 312 119 435 199
78 51 220 182 220 202 0 7 16 31 35 54 36 43 43 60 24 60 -5 0 -7 5 -4 11 4 6
13 8 21 5 16 -6 29 10 15 19 -11 6 17 65 37 78 13 9 17 37 4 37 -4 0 -14 -10
-22 -22z"/>
<path d="M1701 4161 c-12 -8 -12 -13 2 -34 11 -18 13 -27 5 -35 -8 -8 -7 -13
5 -18 20 -7 23 -44 3 -44 -8 0 -13 -8 -12 -17 1 -19 -22 -25 -41 -10 -10 7
-13 3 -13 -13 0 -19 -4 -21 -30 -15 -30 7 -31 6 -24 -22 9 -38 9 -38 54 -23
32 10 42 11 55 0 21 -17 19 -41 -5 -47 -11 -3 -20 -10 -20 -16 0 -5 -8 -3 -18
6 -10 10 -26 17 -34 17 -9 0 -21 7 -28 15 -7 8 -17 15 -23 15 -5 0 -15 7 -21
16 -7 9 -18 12 -29 8 -21 -8 -17 -29 6 -29 8 0 19 -4 23 -8 4 -4 -6 -7 -23 -7
-22 0 -33 7 -43 26 -9 16 -20 24 -31 21 -10 -3 -20 2 -24 11 -7 18 -21 6 -27
-22 -3 -19 -4 -19 -21 -2 -9 10 -15 21 -13 24 2 4 -2 12 -9 19 -10 10 -16 9
-27 -4 -10 -13 -11 -17 0 -21 9 -3 10 -7 2 -17 -9 -10 -4 -15 20 -20 34 -8 36
-28 2 -33 -26 -4 -27 -10 -6 -40 19 -28 32 -28 36 0 4 25 28 37 28 14 0 -9 4
-16 9 -16 5 0 7 -9 4 -19 -4 -16 -1 -19 16 -14 23 6 28 -6 10 -24 -7 -7 -6
-22 6 -49 24 -57 8 -123 -39 -166 -23 -22 -35 -22 -57 -3 -20 19 -69 11 -69
-11 0 -8 -4 -14 -10 -14 -5 0 -10 -9 -10 -21 0 -12 -5 -19 -12 -16 -7 2 -13
11 -13 20 0 9 -6 22 -13 29 -6 6 -12 18 -12 26 0 8 -6 12 -15 8 -10 -3 -17 3
-21 19 -3 14 -12 25 -20 25 -8 0 -14 4 -14 9 0 5 9 7 21 4 26 -7 43 16 24 31
-18 14 -31 66 -16 66 6 0 11 11 11 25 0 32 25 43 49 21 21 -19 40 -21 43 -3 0
6 2 17 2 22 1 6 5 16 10 23 4 7 2 19 -4 27 -10 12 -10 18 0 30 7 9 8 15 2 15
-6 0 -20 20 -32 45 -12 25 -28 46 -36 47 -8 0 -20 1 -26 2 -7 1 -12 -5 -10
-13 2 -8 -2 -17 -9 -21 -18 -12 -2 -29 21 -23 15 4 20 0 20 -16 0 -11 -5 -21
-11 -21 -6 0 -8 -7 -5 -15 3 -10 -6 -27 -24 -45 -19 -19 -30 -39 -30 -57 0
-31 -33 -91 -61 -111 -11 -7 -19 -19 -19 -25 0 -23 -35 -44 -58 -36 -12 5 -22
13 -22 19 0 5 -18 10 -39 10 -53 0 -71 8 -82 36 -5 15 -17 25 -31 26 -13 0
-30 1 -38 2 -8 1 -16 10 -18 21 -2 13 -18 27 -44 38 -46 21 -64 16 -21 -5 15
-8 27 -20 26 -26 -2 -6 9 -18 25 -26 47 -24 64 -50 53 -79 -5 -13 -16 -27 -23
-30 -8 -4 -7 -6 5 -6 34 -2 16 -17 -50 -40 -38 -13 -86 -32 -107 -42 -22 -11
-46 -19 -53 -19 -8 0 -16 -7 -19 -15 -5 -12 -9 -13 -20 -4 -8 7 -18 9 -21 5
-4 -4 -1 -12 7 -17 11 -7 6 -8 -18 -4 -23 5 -32 3 -30 -5 3 -12 -7 -16 -67
-27 -16 -3 -33 -11 -37 -17 -6 -8 -11 -7 -17 3 -8 12 -12 12 -25 2 -9 -8 -16
-20 -16 -28 0 -7 -7 -16 -15 -19 -21 -8 -19 -44 3 -44 16 -1 16 -1 -1 -14 -14
-11 -25 -46 -14 -46 2 0 29 -5 60 -11 41 -7 103 -7 214 1 179 12 203 6 122
-35 -30 -14 -65 -35 -79 -45 l-25 -20 95 0 c52 0 136 5 185 10 50 5 184 14
298 20 220 11 418 36 552 69 94 23 217 49 260 53 30 3 65 29 65 48 0 6 9 10
19 10 11 0 23 5 26 11 4 5 28 20 53 32 27 13 52 33 60 49 15 32 77 88 98 88
16 0 133 55 149 71 5 6 2 9 -9 9 -9 0 -14 5 -11 10 5 8 11 8 20 0 14 -12 48
-3 39 11 -3 5 -2 9 3 8 24 -4 44 3 50 17 9 25 -14 32 -60 18 -79 -23 -214 -36
-260 -24 -73 19 -101 32 -152 74 -90 74 -84 71 -99 51 -14 -20 -36 -13 -36 11
0 8 -4 12 -10 9 -14 -9 -12 -21 6 -40 9 -9 13 -19 10 -23 -4 -3 -11 0 -16 8
-7 11 -12 11 -23 2 -11 -9 -18 -8 -33 9 -14 16 -16 22 -5 28 11 7 11 10 -2 17
-8 5 -14 20 -13 34 1 21 -5 25 -35 30 -20 4 -49 17 -65 29 -28 22 -59 79 -49
89 8 9 87 -21 92 -35 6 -15 13 -16 31 -5 15 10 5 42 -13 42 -7 0 -19 7 -26 17
-13 15 -10 15 35 9 60 -9 75 -18 105 -64 l23 -35 14 32 c10 24 19 32 36 31 38
-3 50 -1 43 10 -3 5 -23 9 -43 8 -20 0 -53 7 -72 17 -19 10 -44 19 -55 19 -12
1 -19 8 -19 19 2 23 -13 22 -26 -3 -9 -17 -17 -20 -46 -14 -29 5 -33 4 -28
-10 3 -9 1 -16 -5 -16 -19 0 -12 53 11 77 l22 24 -21 5 c-12 3 -24 17 -27 30
-7 25 -21 30 -45 15z m69 -344 c0 5 -5 14 -12 21 -16 16 -4 25 21 17 12 -4 21
-15 21 -26 0 -11 4 -18 10 -14 13 8 50 -31 50 -53 0 -10 5 -23 11 -29 7 -7 9
-23 5 -37 -5 -22 -12 -26 -40 -26 -19 0 -41 6 -48 13 -8 6 -23 17 -33 23 -11
6 -26 29 -33 50 -7 21 -19 44 -27 50 -19 14 -19 19 2 44 17 20 18 20 45 -11
15 -17 28 -26 28 -22z m-180 -7 c13 7 20 7 20 0 0 -5 9 -10 20 -10 11 0 23 -8
26 -17 3 -10 10 -28 16 -39 7 -15 7 -28 -2 -43 -9 -17 -9 -26 0 -36 14 -16 5
-36 -13 -30 -7 2 -25 6 -40 9 -22 5 -27 11 -22 26 4 12 2 20 -4 20 -6 0 -11
-4 -11 -10 0 -16 -15 -12 -45 14 -23 20 -29 34 -33 81 -6 71 11 89 45 50 19
-21 26 -24 43 -15z"/>
<path d="M3261 3822 c-7 -12 -20 -22 -29 -22 -10 0 -27 -7 -38 -15 -10 -8 -29
-15 -42 -15 -22 0 -49 -41 -32 -48 13 -5 -1 -42 -17 -42 -7 0 -23 -9 -35 -20
l-22 -20 22 0 c25 0 26 -3 11 -31 -6 -12 -17 -18 -25 -15 -22 9 -18 -41 5 -54
29 -15 41 -12 41 10 0 14 -7 20 -22 21 -16 0 -18 2 -8 6 8 4 21 13 27 22 10
13 14 13 21 3 7 -10 12 -9 24 5 20 23 6 75 -15 53 -9 -10 -9 -13 1 -17 6 -3
12 -12 12 -21 0 -14 -2 -14 -9 -3 -5 7 -14 10 -20 7 -7 -4 -11 1 -11 12 0 11
16 34 37 51 26 22 31 31 19 31 -10 0 -16 5 -14 11 2 6 6 9 10 7 3 -2 14 4 24
13 24 20 54 31 54 20 0 -5 -10 -11 -22 -14 -18 -5 -19 -8 -8 -21 10 -13 10
-16 -5 -16 -14 0 -15 -3 -6 -14 6 -7 9 -21 5 -30 -3 -9 -1 -16 5 -16 6 0 11
-5 11 -11 0 -5 -5 -7 -10 -4 -10 6 -24 -21 -36 -70 -4 -15 -2 -25 5 -25 6 0
11 5 11 10 0 19 37 52 45 41 3 -6 0 -11 -7 -11 -10 0 -10 -2 1 -9 8 -5 20 -7
26 -4 17 6 47 -26 43 -46 -2 -10 -14 -16 -33 -16 -17 -1 -37 -5 -45 -9 -12 -7
-13 -6 -2 5 6 7 12 19 12 27 0 12 -3 12 -15 2 -8 -7 -15 -19 -15 -27 0 -8 -5
-11 -10 -8 -6 4 -24 8 -40 10 -28 4 -30 2 -30 -30 0 -26 6 -39 25 -51 14 -9
28 -14 32 -10 3 3 1 6 -5 6 -18 0 -14 18 8 40 23 23 40 26 40 6 0 -9 17 -16
45 -20 32 -5 45 -12 46 -24 0 -11 3 -12 6 -4 2 7 21 12 41 11 21 0 31 -3 25
-6 -20 -7 -15 -23 6 -23 14 0 19 -7 17 -25 -1 -30 -17 -32 -41 -5 -10 11 -22
20 -27 20 -16 0 -8 -19 19 -45 27 -24 27 -25 5 -25 -12 0 -22 -4 -22 -9 0 -5
15 -5 36 -1 33 8 37 6 52 -21 11 -19 22 -27 32 -23 33 13 135 23 138 14 7 -18
30 -10 35 12 4 12 4 24 2 27 -3 2 -5 -1 -5 -7 0 -7 -4 -12 -10 -12 -5 0 -6 8
-3 17 5 13 3 15 -13 9 -37 -16 -100 -17 -139 -4 -35 12 -40 17 -42 48 -4 58
-8 84 -15 96 -12 18 2 24 50 24 38 0 43 2 32 15 -7 8 -16 12 -21 9 -5 -2 -23
2 -40 11 -30 16 -32 16 -51 -5 -17 -18 -18 -24 -7 -31 15 -9 11 -16 -11 -19
-29 -4 -39 0 -34 15 4 8 1 15 -6 15 -6 0 -10 6 -7 13 2 6 1 22 -4 34 -6 16 -3
23 9 29 12 5 3 10 -33 19 -44 10 -50 14 -47 36 5 51 8 59 27 74 19 15 19 15
-7 9 -18 -4 -28 -2 -28 6 0 6 5 8 10 5 6 -3 13 1 16 9 3 9 12 16 19 16 17 0
28 46 16 67 -8 14 -10 14 -20 -5z"/>
<path d="M2928 3753 c-7 -26 -2 -33 24 -33 18 0 48 -21 48 -34 0 -3 -6 -5 -12
-3 -7 1 -12 -6 -12 -15 2 -25 -32 -23 -54 2 -9 12 -17 26 -17 32 0 6 -8 12
-17 14 -10 1 -18 -4 -18 -12 0 -16 -39 -34 -76 -34 -13 0 -24 5 -24 11 0 6 -6
9 -14 6 -8 -3 -16 -1 -18 5 -2 6 -21 -1 -42 -16 -21 -14 -44 -26 -50 -26 -6 0
-37 -14 -69 -30 -31 -17 -62 -28 -67 -25 -5 3 -11 1 -15 -5 -3 -6 4 -15 17
-20 l23 -10 -25 4 c-14 2 -34 0 -45 -4 -17 -7 -17 -9 -3 -9 10 -1 22 -10 28
-21 9 -16 8 -22 -5 -26 -9 -4 -21 -2 -28 5 -14 14 -27 14 -27 1 0 -5 5 -10 10
-10 6 0 18 -8 28 -18 15 -15 17 -22 7 -35 -7 -10 -17 -17 -24 -17 -14 0 -15
-17 -1 -25 6 -3 10 -1 10 4 0 6 7 11 16 11 9 0 14 -6 11 -13 -3 -8 -2 -20 3
-27 6 -10 11 -8 21 9 8 11 19 21 26 21 7 0 13 4 13 8 0 5 34 33 76 63 42 29
81 60 88 69 6 8 23 25 38 38 25 23 27 23 82 9 31 -8 53 -11 50 -5 -4 6 3 8 17
6 12 -1 25 -9 27 -17 3 -10 0 -12 -12 -8 -9 4 -16 2 -16 -3 0 -6 -6 -10 -14
-10 -7 0 -19 -6 -26 -14 -6 -8 -17 -13 -24 -10 -7 3 -19 -2 -26 -11 -11 -13
-10 -14 4 -9 9 4 24 0 34 -8 30 -26 51 -28 106 -7 l54 21 -24 36 c-28 41 -27
46 10 33 25 -10 26 -9 26 26 0 22 7 41 18 50 11 9 4 8 -18 -3 -34 -17 -35 -17
-20 2 8 10 20 23 27 27 23 14 -22 47 -56 41 -25 -5 -30 -3 -33 17 -3 24 -3 24
-10 2z"/>
<path d="M3243 3393 c-6 -17 -9 -33 -7 -36 3 -2 -7 -2 -22 1 -18 3 -22 7 -13
13 10 6 9 9 -4 15 -12 4 -23 0 -32 -12 -22 -29 -12 -39 34 -37 29 1 41 -2 38
-10 -2 -7 -12 -11 -21 -11 -20 2 -21 -19 -1 -36 8 -7 15 -25 15 -41 0 -16 9
-38 20 -49 25 -25 25 -31 3 -24 -15 5 -15 3 1 -10 11 -9 26 -16 33 -16 8 0 25
-7 38 -16 20 -13 25 -14 25 -3 1 10 4 9 14 -3 19 -25 26 -22 26 11 0 25 -5 31
-30 36 -16 4 -32 11 -35 16 -4 5 -17 9 -31 9 -13 0 -24 4 -24 10 0 5 15 8 33
6 17 -2 38 1 45 6 8 7 12 7 12 0 0 -6 -6 -12 -12 -15 -20 -7 -7 -15 47 -29 28
-7 63 -23 78 -35 16 -13 35 -23 43 -23 8 0 14 -4 14 -10 0 -5 7 -6 17 -3 11 4
14 3 9 -5 -5 -9 0 -9 20 -2 22 9 25 8 20 -6 -9 -23 3 -37 19 -24 8 6 11 19 8
28 -6 14 -4 15 8 5 11 -9 21 -5 49 18 34 29 32 41 -4 14 -13 -10 -25 -11 -43
-4 -13 5 -36 9 -50 9 -33 0 -113 38 -113 53 1 34 17 39 60 17 23 -12 44 -19
46 -17 3 2 -11 12 -30 21 -18 9 -37 23 -40 31 -3 9 -2 13 4 10 6 -3 10 -1 10
4 0 14 -26 14 -52 0 -14 -8 -17 -13 -9 -18 9 -6 8 -11 -3 -20 -12 -10 -17 -7
-31 18 -8 17 -23 31 -33 30 -14 0 -14 -2 3 -9 17 -7 17 -9 3 -9 -12 -1 -16 -7
-12 -18 5 -17 5 -17 -6 0 -6 9 -15 15 -21 12 -5 -4 -9 2 -9 12 0 15 -2 16 -10
3 -8 -12 -10 -12 -16 3 -3 9 -10 15 -15 12 -12 -8 1 -35 18 -35 8 0 11 -5 8
-11 -11 -16 -42 18 -42 46 0 16 4 22 13 18 9 -3 14 2 14 16 0 22 -16 29 -22
10 -3 -8 -10 -8 -26 2 -25 16 -30 35 -6 21 23 -13 56 -3 50 15 -3 8 -6 24 -6
35 0 16 -5 19 -24 14 -18 -4 -25 -2 -28 11 -3 13 -7 9 -15 -14z"/>
<path d="M2285 3330 c-3 -5 -1 -10 4 -10 15 0 13 -31 -3 -52 -7 -10 -26 -19
-42 -19 -20 -1 -23 -3 -10 -6 15 -4 10 -11 -27 -34 -26 -16 -56 -29 -66 -29
-11 0 -22 -4 -25 -9 -4 -5 -25 -12 -47 -16 -31 -5 -38 -10 -28 -17 11 -7 11
-11 2 -15 -7 -2 -13 -12 -13 -20 0 -12 3 -13 14 -4 11 9 20 10 35 1 17 -8 29
-6 61 12 41 23 54 44 23 35 -10 -3 -35 -12 -56 -21 -22 -10 -36 -12 -32 -6 10
16 107 61 138 64 14 1 33 8 41 16 13 10 16 10 16 -4 0 -9 5 -16 10 -16 6 0 5
-6 -2 -14 -7 -8 -14 -13 -16 -11 -5 4 -52 -45 -52 -54 0 -13 -49 -55 -78 -66
l-27 -12 27 -5 c15 -3 25 -1 22 3 -3 5 -1 9 5 9 5 0 15 -8 20 -17 10 -17 10
-17 11 1 0 17 102 147 121 154 14 6 -2 -31 -24 -55 -15 -17 -17 -23 -6 -23 8
0 24 -3 37 -6 22 -6 22 -5 10 21 -11 24 -10 29 12 46 34 25 41 24 30 -7 -16
-40 -12 -49 11 -28 22 19 22 19 10 -3 -6 -12 -27 -34 -46 -49 -39 -29 -48 -53
-12 -29 39 25 72 76 76 118 1 4 8 7 16 7 9 0 18 7 21 15 12 30 22 14 21 -31 0
-29 -5 -48 -14 -51 -7 -3 -13 -10 -13 -17 0 -15 -66 -79 -98 -95 -19 -10 -23
-9 -29 6 -16 43 -48 37 -38 -7 6 -25 3 -29 -25 -35 -17 -4 -34 -13 -37 -21 -7
-19 -33 -18 -33 1 0 8 4 15 9 15 5 0 7 9 4 21 -4 14 -9 17 -16 10 -17 -17 -33
-13 -46 12 -7 13 -19 24 -27 24 -19 0 -18 -16 1 -24 9 -3 15 -15 13 -27 -2
-15 2 -20 15 -18 20 3 22 -9 5 -26 -15 -15 -88 -16 -88 -2 0 6 6 10 13 9 6 -1
19 -1 27 0 13 1 13 3 1 10 -8 5 -20 7 -27 4 -7 -3 -14 5 -16 19 -2 19 -9 23
-35 22 -32 -2 -37 4 -36 44 1 15 -13 16 -22 2 -9 -15 -25 -2 -25 21 0 10 -5
19 -10 19 -13 0 -5 -47 10 -65 6 -8 18 -11 26 -8 8 3 14 0 14 -6 0 -7 -7 -14
-15 -17 -25 -10 -18 -36 8 -29 15 4 18 3 8 -3 -9 -7 -10 -12 -2 -16 6 -4 9
-12 6 -17 -4 -5 0 -9 8 -9 8 0 17 -6 20 -12 6 -18 -11 -60 -22 -53 -6 3 -13 0
-18 -7 -10 -15 -35 -17 -45 -3 -4 6 -8 2 -8 -7 0 -12 8 -18 25 -18 23 0 24 -3
19 -40 -6 -39 -5 -40 23 -39 17 1 21 3 11 6 -10 2 -18 8 -18 13 0 4 9 6 20 3
11 -3 20 -1 20 5 0 6 -10 13 -22 15 -23 4 -23 4 -1 6 12 0 24 9 27 19 4 14 5
14 4 -3 0 -11 0 -29 1 -40 2 -20 2 -20 16 -1 15 19 15 19 15 1 0 -26 20 -5 23
23 0 11 5 19 9 16 4 -3 5 -11 2 -19 -4 -10 3 -13 28 -10 18 1 41 6 51 10 9 4
17 3 17 -3 0 -6 3 -17 6 -25 4 -11 -4 -17 -28 -22 -18 -4 -37 -10 -43 -14 -5
-3 -14 -6 -20 -6 -5 0 -10 -12 -11 -28 -1 -39 -14 -47 -14 -8 0 30 -2 32 -29
28 -16 -3 -37 -9 -46 -15 -10 -5 -25 -7 -35 -5 -14 4 -16 -2 -14 -34 2 -21 0
-33 -4 -28 -4 6 -20 12 -36 13 -21 1 -27 -2 -22 -13 3 -8 2 -15 -3 -15 -16 0
-20 14 -9 28 10 12 9 14 -7 10 -11 -2 -19 -11 -19 -20 1 -14 -3 -15 -23 -7
-36 14 -46 11 -40 -11 3 -10 -1 -24 -8 -30 -10 -8 -12 -4 -9 20 4 30 2 31 -38
34 -7 1 -12 -6 -10 -16 2 -12 -3 -15 -18 -11 -11 3 -20 1 -20 -5 0 -6 8 -13
18 -15 16 -4 16 -5 0 -6 -10 0 -18 -5 -18 -11 0 -5 -10 -14 -22 -20 -20 -10
-21 -9 -7 2 18 14 23 68 7 68 -6 0 -8 -9 -5 -20 3 -10 -1 -25 -9 -31 -12 -10
-13 -9 -8 5 3 9 2 16 -2 16 -14 -1 -54 -37 -54 -49 0 -6 -4 -11 -10 -11 -5 0
-7 7 -3 16 4 12 2 15 -8 12 -8 -3 -14 -14 -14 -25 0 -12 -4 -25 -8 -29 -4 -5
-5 -1 -2 7 6 17 -19 30 -42 22 -19 -7 -16 -23 5 -23 14 0 15 -2 2 -10 -11 -7
-17 -4 -24 9 -10 22 -58 34 -68 18 -14 -22 -8 -28 22 -23 34 5 37 -1 15 -30
-14 -19 -14 -18 -9 2 5 19 2 21 -20 17 -35 -7 -38 -14 -20 -47 18 -35 18 -47
0 -23 -18 23 -46 12 -46 -19 0 -13 9 -32 21 -43 39 -37 107 -44 328 -37 198 6
205 5 183 -12 -13 -9 -36 -29 -51 -43 -30 -27 -60 -44 -74 -40 -5 1 -11 -7
-14 -18 -3 -11 -12 -22 -20 -25 -67 -26 128 -34 352 -16 66 6 257 11 425 12
380 1 535 14 716 62 114 30 190 45 274 55 47 5 171 22 275 36 105 14 240 32
300 41 207 28 250 34 349 49 320 49 703 197 852 328 19 17 34 34 34 39 0 4 17
23 38 42 l37 35 -35 -8 c-19 -4 -73 -25 -120 -45 -156 -69 -517 -159 -689
-173 l-78 -6 3 49 c2 26 -1 55 -6 63 -8 13 -9 12 -10 -5 0 -23 -9 -24 -195
-39 -155 -12 -209 -17 -325 -31 -147 -17 -161 -21 -154 -39 3 -7 0 -16 -7 -21
-8 -4 -10 -3 -5 4 4 7 2 12 -3 12 -6 0 -11 -4 -11 -10 0 -18 -20 -11 -21 8 0
11 -5 7 -14 -13 -11 -24 -14 -26 -15 -10 -1 20 -1 20 -15 1 -14 -19 -15 -18
-15 10 l-1 29 -14 -25 c-11 -19 -14 -21 -15 -7 0 12 -8 17 -27 17 -26 0 -26
-1 -7 -15 18 -14 18 -14 -3 -8 -13 3 -23 12 -23 19 0 8 -4 14 -10 14 -5 0 -10
-7 -10 -15 0 -9 -6 -12 -15 -9 -10 4 -15 0 -15 -12 0 -38 -11 -4 -13 43 -3 43
-1 50 14 46 11 -3 19 2 22 14 4 16 5 16 6 1 1 -19 21 -26 21 -8 0 6 7 10 15
10 8 0 15 4 15 10 0 5 -5 9 -12 7 -7 -1 -15 15 -18 41 -5 36 -4 42 11 42 10 0
19 4 21 10 2 6 17 5 42 -2 32 -10 40 -10 50 2 7 10 24 14 45 12 19 -2 37 1 40
7 6 9 142 -24 191 -46 48 -21 325 -22 455 0 303 50 494 89 524 107 13 8 11 9
-9 9 -14 0 -44 -4 -66 -9 -23 -5 -111 -21 -195 -35 -85 -15 -199 -36 -254 -48
-69 -14 -134 -21 -210 -21 -97 1 -124 5 -230 37 -66 20 -163 52 -215 72 -52
20 -110 41 -128 46 -18 6 -30 14 -27 19 3 4 -1 10 -7 13 -17 6 -9 14 24 22 24
6 27 4 30 -22 3 -26 4 -26 9 8 5 37 2 39 -58 28 -4 -1 -16 -1 -25 0 -21 1 -24
21 -4 21 22 0 29 19 15 36 -7 9 -21 13 -33 10 -12 -3 -25 2 -33 12 -11 15 -13
14 -10 -8 1 -14 10 -31 20 -38 19 -15 23 -32 6 -32 -5 0 -8 4 -4 9 3 5 1 12
-5 16 -5 3 -10 -1 -10 -9 0 -8 -8 -20 -17 -25 -14 -8 -15 -10 -3 -11 12 0 12
-2 2 -9 -10 -6 -9 -11 4 -22 16 -12 17 -12 10 1 -5 8 3 4 16 -10 14 -14 21
-26 17 -28 -5 -2 -9 -15 -9 -28 0 -27 -19 -33 -21 -6 -1 9 -1 20 0 25 2 10
-37 -13 -68 -40 -14 -13 -20 -23 -13 -23 6 0 12 -4 12 -9 0 -5 -9 -7 -20 -4
-23 6 -28 43 -6 43 27 0 25 17 -4 47 -28 28 -29 32 -13 44 15 12 16 12 10 -3
-3 -10 -2 -18 3 -18 6 0 10 7 10 15 0 8 8 15 18 16 23 1 -56 27 -86 28 -28 1
-87 42 -122 85 -14 16 -18 26 -10 21 11 -6 10 -3 -2 12 -10 11 -18 24 -18 29
0 27 -22 83 -35 88 -12 4 -14 0 -9 -19 3 -14 2 -25 -4 -25 -14 0 -33 26 -25
33 3 4 -1 7 -11 7 -9 0 -14 4 -11 10 3 6 -1 7 -9 4 -19 -7 -21 -25 -3 -21 6 1
12 -7 12 -18 0 -11 -6 -19 -13 -17 -8 1 -11 -2 -6 -9 4 -7 1 -10 -7 -7 -8 3
-15 15 -17 27 -3 18 -6 20 -18 10 -11 -9 -14 -8 -14 5 0 20 -7 20 -26 1 -14
-13 -13 -16 10 -25 27 -10 34 -26 15 -32 -8 -3 -9 -10 -2 -23 11 -22 7 -45 -9
-45 -6 0 -8 6 -5 13 3 8 2 19 -1 24 -8 13 -45 -13 -55 -37 -4 -13 -6 -12 -6 1
-1 9 -18 24 -40 35 -29 14 -37 23 -34 39 4 16 3 17 -6 5 -9 -13 -11 -12 -12 5
-1 11 -2 25 -2 31 0 6 -6 11 -14 11 -10 0 -13 -7 -9 -22 4 -17 -1 -25 -20 -34
-17 -7 -24 -17 -20 -27 3 -8 2 -13 -3 -9 -5 3 -17 2 -26 -1 -10 -4 -12 -9 -6
-13 6 -4 7 -12 0 -21 -7 -12 -10 -11 -15 8 -5 16 -11 21 -25 17 -13 -4 -19 -1
-19 9 0 20 -9 20 -32 -1 -17 -15 -18 -14 -18 20 0 26 -6 41 -20 49 -11 7 -20
23 -20 36 0 13 -4 21 -10 17 -5 -3 -7 -12 -3 -20 3 -10 -1 -15 -12 -15 -9 0
-13 5 -10 10 3 6 1 10 -4 10 -6 0 -11 -5 -11 -11 0 -8 -5 -8 -15 1 -16 14 -20
3 -6 -19 5 -8 19 -12 34 -9 19 4 28 -1 35 -17 11 -23 -1 -45 -22 -45 -6 0 -5
4 3 9 12 8 12 12 2 25 -17 20 -34 10 -26 -15 5 -14 2 -19 -13 -19 -32 0 -33
-12 -1 -43 23 -21 28 -32 20 -40 -9 -9 -16 -8 -30 0 -20 13 -31 8 -31 -13 0
-8 6 -11 15 -8 8 4 15 1 15 -5 0 -6 -9 -11 -20 -11 -18 0 -25 15 -21 45 1 6
-6 1 -14 -9 -13 -17 -15 -17 -15 -4 0 25 -17 30 -23 7 -4 -15 1 -23 19 -29 27
-11 33 -22 7 -14 -14 4 -13 1 4 -14 20 -17 20 -21 6 -35 -9 -8 -17 -31 -19
-51 -2 -22 -17 -54 -39 -82 -19 -26 -35 -53 -35 -60 0 -20 -19 -27 -35 -14
-12 10 -15 9 -15 -4 0 -21 -34 -21 -54 0 -9 8 -16 24 -16 34 0 13 -5 17 -14
14 -8 -3 -17 0 -21 6 -5 8 -11 8 -21 -1 -12 -10 -15 -10 -12 2 2 8 -5 15 -17
15 -11 1 -26 2 -32 3 -14 1 -17 49 -5 66 24 33 132 48 132 19 0 -9 8 -10 31
-4 38 11 63 1 29 -12 -30 -11 -19 -22 14 -14 16 4 31 20 42 41 17 36 38 49 28
18 -5 -15 -4 -15 4 -3 5 8 13 25 16 37 6 19 4 22 -11 16 -16 -6 -16 -5 -5 10
9 11 11 21 4 32 -13 24 -3 67 14 61 9 -3 16 4 20 20 5 18 12 24 27 22 17 -2
22 3 24 26 2 25 -1 28 -23 23 -24 -4 -26 -2 -22 24 5 32 4 33 -21 19 -23 -12
-91 8 -91 27 0 7 -5 13 -11 13 -6 0 -8 8 -4 19 8 25 -9 69 -20 52 -4 -8 -2
-17 6 -22 11 -7 11 -9 -2 -9 -25 0 -31 -28 -8 -35 10 -4 19 -13 19 -21 0 -8 5
-14 10 -14 6 0 10 -6 10 -14 0 -10 7 -12 23 -9 12 3 20 3 17 0 -10 -11 -90
-25 -90 -16 0 5 7 12 16 16 12 4 6 11 -23 24 -38 18 -38 18 -9 19 28 0 28 1
11 13 -10 8 -15 19 -11 25 8 14 -3 62 -14 62 -5 0 -12 -4 -15 -10z m461 -251
c3 -5 -2 -9 -10 -9 -19 0 -20 -8 -1 -40 15 -27 20 -110 7 -110 -4 0 -13 -15
-20 -33 -15 -41 -15 -50 -2 -42 15 9 12 -8 -6 -34 -12 -16 -19 -20 -27 -12
-13 13 -47 15 -47 2 0 -13 26 -32 34 -24 4 4 5 1 1 -7 -3 -8 -19 -24 -35 -35
-24 -15 -29 -25 -25 -42 3 -13 1 -23 -5 -23 -5 0 -10 5 -10 11 0 8 -4 8 -15
-1 -11 -10 -17 -9 -29 3 -13 13 -13 17 -2 27 11 9 15 7 19 -7 2 -10 4 -1 3 19
0 20 -4 35 -8 32 -7 -5 -12 18 -9 39 0 4 -4 7 -9 7 -5 0 -10 16 -10 35 0 24 5
35 15 35 18 0 19 11 3 29 -10 11 -10 13 0 7 12 -7 16 9 13 46 -2 11 5 16 19
15 17 -1 19 -6 14 -33 -6 -30 -4 -32 24 -30 32 1 72 31 72 53 0 7 5 13 12 13
6 0 3 7 -8 15 -12 9 -15 18 -9 22 13 11 18 76 5 68 -5 -3 -10 -13 -10 -21 0
-8 -5 -14 -11 -14 -7 0 -9 -9 -6 -23 7 -25 -11 -61 -20 -39 -2 6 -9 10 -14 6
-5 -3 -9 0 -9 6 0 7 -8 9 -20 5 -38 -12 -21 23 28 56 26 18 48 36 50 39 4 9
51 0 58 -11z m458 -14 c16 -25 16 -25 -11 -26 -27 0 -27 -1 -5 -9 12 -5 22
-12 22 -14 0 -3 -6 -3 -13 0 -8 3 -14 -2 -14 -10 0 -11 8 -13 27 -9 17 3 32
-1 43 -11 8 -9 20 -16 24 -16 12 0 108 -101 116 -123 4 -10 2 -17 -6 -17 -7 0
-5 -5 5 -10 9 -6 15 -18 13 -27 -13 -67 -16 -73 -34 -73 -11 0 -43 13 -72 28
-43 23 -61 27 -89 21 -19 -4 -39 -3 -44 2 -17 16 -25 10 -46 -37 -24 -56 -24
-52 -2 -57 9 -3 2 -5 -15 -6 -22 -1 -33 4 -33 12 0 8 -12 19 -27 26 l-28 13
24 -26 c28 -30 23 -57 -11 -48 -12 3 -17 7 -10 10 6 2 12 11 12 20 0 15 -2 15
-11 2 -9 -13 -10 -13 -8 0 4 43 -2 59 -28 68 -16 6 -22 11 -15 11 6 1 12 8 12
17 0 10 -6 14 -14 11 -10 -4 -16 6 -20 36 -4 22 -12 48 -19 56 -10 12 -9 13 1
7 10 -6 12 1 8 33 -2 23 0 41 5 41 6 0 9 6 7 13 -4 21 13 57 31 67 16 8 17 6
13 -16 -3 -15 2 -32 13 -44 10 -11 15 -23 10 -28 -4 -4 -10 -2 -12 5 -3 8 -10
7 -23 -5 -23 -19 -6 -36 21 -21 12 6 20 5 25 -3 4 -6 3 -8 -4 -4 -7 4 -10 -4
-10 -23 1 -28 27 -48 42 -33 11 11 5 77 -9 95 -7 11 -11 25 -8 33 4 10 0 12
-11 8 -10 -4 -16 -1 -16 8 0 7 9 14 20 14 11 0 20 -7 20 -16 0 -12 2 -13 9 -1
7 11 11 10 20 -7 6 -12 11 -25 10 -29 -3 -17 14 -53 22 -48 4 3 11 -10 15 -30
3 -19 9 -35 13 -35 4 0 5 -16 3 -37 -4 -30 -2 -35 12 -30 11 4 16 1 16 -9 0
-11 6 -14 16 -10 9 3 24 6 35 6 19 0 19 2 4 31 -9 17 -17 40 -18 52 -2 12 -11
37 -20 55 -15 28 -16 36 -5 49 11 14 10 16 -12 10 -35 -9 -58 6 -41 27 11 13
10 18 -3 31 -9 9 -16 18 -16 20 0 42 68 49 94 10z m-319 -144 c3 -5 0 -13 -6
-17 -8 -4 -9 -3 -5 4 4 7 2 12 -3 12 -6 0 -11 -2 -11 -4 0 -2 -3 -13 -7 -23
-3 -10 -2 -15 2 -10 15 13 37 -54 44 -128 5 -62 8 -70 26 -69 15 0 22 -7 23
-23 1 -13 -3 -23 -8 -23 -6 0 -10 7 -10 15 0 8 -2 15 -4 15 -2 0 -11 3 -20 6
-9 3 -16 1 -16 -5 0 -14 -49 -70 -71 -82 -26 -13 -80 61 -83 114 -3 58 18 124
48 156 14 15 26 32 26 39 0 7 5 12 10 12 15 0 12 -15 -10 -43 -21 -27 -25 -37
-12 -37 4 0 16 19 27 43 25 53 46 70 60 48z"/>
</g>
</svg>
