<?xml version="1.0" standalone="no"?>
<!DOCTYPE svg PUBLIC "-//W3C//DTD SVG 20010904//EN"
 "http://www.w3.org/TR/2001/REC-SVG-20010904/DTD/svg10.dtd">
<svg version="1.0" xmlns="http://www.w3.org/2000/svg"
 width="750.000000pt" height="1125.000000pt" viewBox="0 0 750.000000 1125.000000"
 preserveAspectRatio="xMidYMid meet">
<metadata>
Created by potrace 1.16, written by Peter Selinger 2001-2019
</metadata>
<g transform="translate(0.000000,1125.000000) scale(0.100000,-0.100000)"
fill="#000000" stroke="none">
<path d="M3675 8162 c-11 -9 -33 -34 -49 -54 -16 -22 -50 -48 -81 -62 -29 -14
-59 -36 -68 -50 -14 -21 -23 -24 -64 -21 -26 1 -48 3 -48 5 0 1 -11 4 -25 5
-14 1 -34 5 -45 9 -15 6 -13 2 8 -18 l28 -26 -41 0 c-30 0 -47 -6 -63 -23 -12
-13 -42 -45 -65 -70 -24 -25 -52 -49 -63 -52 -10 -4 -22 -18 -25 -33 -4 -15
-11 -33 -17 -40 -8 -10 -7 -16 2 -21 16 -10 0 -45 -27 -60 -15 -9 -14 -10 6
-8 12 1 24 9 27 18 3 10 12 20 20 23 12 4 12 -1 0 -35 -16 -44 -35 -67 -51
-62 -6 2 -21 -17 -34 -42 -24 -47 -26 -83 -12 -216 1 -9 15 -33 31 -53 16 -20
32 -50 36 -66 3 -16 13 -34 20 -40 8 -7 24 -44 36 -83 12 -40 26 -76 31 -82
13 -14 0 101 -23 209 l-20 89 23 46 c16 31 34 51 58 62 19 9 44 30 55 47 26
39 101 118 144 155 31 26 38 28 90 21 64 -7 98 -29 80 -51 -9 -10 -8 -13 5
-13 9 0 22 -11 28 -25 6 -14 15 -25 19 -25 4 0 16 -17 26 -37 9 -21 21 -41 26
-44 4 -3 -14 -16 -42 -28 -27 -11 -53 -26 -56 -31 -4 -6 -21 -16 -38 -24 -69
-29 -92 -70 -66 -118 6 -11 11 -48 10 -81 0 -42 4 -66 15 -78 19 -21 9 -65
-17 -82 -11 -7 -19 -20 -19 -29 0 -10 -7 -18 -16 -18 -26 0 -9 -25 19 -28 15
-2 33 -13 41 -24 9 -13 21 -18 31 -14 10 4 15 2 13 -6 -4 -12 -8 -14 -60 -38
-23 -11 -78 -78 -78 -95 0 -15 47 -2 69 19 22 20 111 46 111 32 0 -2 -21 -14
-47 -27 -27 -12 -50 -24 -52 -25 -2 -2 5 -11 15 -21 11 -11 34 -18 58 -19 90
-2 123 -44 74 -93 -44 -42 -96 -81 -109 -81 -27 -1 33 -40 61 -40 42 0 96 -61
110 -125 7 -27 14 -57 17 -65 15 -41 20 -158 13 -285 -2 -27 -2 -82 0 -121 4
-72 -13 -138 -32 -132 -14 5 -44 88 -62 171 -4 15 -22 44 -41 64 -46 49 -82
128 -95 210 -6 37 -16 92 -21 122 -5 30 -9 69 -9 88 0 18 -5 33 -10 33 -13 0
-41 -61 -34 -72 3 -5 0 -8 -7 -8 -7 0 -9 8 -6 21 5 18 2 20 -26 14 -18 -4 -39
-13 -48 -21 -8 -8 -27 -14 -40 -14 -14 0 -34 -7 -45 -15 -10 -8 -26 -15 -35
-15 -9 0 -25 -12 -34 -27 -20 -29 -20 -24 24 -175 15 -53 16 -66 5 -61 -8 3
-14 0 -14 -6 0 -6 -7 -11 -15 -11 -8 0 -15 -4 -15 -10 0 -5 -18 -19 -40 -30
-23 -12 -44 -28 -47 -36 -3 -8 -12 -13 -20 -10 -22 9 -49 -10 -63 -44 -7 -16
-16 -30 -20 -30 -18 0 4 -86 30 -113 38 -41 100 -48 132 -16 13 13 41 33 62
44 20 11 46 35 57 53 12 17 24 32 28 32 4 0 27 -42 51 -92 85 -181 220 -455
280 -567 51 -95 60 -120 59 -157 -3 -43 -17 -66 -49 -76 -8 -3 -60 19 -115 48
-55 29 -122 60 -150 68 -27 9 -63 20 -80 25 -16 6 -48 13 -70 17 -48 8 -69 24
-86 67 -7 18 -25 52 -39 77 -40 70 -78 169 -90 234 -5 33 -10 61 -10 62 0 9
-64 -17 -101 -41 -76 -49 -105 -125 -194 -515 -14 -63 -40 -142 -56 -175 -37
-75 -33 -128 13 -186 17 -21 32 -49 33 -63 2 -13 6 -33 9 -43 3 -10 -1 -28 -9
-39 -20 -26 -19 -50 3 -66 24 -17 43 -97 46 -195 1 -43 8 -88 15 -101 7 -13
13 -57 13 -98 1 -54 4 -71 12 -65 18 15 38 -3 34 -30 -6 -45 -34 -34 -55 23
-52 140 -118 332 -137 401 -13 45 -21 58 -34 55 -18 -3 -19 -44 -3 -119 5 -20
7 -65 5 -100 -2 -43 2 -71 11 -86 18 -26 27 -121 16 -160 l-8 -28 -11 25 c-51
127 -77 206 -98 297 -13 59 -27 110 -31 114 -5 5 -8 -38 -7 -94 1 -96 9 -156
34 -237 5 -19 10 -35 10 -36 0 0 -7 -1 -15 -1 -8 0 -13 3 -10 5 3 3 -1 12 -9
21 -37 41 -79 149 -97 249 -26 147 -43 158 -36 22 4 -70 12 -122 26 -156 15
-40 17 -54 8 -64 -9 -10 -9 -11 1 -6 16 10 42 -17 42 -43 0 -32 -14 -26 -54
23 -68 83 -102 199 -123 413 l-6 62 -76 28 c-62 23 -92 28 -166 28 -77 0 -98
-4 -149 -28 -33 -15 -87 -52 -121 -82 -50 -44 -72 -73 -106 -142 -37 -74 -44
-99 -47 -161 -3 -46 0 -77 8 -87 6 -8 13 -44 15 -80 3 -45 15 -93 41 -158 67
-167 104 -229 256 -424 87 -113 88 -115 182 -484 53 -205 97 -343 146 -454 58
-131 119 -297 125 -341 10 -65 32 -102 77 -125 77 -40 185 -17 292 61 38 27
72 50 75 50 4 0 7 -8 8 -17 1 -39 36 -148 50 -158 9 -7 16 -40 20 -104 4 -68
11 -106 26 -135 15 -28 17 -41 9 -44 -7 -2 -12 -12 -12 -22 0 -31 -25 -42 -77
-34 -43 6 -47 5 -35 -9 9 -10 10 -17 2 -22 -5 -3 -10 -14 -10 -24 0 -23 -45
-127 -59 -135 -6 -4 -4 9 4 28 18 42 19 49 4 40 -8 -4 -7 0 1 15 6 12 15 19
21 16 5 -4 9 0 10 7 0 7 3 26 5 42 5 26 3 28 -20 22 -13 -3 -26 -1 -28 4 -2 6
-30 -8 -63 -31 -32 -23 -80 -47 -105 -55 -25 -7 -83 -35 -129 -62 -89 -51
-115 -78 -64 -67 18 4 10 -3 -24 -20 -29 -15 -53 -31 -53 -35 0 -4 11 -11 25
-14 16 -4 23 -11 19 -18 -8 -12 224 -6 261 7 15 5 16 4 6 -3 -17 -12 55 -8
134 7 53 10 126 4 136 -11 3 -5 37 -12 75 -16 57 -6 75 -5 98 9 25 15 26 17 7
22 -12 3 -21 9 -21 14 0 14 113 33 125 22 5 -5 21 -9 36 -9 14 0 38 -9 52 -20
14 -11 30 -20 37 -20 6 0 9 -4 6 -9 -3 -5 4 -12 17 -15 l22 -7 -25 -11 -25
-10 25 -11 c35 -15 36 -17 21 -26 -9 -6 -10 -11 -2 -15 6 -4 13 5 17 21 12 57
21 77 34 81 7 3 10 0 6 -6 -3 -5 -2 -21 3 -34 9 -23 10 -23 22 10 12 28 18 32
51 32 20 0 40 -5 43 -10 3 -6 1 -10 -6 -10 -9 0 -10 -3 -3 -10 7 -7 29 -6 68
1 43 9 60 9 69 0 8 -8 7 -11 -3 -11 -13 0 -13 -2 0 -10 8 -5 37 -10 64 -10 56
0 128 -19 120 -31 -7 -12 29 2 37 14 9 13 42 0 34 -13 -3 -5 -1 -10 4 -10 6 0
11 -6 11 -13 0 -9 11 -12 35 -9 29 4 34 1 29 -12 -3 -9 -1 -16 5 -16 6 0 11 4
11 9 0 5 9 11 21 14 33 9 12 30 -23 23 -17 -3 -41 -3 -54 0 -45 11 -24 19 41
16 36 -2 65 -7 65 -12 0 -11 50 -23 84 -21 22 2 27 -1 23 -12 -6 -15 11 -20
126 -33 40 -5 46 -4 41 9 -7 20 64 58 95 50 27 -7 28 -23 1 -23 -11 0 -20 -4
-20 -10 0 -5 15 -10 33 -10 18 0 38 -5 44 -11 6 -6 28 -9 49 -6 l39 4 -42 1
c-52 2 -58 21 -8 23 49 2 50 2 69 21 22 23 55 25 36 3 -10 -12 -9 -16 4 -21 9
-3 16 -14 17 -23 0 -9 5 -4 11 12 10 28 22 34 33 16 4 -6 13 -8 21 -5 8 3 14
0 14 -6 0 -9 3 -9 11 -1 6 6 18 9 27 6 12 -5 14 -1 8 20 -5 22 -3 27 13 27 14
0 18 -5 14 -18 -4 -17 0 -18 52 -11 31 4 69 4 85 -1 17 -5 30 -5 30 0 0 4 12
12 28 18 20 7 31 6 40 -4 14 -16 32 -18 32 -5 0 12 -20 27 -55 39 l-30 10 29
1 c16 1 38 -7 49 -17 19 -16 20 -16 31 2 31 52 44 62 65 49 11 -7 33 -13 47
-13 20 0 25 -4 22 -18 -4 -16 2 -17 66 -14 39 2 92 7 118 11 42 7 47 6 52 -12
7 -27 1 -34 -34 -42 -17 -4 -30 -11 -30 -16 0 -13 124 -1 128 12 2 5 27 6 58
3 37 -5 58 -3 69 6 14 11 19 7 16 -12 0 -5 3 -8 9 -8 5 0 10 8 10 19 0 11 9
21 23 25 34 9 59 7 52 -4 -3 -5 -1 -10 4 -10 6 0 11 8 11 17 0 13 3 14 12 5
18 -18 25 -15 32 13 4 16 16 27 34 31 15 4 32 11 39 16 7 5 14 5 18 -2 8 -13
72 -13 80 0 4 6 11 7 17 4 17 -11 105 -16 90 -5 -20 12 26 23 49 10 11 -6 20
-5 24 1 3 5 14 10 23 10 14 0 14 -2 3 -9 -11 -7 -9 -10 8 -16 25 -8 44 2 35
17 -4 7 -2 8 4 4 7 -4 12 -13 12 -20 0 -8 13 -13 30 -14 20 0 30 4 30 14 0 11
-6 14 -22 9 -23 -7 -23 -7 -3 9 23 17 60 22 50 5 -9 -14 24 -49 47 -49 13 0
18 7 18 25 0 14 4 25 10 25 5 0 7 7 4 15 -4 8 -1 15 5 15 14 0 32 -35 23 -45
-4 -4 7 0 25 9 39 20 43 20 43 1 0 -8 5 -15 10 -15 14 0 13 13 -2 28 -19 19 0
26 26 8 15 -9 27 -12 31 -6 9 15 45 12 51 -4 8 -20 34 -8 34 14 0 15 6 17 40
13 26 -4 40 -2 40 6 0 6 -6 11 -14 11 -8 0 -18 5 -22 11 -4 8 1 9 16 4 15 -5
20 -4 16 4 -4 6 0 11 9 11 14 0 16 -7 13 -38 -3 -20 -8 -45 -12 -54 -5 -12 -4
-18 4 -18 6 0 8 5 5 10 -3 6 -1 10 4 10 6 0 11 9 11 19 0 12 9 21 25 25 23 6
24 8 10 22 -8 8 -15 20 -15 25 0 12 17 12 25 -1 3 -6 17 -7 30 -4 12 3 26 1
29 -5 4 -6 12 -11 17 -11 6 0 7 5 4 10 -4 6 8 10 29 10 20 0 36 4 36 8 0 14
60 12 61 -1 1 -7 1 -21 1 -32 -1 -17 0 -17 4 -2 3 9 10 14 16 11 7 -4 8 -2 4
5 -4 6 -2 18 4 27 11 12 14 12 26 -3 12 -16 13 -15 14 12 1 25 3 28 13 15 17
-22 50 -14 42 11 -6 17 -1 19 34 19 26 0 41 -5 41 -12 1 -7 9 -3 19 10 19 21
43 25 69 9 7 -5 14 -2 18 7 8 20 25 10 22 -12 -2 -10 5 -18 17 -20 16 -2 17
-1 5 7 -12 8 -7 11 20 12 l35 1 -32 9 c-18 5 -33 13 -33 18 0 14 29 21 36 10
3 -6 15 -9 25 -6 11 3 19 0 19 -6 0 -7 5 -4 11 5 6 12 29 19 69 24 l60 7 0
188 c0 159 -2 189 -15 189 -8 0 -19 9 -25 20 -9 17 -21 19 -81 19 -48 -1 -76
4 -87 14 -9 8 -30 18 -47 22 l-30 8 30 7 c30 7 30 7 5 13 -14 3 -34 8 -45 10
-12 3 -7 6 15 8 115 9 -340 17 -847 14 -326 -2 -593 -1 -593 2 0 2 9 39 19 81
11 43 25 129 30 192 6 63 14 144 17 180 5 49 2 72 -10 95 -9 17 -16 40 -16 52
0 12 -4 24 -8 27 -13 8 -70 272 -102 471 -11 72 -22 142 -25 156 -2 16 5 39
19 60 43 65 104 184 117 229 7 25 21 57 31 72 25 36 39 123 26 160 -8 22 -6
40 6 71 20 53 20 123 1 205 -20 84 -36 114 -99 175 -99 99 -227 159 -340 159
-25 0 -48 3 -51 7 -20 33 -133 669 -170 956 -12 96 -16 120 -22 140 -4 11 -7
27 -8 35 -3 28 -44 175 -71 255 -27 81 -61 138 -75 129 -5 -3 -6 2 -3 11 4 9
3 15 -2 14 -17 -3 -54 13 -54 23 0 6 -7 5 -15 -2 -12 -10 -15 -10 -15 3 0 8 6
18 13 20 7 3 5 6 -5 6 -10 1 -18 5 -18 9 0 5 -16 16 -35 25 -34 16 -35 16 -23
-3 7 -11 16 -20 19 -20 18 0 28 -158 12 -169 -5 -3 -18 -22 -29 -41 -10 -19
-23 -38 -28 -41 -4 -4 -3 -10 3 -13 6 -4 11 -15 11 -25 0 -10 13 -34 30 -52
16 -19 30 -42 30 -51 0 -10 5 -18 11 -18 7 0 9 -11 5 -32 -4 -18 -7 -47 -7
-65 1 -18 -4 -35 -9 -38 -6 -3 -10 -21 -10 -40 0 -21 -6 -35 -16 -39 -9 -4
-14 -13 -10 -21 3 -9 0 -15 -9 -15 -8 0 -15 -4 -15 -9 0 -13 -43 -22 -54 -11
-6 6 -5 14 2 23 9 11 6 19 -13 37 -23 22 -25 22 -25 4 -1 -18 -1 -18 -11 0 -8
13 -13 15 -19 6 -5 -8 -9 -3 -14 13 -8 34 -28 39 -67 18 -19 -10 -39 -16 -45
-14 -6 2 -31 -14 -55 -37 -24 -22 -47 -40 -51 -40 -15 0 -60 -56 -85 -105 -14
-27 -37 -63 -52 -80 -16 -16 -43 -52 -62 -80 -19 -27 -40 -54 -48 -59 -9 -5
-10 -11 -3 -15 11 -7 -216 -131 -239 -131 -24 0 15 166 47 200 26 27 60 85
104 176 24 49 47 91 52 92 4 2 8 12 8 21 0 10 9 30 21 45 11 14 18 30 15 35
-3 5 1 11 9 15 8 3 15 14 15 23 0 10 27 47 60 82 65 69 110 138 110 170 0 11
5 23 10 26 6 3 10 21 10 39 0 18 9 60 21 95 20 57 20 63 5 80 -22 24 -20 32
10 64 14 15 22 32 19 37 -8 13 74 86 94 82 9 -1 5 4 -9 12 -14 9 -19 15 -12
16 18 0 15 20 -4 20 -8 0 -13 4 -10 9 3 5 -8 15 -26 22 -33 13 -103 77 -103
94 0 11 -48 28 -143 50 -58 12 -77 13 -88 4 -12 -9 -32 -4 -99 26 -100 44 -98
42 -117 228 -12 119 -10 134 21 212 5 11 14 42 20 69 8 33 25 64 51 92 29 31
40 54 46 89 9 65 0 180 -18 207 -15 24 -15 41 -4 102 5 25 2 54 -8 85 -28 88
-36 129 -36 187 0 39 -6 68 -16 83 -16 22 -16 23 6 16 15 -5 20 -4 16 4 -4 6
-26 15 -49 21 -23 6 -52 16 -64 22 -12 6 -29 8 -37 5 -8 -3 -18 -2 -21 3 -4 6
-13 10 -22 10 -26 0 -104 41 -97 51 3 5 22 9 42 9 45 0 72 14 47 24 -9 3 -30
6 -47 6 l-30 0 17 26 17 26 -45 -27 c-34 -19 -52 -24 -74 -19 -41 10 -43 12
-33 39 6 16 5 25 -2 27 -8 3 -8 10 -1 22 5 10 12 16 14 15 8 -7 45 26 44 39 0
16 -24 32 -40 26 -7 -3 -15 2 -18 10 -8 20 -17 20 -42 -2z m105 -1033 c0 -47
-16 -76 -68 -128 -27 -27 -42 -36 -42 -26 0 14 -25 61 -40 75 -3 3 -11 17 -18
31 -27 53 23 88 121 86 l47 -1 0 -37z m146 -1234 c1 -29 7 -50 13 -49 6 1 18
2 26 3 8 0 24 10 36 22 l21 21 -7 -24 c-4 -12 -20 -50 -36 -83 -16 -33 -35
-79 -44 -103 -29 -84 -60 -106 -97 -69 -10 9 -18 20 -19 25 0 4 -10 17 -22 30
-18 19 -19 27 -10 55 6 17 14 53 18 79 3 26 10 50 16 53 5 4 9 17 9 31 0 14
11 36 24 48 12 13 26 32 30 42 12 31 40 -24 42 -81z m-870 -602 l37 -78 4
-184 c2 -102 9 -193 14 -202 5 -10 12 -45 16 -78 3 -34 12 -66 19 -72 8 -6 14
-19 14 -28 0 -23 44 -114 63 -129 9 -7 19 -28 22 -45 4 -18 22 -48 41 -67 27
-29 36 -49 48 -113 9 -43 24 -93 35 -111 21 -33 14 -56 -16 -56 -7 0 -23 -19
-35 -41 -13 -23 -29 -53 -37 -68 -8 -14 -25 -34 -38 -44 -13 -10 -23 -23 -23
-28 0 -5 -8 -17 -19 -28 -10 -10 -23 -27 -29 -37 -9 -17 -15 -15 -64 24 -29
24 -87 69 -128 102 -99 77 -187 168 -195 203 -7 25 9 41 17 17 6 -18 72 -38
96 -29 30 11 28 25 -13 70 -19 22 -35 49 -35 62 0 12 -8 36 -19 52 -10 17 -24
48 -31 70 -7 22 -26 65 -43 95 l-30 55 48 105 c73 161 129 311 173 466 45 152
59 194 66 194 3 0 22 -35 42 -77z m1867 42 c-1 -5 4 -13 11 -17 8 -4 11 -18 8
-33 -3 -19 0 -25 14 -26 12 0 14 -3 6 -6 -11 -4 -10 -9 2 -22 11 -12 18 -46
22 -106 3 -49 8 -93 12 -99 3 -6 5 -27 3 -47 -1 -22 6 -53 18 -78 12 -22 21
-49 21 -61 0 -11 4 -20 9 -20 11 0 27 -102 22 -148 -1 -18 3 -39 9 -47 7 -8 8
-15 3 -15 -6 0 -8 -12 -5 -26 3 -16 -1 -29 -8 -34 -11 -7 -11 -11 -1 -24 7 -9
17 -13 22 -10 5 3 9 -6 9 -19 0 -34 -41 -32 -51 3 -4 14 -7 19 -8 13 -1 -7 -5
-13 -9 -13 -11 0 -42 66 -42 88 0 10 -9 35 -20 56 -11 22 -22 57 -24 80 -8 59
-32 166 -46 201 -22 55 -41 139 -50 220 -5 44 -12 94 -14 111 -5 34 1 48 27
57 9 3 17 14 17 22 0 11 7 15 23 13 12 -2 21 -7 20 -13z m-12 -710 c11 -44 38
-137 59 -207 22 -69 40 -128 40 -131 0 -3 -30 -27 -67 -53 -71 -51 -151 -126
-179 -169 -28 -42 -39 -14 -14 35 19 37 21 53 15 106 -5 46 -2 75 10 111 9 26
21 95 27 153 5 57 16 120 24 139 9 22 15 71 15 134 l1 99 24 -69 c13 -37 33
-104 45 -148z m573 -1742 c47 -144 76 -271 76 -339 0 -54 -2 -57 -59 -117 -70
-74 -105 -141 -133 -251 -30 -118 -26 -114 -113 -118 -46 -2 -75 1 -75 7 1 47
44 277 64 345 13 47 32 123 40 170 46 262 46 261 98 329 26 35 48 68 48 72 0
5 4 9 9 9 5 0 25 -48 45 -107z m-2312 -274 c205 -82 333 -108 602 -119 128 -5
255 -14 283 -19 76 -15 328 -15 406 -1 37 7 70 10 72 8 2 -2 -1 -21 -6 -43 -6
-22 -15 -58 -20 -80 -17 -65 -3 -116 48 -184 26 -33 48 -59 49 -58 2 1 -8 45
-21 97 -13 52 -21 97 -19 99 6 7 8 2 38 -119 16 -63 31 -121 34 -128 3 -10 -3
-13 -24 -12 -68 5 -327 -1 -321 -6 4 -4 83 -6 177 -5 129 1 172 -2 175 -11 3
-7 16 -60 29 -118 30 -126 34 -92 6 41 -11 52 -20 103 -20 115 0 11 -7 36 -17
54 -9 18 -18 58 -20 89 -2 31 -5 61 -8 68 -2 7 -1 15 4 17 10 7 12 66 2 66 -5
0 -6 12 -3 26 4 25 5 24 22 -13 10 -21 32 -53 49 -71 27 -29 31 -40 31 -90 0
-83 36 -195 75 -234 18 -18 40 -37 48 -43 12 -7 20 -37 27 -105 6 -52 13 -105
16 -117 4 -21 1 -23 -37 -23 -36 0 -40 -2 -29 -15 10 -12 10 -15 0 -15 -9 0
-10 -4 -2 -13 6 -7 14 -32 18 -55 10 -65 23 -60 17 7 -3 32 -1 61 4 64 5 3 10
-9 11 -26 2 -20 11 -39 27 -50 13 -10 29 -33 35 -52 12 -38 30 -47 30 -16 0
10 -7 21 -15 25 -10 3 -15 18 -14 43 l1 38 21 -47 c12 -26 27 -48 32 -48 16 0
126 -60 164 -88 23 -17 36 -22 39 -14 6 20 19 13 26 -13 4 -15 1 -31 -6 -38
-12 -13 -68 -11 -68 3 0 9 -57 23 -90 21 -33 -2 -60 16 -42 27 14 10 3 23 -30
35 -22 8 -22 4 -2 -31 l16 -27 -24 25 c-13 14 -32 27 -43 28 -11 2 -29 11 -39
20 -18 16 -18 16 -7 -6 26 -49 3 -29 -38 34 -25 38 -45 82 -48 105 -3 21 -9
39 -13 39 -8 0 6 -98 20 -136 6 -15 8 -29 6 -32 -3 -3 -9 4 -12 14 -4 10 -18
44 -31 74 l-24 55 5 -60 c3 -39 1 -51 -4 -35 -4 14 -8 37 -9 52 -1 14 -5 28
-10 30 -11 4 -21 88 -10 88 5 0 9 -4 9 -10 0 -5 10 -9 23 -9 14 1 16 3 6 6
-18 4 -39 44 -39 72 0 11 -6 21 -13 24 -7 3 -19 39 -26 83 -19 114 -22 118
-86 111 -35 -3 -55 -2 -58 6 -2 6 -9 7 -15 3 -18 -11 -4 -26 24 -26 36 0 30
-27 -8 -34 -63 -11 -184 -25 -261 -32 -42 -3 -75 -10 -71 -15 3 -5 14 -9 25
-9 14 0 19 -7 19 -30 0 -30 -21 -42 -35 -20 -3 6 -15 10 -26 10 -10 0 -19 -4
-19 -10 0 -5 6 -10 13 -10 8 0 7 -3 -3 -10 -8 -5 -25 -7 -37 -4 -16 4 -26 -1
-38 -20 -17 -25 -48 -35 -59 -17 -5 8 -15 7 -83 -5 -21 -4 -33 -2 -33 5 0 17
-48 14 -120 -8 -36 -11 -91 -25 -123 -31 -31 -6 -64 -18 -72 -26 -8 -9 -44
-20 -80 -25 -36 -5 -86 -14 -111 -19 -25 -6 -49 -8 -54 -5 -5 3 -11 1 -15 -5
-3 -5 -17 -10 -30 -10 -20 0 -23 5 -27 48 -6 70 0 342 8 377 3 17 19 44 34 60
46 51 60 78 60 116 0 31 -4 38 -29 49 -23 9 -30 20 -35 53 -8 51 -106 201
-147 226 -27 16 -77 71 -65 71 3 0 29 -10 58 -21z m52 -624 c4 -20 6 -93 5
-163 0 -70 2 -135 6 -145 8 -19 -30 -62 -62 -70 -94 -25 -115 -29 -133 -24
-11 3 -20 1 -20 -4 0 -5 -4 -9 -10 -9 -16 0 -11 73 9 131 36 104 44 124 56
139 6 8 22 33 34 55 24 41 91 122 102 124 4 1 10 -15 13 -34z"/>
<path d="M3232 7270 c-42 -10 -46 -14 -38 -44 4 -17 15 -26 36 -31 37 -8 47
-23 23 -32 -18 -6 -77 -52 -71 -54 2 -1 15 -2 29 -3 18 -1 25 2 22 11 -7 18
12 16 27 -2 10 -12 10 -15 -1 -15 -10 0 -10 -4 2 -16 14 -14 20 -14 50 -1 41
18 76 55 77 82 0 27 -27 98 -41 107 -15 10 -71 8 -115 -2z"/>
</g>
</svg>
