<?xml version="1.0" standalone="no"?>
<!DOCTYPE svg PUBLIC "-//W3C//DTD SVG 20010904//EN"
 "http://www.w3.org/TR/2001/REC-SVG-20010904/DTD/svg10.dtd">
<svg version="1.0" xmlns="http://www.w3.org/2000/svg"
 width="750.000000pt" height="1125.000000pt" viewBox="0 0 750.000000 1125.000000"
 preserveAspectRatio="xMidYMid meet">
<metadata>
Created by potrace 1.16, written by Peter Selinger 2001-2019
</metadata>
<g transform="translate(0.000000,1125.000000) scale(0.100000,-0.100000)"
fill="#000000" stroke="none">
<path d="M4924 7859 c-63 -30 -168 -116 -359 -294 -60 -56 -139 -126 -175
-155 -67 -55 -157 -141 -615 -590 -728 -713 -788 -761 -1094 -870 -134 -49
-188 -85 -221 -150 -17 -34 -24 -38 -69 -44 -55 -7 -221 -85 -313 -147 -31
-22 -85 -63 -120 -92 -35 -30 -164 -124 -288 -211 -321 -223 -373 -262 -429
-321 -63 -67 -82 -121 -58 -170 21 -43 15 -43 272 -6 212 31 363 47 355 38
-16 -17 -124 -66 -133 -60 -5 3 -7 1 -3 -5 3 -6 -4 -14 -16 -17 -13 -4 -32
-15 -43 -25 -11 -10 -27 -20 -35 -24 -28 -11 135 3 265 23 72 12 207 32 300
46 94 14 185 29 203 34 17 5 32 7 32 3 0 -7 -183 -181 -255 -243 -229 -196
-342 -311 -376 -384 -20 -44 -25 -125 -9 -156 15 -27 62 -25 315 11 116 16
230 29 255 29 l45 -1 -45 -16 c-25 -9 -67 -30 -95 -47 -27 -16 -52 -30 -55
-30 -3 0 -23 -15 -45 -32 l-40 -33 37 0 c41 0 449 57 713 100 99 16 203 31
230 35 28 3 86 15 130 25 44 11 159 33 255 49 378 64 793 143 950 182 249 61
499 166 564 237 11 13 40 44 64 68 47 50 112 132 112 142 0 4 -36 -28 -80 -70
-44 -43 -86 -78 -93 -78 -7 0 -28 -11 -47 -24 -43 -28 -221 -101 -299 -120
-193 -50 -804 -156 -1180 -206 -169 -22 -175 -22 -146 -10 16 7 11 9 -22 9
l-41 1 2 55 c3 67 16 85 17 24 l2 -44 8 45 c4 25 7 79 7 120 -1 66 -2 70 -8
30 -4 -25 -8 -35 -8 -23 -1 12 -6 25 -12 28 -6 4 -10 130 -10 344 0 269 3 341
13 350 36 29 158 41 440 41 337 0 642 14 762 35 190 33 349 117 472 249 143
153 329 459 603 991 51 99 96 185 100 190 4 6 47 86 95 180 115 221 165 317
204 390 48 89 159 330 187 405 25 69 32 154 13 166 -37 23 -84 22 -141 -2
-117 -49 -228 -127 -472 -333 -225 -190 -213 -185 -235 -110 -11 37 -58 142
-176 396 -31 66 -64 104 -90 102 -5 0 -38 -13 -71 -30z m129 -1611 c-14 -18
-49 -121 -68 -196 -9 -35 -20 -71 -25 -80 -4 -10 -14 -32 -20 -49 -9 -25 -19
-33 -36 -33 -19 0 -24 -5 -24 -25 0 -27 -18 -33 -38 -13 -9 9 -16 8 -30 -5
-20 -19 -57 -23 -47 -6 4 6 13 8 21 5 9 -3 14 2 14 14 0 11 -7 20 -15 20 -11
0 -13 4 -6 18 12 21 25 73 23 88 -1 6 9 23 23 38 14 15 25 29 25 32 0 3 16 20
36 38 23 21 35 40 31 49 -7 18 27 52 42 42 10 -6 15 7 12 28 -1 4 13 10 30 14
17 3 33 12 36 19 3 8 10 14 15 14 7 0 7 -4 1 -12z"/>
<path d="M5870 6018 c-30 -34 -77 -90 -105 -124 -49 -63 -50 -64 -71 -196 -12
-73 -27 -159 -34 -190 -16 -73 -7 -124 23 -132 32 -9 143 -7 214 3 47 7 78 20
132 55 39 25 71 51 71 58 0 7 -31 108 -69 223 -37 116 -74 242 -81 280 -8 39
-16 73 -19 77 -4 4 -31 -20 -61 -54z"/>
</g>
</svg>
