<?xml version="1.0" standalone="no"?>
<!DOCTYPE svg PUBLIC "-//W3C//DTD SVG 20010904//EN"
 "http://www.w3.org/TR/2001/REC-SVG-20010904/DTD/svg10.dtd">
<svg version="1.0" xmlns="http://www.w3.org/2000/svg"
 width="750.000000pt" height="1125.000000pt" viewBox="0 0 750.000000 1125.000000"
 preserveAspectRatio="xMidYMid meet">
<metadata>
Created by potrace 1.16, written by Peter Selinger 2001-2019
</metadata>
<g transform="translate(0.000000,1125.000000) scale(0.100000,-0.100000)"
fill="#000000" stroke="none">
<path d="M4851 8367 c-42 -21 -201 -158 -306 -263 -240 -241 -374 -404 -590
-720 -113 -165 -316 -430 -452 -589 -70 -83 -182 -217 -247 -300 -149 -186
-135 -168 -197 -245 -75 -94 -312 -327 -394 -387 -62 -46 -187 -120 -380 -223
-71 -38 -92 -56 -111 -92 -13 -24 -13 -32 0 -57 27 -51 149 -128 262 -165 50
-16 58 -16 226 8 96 14 195 30 219 35 61 15 99 14 99 -2 0 -39 -176 -80 -323
-75 -127 4 -127 -10 -2 -43 161 -42 544 -34 583 12 9 11 27 19 39 19 14 0 23
6 23 15 0 8 7 15 16 15 8 0 12 5 9 10 -3 6 1 10 9 10 9 0 16 5 16 10 0 6 4 10
9 10 16 0 92 73 116 110 12 19 43 87 70 150 69 166 152 330 166 330 4 0 11 -5
14 -10 10 -16 23 -2 51 53 45 88 121 191 194 262 39 37 70 69 70 71 0 3 -26
-12 -57 -32 -138 -88 -257 -119 -131 -34 28 19 56 40 62 46 6 5 70 53 141 104
72 52 186 139 255 194 69 55 127 101 129 103 2 1 -4 56 -13 120 -9 65 -16 135
-16 156 0 23 -5 37 -13 37 -6 0 -50 -27 -96 -60 -46 -33 -86 -58 -89 -56 -12
13 52 70 150 136 42 28 42 28 63 194 21 163 29 193 82 326 67 169 188 384 356
634 77 115 103 172 87 192 -17 20 -48 17 -99 -9z"/>
<path d="M6380 8266 c-60 -23 -132 -66 -205 -125 -89 -70 -259 -234 -295 -283
-24 -33 -111 -131 -223 -252 -20 -22 -35 -47 -32 -54 3 -8 -4 -25 -15 -39 -23
-30 -27 -18 -4 15 21 31 8 28 -21 -5 -25 -29 -33 -49 -15 -38 6 3 10 1 10 -5
0 -6 -8 -10 -17 -8 -10 2 -30 -15 -51 -42 -19 -25 -55 -69 -81 -99 -50 -59
-58 -71 -43 -71 5 0 13 7 16 16 4 9 9 14 13 11 6 -7 -56 -85 -135 -169 -30
-31 -60 -65 -68 -76 -7 -10 -37 -43 -67 -73 -62 -63 -188 -228 -244 -320 -96
-157 -118 -239 -110 -399 7 -134 27 -209 104 -400 30 -74 56 -136 57 -138 2
-1 13 28 26 65 48 146 112 248 246 396 18 21 34 42 34 46 0 4 14 18 31 30 17
13 27 17 23 10 -5 -8 -25 -39 -45 -69 -20 -30 -46 -75 -58 -99 l-23 -43 34 26
c19 14 66 63 104 108 129 153 228 263 299 333 40 39 78 86 85 105 78 207 246
546 371 750 52 85 117 193 143 240 27 47 101 168 164 269 174 279 203 358 142
388 -32 16 -105 15 -150 -1z"/>
<path d="M6530 7941 c0 -10 -7 -22 -16 -25 -8 -3 -13 -10 -9 -16 3 -5 -5 -20
-17 -32 -13 -13 -24 -26 -24 -30 -1 -5 -2 -12 -3 -17 0 -5 -9 -12 -20 -16 -13
-4 -17 -12 -14 -29 5 -23 -6 -42 -57 -97 -14 -15 -26 -33 -28 -40 -2 -8 -12
-20 -22 -28 -11 -7 -20 -23 -20 -36 0 -14 -9 -26 -26 -34 -19 -8 -23 -15 -16
-24 12 -14 -10 -51 -23 -39 -4 4 -5 -4 -2 -16 4 -19 -1 -27 -24 -40 -16 -10
-29 -24 -29 -32 0 -8 -10 -27 -22 -41 -29 -32 -45 -56 -63 -96 -9 -18 -19 -33
-24 -33 -18 0 -21 -33 -4 -46 17 -12 16 -13 -9 -14 -18 0 -29 -7 -33 -20 -3
-11 -12 -20 -18 -21 -7 -1 -1 -4 13 -9 24 -7 24 -8 5 -16 -20 -8 -65 -49 -65
-59 0 -3 7 -5 15 -5 25 0 17 -17 -11 -24 -15 -4 -24 -10 -20 -13 3 -3 1 -12
-4 -18 -8 -9 -4 -11 15 -7 15 2 25 0 25 -7 0 -6 -8 -11 -18 -11 -10 0 -28 -13
-40 -30 -20 -26 -20 -30 -6 -38 14 -8 13 -10 -8 -15 -24 -6 -37 -47 -15 -47 7
-1 2 -9 -10 -19 -12 -10 -19 -21 -16 -25 4 -3 1 -6 -5 -6 -7 0 -12 -4 -12 -10
0 -5 17 -10 38 -10 20 0 44 -4 52 -10 9 -5 19 -5 27 2 9 7 17 7 28 -2 13 -11
14 -10 9 4 -4 10 -18 16 -40 16 -30 0 -34 3 -34 25 0 25 6 28 45 26 11 0 14 2
8 5 -7 3 -13 10 -13 15 0 6 10 5 22 -2 16 -9 23 -9 26 0 2 6 12 11 23 11 10 0
19 5 19 11 0 6 -9 8 -21 4 -29 -10 -20 16 11 32 21 10 20 11 -13 10 -29 -1
-34 -4 -25 -14 8 -9 7 -13 -2 -13 -10 0 -9 -4 1 -16 12 -14 11 -16 -6 -12 -11
2 -18 11 -16 19 2 8 4 23 6 34 1 11 3 24 4 28 0 5 10 5 21 2 24 -8 26 2 3 27
-15 17 -15 18 13 19 16 1 35 1 43 0 7 -2 10 2 6 8 -3 6 -15 11 -26 11 -10 0
-19 4 -19 9 0 5 -8 12 -17 14 -10 3 -4 5 14 6 17 0 34 -3 37 -8 3 -5 22 -12
41 -15 20 -4 33 -11 30 -17 -4 -5 -2 -9 4 -9 5 0 18 -3 28 -7 16 -6 16 -5 3 8
-23 23 -56 39 -82 39 -19 0 -20 2 -8 10 13 9 13 11 0 19 -9 7 -17 6 -21 -1 -4
-6 -12 -2 -19 12 -9 16 -9 20 -1 15 17 -10 64 24 57 41 -4 10 2 14 19 14 35 0
31 15 -7 28 -33 11 -33 11 7 5 22 -3 49 -12 60 -19 11 -7 36 -11 55 -9 31 4
32 4 11 -5 -14 -6 -41 -10 -62 -8 -29 1 -43 -4 -57 -20 -11 -12 -24 -22 -31
-22 -6 0 -11 -4 -11 -10 0 -5 17 -9 38 -9 20 1 29 3 20 6 -40 10 -4 43 38 35
26 -5 33 -22 9 -22 -9 0 -18 -7 -21 -15 -4 -8 -17 -15 -30 -15 -13 0 -24 -4
-24 -10 0 -14 14 -12 56 8 28 13 38 14 41 4 3 -6 9 -10 14 -6 5 3 9 0 9 -5 0
-6 9 -11 20 -11 22 0 27 -16 8 -23 -7 -2 -22 4 -33 14 -16 14 -28 17 -49 11
-24 -7 -26 -9 -13 -20 10 -8 17 -9 21 -3 4 6 14 7 22 4 12 -4 12 -8 4 -13 -8
-5 1 -12 24 -20 21 -7 33 -16 30 -22 -5 -7 0 -9 14 -6 12 4 24 3 27 -2 6 -9
-25 -18 -42 -13 -7 3 -13 10 -13 17 0 6 -15 13 -32 14 -23 1 -29 -1 -19 -7 11
-7 10 -11 -7 -22 -16 -10 -18 -16 -10 -26 8 -10 6 -13 -6 -13 -9 0 -16 -4 -16
-9 0 -5 -8 -8 -17 -6 -10 1 -12 0 -5 -2 6 -3 12 -9 12 -14 0 -5 9 0 20 11 11
11 26 17 35 14 11 -5 13 -2 9 10 -3 9 -11 16 -18 16 -13 1 24 30 38 30 6 0 5
-5 -2 -12 -20 -20 -14 -24 28 -20 25 3 40 0 40 -7 0 -7 -13 -9 -35 -5 -26 4
-35 2 -35 -9 0 -8 6 -15 13 -14 6 0 26 -1 42 -2 28 -2 28 -3 8 -11 -14 -6 -20
-15 -17 -27 4 -14 -2 -23 -21 -31 -32 -15 -35 -15 -35 -1 0 5 3 8 8 6 4 -3 16
4 26 14 17 17 18 19 3 19 -9 0 -17 -4 -17 -9 0 -5 -34 -12 -75 -16 -41 -4 -75
-12 -75 -17 0 -5 9 -7 20 -3 26 8 68 -14 49 -26 -24 -15 -51 -10 -74 15 -24
26 -65 43 -65 27 0 -5 9 -13 20 -16 31 -10 24 -26 -10 -23 -17 1 -29 7 -26 13
2 6 -12 10 -35 10 -21 0 -33 -3 -26 -7 7 -4 19 -8 28 -8 8 0 24 -8 35 -18 17
-17 21 -18 42 -4 18 12 28 13 41 5 23 -15 81 -26 81 -16 0 4 11 13 25 20 15 6
22 7 19 1 -16 -25 40 -31 111 -11 17 5 18 4 6 -10 -7 -9 -17 -15 -21 -12 -5 3
-20 1 -33 -4 -16 -6 -38 -7 -58 -1 -25 8 -39 6 -57 -6 -19 -13 -26 -13 -32 -4
-10 15 -57 5 -82 -17 -9 -8 -40 -17 -68 -19 -45 -3 -50 -1 -40 11 9 11 9 15 1
15 -6 0 -11 -4 -11 -10 0 -5 -6 -10 -12 -10 -18 1 -53 29 -45 36 4 4 13 1 22
-6 9 -7 19 -10 22 -6 10 10 -17 26 -42 26 -11 -1 -31 -9 -43 -20 -23 -19 -23
-20 -6 -37 17 -17 16 -18 -9 -27 -31 -11 -33 -18 -12 -36 12 -10 15 -10 15 2
0 20 40 37 76 31 26 -4 24 -2 -13 18 -24 13 -43 26 -43 31 0 12 7 10 51 -13
22 -11 61 -22 87 -24 26 -2 49 -4 52 -5 3 -1 8 -2 13 -1 4 0 7 -4 7 -9 0 -6
-10 -10 -22 -11 -13 0 -32 -4 -43 -9 -15 -7 -8 -9 30 -10 79 0 85 -1 85 -9 0
-13 -144 -5 -148 8 -2 6 -8 11 -13 11 -18 0 14 -36 33 -37 23 -2 34 -10 26
-19 -3 -3 -22 2 -42 10 -32 13 -51 7 -26 -9 19 -12 -1 -25 -38 -25 -23 0 -32
3 -24 9 10 6 10 10 -3 21 -8 7 -18 10 -22 6 -3 -3 -1 -6 6 -6 7 0 9 -4 6 -10
-10 -17 -32 -11 -38 10 -7 26 -33 26 -48 -1 -10 -20 -9 -21 9 -17 12 4 28 -1
39 -11 10 -10 25 -15 32 -13 8 3 11 0 8 -5 -4 -6 7 -9 28 -7 37 3 43 -4 23
-25 -7 -8 -1 -6 15 4 21 13 25 21 16 31 -8 10 -4 13 18 12 15 0 49 9 75 21 53
24 68 27 50 9 -7 -7 -16 -13 -20 -13 -4 0 -18 -8 -31 -17 -21 -15 -22 -18 -8
-24 10 -3 28 -3 42 0 14 4 25 2 25 -4 0 -13 -67 -13 -75 0 -11 18 -53 11 -60
-9 -7 -25 -38 -35 -90 -32 -38 2 -39 2 -20 -13 11 -8 30 -16 43 -16 14 0 21
-4 17 -11 -4 -6 -14 -8 -22 -5 -9 4 -22 1 -29 -5 -9 -7 -14 -8 -14 -1 0 6 6
13 13 15 6 3 -3 6 -20 6 -22 1 -33 -4 -33 -13 0 -7 -10 -17 -22 -21 -22 -8
-22 -8 5 -12 20 -3 27 -10 27 -26 0 -18 -2 -19 -10 -7 -8 12 -10 12 -16 -3 -4
-13 -14 -16 -38 -12 l-31 5 29 -16 c20 -11 31 -13 39 -5 15 15 42 14 57 -4 10
-12 6 -13 -24 -8 -29 4 -36 2 -36 -11 0 -9 -5 -16 -11 -16 -5 0 -7 5 -4 10 8
13 -1 13 -25 0 -22 -12 -16 -47 9 -53 9 -2 4 -3 -11 -1 -15 2 -30 -1 -33 -6
-3 -6 1 -10 10 -10 31 0 4 -20 -28 -21 -27 0 -29 -2 -12 -9 18 -8 18 -9 -5
-10 -19 -2 -20 -4 -7 -7 11 -3 16 -11 13 -19 -3 -8 -1 -14 4 -14 6 0 10 -5 10
-12 0 -6 -8 -4 -19 6 -20 18 -51 12 -51 -10 0 -8 5 -14 10 -14 6 0 10 5 10 10
0 6 5 10 11 10 8 0 8 -4 -1 -15 -6 -8 -8 -19 -4 -26 5 -8 -1 -10 -19 -7 -23 4
-25 3 -16 -14 7 -14 6 -20 -6 -24 -8 -3 -15 -12 -15 -19 0 -20 -21 -30 -31
-14 -5 8 -9 10 -9 5 0 -6 12 -23 28 -39 18 -21 21 -28 10 -24 -24 9 -45 15
-36 10 8 -5 -2 -36 -15 -44 -5 -4 0 -10 12 -14 11 -3 21 -13 21 -21 0 -10 6
-13 18 -10 9 3 24 1 32 -4 11 -7 8 -10 -16 -10 -17 0 -41 9 -54 20 -13 11 -25
20 -27 20 -2 0 -1 -9 2 -20 5 -14 2 -20 -9 -20 -21 0 -20 -6 4 -40 l20 -27
-26 0 c-27 0 -61 -35 -41 -42 6 -2 18 -10 25 -18 10 -10 11 -13 1 -13 -7 0 -4
-6 7 -15 10 -8 14 -15 8 -15 -16 0 -35 25 -26 35 4 5 -1 5 -11 2 -10 -4 -21
-7 -25 -7 -3 0 7 -14 24 -32 l29 -31 -34 23 c-29 20 -33 21 -28 6 4 -11 -1
-25 -13 -38 -22 -23 -18 -35 14 -48 18 -8 16 -9 -13 -9 -24 -1 -32 -5 -28 -15
3 -8 -1 -17 -9 -20 -8 -3 -14 -10 -14 -16 0 -6 5 -8 10 -5 6 3 17 -1 26 -10
15 -15 14 -15 -8 -10 -20 5 -26 2 -31 -14 -8 -32 -27 -25 -27 9 0 17 4 30 9
30 11 0 19 30 14 48 -6 17 -23 5 -23 -16 0 -9 -7 -30 -15 -46 -8 -15 -13 -32
-10 -36 3 -4 -2 -13 -10 -20 -8 -7 -15 -22 -15 -35 0 -12 -3 -25 -7 -29 -5 -4
-8 -11 -9 -14 0 -4 -3 -14 -6 -22 -3 -8 -16 -46 -28 -85 -12 -38 -23 -76 -25
-83 -3 -7 -4 -15 -4 -18 0 -3 -6 -15 -14 -27 -18 -27 -32 -87 -20 -87 9 0 43
78 43 101 0 8 4 19 9 25 4 5 14 32 21 59 7 28 18 55 24 60 6 6 11 16 12 23 1
6 2 23 3 37 0 17 7 25 19 25 13 0 14 2 3 9 -9 6 -10 11 -2 15 6 4 11 16 11 27
0 21 16 24 40 9 13 -8 11 -12 -8 -26 -13 -9 -22 -23 -20 -32 1 -10 -6 -31 -15
-49 -20 -38 -21 -43 -4 -39 6 1 9 1 4 -2 -15 -8 -38 -64 -33 -78 3 -8 1 -14
-4 -14 -5 0 -11 -9 -15 -19 -3 -11 -14 -22 -23 -24 -13 -4 -11 -5 5 -6 25 -1
42 -21 18 -21 -18 0 -37 -41 -24 -54 5 -5 2 -14 -7 -21 -9 -6 -17 -23 -17 -38
-1 -15 -5 -27 -10 -27 -4 0 -13 -11 -19 -25 -6 -14 -18 -25 -27 -25 -14 0 -14
-2 -2 -9 12 -8 13 -15 4 -34 -13 -28 2 -42 28 -26 8 5 21 9 29 9 13 -1 13 -2
-1 -13 -24 -18 -27 -40 -9 -60 14 -14 22 -16 44 -8 17 7 26 7 26 1 0 -6 8 -10
17 -10 15 0 15 -1 -2 -14 -23 -16 -13 -51 11 -42 9 4 24 1 33 -6 14 -11 14
-11 3 3 -10 14 -10 18 3 23 9 3 15 0 15 -10 0 -8 5 -12 10 -9 6 4 7 11 4 17
-4 6 -2 8 4 4 6 -3 13 -2 17 4 7 12 -34 30 -52 23 -7 -3 -13 1 -13 8 0 7 -7
20 -15 29 -14 15 -14 19 1 31 16 12 17 12 12 -6 -7 -27 11 -43 48 -40 43 3 46
4 39 15 -5 8 -11 7 -21 -1 -11 -9 -14 -9 -14 1 0 7 -7 10 -15 6 -8 -3 -15 -1
-15 4 0 6 10 11 23 12 12 0 28 2 36 2 8 1 16 7 19 14 3 9 7 10 17 2 10 -8 15
-6 20 9 7 25 52 54 68 45 9 -5 9 -4 0 7 -19 19 -16 26 12 33 25 6 34 29 15 41
-19 12 -11 26 9 15 11 -5 34 -10 52 -10 31 0 32 0 14 20 -10 11 -15 23 -11 27
4 4 11 2 15 -5 10 -16 59 1 68 24 3 8 17 20 32 26 22 9 23 12 8 15 -10 3 -16
10 -14 16 3 7 10 11 16 9 6 -1 11 2 11 6 0 4 12 9 27 10 33 3 42 11 23 22 -10
7 -11 10 -2 10 6 0 11 6 10 13 -2 7 8 12 25 12 l28 -1 -23 18 c-19 15 -20 18
-5 18 10 0 17 8 17 20 0 20 8 24 45 21 11 -1 16 2 10 6 -15 12 -17 33 -2 33 7
0 18 9 25 20 7 11 17 20 23 20 6 0 17 6 25 14 11 11 11 16 1 19 -7 3 -5 6 5 6
9 1 27 16 40 34 31 44 65 84 116 135 24 24 41 49 39 55 -2 6 10 27 27 45 17
19 30 40 28 48 -2 8 2 14 8 14 5 0 10 6 10 13 0 8 9 22 20 32 11 10 20 24 20
32 0 7 5 13 10 13 6 0 10 5 10 11 0 14 25 39 39 39 6 0 11 5 11 10 0 6 11 22
25 35 13 14 21 25 18 25 -3 0 10 16 30 35 21 20 37 40 37 45 0 5 14 23 30 40
17 17 30 41 30 53 0 18 2 19 10 7 8 -12 10 -9 10 13 0 17 7 30 18 34 27 10 52
40 53 65 0 13 3 17 6 11 3 -10 10 -10 24 -2 16 8 19 17 14 42 -7 31 -6 31 9
12 13 -17 15 -17 16 -4 0 9 7 22 15 29 8 7 15 23 15 36 0 17 4 22 16 17 13 -5
14 0 8 33 -6 36 -6 38 9 25 15 -12 17 -10 17 13 0 14 5 26 11 26 6 0 9 9 6 20
-3 11 -2 20 3 20 4 0 8 21 9 48 0 26 5 61 9 77 5 17 5 42 1 57 -7 29 -2 68 10
68 16 0 2 52 -17 66 -12 8 -22 26 -22 39 0 15 -10 31 -25 41 -29 19 -34 40 -6
24 30 -16 46 -13 31 5 -8 9 -10 28 -6 50 5 23 3 35 -4 35 -7 0 -9 8 -5 19 4
14 0 21 -14 26 -10 3 -22 17 -25 30 -4 14 -11 25 -16 25 -16 0 -12 -12 20 -59
17 -24 30 -50 30 -58 0 -27 -19 -2 -51 65 -18 37 -35 69 -39 72 -5 3 -13 25
-20 49 -6 24 -19 55 -27 68 -8 12 -13 33 -10 45 3 13 1 32 -3 43 -7 16 -9 13
-10 -15 0 -30 -2 -32 -11 -17 -6 10 -8 25 -5 33 3 8 1 14 -3 14 -5 0 -12 -6
-14 -12 -4 -8 -6 -7 -6 3 -1 9 -8 22 -16 29 -8 7 -15 21 -15 32 0 10 -7 21
-15 24 -8 4 -15 12 -15 19 0 7 -12 22 -27 33 -16 11 -25 24 -21 28 5 4 17 -1
27 -10 19 -18 20 -17 19 26 0 23 -3 36 -6 28 -14 -40 -62 -24 -57 19 1 14 -6
38 -16 53 -12 16 -16 29 -9 33 5 3 10 -1 10 -9 0 -9 5 -16 10 -16 6 0 10 6 10
14 0 8 -4 18 -10 21 -5 3 -10 16 -10 28 1 20 2 20 11 4 6 -9 14 -15 19 -12 5
3 11 1 15 -5 11 -19 25 0 25 35 0 32 13 54 23 38 2 -5 2 -1 -1 7 -8 26 -5 84
6 118 9 26 8 32 -4 32 -8 0 -14 -9 -14 -19z"/>
<path d="M5057 7559 c-9 -6 -17 -19 -17 -29 0 -10 -9 -25 -20 -33 -19 -13 -19
-15 13 -57 17 -24 26 -41 19 -36 -6 4 -12 2 -12 -3 0 -6 -7 -11 -15 -11 -8 0
-15 -4 -15 -9 0 -5 7 -11 15 -15 8 -3 15 -12 15 -21 0 -8 5 -15 11 -15 14 0 5
-70 -11 -80 -7 -4 -3 -15 10 -30 23 -26 25 -42 9 -72 -15 -27 7 -52 22 -25 6
9 18 17 28 17 10 0 26 9 36 20 15 16 16 26 8 59 -6 22 -8 51 -6 65 3 13 -2 38
-10 55 -9 18 -11 33 -6 37 16 9 10 38 -16 75 -13 20 -21 39 -18 43 3 3 0 12
-7 21 -7 8 -10 21 -7 30 8 19 -4 26 -26 14z"/>
<path d="M4330 6432 c-87 -87 -99 -104 -115 -157 -10 -33 -28 -88 -41 -123
-13 -34 -24 -67 -24 -72 0 -6 37 30 81 80 45 50 90 95 101 101 58 31 153 269
107 269 -6 0 -55 -44 -109 -98z"/>
<path d="M5644 6511 c-5 -10 -42 -54 -83 -97 -153 -162 -193 -219 -241 -345
-24 -65 -24 -66 -2 -47 9 8 40 25 67 37 28 13 56 28 64 34 7 7 19 12 25 13 6
0 19 2 28 2 10 1 21 16 27 35 5 17 39 108 75 202 36 93 66 173 66 177 0 15
-17 8 -26 -11z"/>
<path d="M3701 5564 c-12 -26 -24 -59 -27 -73 -3 -14 -15 -50 -25 -79 -17 -48
-25 -92 -15 -92 2 0 22 7 45 15 99 34 131 83 131 196 l0 69 -29 0 c-16 0 -36
3 -44 6 -11 4 -21 -8 -36 -42z"/>
<path d="M4576 5232 c-3 -6 -9 -31 -12 -55 -6 -41 -4 -46 21 -63 33 -21 171
-32 203 -15 12 7 24 29 32 61 7 28 11 53 9 55 -2 2 -28 -1 -57 -6 -50 -9 -116
0 -173 25 -10 4 -20 3 -23 -2z"/>
<path d="M3605 5039 c-185 -19 -338 -66 -450 -139 -91 -59 -165 -161 -165
-225 1 -105 136 -237 356 -349 85 -43 94 -45 175 -45 46 -1 131 -5 189 -11
150 -14 254 -12 343 5 96 18 137 38 62 31 -27 -3 -77 -8 -111 -11 -58 -6 -302
10 -313 20 -9 10 6 14 74 20 71 6 113 15 195 40 25 8 79 21 121 30 178 36 311
88 405 160 89 67 232 263 208 284 -11 9 -246 89 -354 120 -134 38 -222 52
-415 66 -211 16 -207 16 -320 4z"/>
<path d="M2755 5009 c-3 -5 -22 -6 -42 -3 -20 3 -33 2 -29 -4 3 -5 -1 -17 -8
-28 -11 -15 -17 -16 -29 -6 -11 10 -17 10 -22 2 -4 -7 -22 -10 -41 -8 -28 3
-34 1 -34 -14 0 -19 -25 -25 -35 -8 -9 15 -35 12 -35 -4 0 -10 -11 -15 -32
-15 -60 -1 -133 -13 -140 -24 -9 -14 -61 -16 -71 -3 -6 7 -7 4 -4 -6 7 -22
-15 -42 -30 -27 -8 8 -17 8 -31 0 -15 -8 -23 -7 -31 3 -14 16 -77 6 -73 -12 3
-15 -24 -16 -33 -2 -10 16 -75 12 -75 -4 0 -19 -79 -33 -90 -16 -5 8 -13 9
-21 4 -7 -4 -58 -9 -114 -11 -133 -4 -162 -7 -171 -15 -4 -5 -18 -8 -32 -8
-17 0 -23 -4 -18 -15 5 -13 3 -13 -17 -1 -17 12 -31 13 -67 5 -24 -6 -53 -8
-64 -5 -11 3 -26 0 -33 -6 -8 -6 -43 -11 -79 -12 -62 -1 -65 -2 -61 -23 5 -25
-3 -29 -21 -11 -9 9 -15 9 -23 1 -7 -7 -21 -8 -42 -2 -20 5 -35 5 -43 -2 -7
-6 -22 -8 -34 -4 -11 3 -20 2 -20 -3 0 -5 -17 -6 -40 -2 -35 6 -40 5 -40 -11
0 -22 -11 -24 -28 -7 -9 9 -12 8 -12 -5 0 -20 -59 -24 -78 -5 -9 9 -12 8 -12
-5 0 -15 -6 -16 -41 -11 -40 7 -40 6 -33 -21 l7 -27 -33 17 c-20 10 -43 14
-59 11 -14 -4 -39 -9 -56 -12 -16 -3 -43 -10 -60 -15 -16 -6 -43 -13 -60 -16
-16 -3 -35 -9 -42 -15 -7 -5 -17 -7 -22 -3 -13 7 -91 -65 -91 -84 0 -11 9 -12
43 -5 23 5 70 9 103 9 44 1 67 6 79 19 10 10 22 13 29 8 6 -4 31 -6 56 -5 25
2 69 5 97 6 35 1 53 6 53 15 0 9 11 10 40 6 29 -5 40 -3 40 6 0 7 6 10 13 7
18 -7 51 19 42 33 -5 8 0 8 16 -1 25 -14 28 -15 72 -24 20 -4 27 -1 27 9 0 10
6 13 15 10 21 -9 19 2 -7 26 -12 11 -17 20 -11 20 7 0 19 -8 29 -17 14 -14 35
-18 96 -18 43 -1 78 3 78 8 0 5 14 6 30 2 19 -4 36 -2 45 5 10 8 19 9 28 3 16
-12 111 -7 115 6 3 8 10 8 23 0 13 -7 31 -7 52 -1 18 6 53 9 80 8 26 -2 47 1
47 6 0 4 7 8 15 8 8 0 15 -7 15 -16 0 -12 4 -14 13 -7 6 6 50 11 97 12 54 1
93 7 107 17 28 18 33 18 33 -3 0 -14 2 -14 20 2 20 18 75 27 158 26 23 0 42 4
42 9 0 6 5 10 11 10 5 0 7 -4 4 -10 -3 -5 0 -7 8 -4 8 3 18 1 22 -5 10 -17 29
-13 69 14 20 14 43 25 50 25 17 0 76 29 98 48 10 8 24 12 32 9 8 -3 22 3 32
14 9 10 25 19 34 19 10 0 23 7 30 15 7 8 20 15 29 15 9 0 33 9 54 20 20 11 50
20 67 20 16 0 30 5 30 10 0 6 7 10 15 10 8 0 15 4 15 9 0 16 61 41 86 35 30
-8 32 15 4 41 -22 20 -67 29 -75 14z"/>
<path d="M210 4365 c0 -26 41 -37 219 -60 166 -21 181 -26 121 -39 -33 -7
-110 -57 -110 -72 0 -29 178 -30 865 -9 l480 15 125 62 125 62 -95 7 c-52 3
-346 7 -653 8 -307 1 -563 4 -570 6 -7 2 -89 6 -182 9 -157 5 -226 10 -297 21
-20 3 -28 0 -28 -10z"/>
<path d="M5806 4335 c-3 -19 -9 -51 -12 -71 -5 -30 -2 -40 21 -64 68 -71 257
-91 330 -35 14 12 20 31 23 81 l4 66 -43 -7 c-90 -16 -181 -1 -258 41 -24 13
-47 24 -51 24 -4 0 -11 -16 -14 -35z"/>
<path d="M4720 4301 c0 -5 -8 -12 -17 -14 -17 -4 -17 -5 0 -6 19 -1 23 -16 6
-27 -6 -3 -15 -1 -19 7 -7 10 -11 10 -23 0 -13 -10 -9 -19 30 -59 26 -26 40
-48 33 -50 -12 -4 -50 31 -50 46 0 6 -10 16 -23 25 -20 13 -26 13 -50 1 -39
-21 -33 -32 13 -29 38 2 68 -14 42 -23 -7 -2 -10 -8 -7 -12 3 -5 12 -7 19 -4
8 3 17 1 21 -5 3 -7 0 -8 -9 -5 -17 7 -22 -11 -6 -21 13 -8 13 -25 0 -25 -5 0
-16 15 -24 34 -16 39 -56 68 -56 41 0 -8 3 -15 8 -15 4 0 15 -12 26 -26 18
-26 18 -26 -3 -15 -11 7 -28 22 -36 35 -10 15 -25 24 -41 24 -19 0 -22 -3 -13
-9 12 -8 11 -11 -1 -19 -12 -8 -10 -10 10 -10 23 0 118 -69 96 -70 -6 0 -20
10 -33 22 -13 12 -25 19 -28 16 -9 -9 52 -71 62 -65 6 4 25 -7 44 -22 18 -16
38 -27 44 -25 20 6 80 -31 93 -58 12 -26 42 -30 42 -6 0 5 -4 6 -10 3 -5 -3
-10 3 -10 14 0 12 -4 21 -9 21 -6 0 -36 24 -68 53 -32 30 -65 57 -73 60 -10 4
-8 6 7 6 12 1 28 -7 35 -17 19 -25 88 -75 95 -68 4 3 -2 16 -13 29 -35 40 -64
86 -63 99 0 7 5 3 11 -9 6 -13 15 -23 20 -23 4 0 8 -6 8 -12 0 -7 16 -31 35
-53 39 -44 49 -33 11 12 -13 15 -24 31 -25 36 -3 23 -54 87 -69 87 -5 0 -17
11 -26 25 -14 22 -15 25 -1 25 8 0 15 4 15 9 0 4 -12 7 -27 4 -26 -3 -27 -3
-5 6 12 6 22 19 22 29 0 15 6 18 28 15 26 -4 26 -4 8 11 -22 18 -46 21 -46 7z"/>
<path d="M4754 4257 c3 -10 6 -21 6 -23 0 -2 8 -4 19 -4 10 0 24 -7 31 -15 8
-9 9 -15 2 -15 -6 0 -14 5 -17 10 -6 9 -52 7 -61 -3 -3 -2 11 -14 29 -27 18
-13 41 -36 50 -53 13 -21 23 -28 37 -24 11 3 22 1 25 -3 3 -5 19 -7 36 -5 24
3 32 0 36 -16 5 -16 8 -17 21 -7 12 10 16 10 19 0 3 -6 9 -10 13 -7 13 8 -32
51 -60 58 -17 4 -32 19 -43 44 -12 27 -13 33 -3 19 8 -10 20 -16 27 -14 7 2
-3 19 -26 41 -40 39 -61 48 -51 21 4 -10 -6 -6 -26 11 -29 25 -33 26 -38 9 -6
-17 -7 -17 -19 1 -11 18 -12 18 -7 2z"/>
<path d="M3573 4229 c63 -37 361 -94 451 -86 55 4 135 33 136 48 0 3 -46 9
-102 12 -57 3 -179 13 -273 21 -93 9 -183 16 -200 16 -26 -1 -28 -2 -12 -11z"/>
<path d="M4480 4136 c17 -17 11 -23 -21 -18 -22 3 -30 1 -25 -7 4 -6 3 -11 -3
-11 -5 0 -13 5 -16 10 -8 13 -21 13 -37 -3 -16 -15 -94 -39 -128 -38 -20 1
-22 -1 -10 -9 8 -5 25 -10 37 -10 12 0 35 -13 51 -30 17 -16 39 -30 49 -30 21
0 66 -29 46 -30 -6 0 -15 5 -19 11 -3 6 -19 9 -35 5 -22 -4 -29 -1 -34 14 -6
18 -38 37 -87 54 -21 6 -23 -5 -5 -23 10 -10 8 -11 -6 -5 -10 3 -22 14 -27 24
-7 12 -19 17 -42 15 -49 -4 -50 -4 -43 -15 4 -6 -11 -7 -41 -3 -34 4 -45 3
-40 -5 5 -8 -2 -12 -18 -12 -31 0 -32 -9 -5 -44 25 -32 9 -34 -25 -3 -52 47
-79 67 -85 62 -8 -9 46 -55 55 -47 5 4 5 2 1 -3 -12 -14 -56 -14 -50 1 3 8 -5
11 -21 10 -23 -1 -23 -2 -9 -18 9 -10 24 -18 34 -18 24 0 69 -21 69 -32 0 -4
-4 -8 -10 -8 -5 0 -10 5 -10 10 0 6 -9 10 -20 10 -14 0 -18 -5 -13 -16 4 -11
8 -12 13 -4 5 8 11 6 20 -5 7 -9 21 -13 31 -10 9 3 20 1 24 -5 3 -6 12 -7 18
-4 7 4 8 3 4 -1 -11 -13 -86 -13 -84 0 1 5 -4 9 -12 7 -23 -5 -50 8 -45 23 4
10 0 12 -16 8 l-23 -6 24 -18 c13 -10 20 -19 15 -19 -5 0 -2 -8 5 -17 13 -17
13 -17 -6 -3 -11 8 -32 28 -47 45 -15 16 -30 26 -34 22 -4 -4 -2 -7 4 -7 6 0
16 -9 22 -20 9 -17 7 -19 -18 -15 -16 2 -35 -1 -43 -6 -11 -7 -11 -9 4 -9 9 0
17 -4 17 -10 0 -5 -13 -10 -29 -10 -20 0 -30 6 -34 19 -4 15 -10 17 -33 13
l-29 -7 28 -3 c18 -2 27 -9 27 -21 0 -22 19 -41 41 -41 10 0 21 -5 25 -12 5
-8 -2 -9 -24 -5 -16 3 -44 2 -61 -3 -25 -7 -31 -6 -31 7 0 9 -6 13 -15 9 -8
-3 -15 -1 -15 5 0 7 -10 9 -27 5 -17 -5 -29 -3 -35 6 -5 8 -6 1 -3 -18 4 -28
2 -32 -22 -37 -31 -6 -73 7 -73 23 0 15 -19 12 -36 -5 -14 -13 -13 -15 5 -15
11 0 37 -17 58 -39 21 -21 45 -41 53 -44 11 -4 9 -6 -5 -6 -11 -1 -33 13 -47
30 -15 16 -41 34 -58 39 -34 10 -36 8 -14 -15 9 -9 14 -19 11 -22 -4 -3 -20 9
-37 26 -17 17 -37 31 -43 30 -8 0 -8 -2 1 -6 7 -2 17 -14 24 -26 10 -19 9 -20
-4 -10 -8 7 -24 14 -35 16 -12 2 -28 9 -36 15 -10 9 -17 10 -22 2 -6 -9 32
-30 58 -30 21 -1 61 -37 48 -44 -6 -4 -11 -3 -11 3 0 8 -24 20 -55 27 -5 1
-19 6 -30 10 -19 7 -19 7 -2 -13 20 -23 22 -37 4 -30 -8 3 -20 1 -28 -3 -11
-7 -10 -13 5 -29 11 -12 14 -21 8 -21 -7 0 -12 4 -12 10 0 5 -7 7 -15 4 -17
-7 -45 12 -45 29 0 6 6 2 14 -9 8 -10 18 -15 23 -11 12 13 -46 55 -68 50 -11
-3 -19 -10 -19 -15 0 -5 10 -6 22 -2 20 6 20 5 7 -8 -8 -9 -30 -19 -48 -23
l-34 -7 33 -16 c18 -9 28 -18 21 -20 -6 -2 -32 6 -57 18 -25 12 -48 20 -51 16
-4 -3 1 -6 10 -6 9 0 16 -3 16 -7 -4 -22 2 -33 14 -27 6 4 9 4 5 -1 -4 -4 -3
-14 3 -22 8 -9 8 -13 1 -13 -6 0 -24 17 -41 37 -32 39 -40 36 -16 -7 8 -14 14
-32 14 -40 0 -8 -7 0 -15 18 -8 18 -21 35 -29 38 -8 4 -12 10 -9 15 3 5 -2 6
-10 3 -12 -5 -13 -9 -3 -25 7 -11 13 -15 15 -9 4 11 22 4 22 -8 0 -15 -48 -11
-54 3 -3 9 -18 15 -36 15 -16 0 -30 5 -30 10 0 6 -7 10 -15 10 -8 0 -15 -4
-15 -10 0 -5 6 -10 13 -10 8 0 18 -10 24 -23 15 -33 -3 -44 -69 -42 l-57 2 16
-31 15 -31 -34 33 c-19 17 -43 32 -53 31 -18 0 -18 -1 3 -9 30 -13 28 -28 -3
-22 -14 2 -25 8 -25 13 0 5 -5 9 -12 9 -6 0 -20 8 -30 17 -16 14 -18 14 -13 1
3 -8 17 -20 30 -26 32 -15 24 -45 -8 -32 -12 4 -21 12 -20 17 1 5 -7 14 -18
21 -10 7 -19 8 -19 3 0 -5 6 -12 13 -15 6 -3 -4 -3 -23 -1 -40 6 -77 -16 -64
-37 6 -10 5 -10 -7 -2 -8 7 -31 19 -53 28 l-38 16 6 -25 c4 -14 2 -25 -4 -25
-5 0 -10 6 -10 14 0 7 -7 20 -17 27 -15 13 -15 12 -4 -8 13 -26 0 -31 -23 -8
-20 21 -25 19 -19 -7 5 -21 4 -22 -8 -6 -17 21 -129 38 -129 20 0 -8 -14 -9
-40 -6 -26 4 -40 2 -40 -5 0 -14 -37 -14 -45 -1 -4 6 -10 8 -15 5 -5 -3 -21 2
-35 11 -14 9 -28 14 -31 11 -3 -3 9 -13 27 -22 23 -12 28 -19 19 -25 -7 -5
-24 -4 -36 0 -15 6 -24 5 -27 -3 -3 -9 -8 -9 -18 1 -7 6 -22 11 -33 11 -18 -1
-18 -2 -3 -6 10 -3 16 -10 14 -16 -2 -7 0 -21 6 -32 12 -25 7 -20 -32 29 l-31
39 6 -34 c4 -28 3 -31 -6 -16 -6 9 -21 17 -33 17 -13 0 -28 5 -35 12 -9 9 -12
9 -12 1 0 -7 9 -15 20 -18 11 -3 20 -11 20 -16 0 -15 -42 -3 -56 16 -13 18
-14 18 -14 -3 0 -27 -5 -27 -32 -2 -26 24 -34 20 -18 -10 10 -19 10 -20 -9 -8
-11 7 -22 19 -25 28 -2 8 -4 4 -5 -9 l-1 -24 -22 19 c-13 11 -29 19 -35 18 -7
-1 -18 -2 -23 -3 -6 0 -9 -11 -7 -23 2 -13 2 -18 0 -12 -2 7 -13 14 -25 17
-13 4 -17 10 -12 18 4 8 3 10 -4 5 -7 -4 -12 -15 -12 -24 0 -13 -3 -12 -16 6
-17 25 -34 29 -34 7 0 -8 -4 -15 -10 -15 -5 0 -10 5 -10 11 0 6 -6 9 -14 6 -7
-3 -19 0 -26 6 -7 7 -5 0 4 -15 l18 -27 -25 12 c-14 6 -23 15 -21 19 2 3 -1
10 -7 14 -7 4 -9 3 -6 -3 4 -6 0 -14 -9 -17 -12 -5 -14 -13 -9 -34 l7 -27 -27
30 c-18 20 -29 26 -32 18 -2 -7 -9 -13 -14 -13 -6 0 -7 4 -4 10 3 5 1 18 -5
27 -11 17 -11 17 -6 -1 6 -17 5 -17 -11 -5 -14 11 -15 11 -9 0 7 -10 3 -12
-13 -6 -17 5 -21 2 -21 -14 0 -27 -15 -27 -36 2 -16 22 -16 22 -10 -12 5 -28
4 -32 -8 -21 -8 6 -13 17 -10 24 3 8 -3 17 -13 20 -10 4 -19 2 -21 -3 -2 -6
-9 -8 -15 -4 -7 4 -8 0 -4 -13 7 -18 6 -18 -9 1 -14 19 -16 19 -25 3 -12 -21
-35 -24 -42 -5 -3 6 -6 1 -7 -13 0 -22 -2 -23 -11 -7 -12 21 -36 22 -77 1 -33
-16 -57 -11 -46 9 3 7 -1 4 -9 -5 -8 -10 -17 -15 -20 -12 -3 3 -12 2 -19 -2
-21 -13 -49 -12 -55 2 -4 11 -11 11 -38 0 -18 -8 -36 -11 -40 -8 -3 4 -11 0
-16 -8 -8 -11 -12 -12 -16 -2 -6 16 -23 15 -43 -3 -10 -9 -27 -17 -38 -20 -11
-2 -29 -12 -40 -23 -11 -11 -24 -21 -29 -23 -6 -2 -13 -13 -17 -25 -5 -15 -1
-23 16 -30 13 -6 29 -9 36 -8 6 1 16 2 21 3 5 0 12 9 14 19 4 14 6 14 12 -5 7
-23 35 -33 35 -13 0 19 43 10 63 -12 l20 -23 -7 28 c-7 29 10 39 21 11 4 -12
8 -13 14 -3 6 10 13 8 28 -10 l21 -24 0 25 c0 17 7 27 20 31 10 3 19 2 18 -2
-2 -19 4 -21 19 -6 15 16 17 15 29 -8 8 -13 20 -27 28 -30 12 -5 11 1 -4 26
-24 38 -28 71 -5 41 8 -10 15 -15 15 -10 0 5 7 3 15 -4 8 -7 15 -18 15 -24 0
-6 -7 -2 -15 8 -8 11 -15 16 -15 10 1 -22 21 -38 52 -40 18 -1 41 -5 51 -9 16
-7 16 -4 -3 39 -10 25 -15 46 -10 46 6 0 10 -6 10 -13 0 -18 51 -90 58 -82 4
3 2 9 -4 13 -18 11 -25 46 -13 62 9 13 10 13 6 -2 -3 -9 3 -24 14 -34 19 -17
19 -16 14 17 l-6 34 15 -30 c8 -16 15 -25 16 -20 1 6 5 1 10 -10 6 -13 9 -15
9 -5 1 8 -6 27 -13 43 -17 31 -7 36 14 7 10 -14 16 -16 22 -7 5 8 8 5 8 -9 0
-12 7 -28 16 -35 15 -12 16 -11 10 8 -13 40 -17 79 -8 65 7 -11 12 -11 24 2
14 13 15 12 15 -12 0 -15 -2 -21 -4 -14 -3 6 -9 10 -14 6 -16 -10 -9 -24 12
-24 16 0 19 -4 14 -21 -5 -15 -4 -19 4 -15 6 4 12 22 12 39 1 21 3 25 6 12 8
-35 26 -44 20 -10 l-5 30 24 -28 c15 -18 24 -23 24 -13 0 8 -12 29 -27 47
l-28 33 33 -24 c17 -13 32 -27 32 -32 0 -4 5 -8 11 -8 6 0 8 8 4 19 -5 16 -2
18 15 14 14 -4 19 -11 15 -20 -4 -11 -1 -13 11 -9 11 4 26 -2 40 -15 l22 -21
-8 35 c-9 40 4 73 15 38 8 -25 25 -28 25 -4 0 15 2 15 19 -1 12 -11 21 -14 26
-7 11 20 34 12 41 -14 9 -38 28 -31 20 8 -3 17 -3 27 2 20 4 -6 16 -11 27 -10
11 1 19 -2 19 -8 -1 -5 7 -19 17 -29 19 -19 19 -19 19 5 1 24 1 24 25 -6 21
-25 25 -27 25 -11 0 11 -7 27 -16 37 -9 10 -14 26 -12 36 3 14 7 12 19 -12 8
-16 28 -36 44 -44 17 -8 32 -18 33 -23 2 -4 13 -13 25 -20 21 -10 21 -10 6 8
-9 10 -24 35 -34 54 l-16 35 26 -33 c46 -56 103 -73 127 -38 5 7 8 4 8 -7 0
-11 6 -17 13 -14 6 2 11 15 9 28 -2 16 0 20 6 11 5 -7 25 -22 45 -32 33 -18
37 -18 37 -4 0 15 3 15 27 -1 19 -13 25 -14 21 -4 -4 11 7 14 55 12 34 -1 63
-6 67 -13 6 -9 9 -9 13 1 4 10 6 9 6 -3 1 -10 6 -18 12 -18 5 0 7 5 3 11 -4 8
1 9 17 4 24 -7 24 -7 4 13 -11 10 -23 18 -27 15 -5 -2 -8 1 -8 7 0 14 38 3 57
-16 9 -9 22 -10 47 -3 22 6 43 6 60 -1 25 -9 39 3 14 13 -8 3 -7 6 4 6 9 1 20
-4 23 -9 4 -7 11 -8 18 -1 7 5 14 9 17 9 13 -2 56 16 62 25 4 6 40 12 80 13
85 1 87 2 71 12 -9 6 -7 11 7 20 18 11 20 10 20 -10 0 -17 3 -19 12 -10 15 15
42 16 33 2 -4 -7 2 -9 17 -5 13 3 36 2 50 -4 21 -8 26 -7 22 3 -7 17 29 26 84
21 35 -3 41 -1 33 9 -6 7 -23 11 -39 9 -27 -3 -27 -3 -3 7 18 8 29 7 48 -5 18
-12 28 -14 38 -5 10 8 23 7 50 -5 44 -18 45 -18 45 -5 0 6 -6 10 -14 10 -8 0
-18 5 -22 11 -5 9 1 10 19 5 22 -5 26 -3 22 11 -3 10 1 5 9 -12 11 -21 15 -24
16 -12 0 10 5 15 10 12 6 -3 10 -1 10 4 0 19 36 12 84 -15 25 -14 46 -21 46
-15 0 6 -11 13 -25 17 -14 3 -22 10 -20 15 3 4 16 4 28 0 31 -12 52 11 26 27
-12 8 -19 8 -19 2 0 -5 -4 -10 -8 -10 -5 0 -9 7 -9 16 0 11 6 14 21 9 12 -4
33 -9 49 -12 22 -4 26 -2 21 11 -5 12 -2 15 9 10 18 -6 12 -30 -9 -38 -16 -6
-19 -26 -3 -26 5 0 7 5 4 10 -6 9 8 14 28 11 4 0 7 4 7 10 0 6 14 0 32 -12 17
-13 28 -16 23 -8 -8 12 -6 12 8 0 15 -12 17 -10 16 15 0 16 -3 23 -6 17 -2 -7
-11 -13 -19 -13 -8 0 -11 6 -8 15 8 21 70 20 78 -1 4 -9 9 -15 11 -12 14 14
-10 38 -36 38 -16 0 -29 5 -29 11 0 6 9 8 21 4 13 -5 19 -3 15 3 -3 5 2 13 11
16 10 4 15 4 11 1 -10 -11 34 -55 55 -55 16 0 17 -3 7 -14 -8 -11 -9 -20 -1
-33 6 -10 11 -16 11 -13 1 3 4 14 6 25 3 11 5 28 5 39 0 10 3 16 6 12 3 -3 12
-1 19 5 9 8 16 4 25 -13 7 -13 12 -27 10 -33 -1 -5 1 -7 5 -3 4 4 14 2 23 -5
8 -6 5 2 -7 20 -12 17 -22 38 -22 47 0 24 27 19 33 -6 4 -16 14 -23 32 -24 19
-2 25 2 21 13 -4 8 -1 11 5 8 6 -4 8 -13 5 -20 -2 -7 4 -21 15 -31 24 -21 36
-13 14 10 -16 16 -10 21 21 17 14 -2 27 27 18 40 -10 16 -24 10 -18 -8 5 -17
5 -17 -9 0 -9 10 -30 18 -51 19 -23 1 -42 9 -53 22 -17 20 -17 20 0 6 21 -16
121 -25 112 -10 -4 6 -1 10 5 10 7 0 14 -9 17 -20 3 -11 9 -20 14 -20 5 0 9
-7 9 -15 0 -8 8 -15 18 -14 10 0 12 3 5 6 -7 2 -13 13 -13 24 0 10 -6 19 -12
19 -17 1 22 30 39 30 7 0 13 -5 13 -11 0 -5 -4 -8 -9 -4 -6 3 -9 -4 -8 -15 1
-22 13 -27 21 -7 3 9 9 7 19 -6 10 -12 17 -15 22 -7 4 6 0 19 -7 28 -24 28
-28 39 -13 39 8 0 12 -4 9 -9 -3 -4 0 -8 6 -8 6 0 13 7 16 15 4 8 11 12 16 9
6 -4 5 -10 -3 -15 -11 -7 -11 -9 -1 -9 18 0 11 -30 -12 -54 -18 -18 -20 -18
-31 -2 -11 15 -13 15 -18 -5 -4 -15 -2 -19 8 -15 8 3 17 1 21 -5 3 -6 14 -1
25 12 10 12 19 17 19 11 0 -7 4 -12 9 -12 5 0 7 9 4 20 -4 14 0 20 10 20 8 0
17 -5 19 -10 2 -6 21 -13 42 -17 29 -4 37 -3 32 6 -4 6 -12 9 -17 5 -5 -3 -21
1 -34 10 -14 9 -27 16 -30 16 -15 -1 -30 26 -30 54 1 17 -4 35 -10 39 -6 5 -4
7 5 4 8 -2 15 -11 15 -20 0 -8 3 -19 7 -22 4 -4 4 -13 1 -21 -3 -8 1 -14 9
-14 7 0 21 -9 31 -20 17 -21 37 -27 37 -11 0 5 -7 11 -15 15 -20 7 -19 22 2
30 10 4 14 4 11 0 -4 -3 0 -13 8 -22 13 -12 17 -13 24 -2 6 10 9 10 13 -1 5
-12 7 -12 15 0 8 12 14 8 26 -20 8 -19 14 -25 13 -14 -2 11 -6 26 -10 33 -5 7
-3 12 3 12 6 0 9 4 6 9 -3 5 -15 7 -26 4 -14 -4 -20 0 -20 12 0 12 -5 15 -16
11 -12 -4 -15 -2 -11 9 4 8 2 17 -3 20 -6 4 -10 1 -10 -4 0 -6 -8 -11 -17 -11
-16 1 -16 2 1 15 27 21 32 19 53 -15 20 -35 37 -40 28 -7 -6 20 -4 20 19 -5
32 -36 38 -35 20 2 -9 17 -20 30 -25 30 -5 0 -9 7 -9 15 0 19 -17 20 -22 1 -2
-10 -8 -8 -19 8 -17 22 -16 22 16 22 19 0 32 -3 30 -7 -9 -14 58 -79 81 -79
13 0 24 -4 24 -10 0 -5 5 -10 11 -10 6 0 8 9 4 20 -4 12 -2 20 5 20 6 0 9 4 5
10 -3 5 -11 7 -18 4 -7 -2 -21 2 -32 10 -18 13 -16 14 19 6 22 -5 44 -6 50 -3
5 4 7 -1 3 -11 -4 -9 -3 -15 2 -11 5 3 11 -1 14 -7 3 -7 4 -3 4 10 -1 12 -5
22 -9 22 -4 0 -19 11 -34 25 -15 14 -22 25 -16 25 6 0 17 -7 26 -15 8 -8 17
-12 20 -7 2 4 -11 20 -29 35 -20 16 -32 33 -29 41 3 8 -2 16 -13 19 -11 4 -9
5 7 4 22 -2 68 -43 63 -57 -1 -3 7 -11 18 -18 10 -7 19 -8 19 -3 0 5 -6 12
-12 14 -10 4 -10 6 0 6 13 1 42 -22 42 -33 0 -3 -9 -6 -20 -6 -11 0 -20 -5
-20 -11 0 -5 4 -7 10 -4 5 3 18 1 28 -4 16 -8 19 -7 18 7 -2 27 -30 60 -62 73
-25 10 -27 12 -10 18 15 6 11 10 -20 20 -26 8 -49 27 -66 52 -15 21 -24 39
-18 39 5 0 12 -5 15 -10 4 -6 10 -8 15 -5 4 3 7 -3 6 -12 0 -9 14 -27 33 -40
39 -26 55 -23 23 6 -29 25 -28 35 2 16 13 -9 29 -29 36 -45 7 -17 19 -30 26
-30 8 0 14 -7 14 -15 0 -8 5 -15 11 -15 6 0 9 6 6 14 -3 8 1 17 9 20 22 9 46
7 40 -2 -2 -4 4 -8 14 -8 14 0 16 3 8 13 -6 7 -19 13 -29 13 -19 0 -26 14 -11
23 4 2 2 3 -5 1 -6 -1 -19 6 -28 16 -10 11 -22 17 -26 14 -5 -3 -6 2 -3 10 8
20 10 20 37 -5 12 -11 29 -18 38 -16 11 3 21 -5 28 -21 8 -17 15 -22 22 -15
12 12 -17 53 -38 53 -6 0 -15 9 -18 20 -3 11 -13 20 -21 20 -10 0 -12 -5 -8
-12 5 -9 2 -9 -9 1 -21 17 -22 32 -2 25 9 -4 15 0 15 10 0 9 -8 16 -19 16 -11
0 -26 6 -33 14 -8 7 -24 17 -36 20 -12 4 -22 12 -22 19 0 6 -10 21 -22 34 -12
13 -16 23 -10 23 6 0 23 -16 37 -35 15 -19 30 -34 33 -33 10 2 82 -43 82 -51
0 -13 102 -111 115 -111 3 0 5 7 5 15 0 19 9 19 40 -1 14 -8 3 6 -25 32 -27
25 -43 43 -35 38 12 -6 13 -5 3 7 -8 10 -23 14 -42 11 -22 -3 -33 1 -43 18 -7
11 -28 30 -46 42 -18 11 -31 23 -28 26 5 4 56 -31 88 -60 7 -7 22 -15 33 -16
18 -3 17 0 -7 25 -29 31 -35 43 -18 43 6 0 10 -6 10 -12 0 -7 14 -23 31 -35
24 -17 34 -19 44 -10 7 7 10 16 7 21 -3 5 0 6 7 2 7 -5 10 -14 7 -21 -5 -13
12 -35 26 -35 5 0 6 26 2 58 -4 36 -2 52 4 44 7 -11 15 -11 44 1 26 11 39 12
47 4 17 -17 13 -31 -4 -17 -12 10 -19 10 -27 2 -8 -8 -7 -13 5 -18 9 -3 17
-10 17 -15 0 -15 -28 -10 -38 7 -5 9 -16 14 -24 13 -12 -3 -13 -10 -6 -29 7
-19 11 -22 18 -10 7 11 13 7 27 -18 18 -31 33 -42 33 -23 0 6 -4 13 -10 16
-22 14 -8 24 28 20 l37 -4 -28 15 c-15 8 -25 19 -22 25 4 5 11 6 17 3 8 -5 9
-1 5 10 -4 10 -7 21 -7 26 0 7 -65 50 -76 50 -2 0 -4 -12 -5 -27 0 -16 -3 -23
-5 -16 -3 7 -13 9 -22 5 -15 -5 -15 -4 1 12 19 19 23 31 7 21 -5 -3 -10 1 -10
9 0 18 -36 40 -55 33 -12 -5 -57 39 -81 79 -6 11 -19 21 -29 23 -18 3 -18 2
-2 -23 9 -14 17 -29 17 -33 0 -13 -32 37 -34 54 -2 9 -13 17 -25 18 -15 1 -18
-2 -11 -9z"/>
<path d="M5098 3362 c-81 -74 -119 -102 -193 -140 -119 -62 -353 -129 -525
-151 -41 -5 -140 -19 -220 -31 -294 -42 -803 -71 -1257 -71 -194 0 -356 2
-360 4 -5 2 -111 7 -238 11 -126 4 -252 8 -280 11 -27 2 -149 7 -270 10 -320
8 -476 15 -596 26 -59 5 -200 11 -313 14 -206 5 -304 18 -365 50 -32 16 -41
12 -34 -16 7 -27 44 -44 147 -70 76 -19 84 -23 69 -35 -10 -7 -24 -14 -31 -14
-7 0 -11 -4 -8 -9 3 -5 -4 -11 -15 -14 -38 -10 -18 -41 35 -54 60 -15 320 -30
656 -39 140 -3 442 -12 670 -18 228 -7 528 -14 665 -15 597 -4 1355 46 1670
110 334 67 564 163 693 287 41 40 54 60 30 46 -7 -4 17 24 53 62 112 118 121
142 17 46z"/>
</g>
</svg>
