<?xml version="1.0" standalone="no"?>
<!DOCTYPE svg PUBLIC "-//W3C//DTD SVG 20010904//EN"
 "http://www.w3.org/TR/2001/REC-SVG-20010904/DTD/svg10.dtd">
<svg version="1.0" xmlns="http://www.w3.org/2000/svg"
 width="750.000000pt" height="1125.000000pt" viewBox="0 0 750.000000 1125.000000"
 preserveAspectRatio="xMidYMid meet">
<metadata>
Created by potrace 1.16, written by Peter Selinger 2001-2019
</metadata>
<g transform="translate(0.000000,1125.000000) scale(0.100000,-0.100000)"
fill="#000000" stroke="none">
<path d="M5007 6155 c-32 -8 -91 -32 -130 -54 -83 -45 -210 -129 -215 -142 -2
-5 -8 -9 -13 -9 -5 0 -19 -9 -31 -19 -82 -68 -123 -102 -183 -151 -38 -30 -77
-63 -87 -72 -10 -10 -21 -18 -24 -18 -4 0 -17 -11 -30 -26 -13 -14 -24 -22
-24 -18 0 4 -6 1 -12 -7 -7 -9 -49 -46 -93 -85 -44 -38 -112 -99 -151 -137
-39 -37 -84 -77 -101 -90 -16 -12 -43 -34 -59 -49 -118 -107 -254 -225 -334
-289 -129 -102 -562 -410 -663 -471 -156 -94 -399 -208 -537 -252 -84 -27
-135 -49 -135 -57 0 -28 192 -102 410 -159 166 -44 382 -33 531 26 161 65 395
253 559 449 32 39 61 72 64 75 3 3 7 12 9 20 2 8 -11 1 -30 -16 -34 -33 -78
-60 -78 -48 0 11 34 64 41 64 4 0 14 14 23 30 8 17 11 30 7 30 -4 0 -56 -40
-115 -90 -60 -49 -112 -90 -117 -90 -17 0 -9 54 26 190 25 96 47 155 75 204
42 72 46 92 11 57 -12 -12 -26 -21 -33 -21 -20 0 26 42 68 62 23 10 46 30 52
43 6 13 46 53 89 88 43 36 96 90 118 121 22 31 49 59 60 62 11 4 56 41 100 84
80 76 244 217 400 340 45 36 89 73 99 83 10 9 20 17 24 17 4 1 23 15 42 32 19
17 29 27 21 23 -9 -5 -12 -4 -7 3 4 7 13 12 20 12 7 0 31 13 52 28 149 106
327 181 447 190 l78 5 -20 20 c-27 27 -122 32 -204 12z"/>
<path d="M6251 5949 c-206 -53 -368 -131 -754 -361 -26 -15 -54 -28 -62 -28
-8 0 -15 -4 -15 -10 0 -5 -26 -23 -59 -39 -32 -16 -71 -41 -87 -54 -16 -14
-46 -32 -67 -40 -20 -9 -37 -21 -37 -26 0 -6 -7 -11 -15 -11 -8 0 -15 -4 -15
-10 0 -5 5 -10 10 -10 23 0 7 -19 -47 -58 -32 -22 -132 -112 -223 -199 -161
-154 -249 -232 -280 -247 -8 -4 19 25 60 64 41 39 118 113 170 163 52 51 119
114 148 141 29 26 51 51 48 53 -7 8 -98 -66 -197 -160 -115 -110 -187 -177
-230 -212 -19 -17 -89 -75 -155 -130 -65 -55 -128 -107 -138 -115 -10 -8 -51
-42 -90 -76 -344 -293 -713 -546 -956 -653 -69 -31 -138 -80 -146 -104 -15
-45 101 -112 356 -205 171 -63 184 -67 307 -91 157 -32 260 -29 473 15 136 28
154 35 270 101 118 67 289 199 333 256 31 41 27 70 -34 257 l-44 135 0 175 c0
142 4 186 19 235 10 33 23 65 28 72 14 17 220 116 308 147 117 42 180 67 245
97 33 15 70 30 83 34 22 6 22 7 5 21 -10 7 -13 14 -8 14 6 0 4 4 -3 9 -10 6
-7 10 12 15 14 3 26 11 26 16 0 6 6 10 13 10 17 0 52 38 44 47 -4 3 -55 -12
-114 -35 -60 -22 -187 -68 -283 -100 -96 -33 -184 -63 -195 -67 -16 -6 -18 -5
-8 5 7 7 34 21 60 31 136 50 182 68 212 84 72 37 6 25 -126 -23 -46 -17 -83
-27 -83 -24 3 39 127 163 212 210 23 13 34 28 38 49 3 20 23 46 60 80 66 60
90 74 116 67 13 -3 30 5 49 22 36 33 512 275 644 327 134 53 275 87 363 87 62
0 103 -7 230 -35 27 -6 11 22 -25 44 -65 40 -144 54 -257 48 -58 -4 -131 -14
-164 -22 -32 -9 -60 -14 -63 -12 -2 3 31 14 74 25 43 11 69 20 58 20 -11 0
-54 -8 -94 -19z"/>
<path d="M5050 5643 c-35 -7 -46 -19 -30 -38 16 -19 3 -19 -30 0 -14 8 -31 14
-37 15 -17 0 -17 -27 -1 -32 7 -3 -7 -18 -32 -33 -25 -16 -70 -49 -101 -73
-32 -24 -63 -43 -70 -41 -29 3 -40 -2 -47 -22 -4 -11 -51 -50 -104 -87 -107
-74 -321 -241 -326 -254 -2 -5 -32 -27 -65 -50 -80 -54 -258 -231 -379 -378
-291 -350 -576 -572 -800 -624 -46 -11 -134 -19 -238 -22 -136 -4 -165 -8
-164 -20 1 -8 -2 -14 -7 -14 -5 0 -9 -5 -9 -11 0 -7 -24 -35 -52 -64 -42 -42
-65 -56 -113 -70 -33 -9 -100 -30 -150 -46 -49 -16 -99 -29 -110 -29 -12 0
-25 -4 -30 -9 -12 -12 -167 -53 -285 -76 -47 -9 -101 -20 -120 -25 -32 -9
-160 -40 -300 -75 -30 -7 -73 -20 -95 -29 -22 -8 -49 -15 -60 -16 -11 0 -29
-7 -39 -15 -11 -8 -30 -15 -42 -15 -13 0 -36 -5 -51 -11 -15 -6 -37 -15 -48
-20 -18 -7 -254 -54 -330 -66 -84 -13 -205 -96 -231 -160 -19 -44 -12 -56 49
-77 43 -16 91 -20 295 -24 133 -3 242 -8 242 -11 0 -4 -38 -26 -85 -50 -47
-24 -85 -48 -85 -52 0 -5 24 -9 53 -9 112 0 636 53 699 70 20 6 110 55 200
109 236 143 492 283 743 408 205 102 309 164 445 263 30 22 104 65 163 96 181
93 447 263 607 388 74 58 160 143 160 158 0 6 8 18 18 27 10 9 28 30 41 46 12
17 25 29 28 27 6 -3 17 14 50 76 9 18 23 30 30 28 6 -3 59 17 117 44 58 28
109 50 114 50 5 0 19 12 33 26 l24 26 -25 -7 c-39 -11 -139 -54 -204 -86 -33
-16 -61 -27 -63 -25 -2 2 4 20 14 39 57 111 89 157 140 202 32 28 107 95 168
151 62 55 138 116 171 134 70 39 114 78 114 100 0 18 170 160 192 160 8 0 25
11 37 24 21 23 22 25 4 29 -16 4 -15 5 3 6 23 1 66 41 44 41 -10 0 -10 3 0 15
14 16 11 17 -40 8z"/>
<path d="M6790 5581 c-26 -64 -206 -241 -365 -360 -122 -91 -173 -127 -335
-233 -35 -24 -80 -59 -100 -79 -37 -37 -92 -69 -118 -69 -9 0 -12 -6 -8 -16 4
-10 -4 -19 -27 -29 -18 -7 -41 -23 -51 -34 -11 -12 -25 -21 -32 -21 -7 0 -25
-10 -41 -23 -15 -12 -39 -28 -53 -35 -46 -23 -95 -57 -125 -87 -17 -16 -41
-37 -53 -45 -12 -8 -22 -20 -22 -27 0 -7 -11 -20 -26 -29 -14 -9 -31 -29 -39
-43 -7 -14 -24 -37 -37 -51 -12 -13 -21 -27 -18 -30 3 -3 -12 -16 -32 -29 -21
-13 -38 -30 -38 -38 0 -7 -4 -13 -9 -13 -13 0 -94 -81 -166 -165 -33 -39 -66
-76 -73 -83 -7 -8 -25 -30 -40 -50 -29 -38 -165 -177 -197 -202 -136 -104
-260 -180 -379 -236 -85 -38 -295 -84 -390 -84 -67 0 -82 -10 -54 -38 7 -7 9
-12 5 -12 -4 0 4 -12 18 -27 27 -30 28 -33 17 -48 -9 -13 -72 -48 -72 -40 0 3
-14 -7 -32 -24 -17 -16 -46 -32 -64 -35 -18 -4 -34 -13 -37 -20 -3 -7 -25 -16
-49 -20 -23 -4 -50 -8 -58 -10 -30 -5 -165 -50 -170 -56 -7 -9 -77 -23 -122
-24 -21 -1 -38 -5 -38 -9 0 -5 -5 -5 -10 -2 -6 4 -17 1 -25 -5 -8 -7 -26 -9
-44 -5 -16 3 -38 2 -49 -4 -17 -9 -210 -28 -367 -37 -33 -1 -62 -4 -65 -4 -3
-1 -20 -1 -37 0 -18 1 -33 -2 -33 -7 0 -4 -31 -9 -68 -10 -37 0 -83 -4 -102
-7 -19 -4 -60 -9 -90 -11 -30 -3 -75 -10 -100 -15 -43 -10 -256 -37 -350 -46
-25 -2 -56 -7 -70 -11 -14 -3 -28 -6 -32 -5 -5 1 -8 -2 -8 -8 0 -5 -10 -9 -22
-9 -35 2 -102 -12 -109 -22 -3 -5 -29 -13 -57 -19 -29 -5 -61 -14 -72 -20 -20
-11 -46 -15 -148 -26 -34 -4 -62 -10 -62 -15 0 -4 -12 -14 -27 -21 -24 -12
-102 -108 -87 -108 4 0 2 -6 -4 -13 -6 -7 -12 -25 -14 -42 -3 -25 3 -32 38
-52 22 -12 58 -25 80 -28 78 -10 352 -24 494 -25 80 0 162 -3 182 -6 l37 -7
-23 -18 c-13 -11 -29 -19 -35 -19 -6 0 -11 -4 -11 -9 0 -5 -15 -14 -32 -22
-18 -7 -52 -25 -74 -40 -23 -16 -44 -25 -47 -22 -4 3 -9 -2 -13 -11 -3 -9 -15
-16 -25 -16 -10 0 -19 -7 -19 -15 0 -8 -9 -15 -19 -15 -11 0 -23 -5 -27 -12
-8 -13 249 -6 451 12 61 5 299 23 530 40 526 38 748 56 995 81 460 47 867 126
1120 218 90 33 210 97 210 111 0 6 7 10 15 10 8 0 16 5 16 10 1 6 2 15 3 20 0
6 8 15 16 20 13 8 13 10 1 10 -12 0 -12 2 0 13 13 9 80 94 121 152 4 5 18 24
31 40 68 89 175 280 163 292 -3 4 -7 4 -9 2 -2 -2 -51 -76 -109 -164 -108
-164 -199 -266 -256 -291 -27 -11 -32 -11 -32 1 0 8 4 16 9 19 5 3 12 22 15
41 4 20 15 39 27 46 12 6 18 17 15 25 -7 19 11 54 36 72 10 8 18 19 17 25 -4
30 2 47 16 47 8 0 15 5 15 10 0 17 42 104 61 125 21 24 57 84 65 108 4 9 10
17 14 17 5 0 11 13 15 30 4 17 13 30 21 30 8 0 14 10 14 23 1 25 22 57 38 57
6 0 13 8 17 19 3 10 14 26 25 36 18 16 20 16 25 1 3 -9 8 -24 12 -33 3 -10 5
-25 4 -33 -1 -8 5 -5 12 8 7 12 17 19 22 15 4 -4 5 0 2 9 -3 10 0 36 9 59 8
24 11 51 8 62 -3 11 -2 17 2 14 5 -3 9 9 9 26 0 34 25 70 162 236 114 138 245
263 341 329 20 13 64 46 97 71 67 53 184 130 320 211 179 107 230 139 248 154
9 9 22 16 28 16 7 0 30 15 53 33 23 19 50 39 61 45 17 9 17 11 3 12 -9 0 -23
-6 -30 -13 -7 -7 -38 -27 -68 -44 -30 -16 -89 -49 -130 -72 -41 -24 -104 -59
-140 -79 -36 -20 -90 -51 -120 -69 -30 -18 -61 -33 -67 -33 -7 0 -13 -4 -13
-9 0 -4 -48 -40 -107 -79 -60 -39 -121 -82 -138 -96 -16 -14 -72 -58 -122 -96
-51 -39 -100 -84 -108 -100 -8 -16 -21 -33 -29 -37 -8 -4 -31 -28 -51 -53 -21
-25 -40 -45 -44 -45 -3 0 -17 -15 -30 -35 -13 -19 -39 -49 -58 -66 -19 -17
-39 -46 -44 -65 -7 -28 -7 -25 -3 16 3 28 12 53 19 57 7 4 27 32 45 62 19 30
37 53 41 50 4 -2 11 5 14 16 9 27 72 90 90 90 8 0 14 4 13 9 -3 8 42 54 126
129 20 18 36 29 36 25 0 -5 5 0 11 10 5 9 16 17 22 17 7 0 19 9 27 19 7 11 17
18 22 15 4 -3 8 0 8 6 0 16 34 44 100 81 30 17 84 51 120 74 36 24 106 64 155
90 158 84 198 106 315 176 112 66 180 120 180 140 0 6 -17 -2 -37 -18 -38 -30
-221 -133 -355 -200 -129 -64 -470 -264 -553 -323 -106 -76 -244 -202 -325
-294 -42 -48 -66 -69 -68 -59 -4 15 186 209 278 285 101 83 103 84 211 153 9
5 40 23 70 39 30 16 65 36 79 46 14 9 55 34 93 54 37 20 97 52 135 72 75 41
111 64 98 64 -14 0 -209 -103 -325 -172 -63 -37 -116 -68 -118 -68 -6 0 -144
-95 -185 -126 -20 -16 -49 -38 -64 -49 -54 -38 -155 -127 -214 -188 l-60 -61
0 40 c0 128 35 280 88 380 25 48 120 136 174 162 21 9 38 22 38 29 0 7 30 29
68 49 83 47 362 229 457 300 144 107 381 380 360 414 -4 6 -1 9 7 8 9 -2 12 6
11 24 -1 15 3 27 9 25 6 -1 13 4 16 12 2 8 0 11 -6 7 -6 -3 -13 -2 -17 4 -3 5
-1 10 4 10 6 0 11 7 11 16 0 8 -5 12 -11 8 -6 -3 -15 -1 -19 5 -4 8 -11 2 -20
-18z"/>
<path d="M4994 4762 c7 -12 -20 -36 -33 -28 -5 4 -12 -2 -15 -11 -6 -22 0
-118 8 -131 3 -6 10 -36 15 -69 5 -32 12 -67 14 -78 2 -11 -1 -27 -8 -35 -17
-21 -28 -343 -12 -359 6 -6 14 -11 18 -11 5 0 143 160 212 247 18 23 18 26
-13 126 -42 136 -47 156 -55 199 -5 32 -10 38 -38 43 -18 3 -41 4 -52 2 -22
-2 -24 14 -11 65 6 21 3 29 -14 38 -12 7 -20 8 -16 2z"/>
<path d="M6360 4380 c0 -5 -7 -10 -15 -10 -30 0 -176 -104 -172 -123 1 -6 -4
-11 -11 -9 -21 4 -189 -137 -297 -249 -95 -98 -222 -263 -260 -337 -30 -60 -9
-44 40 30 111 168 300 381 429 484 27 21 55 45 63 53 31 30 35 -8 29 -264 -4
-137 -9 -273 -12 -302 -6 -50 -5 -52 33 -90 49 -48 97 -63 201 -63 62 0 98 6
154 26 100 36 103 40 79 97 -11 25 -29 77 -41 114 -11 37 -24 77 -29 88 -5 11
-19 50 -31 88 -12 37 -25 65 -30 62 -5 -3 -11 13 -15 34 -6 35 -21 52 -48 55
-4 1 -12 7 -16 15 -5 7 -13 11 -19 8 -5 -4 -12 13 -16 40 -3 25 -13 51 -23 58
-28 21 -22 101 11 158 23 38 25 47 12 47 -9 0 -16 -4 -16 -10z"/>
</g>
</svg>
