<?xml version="1.0" standalone="no"?>
<!DOCTYPE svg PUBLIC "-//W3C//DTD SVG 20010904//EN"
 "http://www.w3.org/TR/2001/REC-SVG-20010904/DTD/svg10.dtd">
<svg version="1.0" xmlns="http://www.w3.org/2000/svg"
 width="750.000000pt" height="1125.000000pt" viewBox="0 0 750.000000 1125.000000"
 preserveAspectRatio="xMidYMid meet">
<metadata>
Created by potrace 1.16, written by Peter Selinger 2001-2019
</metadata>
<g transform="translate(0.000000,1125.000000) scale(0.100000,-0.100000)"
fill="#000000" stroke="none">
<path d="M4953 7733 c-46 -32 -88 -79 -128 -143 -15 -25 -51 -81 -80 -125
-325 -495 -390 -598 -532 -840 -127 -217 -225 -403 -256 -487 -26 -68 -67
-248 -67 -292 0 -16 -31 -63 -91 -138 -94 -117 -211 -288 -369 -538 -124 -198
-119 -192 -183 -183 -28 4 -129 8 -222 8 l-171 0 -28 42 c-23 36 -33 43 -59
43 -38 0 -109 -19 -197 -53 -74 -28 -196 -54 -207 -44 -10 10 34 97 67 134 57
63 148 105 310 143 87 20 137 47 143 77 9 48 -37 74 -248 143 -191 62 -230 56
-345 -55 -30 -29 -81 -77 -114 -106 l-59 -54 6 -92 c4 -51 3 -93 -1 -93 -5 0
-23 16 -42 35 -40 41 -81 57 -158 58 -73 1 -107 -20 -223 -140 -93 -96 -110
-118 -128 -176 -9 -25 -22 -42 -38 -48 -47 -17 -118 -74 -203 -159 -47 -47
-101 -97 -120 -112 -19 -14 -51 -42 -72 -61 -20 -19 -66 -59 -102 -87 -36 -29
-66 -55 -66 -60 0 -17 46 -19 72 -2 145 91 168 102 251 121 104 25 107 25 107
9 -1 -15 -105 -93 -159 -120 -20 -10 -89 -60 -153 -110 -73 -59 -139 -102
-177 -117 -87 -34 -95 -69 -28 -126 23 -21 37 -39 32 -41 -22 -8 -122 -87
-180 -142 -33 -32 -100 -91 -148 -132 -56 -47 -106 -100 -134 -143 -45 -67
-45 -68 -37 -124 11 -68 16 -70 169 -80 55 -3 107 -9 115 -14 11 -6 9 -9 -10
-9 -14 0 -36 -9 -50 -19 l-24 -19 38 -8 c82 -15 470 16 696 56 143 25 147 25
129 4 -7 -9 -57 -52 -111 -96 -54 -44 -98 -86 -98 -92 0 -24 13 -25 51 -6 47
25 57 25 37 3 -9 -10 -24 -36 -34 -57 -14 -30 -51 -64 -149 -138 -164 -124
-260 -218 -291 -283 -27 -56 -29 -86 -13 -150 13 -51 11 -51 174 -61 l110 -7
-57 -20 c-61 -22 -74 -43 -33 -53 24 -6 989 2 1165 9 52 3 140 -1 195 -7 112
-14 245 -12 306 4 50 14 302 14 429 0 487 -51 762 -61 825 -30 51 26 75 73 75
149 l0 67 38 2 c42 3 269 43 382 68 316 70 580 175 580 232 0 8 6 12 15 8 8
-3 14 -1 12 3 -1 5 27 30 63 56 72 53 127 108 172 173 56 81 131 265 168 412
7 25 32 85 57 135 46 92 63 168 45 200 -7 13 -5 37 9 84 37 135 218 582 272
671 54 89 191 260 210 260 26 0 -13 -466 -64 -765 -11 -66 -24 -145 -28 -175
-5 -30 -13 -68 -20 -83 -6 -16 -11 -41 -11 -57 0 -25 7 -33 44 -50 87 -39 148
-50 214 -36 33 7 72 20 87 30 27 18 27 18 22 109 -3 51 -11 146 -18 212 -6 66
-12 253 -13 415 -1 370 14 496 87 710 29 86 38 101 93 155 34 33 118 116 188
185 281 275 316 346 316 635 0 158 -27 309 -100 560 -74 253 -112 351 -235
600 -119 243 -140 269 -226 283 -97 15 -128 -1 -256 -130 -61 -62 -135 -142
-165 -177 -29 -35 -80 -96 -113 -135 -33 -39 -83 -100 -110 -136 -27 -36 -57
-74 -66 -85 -10 -11 -57 -69 -105 -130 -48 -60 -92 -113 -98 -117 -13 -9 -28
1 -20 13 17 29 -38 365 -75 458 -11 25 -26 69 -35 98 -39 128 -237 478 -287
507 -41 24 -90 20 -136 -11z m-111 -2058 c10 -60 9 -481 -2 -635 -22 -310 -27
-333 -93 -465 -84 -170 -141 -255 -169 -255 -39 -1 -248 63 -248 75 0 6 11 22
25 35 40 37 30 113 -20 166 -34 35 -106 80 -185 113 -126 53 -140 60 -140 69
0 22 153 314 192 367 59 79 305 333 403 415 43 36 103 86 134 113 69 58 93 59
103 2z m1139 -348 c-88 -89 -167 -171 -175 -182 -21 -28 -20 -12 4 40 20 44
125 155 210 223 25 20 61 51 80 70 20 20 36 29 38 22 2 -6 -68 -84 -157 -173z"/>
</g>
</svg>
