<?xml version="1.0" standalone="no"?>
<!DOCTYPE svg PUBLIC "-//W3C//DTD SVG 20010904//EN"
 "http://www.w3.org/TR/2001/REC-SVG-20010904/DTD/svg10.dtd">
<svg version="1.0" xmlns="http://www.w3.org/2000/svg"
 width="750.000000pt" height="1125.000000pt" viewBox="0 0 750.000000 1125.000000"
 preserveAspectRatio="xMidYMid meet">
<metadata>
Created by potrace 1.16, written by Peter Selinger 2001-2019
</metadata>
<g transform="translate(0.000000,1125.000000) scale(0.100000,-0.100000)"
fill="#000000" stroke="none">
<path d="M4140 10759 c-227 -21 -347 -82 -475 -242 -112 -140 -175 -291 -204
-487 -7 -41 -16 -88 -21 -105 -5 -16 -17 -91 -25 -165 -8 -74 -23 -182 -34
-240 -10 -58 -16 -121 -14 -140 2 -26 1 -31 -7 -20 -8 11 -9 2 -4 -32 3 -26 0
-73 -6 -104 -7 -31 -13 -136 -14 -233 l-2 -176 -32 -56 c-29 -50 -38 -58 -80
-69 -26 -7 -51 -17 -57 -21 -5 -5 -19 -9 -32 -9 -32 0 -122 -37 -162 -67 -18
-14 -39 -40 -47 -58 -9 -21 -30 -42 -61 -60 -82 -47 -82 -48 -65 -108 31 -115
41 -163 48 -238 6 -69 4 -81 -15 -107 -11 -17 -21 -36 -21 -44 -1 -19 -77 -98
-140 -144 -50 -36 -84 -56 -175 -102 -16 -9 -64 -39 -106 -69 -42 -29 -80 -53
-83 -53 -14 0 -65 -44 -60 -51 3 -5 -2 -6 -10 -3 -9 3 -16 2 -16 -2 0 -5 -20
-20 -45 -33 -25 -13 -43 -26 -41 -28 3 -3 43 9 90 27 86 31 86 31 199 22 100
-9 286 -1 325 13 16 6 15 -5 -5 -62 -37 -103 -20 -225 40 -290 11 -13 15 -23
9 -23 -36 0 23 -160 77 -208 18 -16 22 -25 14 -28 -7 -3 -13 -23 -13 -43 0
-34 -12 -71 -42 -125 -11 -21 -49 -129 -48 -135 2 -4 -62 -43 -64 -39 -28 44
-34 57 -38 73 -4 17 -6 16 -12 -7 -5 -15 -18 -30 -29 -34 -23 -6 -97 -78 -97
-93 0 -5 73 -12 163 -15 89 -4 198 -8 242 -11 44 -2 132 -7 195 -10 259 -13
447 -27 485 -37 22 -5 59 -23 83 -39 24 -16 48 -29 53 -29 6 0 7 -4 4 -10 -3
-5 0 -10 8 -10 8 0 34 -15 58 -32 53 -40 71 -50 129 -80 25 -13 51 -31 58 -40
7 -10 24 -18 38 -18 13 0 24 -4 24 -10 0 -5 -4 -10 -10 -10 -5 0 -10 -9 -10
-20 0 -15 5 -19 23 -16 30 5 51 -12 36 -30 -14 -17 -36 -18 -41 -3 -2 7 -19
-4 -38 -22 -29 -28 -35 -31 -38 -16 -5 23 -14 22 -42 -8 -21 -22 -31 -25 -101
-25 -56 0 -80 4 -89 15 -7 8 -18 15 -26 15 -19 0 -28 -21 -13 -31 11 -7 12
-10 1 -21 -11 -11 -16 -10 -26 5 -9 12 -27 17 -60 17 -25 0 -46 4 -46 9 0 5
-11 12 -24 15 -13 3 -31 9 -40 12 -11 4 -16 1 -16 -10 0 -14 -3 -15 -22 -4
-15 8 -69 13 -158 14 -151 1 -200 9 -200 30 0 10 -12 14 -39 14 -22 0 -42 -3
-45 -8 -7 -12 -249 7 -258 21 -6 9 -10 9 -15 1 -9 -12 -75 -25 -67 -13 7 12
-15 21 -61 24 -24 2 -48 6 -53 9 -6 3 -33 5 -60 3 -28 -2 -72 -1 -99 3 -29 5
-53 4 -60 -2 -7 -6 -28 -7 -47 -4 -21 4 -45 2 -58 -5 -13 -7 -30 -15 -37 -19
-52 -24 -62 -92 -21 -128 11 -9 20 -22 20 -29 0 -7 3 -13 8 -13 8 0 32 -49 32
-67 0 -7 5 -13 10 -13 6 0 10 -18 10 -40 0 -22 5 -40 10 -40 6 0 10 -22 10
-50 0 -45 4 -55 40 -92 22 -24 40 -49 40 -56 0 -7 11 -25 25 -40 14 -15 25
-36 25 -47 0 -11 9 -28 20 -37 20 -18 25 -32 35 -110 3 -27 10 -48 16 -48 5 0
9 -5 9 -12 0 -6 9 -21 19 -32 24 -26 52 -97 58 -151 3 -22 11 -44 18 -50 7 -5
18 -30 23 -55 6 -25 14 -55 17 -67 5 -16 2 -22 -12 -26 -15 -4 -15 -5 3 -6 26
-1 32 -21 40 -136 3 -44 11 -86 16 -92 7 -9 7 -13 -2 -13 -8 0 -10 -15 -6 -52
3 -29 5 -59 6 -66 0 -7 5 -10 12 -6 8 5 9 2 5 -9 -16 -40 -19 -52 -9 -39 7 11
11 8 15 -10 4 -12 7 -35 7 -50 0 -15 6 -33 14 -41 8 -8 18 -31 21 -51 4 -20
16 -53 26 -73 11 -21 19 -48 19 -60 0 -13 4 -23 8 -23 5 0 15 -23 22 -51 8
-27 18 -52 22 -55 4 -3 8 -15 8 -26 0 -12 10 -32 22 -45 26 -28 48 -83 55
-137 3 -21 14 -47 24 -57 11 -11 19 -29 19 -41 0 -12 11 -38 25 -58 17 -25 27
-55 31 -100 6 -59 19 -103 45 -152 5 -10 9 -27 9 -38 0 -11 7 -37 16 -58 15
-35 21 -76 43 -307 5 -49 14 -108 20 -130 6 -22 8 -55 5 -72 -4 -19 -2 -33 4
-33 5 0 12 -17 16 -38 3 -22 16 -50 28 -64 13 -14 32 -38 43 -53 19 -26 22
-27 43 -14 12 8 22 22 22 32 0 16 2 16 22 -3 12 -11 32 -20 45 -20 17 0 23 -6
23 -21 0 -11 5 -17 10 -14 6 3 10 -4 10 -15 0 -12 8 -34 18 -48 21 -30 33 -58
39 -87 2 -11 8 -21 13 -23 6 -2 6 -11 -1 -23 -6 -11 -8 -25 -5 -32 2 -7 5 -5
5 4 1 9 8 19 16 22 11 5 12 1 5 -19 -12 -32 -12 -34 0 -34 6 0 10 8 10 17 0
29 16 1 35 -62 10 -33 21 -64 25 -70 4 -5 13 -34 21 -63 10 -42 11 -62 1 -97
-17 -65 -15 -90 12 -122 21 -25 33 -59 55 -163 l7 -35 6 40 c3 22 1 43 -5 46
-5 4 -6 16 -2 28 5 15 15 21 37 21 21 0 39 10 60 32 l30 32 18 -38 c10 -22 16
-56 15 -80 -16 -240 -18 -258 -40 -250 -9 4 -16 -4 -20 -23 -4 -15 -11 -41
-17 -58 -5 -16 -12 -106 -14 -200 -3 -93 -9 -221 -13 -283 -7 -103 -10 -115
-34 -140 -15 -16 -27 -34 -27 -42 0 -29 -102 -100 -144 -100 -12 0 -14 7 -9
30 3 17 1 30 -4 30 -16 0 -33 -23 -33 -46 0 -30 -33 -34 -295 -34 -222 0 -291
8 -306 32 -11 17 -11 65 0 72 5 3 12 23 16 43 4 21 18 56 31 79 26 45 46 176
36 249 -7 56 -7 87 2 187 9 96 3 138 -19 138 -28 0 -37 -78 -40 -348 -2 -130
-5 -176 -15 -182 -7 -4 -10 -15 -7 -25 4 -9 3 -14 -2 -11 -4 3 -13 -13 -20
-35 -9 -28 -20 -43 -39 -50 -64 -24 -110 -53 -125 -78 -17 -29 -89 -59 -95
-41 -2 6 -9 10 -16 10 -8 0 -25 9 -39 20 -14 11 -34 20 -44 20 -10 0 -24 5
-31 12 -8 8 -15 8 -25 0 -9 -8 -31 -10 -58 -6 -48 6 -46 8 -78 -78 -9 -25 -8
-27 20 -33 16 -4 29 -12 29 -19 0 -13 -57 -66 -71 -66 -5 0 -9 -6 -9 -14 0
-11 9 -13 38 -9 20 3 39 10 40 15 2 4 21 8 43 8 37 0 39 2 39 30 0 28 2 30 40
30 31 0 40 4 40 17 0 12 3 14 11 6 23 -23 5 -56 -44 -81 -26 -14 -47 -31 -47
-38 0 -8 -9 -14 -19 -14 -10 0 -21 -7 -25 -15 -3 -8 -18 -21 -33 -27 -15 -7
-35 -17 -43 -24 -8 -7 -22 -14 -30 -16 -8 -2 -21 -10 -27 -19 -7 -9 -33 -23
-58 -30 -25 -7 -45 -17 -45 -21 0 -4 -5 -8 -11 -8 -14 0 -74 -64 -124 -134
-44 -61 -64 -70 -66 -28 -1 22 -3 23 -6 5 -2 -12 1 -40 7 -62 10 -37 14 -41
41 -41 17 0 117 31 223 70 105 38 195 70 199 70 10 0 268 98 289 110 27 15 48
12 48 -7 0 -88 33 -339 50 -377 18 -44 21 -45 52 -40 18 4 62 21 98 38 36 18
81 39 100 46 19 8 51 23 70 35 19 12 60 32 90 44 123 53 354 163 484 233 79
43 176 126 176 152 0 8 17 29 37 47 51 44 65 74 78 169 1 8 4 20 5 25 6 19
-12 45 -32 45 -10 0 -16 5 -13 10 4 6 14 9 23 8 12 -2 16 3 15 19 -2 17 3 22
25 25 16 2 27 9 27 18 0 8 12 21 28 28 16 8 27 21 27 33 0 10 7 19 15 19 9 0
15 9 15 24 0 32 20 87 39 109 14 17 14 19 -2 28 -9 6 -17 21 -17 34 0 16 -6
25 -15 25 -18 0 -20 16 -2 23 10 4 10 6 0 6 -7 1 -13 8 -13 17 0 11 -8 15 -27
14 -47 -3 -53 -1 -53 23 0 12 -4 17 -8 11 -10 -14 -52 -13 -49 2 1 7 -9 22
-23 34 -14 13 -19 20 -10 18 24 -5 25 16 1 27 -12 5 -20 14 -18 20 2 5 19 55
38 110 19 55 37 102 40 105 3 3 5 12 3 20 -2 8 -7 29 -10 45 -4 17 -13 33 -20
38 -7 4 -11 14 -8 22 4 10 0 15 -15 15 -34 0 -28 45 8 58 17 6 30 19 34 33 l6
24 -16 -23 c-8 -12 -24 -22 -34 -22 -25 0 -24 17 1 25 11 4 18 10 15 15 -8 13
25 28 46 23 11 -3 20 -10 20 -17 1 -6 5 7 9 29 5 27 4 42 -4 47 -6 4 4 8 22 8
17 0 32 4 32 9 0 5 19 9 43 8 40 -2 42 -1 39 26 -2 19 2 27 13 27 9 0 14 -8
12 -22 -3 -31 27 -31 31 -1 4 25 27 31 35 11 4 -9 6 -7 6 3 1 13 12 16 56 15
34 0 56 -5 59 -13 3 -7 14 -13 25 -13 11 0 27 -14 39 -34 39 -66 205 -124 421
-146 225 -22 627 -7 698 27 20 9 43 12 62 8 17 -4 64 2 113 14 188 45 326 113
352 173 8 18 22 50 30 70 9 20 21 40 26 43 5 3 7 12 3 20 -3 8 0 15 7 15 6 0
10 6 8 12 -3 7 5 18 16 24 12 6 20 16 18 22 -1 7 4 12 12 12 8 0 16 7 20 15 3
8 12 15 21 15 9 0 15 9 15 25 0 14 4 25 10 25 5 0 30 20 56 45 25 25 51 45 57
45 7 0 6 4 -3 10 -11 7 -11 10 -2 10 28 0 102 41 102 56 0 10 6 14 15 10 8 -3
15 -2 15 3 0 5 13 14 30 21 42 18 89 68 96 104 3 17 11 38 17 46 14 17 65 38
119 50 45 9 83 33 98 60 6 11 20 20 30 20 11 0 20 5 20 10 0 6 9 10 20 10 11
0 20 7 20 16 0 11 -6 14 -20 9 -30 -10 -24 14 8 28 15 6 33 18 41 25 9 9 25
12 43 8 24 -5 28 -3 28 18 0 19 8 27 35 36 19 6 39 9 44 5 6 -3 15 13 22 35
10 33 17 40 37 40 13 0 40 14 59 30 19 17 38 28 43 25 4 -3 26 2 49 10 l41 14
0 -41 c0 -80 8 -32 13 87 4 66 3 111 -2 100 -8 -19 -8 -19 -15 3 -8 23 -10 23
-94 18 -48 -3 -161 -8 -252 -11 -139 -4 -169 -2 -188 11 -12 8 -26 13 -32 9
-11 -7 -76 27 -101 54 -13 14 -19 35 -19 70 0 32 -6 55 -16 66 -11 11 -17 40
-20 102 -2 47 -8 89 -14 93 -5 3 -12 44 -15 90 -2 46 -9 88 -15 94 -5 5 -10
38 -10 73 0 52 -3 63 -16 63 -15 0 -16 8 -11 60 9 82 -2 180 -19 180 -11 0
-14 19 -14 80 0 47 -4 80 -10 80 -6 0 -10 33 -10 80 0 62 -3 80 -14 80 -20 0
-36 81 -43 212 -3 60 -10 108 -14 108 -4 0 -9 17 -11 38 -2 20 -3 -17 -1 -83
5 -191 23 -471 38 -590 8 -60 17 -164 20 -230 5 -113 11 -187 35 -443 6 -59
15 -181 20 -272 18 -296 39 -544 51 -596 11 -47 10 -55 -9 -87 -28 -45 -117
-88 -247 -121 -94 -24 -280 -42 -253 -24 8 4 -3 7 -27 7 -22 -1 -31 -4 -21 -6
14 -4 16 -7 6 -13 -11 -7 -10 -43 5 -199 16 -178 16 -193 1 -216 -26 -40 -91
-82 -178 -115 -427 -165 -1257 -153 -1423 20 -25 26 -26 33 -28 136 -2 60 -6
114 -10 121 -4 6 -23 17 -43 23 -25 8 -34 16 -30 27 3 8 6 18 6 22 0 4 13 6
30 5 29 -2 29 -2 25 45 -2 25 -16 186 -30 356 -14 171 -32 387 -40 480 -13
151 -24 291 -54 670 -9 113 -7 310 4 424 6 56 11 68 45 103 30 32 39 50 43 87
4 39 1 49 -19 68 -13 12 -24 26 -24 30 0 9 -34 34 -62 45 -10 4 -18 3 -18 -3
0 -6 -23 -9 -57 -7 -40 2 -57 7 -56 16 4 19 -61 19 -266 3 -66 -5 -146 -6
-183 -1 -37 4 -74 7 -84 6 -9 0 -20 8 -24 20 -9 24 26 69 95 121 83 63 134 75
375 93 171 13 222 28 455 135 308 142 430 205 414 216 -19 12 -32 11 -24 -1 4
-7 -171 -100 -190 -100 -2 0 -65 -29 -138 -64 -171 -82 -271 -115 -297 -98
-15 9 -25 8 -47 -3 -16 -9 -22 -15 -13 -16 15 -2 -78 -17 -140 -24 -19 -2 -48
1 -63 7 -22 9 -31 8 -36 -1 -6 -9 -17 -7 -44 9 -21 12 -37 24 -37 27 0 22 62
92 83 93 4 0 49 20 100 44 50 24 118 51 149 59 56 15 72 25 207 137 111 93
204 166 262 204 30 20 92 64 139 97 86 62 133 86 205 109 22 7 60 23 86 36 25
12 63 26 85 29 21 4 44 12 50 16 34 27 167 61 264 68 58 5 96 9 85 10 -14 1
-27 17 -43 51 -20 45 -31 55 -54 51 -5 0 -8 16 -9 37 0 20 -3 31 -6 25 -9 -24
-21 -13 -27 25 -12 66 -66 235 -97 297 -16 34 -29 63 -29 67 0 10 103 8 116
-3 7 -6 19 -7 26 -3 15 10 94 25 130 26 17 1 35 -8 46 -22 20 -24 55 -22 50 2
-5 28 13 117 27 128 21 18 20 25 -25 102 -23 40 -37 76 -34 86 4 12 3 13 -3 4
-7 -9 -15 -2 -28 28 -18 41 -45 72 -45 52 0 -6 9 -39 20 -73 10 -35 17 -65 15
-68 -3 -2 0 -10 7 -18 6 -7 8 -16 4 -20 -8 -8 -86 18 -86 29 0 4 -5 8 -11 8
-7 0 -9 -11 -5 -31 4 -23 1 -35 -16 -52 -11 -12 -17 -16 -13 -8 6 11 4 13 -8
8 -10 -4 -21 2 -30 16 -19 29 -74 60 -82 48 -3 -6 17 -34 45 -63 27 -28 50
-58 50 -65 0 -7 6 -12 12 -10 7 1 14 -7 16 -18 2 -17 -3 -21 -27 -23 -25 -2
-33 3 -47 33 -18 38 -29 47 -21 16 3 -13 -3 -22 -20 -30 -29 -14 -43 -14 -23
-1 13 8 13 10 -2 10 -9 0 -18 -5 -20 -11 -7 -21 -56 3 -107 53 -28 27 -51 55
-51 61 0 6 -8 19 -17 29 -16 18 -16 18 3 12 15 -6 17 -5 8 7 -32 40 6 159 78
247 49 61 68 69 68 31 0 -10 5 -19 11 -19 5 0 8 -4 4 -9 -3 -5 -1 -12 5 -16 6
-4 8 13 5 49 -6 59 14 173 47 270 19 60 23 181 7 216 -58 122 -67 187 -35 262
36 85 86 111 296 157 160 35 230 36 360 2 189 -50 219 -59 273 -85 29 -14 83
-30 121 -36 38 -6 80 -17 95 -24 14 -7 47 -16 73 -20 25 -4 52 -13 58 -21 7
-8 25 -21 40 -28 27 -14 28 -13 44 20 20 41 20 47 2 40 -25 -10 -47 26 -37 59
15 47 21 94 12 94 -4 0 -20 -14 -35 -30 -22 -25 -26 -37 -20 -65 4 -25 2 -39
-10 -51 -15 -15 -20 -15 -56 0 -22 9 -40 13 -40 10 0 -3 -12 2 -27 10 -16 8
-41 17 -56 21 -15 3 -25 10 -22 15 3 6 -3 10 -14 10 -11 0 -23 5 -26 10 -4 6
-15 8 -26 5 -10 -4 -19 -2 -19 4 0 6 -15 8 -34 6 -19 -3 -38 -1 -41 4 -10 17
-67 41 -97 41 -17 0 -27 4 -23 10 3 6 -3 10 -15 10 -30 0 -130 53 -170 91 -19
19 -50 42 -69 52 -18 10 -38 22 -45 28 -6 5 -62 40 -125 78 -66 39 -139 93
-173 127 -58 56 -60 60 -53 98 13 85 117 224 178 240 29 7 69 -7 126 -45 l34
-23 -6 48 c-9 63 -36 83 -217 164 -127 57 -207 96 -221 108 -18 16 -164 38
-182 27 -6 -4 -46 -8 -89 -8 -55 -1 -84 -6 -103 -19 -41 -27 -135 1 -135 40 0
29 -27 92 -56 131 -13 17 -24 38 -24 45 -1 7 -20 28 -44 47 -41 32 -45 39 -56
106 -13 75 -7 160 13 183 17 22 13 179 -7 224 -9 21 -17 41 -18 45 0 5 -8 24
-16 43 -17 40 -16 115 2 213 11 57 11 71 0 82 -9 8 -12 28 -9 56 6 60 -28 203
-73 304 -65 149 -222 344 -297 369 -22 8 -48 11 -60 6 -15 -5 -26 -1 -42 16
-12 13 -32 23 -45 23 -13 -1 -61 -5 -108 -10z m237 -391 c15 -8 26 -8 35 -1
21 17 77 3 94 -23 9 -13 13 -28 9 -34 -4 -7 2 -18 14 -26 28 -20 51 -66 51
-102 0 -16 14 -56 31 -88 49 -91 78 -190 79 -264 0 -60 -20 -266 -39 -400 -6
-42 -7 -27 -5 60 1 63 -1 131 -5 150 -10 52 -38 51 -81 -5 -19 -25 -45 -57
-57 -73 -21 -24 -28 -43 -24 -64 0 -5 -4 -8 -9 -8 -6 0 -10 -13 -10 -28 0 -29
-29 -72 -48 -72 -6 0 -12 -5 -14 -12 -3 -8 -14 -3 -32 15 -15 15 -31 27 -36
27 -18 0 -21 22 -5 40 9 10 19 38 22 61 5 37 4 41 -10 36 -10 -4 -17 -2 -17 4
0 6 -11 8 -27 5 -16 -4 -39 -8 -53 -11 -69 -13 -85 -19 -100 -38 -31 -37 -11
-63 44 -58 10 0 24 -6 31 -15 10 -14 15 -14 34 -4 29 15 40 4 15 -15 -12 -9
-31 -13 -50 -10 -24 4 -38 -2 -70 -28 -21 -18 -51 -38 -66 -44 -15 -7 -34 -24
-44 -38 -9 -14 -23 -25 -30 -25 -17 0 -19 26 -3 36 6 3 8 17 5 29 -4 14 -1 25
7 29 9 3 7 9 -5 19 -10 8 -18 18 -18 22 0 10 -81 85 -91 85 -5 0 -16 11 -24
24 -9 13 -26 27 -38 30 -12 3 -30 18 -39 34 -20 34 -41 153 -29 165 10 10 87
-26 93 -43 2 -6 19 -13 39 -16 40 -7 134 28 143 52 3 9 1 12 -4 9 -6 -3 -10
-2 -10 3 0 11 34 22 73 22 26 0 27 2 27 56 0 53 -1 56 -33 69 -35 15 -214 23
-256 12 -12 -3 -29 -11 -36 -17 -21 -18 -26 3 -13 66 15 77 119 298 151 318
24 16 73 31 177 56 30 7 62 17 70 21 47 26 140 30 187 7z m7 -1192 c-11 -14
-25 -26 -33 -26 -8 0 -23 -8 -34 -17 -18 -17 -19 -17 -28 0 -13 23 -28 22 -56
-5 -17 -16 -35 -22 -64 -21 -44 2 -89 25 -89 46 1 41 28 46 196 32 90 -8 91
-7 97 16 5 18 9 21 18 12 8 -8 7 -18 -7 -37z m-333 -302 c10 -9 37 -18 60 -19
28 -3 54 -13 79 -33 54 -44 109 -57 154 -35 29 13 40 14 62 4 22 -10 32 -9 62
9 24 15 37 18 42 10 4 -6 11 -10 16 -9 32 6 21 -5 -26 -26 -30 -13 -63 -22
-72 -19 -10 3 -18 2 -18 -3 0 -5 -8 -9 -17 -10 -10 0 -45 -5 -78 -9 -74 -11
-371 -12 -381 -1 -4 4 -1 13 8 20 8 6 20 32 27 57 13 46 36 80 54 80 6 0 18
-7 28 -16z m193 -2900 c9 -3 16 -13 16 -21 0 -10 6 -12 19 -8 14 4 22 -2 32
-25 10 -21 21 -30 38 -30 13 0 30 -8 37 -17 12 -17 13 -17 19 0 10 24 32 21
39 -6 3 -14 21 -32 43 -43 40 -20 82 -62 83 -81 0 -6 5 -13 11 -15 7 -2 9 -13
5 -26 -4 -12 -12 -20 -17 -17 -5 4 -9 -3 -9 -14 0 -10 6 -21 12 -23 9 -3 8 -9
-5 -22 -9 -9 -21 -14 -27 -11 -5 3 -21 -6 -34 -20 -15 -16 -26 -21 -28 -14 -2
7 -14 -1 -27 -19 -12 -18 -29 -32 -37 -32 -8 0 -14 -4 -14 -10 0 -5 -16 -10
-35 -10 -23 0 -38 -6 -41 -15 -5 -12 -15 -14 -41 -9 -23 4 -38 2 -42 -5 -5 -7
-36 -12 -82 -12 -41 0 -94 0 -119 0 -55 0 -170 21 -187 34 -9 6 -13 5 -13 -4
-1 -8 -7 -3 -15 11 -14 25 -14 25 -15 3 0 -29 -28 -30 -32 -1 -3 20 -8 21 -85
19 -71 -2 -85 1 -105 18 -12 12 -29 21 -37 22 -9 0 -5 5 9 11 l25 11 -35 10
-35 10 43 9 c38 8 42 12 37 31 -4 14 -3 18 3 9 8 -13 51 -10 117 7 17 4 48 6
69 3 30 -3 55 3 110 29 39 19 77 40 84 47 8 7 26 19 42 27 15 8 32 27 39 42 9
22 23 32 57 42 38 11 44 16 38 33 -4 14 -3 18 6 13 16 -10 50 24 50 52 0 24 7
27 34 17z m-1427 -1264 c-3 -11 -1 -20 3 -20 8 0 25 -52 45 -135 7 -27 8 -28
16 -10 6 13 6 7 2 -19 -5 -33 -3 -38 10 -33 17 6 32 -33 22 -62 -3 -10 4 -40
16 -67 12 -27 26 -65 31 -84 29 -110 29 -112 11 -132 -16 -18 -15 -20 15 -48
35 -31 41 -50 17 -50 -8 0 -15 5 -15 10 0 6 -6 10 -13 10 -8 0 -19 18 -26 40
-6 21 -16 42 -21 45 -18 11 -59 112 -54 132 3 11 1 24 -5 27 -6 4 -11 18 -11
32 0 13 -4 24 -10 24 -12 0 -13 50 -1 69 7 11 3 21 -15 38 -23 22 -33 53 -15
53 7 0 4 28 -14 116 -3 12 -18 27 -35 34 -16 7 -30 15 -30 19 0 16 26 31 53
31 24 0 28 -3 24 -20z"/>
<path d="M4432 10004 c-132 -35 -246 -100 -223 -128 5 -6 16 -31 24 -56 16
-49 32 -61 41 -33 5 14 17 19 49 21 23 0 36 -1 30 -4 -35 -15 7 -36 96 -48 36
-6 50 -2 77 16 19 13 34 28 34 35 0 7 14 22 30 35 37 27 42 81 10 98 -14 8
-19 17 -14 34 4 17 -1 25 -21 34 -33 15 -67 14 -133 -4z"/>
<path d="M1460 7371 c-14 -4 -29 -17 -35 -29 -5 -12 -18 -22 -28 -22 -10 0
-16 -4 -13 -8 5 -9 -37 -26 -91 -37 -18 -4 -33 -10 -33 -14 0 -14 -161 -42
-368 -65 -67 -8 -128 -19 -136 -25 -39 -33 -21 -102 42 -164 l38 -37 59 31
c33 17 69 39 81 50 11 11 46 26 77 34 37 9 76 30 110 56 28 23 61 45 72 49
133 55 283 110 296 110 29 0 51 28 39 51 -9 15 -15 17 -29 9 -14 -7 -20 -6
-25 5 -6 16 -16 17 -56 6z"/>
<path d="M7249 7200 c-3 -92 -3 -97 -11 -106 -13 -12 -9 -48 7 -71 9 -13 14
-42 14 -80 -1 -32 4 -71 10 -86 18 -46 14 -190 -6 -226 -17 -29 -17 -30 7 -56
22 -24 23 -28 11 -58 -7 -18 -18 -53 -24 -79 -6 -28 -18 -50 -27 -53 -9 -3
-16 -17 -17 -32 -2 -27 -1 -27 9 -5 6 12 19 22 30 22 12 0 18 -8 19 -22 0 -22
1 -22 9 -3 4 11 11 50 14 85 8 76 10 316 3 327 -7 12 -16 137 -23 323 -6 166
-23 243 -25 120z"/>
<path d="M2456 7158 c-9 -12 -16 -36 -16 -54 0 -17 -5 -56 -11 -87 -10 -49
-18 -62 -55 -92 -52 -43 -81 -104 -94 -198 -14 -97 -35 -137 -71 -137 -15 0
-31 5 -34 10 -11 18 -45 11 -54 -12 -12 -31 -1 -35 102 -39 l89 -4 14 40 c8
22 23 78 34 125 11 47 23 96 27 110 3 14 5 29 4 33 -1 5 3 6 9 2 5 -3 10 1 10
9 0 9 4 16 9 16 21 0 -10 -307 -33 -322 -16 -11 -5 -16 39 -20 36 -3 40 -1 43
22 3 29 8 620 5 620 -1 0 -9 -10 -17 -22z"/>
<path d="M6511 7171 c-8 -5 -11 -16 -7 -29 5 -13 1 -22 -10 -26 -14 -5 -15 -4
-4 9 8 9 8 15 2 15 -6 0 -13 -8 -16 -18 -4 -11 -18 -25 -31 -32 -19 -10 -22
-16 -13 -22 10 -6 9 -8 -3 -8 -9 0 -19 -7 -23 -15 -3 -8 -13 -15 -21 -15 -19
0 -37 -16 -54 -48 -14 -26 -67 -56 -87 -48 -9 3 -12 1 -9 -4 3 -6 -4 -11 -17
-11 -29 -2 -27 -2 -70 6 l-37 7 12 -32 c11 -31 14 -32 57 -28 62 6 154 50 206
98 24 22 48 40 53 40 5 0 25 14 43 30 18 17 39 30 48 30 27 0 94 -45 107 -70
8 -15 13 -19 13 -9 0 17 -42 77 -67 96 -23 17 -10 27 17 13 12 -6 24 -9 27 -7
2 3 -19 17 -47 30 -46 22 -49 26 -30 32 18 6 20 9 9 16 -18 11 -30 11 -48 0z"/>
<path d="M6832 6998 c-17 -17 -15 -49 4 -62 19 -14 33 -207 17 -228 -6 -8 -7
-21 -2 -33 11 -28 11 -45 -1 -45 -5 0 -10 6 -10 14 0 15 -24 28 -34 19 -11
-11 -6 -23 9 -23 8 0 15 -9 15 -19 0 -11 5 -21 11 -23 13 -4 14 -82 2 -165 -7
-49 -7 -63 3 -63 18 0 34 -33 34 -69 0 -26 -4 -31 -24 -31 -14 0 -38 11 -54
25 -17 14 -32 25 -35 25 -8 0 -37 -79 -37 -103 0 -12 -7 -32 -15 -44 -9 -12
-15 -26 -14 -30 5 -19 -23 -65 -41 -70 -11 -3 -20 -14 -20 -25 0 -21 -51 -78
-69 -78 -6 0 -11 -8 -11 -18 0 -11 -9 -27 -20 -37 -11 -10 -20 -24 -20 -31 0
-7 -13 -23 -29 -37 -17 -14 -37 -41 -45 -61 -8 -20 -40 -61 -71 -90 -30 -30
-55 -59 -55 -65 0 -17 -31 -61 -42 -61 -13 0 -38 -26 -38 -39 0 -6 -9 -15 -20
-21 -11 -6 -17 -16 -14 -25 4 -8 -3 -31 -15 -50 -12 -20 -21 -53 -22 -73 0
-20 -3 -31 -6 -24 -2 7 -22 12 -44 12 -36 0 -39 -2 -39 -29 0 -16 6 -31 15
-35 30 -11 17 -36 -20 -36 -34 0 -35 -1 -35 -40 0 -35 -3 -40 -22 -40 -33 -1
-98 -64 -98 -95 0 -22 -4 -25 -40 -25 -33 0 -40 -3 -40 -20 0 -14 -7 -20 -23
-20 -13 0 -29 -6 -35 -12 -10 -10 -15 -10 -20 -1 -5 8 -19 0 -45 -23 -20 -19
-37 -36 -37 -39 0 -3 19 -5 42 -5 38 0 40 -1 23 -14 -19 -14 -19 -15 8 -27 15
-7 27 -17 27 -22 0 -14 61 -67 77 -67 8 0 21 -15 29 -32 8 -18 22 -44 29 -58
8 -14 15 -32 15 -41 0 -9 6 -19 13 -22 16 -6 28 -128 83 -872 14 -192 32 -390
39 -440 l12 -90 2 82 c0 45 5 83 9 85 13 5 62 158 52 158 -12 0 -2 27 27 69
12 18 25 49 29 68 4 23 13 37 25 40 11 3 19 13 19 23 0 11 15 25 36 35 20 9
39 25 41 35 3 10 22 26 44 36 21 11 39 26 39 34 0 8 9 21 20 28 11 7 20 18 20
26 0 17 38 28 43 12 7 -20 14 -3 20 52 5 41 3 52 -8 52 -9 0 -15 10 -15 25 0
14 5 25 10 25 6 0 11 28 11 63 1 34 4 52 6 40 2 -13 9 -23 14 -23 12 0 11 17
-1 41 -6 11 -13 106 -16 212 -3 105 -9 225 -14 265 -6 40 -10 113 -10 162 0
49 -6 138 -14 197 -23 174 -28 243 -16 243 5 0 10 18 10 40 0 40 5 44 43 41
13 -2 17 6 17 36 0 27 6 42 20 51 11 7 20 8 20 3 0 -5 -4 -11 -9 -13 -5 -1 -3
-12 5 -22 12 -17 14 -18 14 -3 0 9 5 17 11 17 6 0 3 7 -5 16 -20 19 -20 22 -2
40 8 7 16 19 19 26 2 7 8 10 12 5 5 -4 2 -18 -5 -32 -21 -39 -6 -39 24 0 30
38 34 57 22 94 -7 21 -6 23 10 17 10 -4 15 -4 11 0 -10 10 34 84 51 84 9 0 11
-7 7 -22 -5 -20 -5 -21 5 -5 6 10 9 31 5 46 -7 32 9 51 19 24 6 -15 8 -15 16
-3 5 9 5 19 -2 27 -8 10 -5 13 11 13 16 0 21 6 21 28 0 21 2 24 10 12 14 -21
13 5 0 30 -9 16 -8 18 6 13 14 -5 16 -1 12 25 -2 17 -1 29 4 26 4 -3 8 -12 8
-20 0 -8 5 -14 10 -14 6 0 10 15 10 34 0 19 5 38 10 41 6 3 10 15 10 25 0 10
11 27 24 38 18 14 22 22 14 30 -18 18 32 61 76 66 45 6 59 23 80 96 8 30 30
109 49 175 19 66 38 143 42 170 12 83 23 26 24 -125 1 -146 15 -207 18 -82 6
213 5 274 -6 352 -11 74 -10 91 4 133 15 45 15 52 0 98 -9 27 -20 49 -24 49
-20 0 -34 -81 -32 -186 1 -78 -3 -131 -14 -175 -16 -61 -41 -96 -58 -80 -12
12 -17 350 -6 357 12 7 11 26 -2 61 l-11 28 -29 -35 c-33 -39 -35 -53 -13
-106 12 -29 15 -65 12 -160 -3 -118 -4 -123 -25 -129 -13 -3 -23 -12 -23 -20
0 -8 -7 -15 -15 -15 -13 0 -15 -7 -9 -37 4 -21 11 -39 15 -41 12 -5 11 -55 -1
-86 -15 -40 -36 -32 -49 18 -13 54 -15 126 -2 126 5 0 5 16 -1 38 -6 20 -14
87 -19 147 -5 61 -16 140 -25 177 -8 38 -14 78 -12 89 4 26 -12 35 -30 17z"/>
<path d="M1234 6882 c3 -5 18 -13 33 -17 16 -3 44 -19 63 -33 44 -34 108 -74
140 -88 55 -25 127 -92 156 -148 25 -48 27 -58 14 -66 -12 -8 -12 -10 -1 -10
11 0 11 -3 1 -15 -10 -12 -9 -15 8 -15 63 0 67 33 14 116 -61 93 -147 163
-232 189 -14 4 -54 25 -90 45 -69 40 -117 59 -106 42z"/>
<path d="M2146 6805 c-3 -9 -12 -15 -19 -13 -31 7 -109 -125 -122 -204 -5 -35
-4 -38 19 -38 39 0 56 11 56 35 0 14 20 47 49 80 48 55 73 118 56 145 -9 15
-32 12 -39 -5z"/>
<path d="M823 6688 c-13 -18 -33 -90 -33 -123 0 -15 -9 -40 -21 -56 -18 -25
-19 -34 -9 -64 6 -19 9 -39 5 -45 -7 -11 24 -13 41 -2 6 4 18 30 28 57 11 35
26 57 49 73 49 33 73 28 125 -23 51 -51 68 -55 84 -20 14 32 72 60 96 46 9 -6
11 -11 5 -11 -7 0 -13 -7 -13 -16 0 -11 6 -14 23 -8 34 10 33 11 -13 56 -31
31 -45 39 -48 28 -3 -8 1 -16 7 -18 18 -6 -39 -42 -66 -42 -13 0 -36 14 -53
31 -16 18 -30 29 -30 25 0 -3 -9 3 -20 14 -11 11 -20 22 -20 25 0 9 -35 45
-44 45 -5 0 -17 6 -25 14 -25 21 -57 28 -68 14z"/>
<path d="M469 6515 c-3 -54 0 -93 9 -120 8 -22 25 -76 38 -119 26 -85 38 -110
28 -58 -6 31 9 46 19 20 3 -7 4 16 2 52 -1 36 -6 72 -9 81 -6 13 -2 16 16 14
36 -4 38 -5 36 -12 -1 -5 6 -23 16 -41 14 -28 20 -31 32 -21 10 8 14 27 13 55
-2 24 0 46 4 50 15 16 6 36 -21 45 -17 6 -34 23 -43 42 -18 42 -34 33 -34 -21
0 -41 -20 -72 -46 -72 -12 0 -22 41 -21 80 2 42 -17 80 -19 40 -1 -14 -5 -5
-9 20 -6 41 -7 38 -11 -35z"/>
<path d="M1320 6160 c0 -5 -7 -10 -16 -10 -10 0 -14 -5 -10 -16 3 -8 2 -13 -2
-10 -4 2 -14 -10 -21 -27 -7 -18 -19 -46 -27 -64 -23 -51 -17 -84 26 -148 22
-33 43 -76 46 -95 3 -19 19 -75 34 -125 16 -49 32 -108 36 -130 3 -22 10 -44
14 -50 3 -5 12 -29 18 -52 7 -22 32 -79 57 -125 25 -45 59 -112 77 -148 18
-36 36 -66 41 -68 4 -2 7 -7 7 -11 0 -5 29 -57 65 -116 36 -60 65 -114 65
-120 0 -7 13 -30 28 -51 16 -21 52 -88 82 -149 29 -60 57 -113 62 -116 5 -3
11 -23 15 -45 3 -21 17 -52 30 -67 12 -16 23 -34 23 -40 1 -7 9 -30 20 -52 11
-22 19 -51 20 -66 0 -29 47 -129 61 -129 5 0 9 -11 9 -25 0 -32 32 -135 42
-135 4 0 8 -5 8 -11 0 -25 53 -119 67 -119 11 0 14 -6 10 -22 -4 -15 1 -30 14
-44 11 -12 21 -29 23 -37 1 -8 14 -33 29 -54 15 -22 27 -42 27 -46 0 -15 63
-143 90 -181 15 -23 34 -60 40 -84 7 -23 21 -49 32 -58 10 -10 18 -27 18 -40
0 -12 3 -24 8 -26 9 -4 42 -75 42 -92 0 -7 9 -25 21 -40 11 -14 18 -26 15 -26
-3 0 6 -20 19 -44 14 -25 25 -50 25 -56 0 -7 7 -26 15 -43 21 -47 48 -148 47
-180 -1 -16 8 -37 19 -48 11 -11 18 -23 15 -27 -3 -5 8 -24 24 -42 16 -19 39
-59 51 -90 11 -30 29 -75 39 -100 10 -25 21 -67 25 -95 9 -62 18 -80 41 -80
12 0 23 -14 33 -39 14 -38 14 -40 -7 -54 -17 -11 -19 -18 -12 -33 6 -10 12
-43 15 -74 7 -76 24 -141 52 -198 23 -46 24 -53 14 -117 -14 -90 -15 -88 13
-86 20 1 27 9 35 43 16 62 13 145 -6 184 -15 29 -19 55 -24 134 -6 108 -55
395 -69 405 -6 4 -10 34 -26 175 -9 84 -26 168 -40 196 -7 14 -18 57 -25 95
-6 38 -16 75 -22 83 -7 7 -12 47 -13 88 -1 46 -6 78 -13 82 -7 4 -13 29 -15
55 -1 25 -8 52 -14 58 -7 7 -12 19 -12 27 0 9 -7 29 -15 44 -8 16 -26 59 -39
95 -13 37 -31 81 -40 97 -9 17 -16 44 -16 60 0 19 -13 46 -35 74 -19 24 -33
46 -31 49 3 2 -8 24 -24 47 -16 24 -58 99 -93 167 -35 67 -78 146 -95 173 -18
28 -35 60 -38 73 -3 12 -10 22 -15 22 -5 0 -9 6 -9 13 0 8 -9 22 -20 32 -11
10 -20 28 -20 39 0 12 -7 32 -15 46 -8 14 -19 36 -25 50 -6 14 -24 52 -40 85
-16 33 -35 78 -43 100 -29 79 -52 130 -59 133 -5 2 -8 11 -8 19 0 9 -11 35
-24 58 -14 23 -30 64 -37 91 -14 54 -63 144 -102 186 -14 15 -47 40 -73 54
-56 31 -92 68 -101 102 -3 14 -12 32 -20 41 -61 72 -73 91 -73 120 0 17 -4 31
-9 31 -5 0 -12 18 -16 40 -4 25 -12 40 -21 40 -8 0 -14 6 -14 14 0 8 -8 21
-17 28 -23 16 -73 90 -73 106 0 7 -4 12 -9 12 -5 0 -12 8 -15 18 -4 10 -22 36
-41 57 -21 22 -31 41 -25 45 11 7 -14 243 -29 271 -5 9 -15 41 -22 72 -8 32
-17 57 -21 57 -5 0 -8 -4 -8 -10z"/>
<path d="M480 5968 c0 -19 -2 -20 -10 -8 -8 13 -10 12 -10 -3 0 -34 22 -107
31 -101 5 3 9 -11 9 -31 0 -50 23 -138 71 -269 48 -130 62 -158 104 -211 59
-73 108 -214 57 -163 -26 26 -8 -15 102 -237 63 -126 139 -282 169 -347 45
-95 119 -232 167 -308 5 -8 22 -37 38 -65 16 -27 79 -133 142 -235 62 -102
133 -219 158 -260 25 -41 77 -125 116 -186 85 -131 76 -117 171 -279 191 -323
226 -378 348 -549 202 -282 212 -297 237 -361 13 -33 41 -95 62 -137 35 -72
65 -198 52 -220 -12 -20 -283 2 -408 32 -43 11 -98 31 -122 44 -24 14 -44 21
-44 17 0 -21 41 -50 100 -71 36 -12 80 -29 98 -37 18 -8 41 -11 52 -8 12 4 26
0 36 -10 12 -12 19 -13 30 -4 19 16 160 -4 149 -21 -3 -5 1 -11 7 -13 10 -4
10 -8 1 -14 -8 -6 -8 -13 3 -27 11 -16 16 -17 29 -6 10 8 15 23 12 37 -3 15 1
23 9 23 7 0 11 -6 9 -12 -3 -7 0 -20 5 -28 8 -12 11 -13 19 -1 7 11 9 11 13 0
7 -22 44 24 53 67 11 51 13 116 4 129 -3 6 -6 17 -6 26 1 61 -122 333 -211
464 -68 100 -84 124 -97 139 -5 6 -22 27 -36 46 -15 19 -41 50 -57 69 -28 30
-50 61 -101 141 -9 14 -36 66 -61 115 -25 50 -48 92 -53 93 -13 6 -48 92 -42
102 3 6 1 10 -5 10 -5 0 -27 26 -47 57 -34 52 -47 78 -86 163 -7 14 -22 40
-34 59 -13 19 -23 42 -23 53 0 11 -4 16 -10 13 -6 -3 -7 1 -4 10 4 10 -1 22
-15 31 -11 8 -21 21 -21 27 0 7 -9 19 -20 27 -11 8 -20 20 -20 27 0 7 -8 21
-18 31 -11 11 -22 37 -25 59 -4 24 -19 54 -37 74 -17 19 -40 53 -52 77 -12 23
-25 42 -30 42 -4 0 -8 10 -8 22 0 13 -12 47 -27 76 -19 37 -24 55 -16 60 15 9
6 22 -29 45 -16 10 -28 24 -28 32 0 8 -13 24 -29 36 -17 13 -27 27 -24 36 3 8
-4 23 -16 34 -13 13 -21 32 -21 53 0 18 -9 45 -20 59 -11 14 -20 30 -20 35 0
5 -6 15 -14 21 -8 7 -17 27 -20 46 -5 26 -12 35 -26 35 -11 0 -20 -5 -20 -11
0 -22 -19 3 -25 34 -4 17 -18 46 -30 63 -13 17 -27 47 -30 67 -4 20 -13 41
-21 48 -8 6 -14 20 -14 30 0 10 -9 25 -21 33 -12 8 -18 19 -14 26 4 7 3 15 -2
19 -14 9 -60 99 -77 150 -8 24 -12 57 -9 73 5 24 0 35 -26 58 -17 16 -31 31
-31 34 0 2 -18 36 -40 75 -22 39 -40 77 -40 84 0 8 -9 22 -20 32 -11 10 -25
37 -30 59 -6 23 -17 53 -26 69 -8 15 -12 27 -8 27 5 0 3 5 -4 12 -7 7 -12 18
-12 24 0 7 -5 25 -12 41 -7 15 -12 33 -13 38 0 6 -6 20 -13 32 -7 12 -9 28 -6
37 5 12 -33 76 -57 96 -8 7 -29 70 -23 70 3 0 -1 7 -10 15 -20 21 -26 19 -26
-7z"/>
</g>
</svg>
