<?xml version="1.0" standalone="no"?>
<!DOCTYPE svg PUBLIC "-//W3C//DTD SVG 20010904//EN"
 "http://www.w3.org/TR/2001/REC-SVG-20010904/DTD/svg10.dtd">
<svg version="1.0" xmlns="http://www.w3.org/2000/svg"
 width="750.000000pt" height="1125.000000pt" viewBox="0 0 750.000000 1125.000000"
 preserveAspectRatio="xMidYMid meet">
<metadata>
Created by potrace 1.16, written by Peter Selinger 2001-2019
</metadata>
<g transform="translate(0.000000,1125.000000) scale(0.100000,-0.100000)"
fill="#000000" stroke="none">
<path d="M4618 8056 c-53 -45 -150 -148 -293 -311 -27 -31 -180 -221 -270
-335 -120 -152 -261 -337 -385 -505 -73 -99 -177 -238 -230 -310 -131 -175
-225 -308 -360 -505 -249 -364 -402 -515 -650 -642 -41 -21 -115 -64 -165 -94
-155 -96 -224 -133 -354 -190 -173 -75 -619 -318 -846 -461 -44 -27 -136 -85
-205 -128 -196 -121 -254 -174 -297 -263 -20 -42 -24 -64 -20 -99 2 -25 9 -49
15 -55 14 -14 70 -14 478 -4 193 5 364 5 380 1 26 -7 22 -9 -48 -30 -43 -12
-89 -30 -102 -39 -14 -9 -30 -16 -35 -16 -8 0 -34 -10 -71 -26 -3 -1 -15 -5
-27 -9 -13 -4 -19 -13 -16 -21 6 -17 84 -18 366 -3 196 10 584 43 660 55 21 4
37 3 37 -3 0 -5 -33 -33 -72 -63 -149 -110 -198 -148 -408 -316 -275 -219
-370 -317 -421 -428 -36 -79 -19 -151 37 -162 18 -3 146 -4 283 -1 145 3 251
1 251 -4 0 -5 -7 -9 -16 -9 -14 0 -93 -42 -119 -63 -5 -4 -19 -14 -29 -21 -12
-8 -16 -18 -11 -26 6 -10 37 -11 139 -6 228 12 590 43 1051 91 77 8 275 28
440 45 565 57 967 114 1135 160 311 86 433 127 560 188 38 19 51 32 44 44 -3
4 -1 8 4 8 5 0 31 14 58 32 150 96 176 120 231 216 61 105 94 196 282 777 39
121 75 227 80 235 20 30 20 1 1 -98 -10 -56 -22 -129 -26 -162 l-7 -60 56 -25
c30 -14 81 -31 112 -38 53 -11 59 -10 103 13 43 23 47 28 46 60 -21 526 -11
917 25 989 27 52 120 175 222 292 294 336 454 542 498 644 78 176 78 400 0
695 -38 144 -78 246 -169 435 -104 218 -213 397 -290 478 -60 63 -68 68 -108
69 -51 0 -79 -19 -188 -134 -44 -45 -124 -130 -179 -188 -182 -191 -415 -444
-485 -525 -42 -49 -68 -71 -75 -63 -2 2 -9 35 -15 72 -29 184 -150 458 -289
657 -88 125 -197 239 -230 239 -11 0 -48 -24 -83 -54z m841 -1778 c-7 -13 -29
-45 -49 -73 -115 -159 -187 -329 -216 -513 -9 -59 -23 -127 -30 -152 -13 -43
-13 -39 -10 65 3 77 11 137 29 200 49 178 95 268 220 423 60 74 77 89 56 50z"/>
</g>
</svg>
