<?xml version="1.0" standalone="no"?>
<!DOCTYPE svg PUBLIC "-//W3C//DTD SVG 20010904//EN"
 "http://www.w3.org/TR/2001/REC-SVG-20010904/DTD/svg10.dtd">
<svg version="1.0" xmlns="http://www.w3.org/2000/svg"
 width="750.000000pt" height="1125.000000pt" viewBox="0 0 750.000000 1125.000000"
 preserveAspectRatio="xMidYMid meet">
<metadata>
Created by potrace 1.16, written by Peter Selinger 2001-2019
</metadata>
<g transform="translate(0.000000,1125.000000) scale(0.100000,-0.100000)"
fill="#000000" stroke="none">
<path d="M3328 9211 c-100 -39 -206 -138 -257 -239 -34 -68 -69 -189 -78 -274
-12 -115 39 -258 127 -358 22 -24 40 -51 41 -60 0 -10 4 -7 11 8 16 32 24 27
24 -13 0 -24 -4 -34 -12 -31 -11 4 9 -28 89 -151 12 -17 23 -30 25 -29 2 2 -8
32 -22 67 -28 67 -32 89 -16 89 6 0 10 9 10 21 0 16 -4 19 -20 14 -17 -6 -19
-3 -11 17 11 30 4 48 -18 48 -26 0 -98 74 -126 130 -14 28 -21 50 -15 50 5 0
10 12 10 26 0 19 -4 25 -15 20 -9 -3 -15 0 -15 9 0 24 37 17 65 -12 29 -32 31
-46 10 -63 -20 -16 -19 -44 1 -61 13 -11 15 -11 14 2 -5 29 1 39 20 39 24 0
24 -7 4 86 l-15 75 32 90 c60 167 114 224 243 254 85 20 103 17 168 -24 38
-24 53 -43 82 -105 20 -41 36 -79 36 -84 0 -5 -29 -21 -65 -37 -61 -26 -65
-29 -66 -61 -1 -19 -2 -40 -3 -46 -1 -7 5 -12 12 -10 7 1 20 -4 28 -13 9 -8
34 -15 57 -16 85 -1 112 -86 83 -267 -21 -130 -39 -177 -74 -190 -47 -18 -104
-26 -188 -26 -74 -1 -80 -2 -70 -18 6 -10 23 -20 37 -23 44 -10 47 -79 6 -114
-9 -7 -15 -26 -15 -42 1 -18 -7 -39 -20 -51 l-21 -21 -5 24 c-3 13 -7 51 -11
84 -5 59 -33 160 -41 152 -3 -2 5 -42 16 -88 22 -91 26 -169 10 -169 -11 0
-31 45 -29 64 3 26 -2 34 -26 38 -14 3 -28 2 -30 -3 -3 -4 5 -9 17 -11 13 -2
23 -10 24 -18 0 -8 4 -34 8 -57 8 -41 9 -41 72 -57 35 -9 84 -16 110 -16 61 0
157 25 213 57 67 37 72 42 59 62 -8 13 -4 29 16 68 31 58 80 243 101 383 20
126 19 325 0 401 -55 210 -167 400 -272 460 -52 30 -63 32 -167 35 -89 2 -120
-1 -158 -15z"/>
<path d="M3243 8651 c-36 -38 -28 -55 11 -26 21 16 68 19 99 7 13 -6 5 -12
-32 -25 -53 -18 -72 -47 -50 -73 8 -10 15 -11 24 -4 7 6 25 8 40 4 21 -5 27
-3 32 15 6 25 25 27 43 6 18 -22 26 -19 40 16 14 32 4 48 -29 49 -11 0 -11 3
-1 15 19 23 5 30 -78 35 -72 5 -78 4 -99 -19z"/>
<path d="M3490 7657 l0 -45 83 -30 c45 -16 100 -35 122 -41 50 -14 122 -14
130 -1 8 13 -24 26 -187 81 -71 24 -128 49 -128 56 0 6 -4 15 -10 18 -6 4 -10
-11 -10 -38z"/>
<path d="M3396 6788 c-9 -17 -17 -59 -17 -92 -1 -34 -4 -50 -6 -36 -9 51 -20
39 -33 -37 -13 -80 -29 -133 -42 -133 -4 0 -12 8 -17 18 -8 13 -10 7 -11 -29
0 -40 3 -47 25 -57 37 -17 42 -15 49 14 4 14 18 43 31 64 14 23 20 40 14 42
-12 4 33 147 58 185 12 18 13 28 2 58 -16 43 -33 45 -53 3z"/>
<path d="M2690 6738 c-7 -40 -26 -127 -42 -193 -42 -172 -78 -349 -87 -430 -5
-38 -19 -95 -31 -125 -13 -30 -23 -66 -24 -80 0 -14 -3 -27 -6 -30 -7 -7 -44
-64 -45 -70 -1 -3 -11 -26 -23 -52 -24 -52 -27 -68 -12 -68 6 0 10 5 10 12 0
6 3 8 6 5 4 -4 1 -13 -5 -21 -7 -8 -10 -20 -6 -26 3 -5 1 -10 -5 -10 -17 0
-84 -30 -78 -35 3 -3 23 3 46 12 64 28 97 82 118 198 14 73 20 91 24 69 7 -41
5 -136 -4 -156 -12 -26 25 -24 47 2 16 19 16 20 -3 20 -23 0 -23 -5 -10 120
20 191 75 529 106 652 17 66 46 269 40 275 -2 2 -9 -29 -16 -69z"/>
<path d="M2955 5375 c-15 -29 -20 -33 -27 -20 -5 8 -17 15 -26 16 -14 0 -14 2
2 8 11 4 15 10 10 13 -14 9 -65 -3 -58 -13 3 -5 -3 -9 -13 -9 -10 0 -58 -16
-107 -35 -65 -25 -105 -35 -146 -35 -41 0 -77 -9 -139 -35 -79 -34 -117 -43
-108 -27 3 4 -1 21 -9 37 -8 17 -12 22 -9 13 2 -10 -1 -22 -8 -28 -83 -68
-111 -87 -164 -112 -35 -15 -69 -28 -77 -28 -13 0 -44 -19 -161 -101 -27 -19
-72 -44 -100 -56 -104 -44 -104 -44 -66 -37 18 3 49 15 67 26 l34 20 0 -230
c0 -148 -4 -233 -10 -237 -9 -6 -445 0 -1512 21 l-328 6 0 -2266 0 -2266 3750
0 3750 0 0 2199 0 2199 -302 6 c-650 14 -1367 26 -1524 26 l-164 0 34 -47 c63
-90 311 -501 408 -678 141 -256 173 -310 212 -359 157 -195 165 -210 166 -310
0 -35 14 -84 49 -171 35 -85 56 -158 71 -241 11 -65 29 -146 39 -179 30 -98
35 -174 16 -233 -16 -47 -20 -52 -46 -52 -17 0 -32 6 -35 14 -3 8 -15 16 -26
20 -18 4 -19 7 -8 21 12 14 11 16 -13 10 -24 -7 -27 -4 -28 21 0 28 0 29 -10
5 -7 -17 -13 -21 -22 -13 -18 15 -82 19 -94 7 -18 -20 -12 -63 9 -68 16 -4 17
-3 7 9 -16 19 8 27 57 19 48 -7 57 -16 56 -55 0 -16 4 -30 10 -30 5 0 8 6 5
14 -3 8 3 22 14 32 18 16 20 16 38 0 11 -10 17 -24 15 -31 -3 -7 0 -16 7 -21
9 -5 11 -2 6 9 -3 9 1 18 9 21 22 8 22 9 22 -19 0 -14 -4 -25 -9 -25 -5 0 -6
-6 -3 -14 5 -14 -20 -46 -37 -46 -6 0 -19 5 -30 11 -11 6 -34 11 -50 11 -25 1
-28 4 -24 22 6 20 5 20 -8 3 -13 -15 -16 -15 -27 -3 -6 9 -9 20 -5 26 3 5 1
10 -5 10 -8 0 -10 -9 -6 -25 6 -25 5 -26 -33 -23 -22 1 -43 -1 -47 -4 -3 -4
-17 4 -29 17 -13 12 -29 25 -36 27 -6 2 -13 17 -14 32 -2 16 -10 33 -17 38
-10 7 -9 11 5 22 14 11 15 15 5 20 -9 4 -9 8 -2 11 13 6 -22 85 -37 85 -13 0
-11 77 2 103 12 22 19 74 19 145 0 67 10 58 50 -46 21 -54 27 -33 34 126 3 55
0 76 -11 88 -8 8 -12 21 -9 29 3 8 2 15 -3 15 -5 0 -11 14 -15 30 -4 22 -11
30 -22 28 -15 -3 -17 7 -15 70 1 40 -2 79 -7 85 -6 7 -12 17 -13 22 -2 6 -17
25 -34 43 -43 48 -84 126 -83 159 1 32 -35 95 -76 132 -14 14 -26 33 -26 43 0
10 -6 18 -12 18 -15 1 -88 66 -88 79 0 13 -91 101 -105 101 -7 0 -17 17 -22
37 -6 28 -15 38 -37 44 -32 9 -43 21 -88 99 -33 57 -92 120 -113 120 -14 0
-60 49 -69 73 -3 11 -15 21 -26 24 -21 6 -28 23 -9 23 5 0 8 4 4 10 -3 5 -12
7 -20 3 -9 -3 -15 1 -15 8 -1 17 -47 52 -59 45 -12 -8 -34 21 -36 46 -1 11 -9
24 -18 29 -8 5 -18 27 -22 49 -4 22 -15 50 -26 64 -16 21 -17 25 -4 36 8 7 12
16 9 21 -3 5 4 9 16 9 29 0 21 22 -11 31 l-24 7 26 1 26 1 -37 40 c-20 22 -42
58 -49 80 -6 22 -17 40 -24 40 -7 0 -21 15 -32 33 -10 17 -29 43 -43 57 -14
14 -34 45 -46 70 -12 25 -29 56 -39 70 -9 13 -17 35 -17 48 0 12 -7 25 -15 28
-8 4 -15 15 -15 25 0 11 -7 31 -16 45 -12 17 -15 39 -12 75 5 48 4 51 -31 77
-41 31 -53 43 -86 93 -17 26 -40 43 -79 60 -31 12 -56 27 -56 32 0 5 -6 7 -12
4 -22 -8 -67 26 -73 55 -4 15 -11 31 -17 34 -15 9 -3 -36 27 -106 22 -51 71
-203 100 -310 29 -105 54 -148 127 -221 45 -45 92 -106 121 -156 26 -45 47
-85 47 -88 0 -3 -22 -5 -50 -5 -27 0 -50 -3 -50 -6 0 -4 16 -48 36 -98 20 -50
38 -107 39 -128 1 -20 14 -76 29 -125 15 -48 36 -118 48 -155 11 -37 26 -75
34 -85 7 -10 14 -25 14 -35 0 -9 4 -18 9 -20 4 -1 30 -30 56 -63 74 -93 72
-90 55 -83 -13 5 -15 -1 -12 -28 4 -31 2 -34 -21 -34 -15 0 -31 9 -41 26 -10
14 -37 45 -62 70 -24 25 -44 51 -44 58 0 7 -18 30 -40 52 -22 21 -40 47 -40
56 0 9 -8 23 -18 30 -10 7 -22 22 -26 32 -13 35 -61 105 -72 106 -6 0 -16 18
-23 40 -7 23 -18 40 -26 40 -8 0 -15 5 -15 10 0 6 -7 10 -15 10 -8 0 -15 8
-14 18 0 10 3 12 6 5 2 -7 10 -13 16 -13 6 0 1 10 -11 23 -12 13 -22 31 -22
40 0 9 -4 17 -9 17 -5 0 -11 18 -15 40 -5 31 -10 38 -23 33 -10 -4 -14 -2 -9
5 3 6 2 13 -4 17 -5 3 -10 14 -10 24 0 10 -11 23 -24 30 -28 15 -48 54 -40 76
5 11 -1 15 -19 15 -17 0 -27 7 -32 23 -3 12 -9 17 -11 10 -8 -18 -34 -3 -34
19 0 20 -42 68 -60 68 -5 0 -16 10 -25 23 -13 19 -17 20 -25 7 -11 -18 -11
-28 -1 -55 6 -14 3 -24 -8 -32 -14 -11 -13 -12 7 -13 12 0 22 -4 22 -10 0 -5
-11 -10 -23 -10 -25 0 -49 22 -60 52 -4 11 -12 15 -22 12 -8 -3 -15 -1 -15 6
0 6 -5 8 -11 4 -8 -4 -9 4 -5 27 3 19 3 28 0 22 -7 -16 -23 -1 -41 37 l-12 25
0 -31 c-1 -18 8 -62 20 -99 11 -37 19 -68 17 -69 -2 -1 -93 1 -203 4 l-200 5
2 105 c1 58 5 175 9 261 l6 156 101 7 c88 6 104 10 121 29 l18 22 37 -41 c20
-23 42 -62 50 -88 7 -25 17 -46 22 -46 12 0 12 4 -8 46 -17 34 -17 36 0 45 14
8 15 13 5 29 -15 24 -28 17 -21 -13 6 -21 5 -20 -16 5 -11 14 -21 30 -21 35 0
4 4 2 9 -6 8 -12 12 -12 25 2 15 15 15 17 -3 27 -12 6 -18 16 -15 25 4 8 1 15
-5 15 -6 0 -11 8 -11 18 0 65 -183 137 -375 146 -98 5 -224 13 -292 18 -7 1
-13 6 -13 12 0 6 -4 4 -10 -4 -8 -12 -11 -12 -28 3 -22 20 -42 22 -42 3 0 -12
-46 -19 -135 -18 -37 0 -146 24 -193 43 l-47 20 45 -6 45 -6 0 46 c0 25 -2 45
-5 45 -3 0 -14 -16 -25 -35z m155 -130 c6 -4 37 -8 69 -8 34 -1 65 -8 76 -17
10 -8 23 -15 29 -15 44 -4 115 -19 111 -25 -2 -3 17 -12 44 -19 26 -6 59 -18
73 -25 15 -8 42 -17 60 -21 18 -4 38 -11 43 -15 6 -4 38 -13 73 -20 34 -7 65
-16 67 -20 3 -4 -17 -10 -43 -13 -26 -3 -83 -11 -127 -18 -91 -14 -1422 -20
-1487 -6 -55 12 -51 40 8 66 127 56 342 96 664 122 244 19 252 20 247 32 -5
13 74 14 93 2z m595 -345 c-3 -52 -8 -165 -11 -251 -3 -86 -10 -162 -14 -169
-6 -10 -110 -10 -541 -1 -979 22 -1238 29 -1249 36 -11 7 -14 213 -4 376 l7
104 908 0 909 0 -5 -95z m-860 -440 c675 -14 839 -20 827 -32 -6 -6 -110 -6
-293 1 -156 6 -504 16 -774 22 -269 6 -542 14 -605 19 -126 9 -60 8 845 -10z
m840 -763 c8 -4 12 -13 9 -20 -2 -7 18 -100 46 -207 27 -107 50 -201 50 -207
0 -7 -8 -13 -18 -13 -16 0 -26 29 -65 186 -38 153 -44 190 -34 206 9 16 9 22
0 25 -8 3 -12 22 -12 51 2 34 3 39 6 17 3 -16 11 -33 18 -38z m-1829 -70 c-9
-51 -29 -153 -44 -227 -25 -121 -31 -135 -50 -138 -12 -2 -22 2 -22 8 0 37 95
427 107 436 7 6 14 20 14 30 1 18 2 18 6 1 3 -10 -2 -60 -11 -110z m3434 -142
c29 -44 56 -82 59 -85 12 -9 101 -128 101 -135 0 -34 270 -334 328 -364 12 -7
20 -16 17 -21 -3 -4 4 -6 15 -3 14 4 32 -8 65 -43 43 -47 56 -74 35 -74 -5 0
-9 -5 -7 -11 1 -6 -4 -14 -12 -16 -9 -4 -11 0 -7 15 4 11 2 23 -3 27 -7 3 -8
0 -5 -9 3 -9 1 -16 -5 -16 -7 0 -15 9 -19 21 -5 11 -12 21 -17 22 -6 1 -9 10
-8 20 2 11 -4 17 -17 17 -11 0 -20 5 -20 10 0 6 -6 10 -13 10 -8 0 -20 11 -27
25 -7 14 -17 25 -22 25 -12 0 -10 -10 7 -26 19 -20 19 -34 0 -34 -9 0 -27 -12
-42 -26 -14 -14 -31 -23 -39 -20 -8 3 -14 1 -14 -4 0 -5 -18 -15 -40 -21 -21
-7 -37 -15 -35 -20 3 -4 27 1 53 11 48 18 49 18 65 -1 17 -19 53 -27 42 -9 -4
6 1 7 12 3 23 -9 37 -23 46 -45 3 -10 11 -18 16 -18 14 0 2 32 -18 48 -9 7
-16 17 -16 22 0 5 -8 15 -19 23 -17 13 -16 14 18 15 33 1 36 -1 31 -19 -4 -13
0 -28 11 -40 27 -30 27 -56 1 -63 -12 -3 -24 -1 -26 6 -2 6 -12 19 -23 30 -17
17 -22 18 -29 7 -6 -10 -2 -16 11 -21 11 -4 20 -14 20 -23 0 -8 5 -15 10 -15
6 0 10 -5 10 -11 0 -6 -7 -9 -15 -5 -8 3 -15 2 -15 -2 0 -6 -60 -7 -67 -2 -2
2 -7 3 -12 4 -12 1 -81 59 -81 67 0 4 9 9 20 12 11 3 20 11 20 17 0 10 -3 10
-14 1 -8 -6 -18 -10 -24 -9 -5 2 -19 -8 -31 -22 l-21 -25 -23 28 c-16 18 -26
24 -33 17 -12 -12 -53 7 -103 49 l-35 29 17 33 c11 24 13 37 5 46 -7 9 -7 13
1 13 6 0 11 -4 11 -9 0 -15 45 -39 86 -46 30 -5 36 -4 24 5 -12 9 -10 10 10 4
14 -4 26 -10 28 -15 2 -4 9 -7 15 -5 7 1 9 1 4 -1 -4 -3 -5 -9 -1 -14 3 -5 1
-9 -5 -9 -5 0 -11 6 -14 13 -2 6 -8 8 -13 4 -11 -11 41 -61 55 -53 8 5 8 13 0
27 -9 19 -9 19 10 10 26 -15 36 -14 23 2 -17 20 -15 27 17 56 20 18 29 36 28
54 -1 15 -6 27 -11 27 -4 0 -6 -11 -4 -25 3 -13 1 -22 -3 -19 -5 3 -9 12 -9
21 0 9 -3 13 -6 10 -9 -9 -44 37 -44 57 0 9 -4 16 -10 16 -6 0 -10 3 -9 8 4
24 -62 157 -89 182 -10 8 -22 26 -29 40 l-12 25 -7 -22 c-8 -27 -29 -31 -22
-5 4 12 -1 18 -13 18 -13 0 -19 -8 -19 -23 0 -19 -5 -23 -30 -23 -23 0 -33 6
-40 25 -5 14 -14 25 -20 25 -20 0 -23 31 -5 50 26 28 45 25 52 -10 7 -39 22
-48 40 -25 8 13 13 14 13 5 0 -7 3 -10 6 -7 4 4 1 13 -6 22 -10 11 -10 18 -1
29 7 9 8 17 2 20 -5 3 -12 0 -14 -6 -3 -8 -6 -6 -6 5 -1 9 -5 17 -11 17 -5 0
-9 3 -8 8 4 11 -33 64 -69 99 -18 17 -33 41 -33 52 0 12 -5 21 -11 21 -6 0 -8
-7 -5 -16 4 -9 2 -13 -5 -8 -6 3 -9 17 -6 30 3 17 -7 35 -39 69 -65 67 -53 71
15 6 32 -31 82 -92 111 -136z"/>
<path d="M1820 5099 c-36 -16 -75 -29 -88 -29 -13 0 -33 -5 -45 -12 -12 -6
-45 -14 -75 -17 -53 -6 -70 -27 -19 -25 16 0 27 -4 27 -13 0 -7 5 -13 10 -13
6 0 10 4 10 9 0 17 34 22 49 6 14 -13 14 -15 -2 -15 -18 0 -23 -15 -9 -24 28
-17 222 104 222 138 0 25 -13 24 -80 -5z"/>
</g>
</svg>
