<?xml version="1.0" standalone="no"?>
<!DOCTYPE svg PUBLIC "-//W3C//DTD SVG 20010904//EN"
 "http://www.w3.org/TR/2001/REC-SVG-20010904/DTD/svg10.dtd">
<svg version="1.0" xmlns="http://www.w3.org/2000/svg"
 width="750.000000pt" height="1125.000000pt" viewBox="0 0 750.000000 1125.000000"
 preserveAspectRatio="xMidYMid meet">
<metadata>
Created by potrace 1.16, written by Peter Selinger 2001-2019
</metadata>
<g transform="translate(0.000000,1125.000000) scale(0.100000,-0.100000)"
fill="#000000" stroke="none">
<path d="M3717 10828 c-21 -4 -48 -13 -60 -20 -12 -7 -49 -13 -82 -14 -86 -2
-225 -55 -225 -85 0 -6 5 -7 10 -4 6 3 10 1 10 -4 0 -6 -3 -11 -7 -11 -16 0
-65 -49 -59 -59 4 -6 -1 -25 -9 -42 -9 -17 -19 -43 -21 -58 -12 -66 -56 -235
-74 -283 -11 -31 -19 -76 -19 -108 1 -62 -6 -120 -28 -232 -8 -43 -13 -83 -10
-90 2 -7 8 4 12 25 12 61 32 56 25 -7 -1 -12 2 -16 11 -10 9 5 10 2 4 -12 -14
-32 -18 -104 -6 -118 7 -8 12 -34 13 -59 0 -43 17 -94 18 -55 0 9 3 19 8 21
11 8 3 -205 -10 -230 -8 -16 -8 -32 -1 -55 9 -27 11 -29 12 -10 1 13 6 33 13
45 7 12 15 45 19 72 4 31 5 11 4 -57 -2 -58 -6 -112 -11 -119 -14 -23 -39
-135 -44 -194 l-2 -30 -10 35 c-12 40 -22 25 -16 -25 2 -18 0 -31 -4 -29 -4 3
-8 30 -8 60 0 53 -1 55 -22 48 -13 -4 -48 -13 -78 -21 -30 -8 -70 -18 -89 -23
-31 -8 -70 -37 -113 -85 -47 -53 -115 -318 -158 -620 -20 -137 -135 -692 -150
-727 -6 -13 -26 -45 -46 -73 -57 -83 -61 -109 -34 -238 12 -62 26 -134 31
-162 4 -27 10 -59 13 -70 49 -188 79 -344 79 -405 -1 -55 11 -90 50 -143 14
-18 27 -25 39 -21 11 3 20 -1 24 -11 5 -12 14 -15 30 -11 21 6 24 3 24 -24 0
-16 5 -30 10 -30 6 0 10 16 10 35 0 19 -4 35 -10 35 -5 0 -10 14 -10 32 0 17
3 28 7 24 4 -4 8 -17 8 -29 0 -15 7 -23 23 -25 18 -3 21 -8 15 -30 -8 -32 -8
-39 2 -76 7 -24 5 -28 -7 -23 -20 7 -38 -56 -39 -135 0 -45 -2 -49 -10 -28 -5
13 -9 33 -8 45 1 11 0 34 -1 50 l-1 30 -11 -25 c-7 -14 -12 -87 -12 -168 -1
-117 2 -144 14 -152 10 -6 11 -10 3 -10 -19 0 -8 -667 17 -965 4 -57 4 -101
-1 -103 -14 -5 -11 -22 3 -19 9 1 12 -8 9 -28 -8 -68 -7 -119 6 -295 11 -155
53 -497 68 -550 7 -24 43 -284 60 -425 8 -71 21 -168 30 -215 28 -157 55 -295
70 -365 21 -94 51 -266 70 -400 8 -60 22 -162 31 -225 8 -63 16 -122 16 -130
1 -8 9 -60 20 -115 10 -55 19 -107 19 -115 1 -8 8 -46 15 -83 8 -38 14 -88 14
-112 0 -38 -3 -45 -22 -50 -13 -2 -113 -7 -223 -9 -110 -3 -202 -5 -204 -5 -2
-1 2 -8 9 -16 15 -18 -1 -21 -30 -5 -28 15 -35 -6 -8 -24 14 -10 17 -16 8 -15
-24 1 -52 14 -51 24 1 11 -2 11 -47 0 -41 -10 -52 -25 -18 -25 19 0 26 -5 26
-20 0 -13 -7 -20 -20 -20 -11 0 -20 -4 -20 -10 0 -5 9 -10 20 -10 11 0 20 -4
20 -10 0 -5 16 -10 35 -10 19 0 35 -5 35 -10 0 -6 3 -9 8 -8 4 1 17 -2 30 -6
29 -10 57 20 40 41 -14 17 -3 16 32 -2 30 -15 43 -42 16 -32 -18 7 -40 -18
-33 -37 8 -20 73 -15 70 5 -2 10 6 15 25 14 20 0 28 -6 30 -22 3 -19 -2 -23
-25 -24 -23 -2 -24 -2 -5 -6 13 -3 22 -12 22 -23 0 -26 10 -50 22 -50 5 0 7 4
3 9 -3 5 -1 12 5 16 5 3 10 0 10 -9 0 -8 6 -16 13 -19 9 -3 9 -7 -1 -20 -11
-13 -10 -19 7 -36 11 -11 18 -27 15 -36 -7 -16 -24 -21 -24 -6 0 4 -11 6 -25
3 -14 -2 -25 -11 -25 -19 0 -11 7 -14 25 -11 14 3 25 2 25 -3 0 -14 -15 -17
-50 -10 -30 6 -38 3 -58 -21 -13 -16 -21 -35 -18 -43 9 -24 -21 -18 -38 7 -18
26 -20 20 -7 -15 9 -24 7 -26 -35 -38 -48 -15 -56 -26 -21 -31 15 -2 21 -9 19
-20 -2 -10 3 -19 10 -19 7 -1 -3 -5 -22 -8 -19 -4 -41 -3 -48 3 -7 5 -12 5
-11 0 6 -23 -14 -65 -30 -61 -9 2 -15 10 -13 18 3 11 1 11 -9 2 -21 -21 8 -63
43 -63 25 0 28 -3 23 -20 -4 -11 -2 -20 4 -20 6 0 11 9 11 20 0 14 7 20 21 20
16 0 20 -5 16 -20 -3 -11 -1 -20 3 -20 20 0 40 13 40 27 0 8 5 11 10 8 6 -4
18 -1 26 6 10 8 18 9 25 2 7 -7 22 -8 41 -3 25 8 30 6 38 -13 7 -17 9 -18 9
-4 1 9 8 17 16 17 18 0 20 -16 3 -23 -7 -3 2 -6 20 -6 49 -1 38 -21 -12 -21
-34 0 -48 5 -60 21 -15 22 -36 18 -36 -7 0 -9 -11 -14 -32 -15 -18 -1 -25 -3
-15 -6 9 -2 17 -11 17 -19 0 -16 -36 -19 -45 -4 -3 6 -24 10 -46 10 -29 0 -39
-4 -39 -16 0 -9 -8 -23 -17 -30 -10 -7 -13 -14 -6 -14 6 0 9 -8 6 -19 -3 -12
3 -24 18 -35 26 -18 79 -22 79 -6 0 6 -9 10 -20 10 -11 0 -23 7 -26 15 -4 8
-12 15 -20 15 -8 0 -14 9 -14 20 0 17 6 20 38 19 20 -1 51 -5 67 -9 l30 -8
-29 -1 c-28 -1 -28 -2 -22 -41 6 -36 4 -40 -14 -40 -27 0 -25 -21 3 -48 28
-27 37 -28 37 -3 0 23 69 38 82 18 6 -8 10 -5 14 10 10 37 24 26 24 -17 0 -28
-4 -40 -14 -40 -8 0 -17 6 -19 13 -3 6 -4 -7 -2 -30 2 -27 -2 -46 -11 -54 -8
-6 -14 -17 -14 -25 0 -19 21 -28 31 -13 6 11 11 11 20 2 10 -10 9 -17 -7 -35
-11 -13 -18 -33 -16 -45 3 -24 26 -31 37 -13 4 6 11 8 16 4 12 -7 -8 -34 -26
-34 -7 0 -25 10 -40 22 l-28 22 6 -26 c6 -24 4 -27 -23 -30 -28 -3 -29 -4 -17
-28 11 -20 19 -24 46 -22 29 3 32 1 26 -18 -4 -11 -2 -27 5 -35 14 -16 -1 -27
-20 -14 -24 15 -40 10 -40 -11 0 -12 10 -24 23 -30 12 -5 16 -9 10 -9 -7 -1
-13 -8 -13 -16 0 -8 -5 -15 -11 -15 -6 0 -8 -9 -4 -21 5 -15 3 -20 -6 -17 -7
2 -16 15 -19 27 -5 22 -25 26 -25 4 0 -6 -4 -15 -8 -19 -4 -4 -2 -12 3 -19 14
-16 -10 -65 -32 -65 -13 0 -18 8 -18 26 0 16 -5 24 -12 21 -7 -2 -12 -10 -10
-16 1 -7 3 -23 4 -36 1 -14 8 -27 15 -29 7 -3 13 -12 13 -21 0 -14 -22 -20
-62 -16 -10 1 -18 -3 -18 -8 0 -6 -10 -11 -21 -11 -18 0 -19 2 -9 15 10 12 9
15 -5 15 -12 0 -16 -6 -12 -19 6 -23 -22 -38 -35 -19 -5 9 -8 4 -8 -14 0 -20
4 -26 15 -22 8 4 15 1 15 -5 0 -6 7 -8 15 -5 8 4 15 15 15 25 0 21 20 25 37 8
13 -13 81 -20 88 -10 2 4 0 13 -4 20 -7 10 -12 10 -29 0 -12 -7 -24 -10 -28
-6 -11 11 0 17 37 20 19 1 40 8 47 14 18 18 33 16 26 -2 -4 -9 0 -15 10 -15 9
0 16 5 16 10 0 6 5 10 10 10 17 0 11 -25 -10 -38 -25 -15 -25 -33 0 -63 l19
-24 1 23 c0 29 33 27 38 -3 2 -16 1 -17 -7 -5 -15 22 -24 5 -11 -19 12 -24 27
-20 41 13 8 19 9 18 6 -6 -3 -16 -1 -28 4 -28 4 0 10 12 12 28 l4 27 2 -27 c1
-31 27 -39 37 -13 6 14 8 13 19 -2 11 -15 17 -15 56 -4 32 10 44 10 47 2 3 -9
7 -9 18 0 11 9 14 8 14 -2 0 -8 6 -5 15 7 14 19 14 19 15 -1 1 -11 4 -14 7 -7
2 6 12 12 20 12 9 0 13 6 9 15 -3 8 -2 15 3 15 5 0 12 -11 15 -25 5 -21 12
-25 41 -25 29 0 36 4 41 25 8 32 22 32 30 0 6 -23 10 -24 64 -24 53 1 59 3 65
26 4 18 11 23 28 21 19 -3 22 1 19 24 -4 32 11 43 38 28 16 -8 19 -19 17 -55
l-3 -44 442 0 c338 0 444 3 447 12 4 9 6 9 6 0 1 -10 81 -13 366 -13 l365 0 0
28 c0 21 2 24 10 12 8 -13 10 -13 10 2 0 9 -6 21 -14 25 -17 10 -39 53 -31 61
3 3 8 -3 11 -13 6 -23 52 -60 62 -51 9 10 -68 75 -83 70 -7 -3 -15 2 -19 11
-4 10 -2 14 6 9 6 -4 17 1 24 10 7 10 18 15 24 11 9 -6 9 -10 -1 -16 -10 -6
-10 -9 -2 -9 6 0 14 4 18 9 7 12 -24 43 -36 35 -5 -3 -12 2 -15 11 -5 12 -9
13 -20 4 -12 -10 -13 -9 -8 5 7 18 -36 41 -47 24 -10 -16 -50 42 -40 60 5 8 6
24 3 35 -4 15 -1 19 9 15 8 -3 20 0 26 8 11 11 8 12 -17 9 -16 -2 -34 -6 -40
-10 -5 -3 -10 -3 -10 0 0 3 16 13 35 21 41 17 46 34 9 34 -26 0 -88 43 -78 53
10 10 -7 47 -22 47 -9 0 -14 11 -14 29 0 24 3 28 20 24 11 -3 20 -12 20 -19 0
-21 30 -17 31 4 0 14 2 14 9 -3 7 -15 9 -10 9 23 1 44 -13 55 -34 26 -11 -16
-12 -16 -18 0 -4 9 -2 16 3 16 5 0 7 7 4 15 -4 8 -11 15 -17 15 -6 0 -21 9
-33 21 -24 22 -22 64 2 55 8 -3 19 4 25 15 8 17 13 18 25 8 14 -11 13 -15 -5
-28 -21 -16 -21 -16 10 -30 20 -9 50 -12 83 -8 30 3 60 0 71 -6 19 -11 18 -12
-10 -17 -20 -3 -31 -12 -33 -25 -2 -16 3 -20 28 -19 47 2 50 3 50 19 0 13 44
65 55 65 3 0 5 -7 5 -16 0 -10 6 -14 14 -11 7 3 19 0 25 -6 8 -8 15 -7 28 6
21 20 15 27 -26 30 -33 2 -35 5 -22 25 6 10 10 10 21 -3 14 -17 30 -20 30 -6
0 5 -16 15 -35 22 -19 7 -35 19 -35 26 0 7 -4 13 -10 13 -5 0 -10 -4 -10 -9 0
-6 5 -13 10 -16 16 -10 12 -45 -6 -45 -10 0 -14 7 -13 23 2 12 0 27 -4 33 -4
7 0 14 8 18 22 8 18 28 -4 21 -12 -3 -21 0 -25 10 -4 12 2 15 29 15 19 0 35 4
35 9 0 4 11 6 24 4 30 -6 46 16 17 24 -21 5 -21 6 -4 25 17 18 16 19 -10 9
-28 -11 -50 4 -27 19 7 4 13 21 14 36 1 25 5 29 33 30 23 1 37 -5 50 -22 10
-13 23 -24 30 -24 7 0 13 -5 13 -11 0 -6 7 -9 15 -5 8 3 15 1 15 -5 0 -18 28
-39 52 -39 31 0 38 45 8 53 -13 3 -18 11 -14 20 6 16 34 12 34 -4 0 -5 4 -9 8
-9 5 0 7 13 4 30 -5 32 -11 37 -29 19 -8 -8 -16 -4 -29 17 -14 20 -15 29 -6
32 33 11 3 18 -80 20 -75 1 -95 5 -105 19 -12 15 -13 15 -13 -5 0 -19 -3 -20
-26 -12 -36 14 -44 12 -38 -7 5 -14 4 -15 -4 -4 -8 10 -25 13 -71 8 -34 -3
-61 -1 -61 3 0 15 16 20 69 22 36 2 50 6 47 15 -3 6 8 18 24 25 29 12 46 35
35 46 -3 3 -5 0 -5 -6 0 -15 -11 -15 -47 -1 -21 8 -24 12 -13 19 9 5 17 5 21
-1 3 -5 14 -7 24 -3 17 7 17 8 -3 15 -28 10 -28 35 -2 42 14 3 20 0 20 -10 0
-11 4 -13 13 -6 6 6 23 9 37 8 32 -3 46 5 29 17 -10 7 -7 8 12 6 31 -5 50 12
37 35 -13 25 2 45 18 23 15 -21 28 -5 19 23 -7 22 -38 37 -43 22 -2 -6 -10
-11 -18 -11 -9 0 -12 5 -9 10 4 6 1 18 -6 26 -21 25 8 36 71 27 57 -7 92 -7
195 1 95 8 105 12 105 45 0 16 6 36 13 43 7 7 14 25 15 41 1 21 -3 27 -18 27
-12 0 -23 7 -26 15 -4 8 -13 15 -20 15 -8 0 -17 7 -20 15 -3 8 -14 17 -25 20
-10 4 -19 13 -19 21 0 8 -4 14 -8 14 -4 0 -12 15 -17 33 -8 25 -15 31 -32 30
-24 -3 -32 12 -10 20 6 3 -5 3 -25 0 -25 -4 -38 -2 -38 6 0 6 -10 15 -22 20
-21 8 -19 9 17 16 22 4 45 8 50 10 6 2 -78 4 -185 4 -107 1 -287 4 -398 8
-169 5 -205 4 -213 -8 -6 -10 -9 -6 -10 16 -1 17 -3 42 -4 58 -1 15 2 27 6 27
5 0 10 -19 10 -42 l1 -43 9 50 c5 28 13 100 19 160 6 61 15 126 20 145 11 42
17 180 25 560 3 157 10 445 15 640 6 195 8 522 6 726 -4 327 -7 375 -22 407
-10 20 -21 37 -26 37 -4 0 -8 7 -8 15 0 20 -6 19 -30 -5 -11 -11 -20 -32 -20
-46 0 -14 -4 -23 -10 -19 -13 8 -13 -16 1 -52 5 -15 10 -49 11 -75 0 -42 3
-48 21 -49 17 -1 18 -2 5 -6 -19 -5 -40 -82 -26 -97 10 -12 11 -46 1 -46 -5 0
-14 -12 -20 -27 -10 -21 -10 -28 0 -35 8 -5 5 -8 -10 -8 -16 0 -24 -9 -31 -32
-15 -50 -13 -76 6 -81 14 -4 13 -5 -3 -6 -17 -1 -20 -9 -21 -61 -1 -33 2 -57
7 -54 5 3 9 0 9 -5 0 -6 -5 -11 -11 -11 -6 0 -8 -8 -5 -18 3 -9 2 -32 -3 -50
-6 -18 -6 -45 -1 -61 4 -16 5 -32 2 -36 -8 -8 -12 -32 -13 -93 -1 -46 -4 -53
-24 -58 -13 -3 -29 -3 -35 1 -7 4 -9 -3 -5 -22 3 -15 2 -22 -1 -15 -3 6 -12
12 -20 12 -8 0 -14 7 -14 16 0 9 -9 18 -20 21 -23 6 -27 23 -6 23 18 0 29 17
21 30 -5 8 -11 7 -21 -1 -17 -14 -19 2 -2 19 15 15 -16 52 -44 52 -14 0 -18 8
-18 41 0 28 -4 39 -12 36 -7 -2 -18 7 -23 21 l-11 25 -12 -27 c-10 -22 -9 -26
3 -26 26 0 16 -27 -11 -33 -29 -5 -44 17 -25 36 6 6 11 29 11 51 0 30 -3 37
-10 26 -5 -8 -10 -28 -10 -43 0 -18 -4 -26 -11 -21 -7 4 -9 22 -6 45 3 22 1
39 -5 39 -5 0 -6 5 -2 11 4 8 9 7 15 -2 10 -16 10 -15 14 28 3 33 -9 45 -18
21 -4 -10 -6 -10 -6 -1 -1 6 3 15 9 18 14 9 12 45 -2 43 -7 -2 -12 5 -10 14 1
9 -5 19 -15 21 -13 3 -12 5 5 6 38 2 20 25 -24 31 -23 3 -39 10 -38 18 1 6 2
22 3 35 0 12 13 35 27 51 25 26 25 28 5 21 -14 -4 -23 -2 -27 9 -3 9 -14 16
-23 17 -11 0 -9 3 7 9 26 11 30 34 4 28 -10 -3 -23 1 -30 9 -10 11 -9 13 8 13
28 0 25 19 -5 30 -34 13 -31 21 5 14 29 -6 42 7 20 21 -5 3 -6 13 -3 21 5 13
1 15 -14 10 -24 -8 -46 15 -37 38 4 11 -2 24 -16 36 -18 16 -20 23 -11 34 9
11 9 15 -1 19 -11 4 -10 6 0 6 8 1 10 6 5 13 -4 7 -8 30 -9 51 -2 29 4 43 26
64 16 15 26 31 23 36 -3 4 3 7 13 5 36 -6 27 35 -16 77 -48 47 -70 84 -70 120
0 14 -4 25 -10 25 -5 0 -7 -8 -3 -17 5 -14 3 -15 -7 -7 -15 15 -4 54 16 54 13
0 18 -12 15 -32 0 -5 6 -8 14 -8 8 0 15 -8 16 -17 0 -15 1 -15 8 2 17 47 0
115 -29 115 -10 0 -21 9 -24 20 -3 11 -9 29 -12 40 -4 14 -1 20 10 20 9 0 16
-8 17 -17 0 -14 2 -13 9 4 l9 23 27 -25 c32 -30 60 -34 49 -7 -4 9 -9 24 -12
32 -3 8 -36 42 -74 75 -38 33 -67 65 -65 72 3 7 -1 10 -10 6 -9 -3 -14 2 -14
16 0 12 -6 21 -14 21 -18 0 -41 29 -41 52 0 10 -7 23 -15 28 -8 5 -12 12 -9
15 9 9 62 -17 77 -38 7 -9 18 -15 23 -12 5 4 9 -2 9 -12 0 -13 3 -15 8 -5 5 7
16 10 25 6 13 -4 17 -1 17 15 0 12 5 21 10 21 6 0 10 -8 10 -17 1 -17 1 -17
11 0 7 12 17 16 30 12 25 -8 24 3 -3 32 -12 13 -16 23 -10 23 6 0 9 7 6 15 -6
15 -26 22 -21 7 9 -27 -48 -3 -98 42 -22 20 -48 36 -57 36 -10 0 -18 6 -18 14
0 8 -9 17 -20 21 -11 3 -27 19 -37 36 -9 16 -21 29 -25 29 -4 0 -8 5 -8 12 0
9 3 9 12 0 7 -7 21 -12 31 -12 10 0 21 -9 24 -19 3 -11 12 -22 20 -25 8 -3 11
-1 8 4 -3 6 -1 10 4 10 6 0 11 12 11 28 1 23 2 24 11 10 5 -10 17 -18 24 -18
8 0 15 -9 15 -20 0 -28 20 -25 21 3 1 12 3 32 4 45 2 17 -3 22 -24 23 -24 2
-25 2 -3 6 16 3 22 9 18 20 -3 8 -6 23 -6 34 0 10 -5 19 -11 19 -5 0 -7 -5 -4
-10 8 -13 -4 -50 -16 -50 -5 0 -9 9 -9 19 0 10 -6 19 -12 18 -36 -1 -48 5 -48
23 0 21 14 27 24 11 9 -13 46 -1 46 15 0 7 6 11 14 8 8 -3 17 -1 21 5 14 23
251 3 328 -28 16 -6 35 -11 44 -11 28 0 -4 26 -49 39 -24 7 -53 17 -66 22 -13
5 -31 9 -42 9 -10 0 -25 7 -33 15 -8 8 -17 12 -20 9 -5 -5 -119 16 -197 36
-19 5 -63 14 -98 21 -41 8 -59 15 -50 20 20 13 86 10 92 -3 3 -10 8 -9 18 3
30 35 59 31 172 -22 32 -16 62 -26 66 -24 4 2 34 0 66 -6 32 -5 74 -12 93 -15
41 -6 53 -12 46 -25 -4 -5 -1 -9 4 -9 18 0 12 30 -6 36 -32 11 -88 39 -91 47
-2 4 -8 7 -13 7 -6 0 -8 -4 -5 -9 9 -13 -88 12 -104 28 -11 11 -12 15 -2 19
18 6 15 32 -4 32 -9 0 -22 7 -28 15 -12 16 -38 24 -96 30 -19 2 -36 4 -38 4
-2 1 3 7 11 15 9 9 35 14 74 14 33 -1 66 2 72 6 19 12 12 26 -11 22 -13 -3
-23 -5 -23 -6 0 -6 -44 -9 -62 -5 -29 7 -30 25 -2 25 16 0 19 4 13 22 -6 20
-5 20 8 7 20 -20 83 -15 167 11 36 12 93 23 127 25 34 1 67 6 74 10 6 4 17 2
23 -4 14 -14 91 -15 82 -1 -10 17 -118 44 -167 42 -30 -1 -48 2 -48 9 0 7 -4
8 -12 2 -12 -8 -76 -8 -354 -1 -54 2 -71 5 -67 15 4 9 -2 12 -17 11 -25 -3
-38 31 -17 44 9 6 9 8 0 8 -7 0 -13 6 -13 14 0 34 -40 28 -46 -6 -1 -7 -5 -21
-9 -31 -6 -13 -3 -16 9 -11 14 5 14 1 -4 -28 -11 -20 -29 -43 -40 -53 -16 -14
-17 -20 -8 -27 10 -6 10 -8 0 -8 -8 0 -16 9 -19 20 -3 11 -12 20 -19 20 -19 0
-18 9 4 33 16 19 16 20 -5 8 -30 -15 -32 8 -3 27 11 7 20 19 20 28 0 12 -6 15
-26 10 -23 -6 -25 -4 -19 11 4 10 10 26 12 36 3 9 9 17 14 17 5 0 9 7 9 16 0
8 -5 12 -10 9 -18 -11 -10 21 10 43 12 12 16 22 10 22 -5 0 -10 5 -10 10 0 12
57 12 85 0 19 -8 19 -9 -3 -9 -13 -1 -20 -5 -17 -11 4 -6 14 -9 23 -8 12 2 16
-3 14 -19 -2 -13 -1 -23 2 -23 10 0 36 58 36 80 0 11 5 20 11 20 6 0 8 9 4 20
-5 17 -2 20 23 20 22 0 31 6 35 22 8 29 3 33 -17 13 -9 -9 -23 -15 -32 -13
-14 3 -13 7 5 30 26 33 27 42 1 35 -22 -6 -28 21 -9 40 8 8 8 16 0 30 -10 17
-10 17 -11 -1 0 -12 -5 -16 -16 -12 -12 4 -15 2 -10 -9 6 -17 -9 -20 -20 -4
-4 8 -12 2 -21 -15 -8 -15 -17 -26 -20 -23 -2 3 0 14 5 24 14 25 -9 58 -27 40
-9 -9 -10 10 -7 83 3 71 2 88 -6 65 -5 -16 -10 -63 -11 -103 -2 -60 1 -76 16
-87 16 -12 16 -13 -3 -18 -17 -4 -20 0 -20 24 0 38 -16 37 -23 -1 -4 -16 -11
-30 -16 -30 -5 0 -7 9 -4 20 3 11 1 20 -4 20 -5 0 -16 -9 -26 -20 -15 -17 -15
-20 -1 -20 14 0 14 -2 -1 -16 -11 -12 -13 -20 -5 -29 8 -10 7 -14 -7 -18 -17
-4 -17 -5 0 -6 21 -1 23 -18 2 -23 -13 -2 -13 -5 3 -14 16 -11 18 -8 21 29 1
22 6 48 11 56 7 10 8 -30 5 -114 -7 -174 -13 -221 -28 -206 -12 12 -31 15 -24
4 3 -5 -1 -13 -8 -20 -10 -9 -13 4 -14 70 -1 44 -3 83 -6 85 -2 2 0 15 5 28 6
15 6 24 0 24 -6 0 -10 5 -10 11 0 5 4 7 10 4 17 -11 8 79 -9 93 -14 11 -14 12
5 7 18 -4 20 0 21 37 0 24 -1 33 -4 21 -7 -35 -23 -27 -23 11 0 39 16 57 27
30 6 -15 7 -15 14 4 5 12 4 32 -1 45 -6 16 -9 17 -9 5 -1 -9 -6 -20 -13 -24
-8 -5 -9 8 -4 49 4 36 2 57 -4 57 -5 0 -10 -14 -10 -32 0 -17 -3 -28 -7 -25
-11 12 -36 -33 -25 -46 11 -15 25 -67 17 -67 -3 0 -15 19 -26 43 -19 41 -19
41 -14 8 5 -31 4 -32 -13 -20 -9 8 -24 22 -34 32 -11 13 -18 15 -23 6 -5 -6 8
-25 31 -45 20 -19 32 -34 24 -34 -9 0 -7 -7 7 -22 11 -13 23 -30 27 -38 5 -9
2 -8 -7 3 -21 25 -25 22 -23 -22 1 -36 4 -40 31 -46 20 -4 26 -8 17 -14 -14
-8 -6 -41 12 -53 6 -4 -1 -8 -16 -8 -16 0 -28 -4 -28 -10 0 -5 6 -10 13 -10 7
0 18 -10 26 -22 13 -21 13 -22 -2 -9 -21 16 -22 3 -2 -23 10 -14 14 -49 14
-135 -1 -85 -3 -109 -10 -92 -6 14 -20 41 -31 60 -12 19 -17 31 -10 27 8 -4
10 -2 6 8 -3 8 -12 17 -21 20 -8 4 -13 13 -9 21 3 9 0 15 -9 15 -8 0 -15 4
-15 10 0 5 -7 7 -15 4 -10 -4 -15 0 -15 11 0 11 -5 15 -15 11 -13 -5 -14 -2
-4 15 6 13 7 19 1 15 -6 -3 -13 0 -15 6 -4 10 -6 10 -6 0 -1 -7 -5 -11 -11 -7
-5 3 -6 13 -3 22 4 11 3 14 -5 9 -8 -4 -12 0 -12 12 0 14 -13 22 -51 32 -28 8
-56 22 -62 31 -6 9 -17 15 -24 12 -7 -3 -13 2 -13 11 0 10 -6 13 -15 10 -8 -4
-15 -1 -15 5 0 6 -23 20 -52 33 -28 12 -46 24 -40 26 7 2 11 16 11 30 -2 23
-2 23 -6 5 -6 -33 -35 -38 -58 -10 -11 13 -32 27 -48 31 -15 3 -39 20 -54 36
-14 17 -31 30 -37 30 -6 0 -20 8 -31 17 -19 15 -19 15 7 9 35 -8 53 20 38 58
-5 14 -6 27 -1 30 10 7 41 -30 41 -49 0 -8 5 -15 10 -15 13 0 13 16 0 41 -7
13 -7 19 0 19 5 0 10 7 10 14 0 12 6 13 31 4 24 -8 37 -8 50 1 25 15 27 14 32
-11 4 -19 4 -18 6 5 1 24 -2 28 -22 25 -25 -3 -62 26 -53 41 3 5 15 7 26 4 14
-4 20 0 20 11 0 9 7 16 15 16 8 0 15 5 15 10 0 6 -5 10 -10 10 -6 0 -10 6 -9
13 1 6 1 38 0 70 -1 43 -5 57 -16 57 -10 0 -12 6 -8 18 6 15 5 15 -10 3 -9 -7
-15 -23 -13 -35 2 -11 1 -15 -1 -7 -4 9 -16 3 -41 -22 -51 -48 -130 -102 -204
-137 -75 -36 -81 -37 -44 -5 16 14 34 25 41 25 6 0 19 6 28 13 16 11 15 12 -7
12 -13 0 -22 -3 -19 -7 2 -5 2 -8 -1 -8 -3 0 -17 20 -32 45 -23 39 -39 50 -66
46 -4 0 -5 5 -2 13 3 7 -3 19 -12 27 -16 12 -17 12 -11 -3 3 -10 2 -18 -4 -18
-19 0 -25 42 -16 113 10 81 16 91 66 116 32 17 39 17 90 4 31 -8 61 -19 68
-25 7 -5 21 -7 33 -3 11 3 20 2 20 -2 0 -12 70 -37 78 -29 3 4 -5 10 -18 13
l-25 7 25 8 c18 5 14 6 -15 3 -22 -2 -34 -2 -27 1 6 3 9 10 6 16 -4 6 0 14 7
19 20 13 29 11 29 -6 0 -8 5 -15 11 -15 7 0 9 9 5 24 -5 19 -1 25 18 30 30 7
88 -3 80 -15 -7 -12 7 -11 26 1 8 5 10 10 3 10 -14 0 -11 48 5 75 6 11 12 14
12 8 0 -7 12 -13 26 -13 21 0 25 -4 19 -17 -12 -32 -14 -53 -4 -53 5 0 9 7 9
16 0 8 5 12 11 8 8 -4 9 1 4 16 -5 15 -4 20 4 16 6 -4 11 -2 11 3 0 6 9 11 20
11 12 0 17 5 14 14 -4 11 5 14 45 13 28 -1 51 1 51 4 0 14 197 30 375 30 204
0 313 -13 485 -58 52 -14 114 -30 137 -36 23 -5 54 -20 70 -33 l28 -23 -55 -1
c-31 0 -81 -9 -113 -20 -31 -11 -63 -20 -72 -20 -8 0 -15 -6 -15 -14 0 -8 -6
-16 -12 -19 -29 -9 -46 6 -57 49 -11 42 -32 57 -46 34 -3 -5 -1 -10 4 -10 6 0
11 -9 11 -20 0 -22 1 -22 -122 -24 -43 -1 -78 1 -78 4 0 3 -17 6 -37 7 -82 4
-111 16 -72 28 14 5 25 3 27 -3 2 -8 12 -6 29 5 18 12 29 14 41 6 13 -7 22 -5
36 9 19 18 18 18 -35 19 -30 0 -73 2 -97 5 -36 3 -42 1 -40 -13 2 -10 -4 -18
-12 -19 -41 -2 -80 -18 -80 -31 0 -13 3 -13 24 1 23 15 25 14 31 -3 3 -10 5
-23 4 -27 -4 -23 3 -34 21 -34 13 0 20 -7 20 -20 0 -16 -7 -20 -32 -21 -28 -2
-29 -2 -8 -6 14 -3 29 -9 34 -14 6 -5 62 -8 125 -7 64 1 97 3 74 5 -35 3 -44
9 -55 34 -16 35 -35 37 -48 5 -11 -29 -30 -43 -30 -22 0 18 -11 20 -28 6 -9
-7 -9 -7 -2 2 13 16 13 41 0 33 -5 -3 -10 -1 -10 5 0 7 6 10 14 7 7 -3 31 -2
52 3 29 7 43 5 55 -6 17 -15 44 -19 35 -5 -3 5 0 11 7 14 10 4 12 -3 9 -24 -3
-18 0 -29 8 -29 7 0 9 8 5 20 -4 14 -2 20 9 20 24 0 72 -22 59 -27 -20 -7 -15
-19 7 -20 11 -1 20 4 20 13 0 8 5 14 10 14 6 0 10 -4 10 -9 0 -5 3 -16 6 -25
4 -12 0 -16 -17 -17 l-24 -1 25 -8 c14 -4 -49 -5 -140 -2 -91 2 -173 9 -182
13 -23 12 -78 12 -59 0 9 -6 10 -11 2 -15 -15 -10 -2 -29 15 -22 22 8 44 -22
44 -60 0 -22 4 -33 10 -29 6 4 8 21 4 41 -5 30 -4 34 14 34 27 0 55 -28 48
-49 -5 -13 -4 -13 8 2 16 21 30 23 23 3 -3 -8 1 -17 9 -20 29 -11 39 -5 19 11
-20 15 -20 15 3 10 23 -5 31 8 10 16 -7 2 -1 4 14 3 14 0 24 -4 22 -8 -2 -4
10 -6 28 -6 46 2 169 -13 194 -23 15 -5 27 -3 40 9 11 9 36 26 57 37 l38 20
-35 3 c-20 2 -36 8 -36 13 0 5 11 7 25 3 22 -5 25 -3 25 20 0 28 7 32 30 15
13 -9 12 -10 -3 -5 -11 3 -16 2 -12 -4 3 -6 12 -10 19 -10 8 0 19 -7 26 -15
22 -27 82 -36 133 -21 26 8 47 10 47 6 0 -5 8 -11 18 -15 26 -9 104 -122 106
-155 1 -16 -1 -27 -4 -25 -3 2 -16 -16 -29 -39 -12 -24 -33 -49 -46 -56 -14
-7 -22 -17 -19 -22 3 -4 0 -8 -7 -8 -17 0 8 -27 40 -43 14 -7 27 -21 30 -32 3
-17 2 -18 -14 -5 -13 11 -19 12 -22 3 -5 -13 -103 44 -103 59 0 5 12 1 28 -10
42 -29 52 -34 52 -24 0 5 -11 14 -25 20 -14 7 -31 16 -38 22 -52 42 -105 77
-96 62 6 -10 25 -26 43 -36 19 -11 26 -21 18 -23 -11 -4 -48 22 -121 86 -13
12 -26 19 -29 16 -11 -11 21 -52 59 -75 21 -14 42 -33 45 -43 3 -9 10 -15 15
-12 5 4 9 1 9 -5 0 -6 4 -9 8 -6 5 3 19 -8 31 -24 12 -17 27 -30 34 -30 7 0 4
5 -5 11 -10 5 -18 15 -18 20 0 13 69 -27 92 -52 9 -11 21 -19 27 -19 7 0 14
-7 17 -15 4 -8 11 -15 17 -15 6 0 18 -7 27 -15 14 -13 25 -14 68 -3 54 12 55
14 67 80 3 21 12 41 20 45 9 5 18 42 26 103 13 104 29 178 82 375 20 72 45
182 56 245 12 63 25 140 31 171 16 86 12 142 -14 216 -14 40 -29 114 -35 178
-28 272 -33 315 -46 395 -8 47 -19 136 -25 198 -15 154 -34 290 -65 462 -38
208 -50 246 -99 298 -40 42 -45 44 -116 52 -41 4 -140 11 -219 15 l-143 8 -14
33 c-8 18 -14 51 -14 73 0 22 -6 46 -13 53 -7 7 -13 24 -14 37 -4 60 -63 176
-63 123 0 -11 -7 -25 -14 -32 -13 -10 -15 -3 -15 48 0 33 -4 69 -9 79 -5 10
-13 36 -17 58 -4 22 -10 34 -12 27 -3 -6 -9 -9 -15 -6 -5 3 -15 -2 -22 -11
-10 -14 -12 -6 -14 44 -2 37 2 61 8 61 5 0 10 -7 10 -15 0 -20 16 -19 24 1 27
71 -45 283 -96 284 -5 0 -8 -10 -8 -21 0 -19 -4 -17 -35 15 -19 21 -35 42 -35
47 0 6 -3 8 -7 6 -5 -3 -9 5 -10 16 -1 12 -15 72 -32 132 -16 61 -30 121 -29
135 l0 25 11 -27 c11 -29 26 -37 28 -15 0 6 7 -4 14 -23 11 -29 14 -31 14 -12
1 32 18 19 26 -21 4 -17 11 -37 16 -43 18 -22 51 -130 50 -166 0 -40 18 -54
20 -15 1 16 3 14 10 -12 15 -52 23 -28 9 28 -6 28 -10 56 -7 63 3 7 6 1 6 -14
1 -15 5 -30 11 -33 15 -9 24 44 11 72 -8 18 -9 29 -1 37 16 16 12 45 -16 121
-14 39 -29 84 -33 102 -10 38 -121 194 -153 215 -13 8 -41 21 -63 28 -22 7
-49 18 -60 24 -13 8 -33 10 -58 4z m88 -303 c30 -34 49 -73 77 -153 42 -123
41 -126 -43 -137 -60 -8 -112 -46 -91 -66 9 -10 12 -10 12 -1 0 7 5 12 10 12
6 0 8 -16 4 -42 -6 -42 -6 -42 10 -20 21 27 36 28 36 2 0 -11 3 -20 8 -20 4 0
17 -3 30 -6 19 -5 22 -2 22 20 0 14 5 26 11 26 7 0 9 -10 5 -24 -8 -33 6 -40
36 -16 l25 19 13 -27 c21 -46 29 -94 19 -114 -6 -10 -16 -71 -23 -134 -13
-112 -15 -116 -50 -150 -40 -39 -46 -59 -16 -49 13 4 20 2 20 -7 0 -16 -36
-58 -50 -58 -5 0 -25 -17 -44 -37 -34 -37 -36 -38 -108 -38 -85 0 -120 19
-158 88 -13 23 -29 46 -37 50 -7 4 -13 13 -13 19 0 6 -6 19 -14 27 -8 9 -25
52 -39 96 -14 44 -35 101 -47 127 -21 48 -32 149 -18 171 5 8 13 6 30 -10 37
-33 113 -12 125 36 l6 24 25 -29 25 -29 -7 28 c-5 21 -4 27 5 21 9 -5 10 -2 6
9 -4 11 -1 17 8 17 16 0 19 18 7 38 -13 19 -70 32 -142 32 l-66 0 2 72 c1 43
6 74 13 76 6 2 11 10 11 17 0 8 12 36 26 62 15 26 31 57 37 69 16 31 54 47
132 54 107 11 125 6 170 -45z m59 -1140 c-15 -27 -65 -36 -154 -29 -69 6 -77
9 -106 41 -18 19 -30 42 -27 49 3 8 0 14 -6 14 -6 0 -11 5 -11 10 0 6 19 1 42
-11 56 -29 128 -23 205 18 l58 30 5 -51 c4 -30 1 -59 -6 -71z m-683 -1187 c12
-24 22 -61 23 -84 0 -23 5 -41 10 -41 14 3 24 -40 25 -104 1 -47 -3 -59 -24
-79 -26 -25 -33 -54 -14 -66 8 -5 6 -10 -5 -16 -9 -5 -16 -14 -16 -19 0 -6
-13 -24 -30 -39 -32 -30 -35 -43 -21 -102 8 -34 5 -44 -37 -110 -52 -85 -114
-228 -133 -310 -8 -32 -17 -58 -21 -58 -13 0 -27 35 -26 66 1 16 -2 39 -6 50
-3 12 -2 33 3 47 5 14 6 38 2 54 -5 18 -3 40 7 62 10 26 11 40 3 58 -15 32
-14 69 3 101 23 46 133 382 161 492 24 96 45 140 66 140 5 0 18 -19 30 -42z
m-182 -1725 c2 -1 -2 -9 -8 -17 -11 -13 -7 -18 23 -30 22 -9 36 -22 36 -33 0
-14 9 -19 40 -21 38 -2 55 10 28 21 -8 3 -6 6 5 6 10 1 20 -6 23 -14 9 -23 26
-18 19 6 -5 15 -4 19 5 14 6 -4 10 -16 7 -26 -3 -10 -1 -21 3 -24 5 -3 10 3
12 12 4 19 0 23 98 -87 22 -25 40 -51 40 -58 0 -7 5 -10 10 -7 6 3 10 -4 10
-17 0 -19 2 -20 11 -8 9 13 10 13 6 0 -2 -10 -14 -14 -38 -12 -34 2 -34 2 -10
-12 24 -13 22 -14 -27 -14 -47 0 -51 2 -57 27 -3 15 -15 32 -26 39 -18 12 -19
11 -10 -7 15 -28 13 -39 -3 -18 -17 22 -94 26 -107 6 -8 -12 -11 -12 -19 1 -6
10 -10 11 -10 3 0 -7 -4 -13 -10 -13 -5 0 -10 7 -10 15 0 9 -10 15 -26 15 -14
0 -23 4 -19 10 3 6 15 10 26 10 10 0 19 5 19 10 0 6 -5 10 -11 10 -7 0 -9 9
-5 23 6 25 -26 53 -46 41 -5 -4 -14 0 -19 7 -11 18 -11 32 0 25 5 -3 9 12 9
34 1 22 3 49 7 59 3 11 1 22 -5 26 -5 3 -10 11 -10 17 0 6 7 5 18 -3 9 -7 19
-15 21 -16z m329 -376 c7 -6 11 -16 8 -24 -3 -7 -1 -13 5 -13 5 0 12 14 16 30
5 30 17 38 28 21 3 -5 1 -12 -5 -16 -5 -3 -10 -13 -10 -22 0 -13 2 -14 17 -2
14 12 16 12 11 -2 -3 -9 -2 -22 3 -30 7 -11 9 -9 9 9 0 17 6 22 26 22 20 0 25
4 20 16 -3 9 -1 14 5 12 6 -2 10 -8 9 -13 -1 -5 7 -12 17 -16 9 -3 21 -17 24
-30 l7 -24 1 23 1 23 38 -28 c20 -15 38 -28 39 -28 1 0 0 -10 -3 -22 -4 -13
-11 -20 -20 -16 -8 3 -11 9 -8 14 8 14 -9 11 -33 -6 -20 -14 -23 -14 -33 5 -6
12 -21 20 -36 20 -14 0 -23 -4 -19 -10 4 -6 10 -8 15 -5 5 3 11 1 15 -5 6 -9
2 -12 -27 -14 -7 -1 -16 -5 -19 -10 -4 -4 -10 -3 -13 3 -4 6 -2 11 3 11 6 0
11 9 11 20 0 11 -4 20 -10 20 -5 0 -10 -7 -10 -15 0 -8 -9 -15 -20 -15 -11 0
-20 7 -20 15 0 8 -7 15 -15 15 -9 0 -15 10 -16 23 -1 16 -2 18 -6 5 -2 -10 -9
-18 -15 -18 -6 0 -8 11 -4 26 5 20 2 32 -13 46 -13 11 -21 14 -21 7 0 -7 -3
-10 -6 -6 -3 3 -3 10 0 16 7 11 32 5 54 -12z m-188 -220 c14 4 23 -2 31 -21
14 -30 39 -35 39 -8 0 10 3 21 6 24 6 7 61 -19 69 -33 4 -5 15 -9 25 -9 10 0
21 -6 23 -12 4 -10 8 -10 15 0 7 11 11 8 14 -12 5 -26 -14 -37 -27 -16 -4 6
-10 8 -15 5 -5 -3 -11 -1 -15 5 -14 22 -21 7 -21 -45 -1 -30 2 -55 7 -55 4 0
20 -12 35 -27 17 -18 28 -24 31 -16 3 10 9 10 24 0 17 -10 23 -9 40 12 10 13
19 21 19 18 0 -3 3 -13 7 -23 4 -12 3 -15 -5 -10 -8 5 -10 1 -5 -10 4 -11 8
-13 11 -6 2 7 8 12 13 12 6 0 8 -4 4 -9 -3 -5 -1 -12 5 -16 5 -3 10 1 10 9 0
8 -4 18 -10 21 -5 3 -10 11 -10 17 0 7 9 2 19 -9 11 -12 26 -24 33 -27 10 -5
10 -7 1 -12 -7 -3 -13 -12 -13 -21 0 -8 -6 -13 -12 -10 -8 2 -18 -9 -24 -26
-16 -46 -38 -49 -30 -5 5 29 4 34 -12 33 -9 0 -22 -4 -29 -8 -6 -4 -18 -4 -27
-1 -11 4 -19 -1 -24 -16 -7 -20 -9 -20 -21 -6 -14 17 -41 22 -41 8 0 -5 -7 -9
-15 -9 -11 0 -12 4 -5 11 15 15 12 27 -7 24 -13 -2 -17 3 -16 20 2 13 -1 21
-7 17 -10 -6 -26 40 -22 63 2 6 -4 12 -11 12 -8 0 -21 7 -28 16 -11 14 -10 19
9 34 29 24 28 26 -9 34 -17 3 -28 10 -24 16 3 5 -1 10 -9 10 -9 0 -16 5 -16
11 0 6 9 8 20 4 16 -5 20 -2 20 14 0 15 -6 20 -21 18 -12 -1 -23 4 -25 11 -1
7 0 8 2 3 3 -5 14 -7 24 -4z m-305 -398 c-4 -6 -13 -8 -21 -5 -8 3 -14 1 -14
-4 0 -9 5 -11 37 -14 15 -1 42 -36 43 -53 0 -21 -21 -15 -27 7 -10 38 -26 21
-19 -20 4 -23 2 -40 -3 -40 -6 0 -9 -18 -8 -40 1 -42 6 -47 23 -30 8 8 15 6
24 -5 15 -18 50 -20 51 -2 0 6 5 1 10 -12 11 -28 3 -42 -12 -21 -8 11 -9 9 -4
-10 3 -14 9 -44 12 -67 6 -44 33 -83 58 -83 17 0 20 -16 6 -25 -5 -3 -17 2
-25 11 -9 8 -16 11 -16 5 0 -6 -5 -11 -11 -11 -6 0 -9 7 -5 15 3 8 2 15 -3 15
-5 0 -14 -7 -21 -15 -21 -25 5 -47 47 -39 28 5 32 4 27 -10 -7 -19 -24 -21
-24 -3 0 8 -3 7 -9 -3 -12 -18 -5 -30 19 -30 13 0 22 9 26 25 3 14 10 22 15
19 15 -9 10 -51 -6 -58 -17 -6 -9 -36 11 -36 7 0 18 8 24 18 10 14 11 13 7
-10 -3 -22 0 -28 15 -28 15 0 18 -5 13 -20 -5 -17 -2 -20 22 -20 l28 -1 -30
-14 -30 -15 31 3 c27 3 30 0 26 -19 -2 -12 1 -25 8 -29 8 -5 8 -10 -1 -21 -9
-11 -7 -14 13 -14 17 0 29 -8 36 -25 6 -14 17 -25 23 -25 7 0 9 -9 6 -21 -3
-12 -3 -18 0 -15 8 8 43 -39 43 -58 0 -9 -4 -16 -10 -16 -5 0 -10 7 -10 15 0
8 -4 15 -9 15 -13 0 -33 -88 -25 -112 6 -21 6 -21 -16 0 -13 12 -27 19 -33 15
-5 -3 -3 -9 4 -14 29 -18 -27 -9 -64 11 -46 25 -45 25 -41 -7 2 -16 1 -22 -2
-15 -8 17 -24 15 -24 -4 0 -11 -5 -14 -16 -10 -10 4 -26 -6 -45 -27 l-30 -32
2 49 c2 32 -1 51 -9 54 -7 2 -12 12 -12 23 0 11 5 16 13 13 8 -3 19 2 26 9 9
12 8 16 -6 22 -10 5 -22 9 -28 9 -5 1 -14 17 -20 37 -5 20 -17 44 -25 54 -20
24 -22 227 -2 247 14 14 16 58 3 58 -16 0 -7 54 11 71 20 18 24 39 8 39 -5 0
-10 7 -10 16 0 8 4 13 9 10 5 -3 11 1 15 9 3 8 0 14 -6 12 -6 -1 -13 4 -15 11
-3 7 -1 11 4 10 20 -7 17 38 -4 46 -26 10 -36 -8 -25 -45 5 -19 7 -40 5 -46
-6 -18 -28 -16 -43 2 -9 10 -9 15 -1 15 15 0 14 73 -1 88 -7 7 -13 23 -14 35
-1 12 -5 40 -9 61 -6 28 -5 37 4 32 14 -9 14 14 1 50 -14 35 -6 54 20 54 13 0
18 -4 15 -11z m968 -194 c26 -105 56 -211 66 -238 6 -15 23 -91 37 -170 22
-119 27 -173 28 -332 0 -104 -2 -215 -6 -245 -4 -30 -17 -127 -28 -215 -11
-88 -28 -200 -37 -250 -9 -49 -21 -126 -27 -170 -12 -79 -12 -80 -23 -45 -41
126 -54 186 -50 229 3 25 10 96 17 156 7 66 9 150 5 210 -5 83 -22 616 -28
920 -2 94 13 230 23 218 4 -4 14 -35 23 -68z m1121 -4070 c14 -13 26 -31 26
-40 0 -9 4 -14 9 -11 13 8 44 -43 37 -60 -6 -15 7 -23 40 -28 22 -3 32 -26 12
-26 -17 0 -50 -34 -68 -70 -7 -13 -14 -54 -14 -91 -2 -62 -7 -78 -47 -161 -5
-10 -9 -27 -9 -38 0 -11 -6 -20 -14 -20 -8 0 -17 -8 -20 -18 -4 -10 -17 -33
-30 -50 l-23 -32 -23 25 c-21 23 -22 26 -8 42 13 15 14 20 3 30 -17 16 -8 53
14 53 13 1 11 4 -6 19 -25 21 -31 57 -10 64 10 4 10 7 0 18 -16 16 -17 39 -2
39 5 0 7 -6 3 -12 -4 -7 2 -5 14 5 11 11 18 25 15 33 -3 9 1 14 12 14 24 0 7
20 -18 21 -21 0 -21 1 -2 9 17 7 17 9 3 9 -19 1 -26 21 -8 21 6 0 10 14 10 30
0 17 5 30 13 30 25 0 -18 20 -45 20 -27 0 -27 1 -11 18 13 12 31 16 63 14 l45
-2 -30 14 c-16 8 -25 15 -19 15 18 1 28 53 12 62 -11 7 -11 9 0 9 7 0 11 4 8
9 -9 14 20 32 40 25 16 -6 17 -5 7 7 -12 12 -17 29 -9 29 1 0 15 -11 30 -25z
m-848 -95 c-4 -23 -2 -29 7 -24 6 4 9 4 5 -1 -12 -13 12 -35 38 -35 21 0 24 4
19 30 -3 17 -1 30 5 30 10 0 14 -19 12 -51 -1 -15 24 -28 53 -29 7 0 9 15 7
38 -5 44 7 37 17 -10 6 -28 12 -34 44 -39 20 -3 37 -2 37 3 0 4 -4 8 -9 8 -4
0 -6 12 -3 28 3 15 7 21 9 15 3 -7 11 -13 19 -13 10 0 13 -7 8 -24 -5 -20 0
-25 27 -35 38 -13 50 -7 23 14 -11 8 -14 15 -6 15 6 0 12 7 12 15 0 27 18 16
25 -15 4 -19 13 -30 23 -30 9 0 24 -5 32 -11 11 -8 4 -9 -27 -7 -28 2 -44 -1
-47 -9 -3 -7 -16 -13 -28 -12 -22 1 -22 1 2 9 l25 8 -27 1 c-16 1 -28 5 -28
10 0 17 -28 19 -55 5 -26 -13 -33 -13 -72 6 -52 24 -52 24 -69 3 -12 -16 -15
-16 -23 -3 -7 10 -6 17 2 23 7 5 2 5 -12 2 -17 -5 -21 -4 -16 5 6 10 1 11 -18
6 -14 -3 -29 -2 -32 4 -4 6 1 7 12 3 15 -5 16 -4 6 8 -6 8 -14 31 -18 52 -6
31 -5 37 10 37 14 0 16 -6 11 -30z"/>
<path d="M3633 9763 c-33 -17 -63 -43 -63 -54 0 -4 8 -10 19 -14 10 -3 29 -14
41 -25 15 -13 38 -20 62 -20 47 0 108 24 108 42 0 7 9 19 20 26 31 19 24 29
-27 45 -59 19 -124 19 -160 0z"/>
<path d="M3374 7247 c-25 -37 -48 -98 -68 -177 -13 -54 -15 -56 -57 -51 -11 1
-8 36 6 74 6 14 1 17 -31 16 -35 0 -37 -1 -16 -11 12 -6 22 -15 22 -20 0 -5
-9 -4 -21 2 -11 6 -30 9 -42 7 -17 -3 -16 -5 7 -6 23 -1 27 -5 23 -21 -3 -13
0 -20 9 -20 8 0 14 -7 14 -15 0 -8 10 -20 22 -26 13 -7 28 -17 34 -23 6 -6 26
-25 45 -41 41 -36 74 -81 82 -112 7 -31 -6 -29 -23 2 -17 31 -33 33 -26 3 6
-23 6 -23 -6 0 -9 19 -9 25 1 32 9 5 10 10 3 14 -6 3 -13 -2 -17 -13 -6 -20
10 -72 22 -69 15 3 43 -14 38 -23 -3 -4 8 -6 25 -4 22 3 30 0 30 -12 0 -9 3
-13 6 -10 4 4 19 -2 35 -13 20 -15 28 -17 32 -8 6 21 37 -10 37 -37 0 -23 24
-40 41 -29 5 3 7 17 4 32 -3 15 -2 21 1 15 9 -20 41 -15 47 7 6 25 -10 37 -17
13 -4 -15 -5 -15 -4 2 1 62 -2 74 -22 72 -11 -1 -20 -8 -20 -15 0 -10 -9 -6
-26 11 -17 17 -24 33 -20 43 5 13 3 14 -6 7 -8 -6 -22 -7 -33 -2 -11 4 -33 8
-49 8 -23 1 -27 5 -23 20 5 21 -9 51 -24 51 -6 0 -7 -9 -4 -21 5 -15 4 -19 -4
-15 -6 4 -11 16 -11 28 0 11 -8 22 -20 25 -11 3 -20 8 -20 12 0 4 -16 15 -35
24 l-35 17 31 30 c17 16 36 27 41 24 5 -3 55 -7 112 -8 80 -2 111 -6 141 -22
40 -21 64 -53 30 -40 -14 5 -16 2 -12 -16 l6 -23 -16 23 c-19 27 -37 29 -30 2
3 -11 1 -18 -4 -14 -5 3 -9 -2 -9 -11 0 -8 7 -18 15 -21 8 -4 15 -16 16 -28 0
-11 3 -15 6 -8 7 17 23 15 23 -3 0 -8 5 -15 10 -15 6 0 10 -9 10 -20 0 -11 5
-20 10 -20 6 0 10 12 10 28 0 21 2 24 10 12 11 -18 60 -24 60 -6 0 6 -5 17
-12 24 -8 8 -8 12 -1 12 14 0 24 38 10 43 -9 3 -19 47 -10 47 2 0 9 -12 15
-27 13 -31 12 -91 -2 -172 -10 -55 -12 -136 -4 -115 3 6 13 67 23 135 18 124
15 173 -13 191 -7 5 -6 8 4 8 11 0 11 3 2 12 -7 7 -12 27 -12 45 0 40 -22 44
-38 8 -7 -16 -20 -25 -34 -26 l-23 0 23 -9 c41 -17 22 -17 -70 1 -51 9 -126
20 -167 23 -78 6 -109 16 -49 16 l36 0 4 50 c1 28 -1 52 -7 54 -5 3 -2 5 7 5
9 1 29 -5 45 -13 30 -15 151 -36 208 -36 21 0 35 -5 36 -12 0 -7 5 0 11 15 5
16 7 31 3 35 -4 4 -53 9 -110 10 -85 3 -107 7 -124 23 -11 10 -25 19 -31 19
-5 0 -10 5 -10 10 0 6 -8 10 -17 10 -15 0 -16 2 -3 10 13 8 12 10 -2 10 -10 0
-18 5 -18 10 0 19 -15 10 -36 -23z"/>
<path d="M6077 1750 c-3 -11 -1 -18 4 -14 5 3 9 1 9 -5 0 -16 -20 -23 -34 -12
-10 8 -16 8 -25 -2 -13 -16 -5 -27 21 -27 22 0 23 -13 3 -30 -17 -14 -9 -34
11 -26 8 3 14 1 14 -4 0 -13 27 -13 35 0 4 6 -4 19 -17 29 -13 11 -19 23 -15
27 5 5 16 -2 26 -15 12 -16 24 -22 35 -18 11 5 16 1 16 -14 0 -17 5 -19 47
-16 26 3 49 10 51 16 3 9 7 9 18 0 19 -15 29 -5 18 18 -4 10 -8 27 -8 38 -1
13 -8 20 -21 20 -11 0 -25 6 -31 14 -8 10 -21 12 -47 7 -41 -8 -49 0 -14 14
20 8 20 9 2 9 -11 0 -27 -4 -35 -9 -10 -6 -22 -4 -36 5 -20 13 -22 12 -27 -5z"/>
</g>
</svg>
