<?xml version="1.0" standalone="no"?>
<!DOCTYPE svg PUBLIC "-//W3C//DTD SVG 20010904//EN"
 "http://www.w3.org/TR/2001/REC-SVG-20010904/DTD/svg10.dtd">
<svg version="1.0" xmlns="http://www.w3.org/2000/svg"
 width="750.000000pt" height="1125.000000pt" viewBox="0 0 750.000000 1125.000000"
 preserveAspectRatio="xMidYMid meet">
<metadata>
Created by potrace 1.16, written by Peter Selinger 2001-2019
</metadata>
<g transform="translate(0.000000,1125.000000) scale(0.100000,-0.100000)"
fill="#000000" stroke="none">
<path d="M4690 11237 c0 -7 13 -23 29 -35 28 -20 29 -23 19 -64 -6 -29 -6 -44
1 -46 15 -5 14 -75 -1 -90 -6 -6 -12 -23 -14 -37 -5 -47 -53 -134 -83 -149
-38 -20 -101 -77 -101 -92 0 -10 -24 -33 -141 -134 -33 -30 -155 -330 -158
-390 0 -19 -6 -47 -12 -62 -6 -15 -8 -39 -5 -53 5 -21 11 -24 31 -19 15 4 25
2 25 -5 0 -6 -5 -11 -11 -11 -6 0 -1 -12 11 -27 20 -26 20 -28 4 -40 -10 -7
-24 -13 -31 -13 -7 0 -13 -4 -13 -9 0 -6 -15 -11 -32 -13 -25 -2 -32 -7 -30
-20 2 -10 -2 -18 -7 -18 -5 0 -11 10 -14 23 -3 20 -5 19 -16 -10 -10 -25 -19
-33 -37 -33 -17 0 -24 -6 -24 -19 0 -10 -18 -39 -40 -64 -22 -25 -40 -52 -40
-60 0 -9 -5 -17 -10 -19 -6 -2 -13 -27 -15 -56 -5 -53 -18 -89 -40 -107 -7 -5
-18 -32 -24 -60 -13 -60 -50 -181 -64 -212 -5 -12 -7 -29 -3 -38 3 -10 -2 -27
-14 -42 -11 -14 -20 -36 -20 -49 0 -12 -5 -26 -10 -29 -12 -7 -53 -94 -53
-112 0 -7 -4 -13 -8 -13 -4 0 -12 -23 -18 -51 -6 -28 -17 -60 -23 -72 -7 -12
-14 -33 -16 -47 -2 -13 -7 -27 -11 -30 -12 -8 -51 -100 -51 -120 0 -21 -58
-179 -73 -198 -6 -7 -16 -11 -22 -8 -9 3 -14 -25 -20 -105 -6 -96 -9 -111 -30
-131 -17 -17 -22 -30 -18 -49 3 -15 0 -30 -6 -33 -6 -4 -8 -30 -4 -71 6 -61 4
-66 -20 -85 -14 -11 -26 -28 -27 -38 0 -9 -2 -33 -3 -52 -3 -54 -30 -82 -40
-42 -3 9 -5 -2 -6 -25 0 -24 -5 -43 -9 -43 -12 0 -32 -46 -32 -71 0 -11 -7
-31 -16 -44 -12 -19 -15 -41 -12 -85 3 -46 1 -60 -9 -60 -7 0 -19 -12 -25 -27
-16 -38 -15 -38 -34 -22 -16 13 -17 11 -11 -16 3 -19 -4 -59 -20 -110 -41
-126 -67 -195 -75 -195 -5 0 -8 -15 -8 -34 0 -19 -7 -41 -15 -50 -8 -8 -15
-19 -15 -24 0 -5 -7 -15 -16 -23 -8 -7 -13 -21 -11 -31 3 -10 2 -18 -1 -18 -4
0 -8 -25 -9 -55 -2 -55 -37 -172 -75 -254 -12 -24 -22 -57 -23 -75 -2 -39 -31
-106 -46 -106 -7 0 -9 -11 -6 -29 5 -24 1 -32 -18 -45 -16 -10 -25 -26 -25
-41 0 -32 -23 -105 -32 -105 -4 0 -11 -18 -14 -40 -4 -24 -16 -48 -28 -58 -16
-12 -22 -29 -23 -56 -1 -22 -8 -45 -16 -51 -14 -10 -21 -41 -33 -155 -6 -54
-42 -162 -56 -168 -5 -2 -8 -12 -8 -21 0 -10 -3 -21 -8 -25 -4 -4 -7 -15 -7
-24 -1 -19 -35 -94 -47 -103 -5 -3 -9 -33 -11 -67 -2 -33 -8 -67 -14 -74 -25
-31 -63 -128 -63 -161 0 -21 -4 -37 -9 -37 -5 0 -12 -19 -16 -42 -4 -24 -14
-51 -22 -60 -9 -10 -17 -39 -18 -65 -3 -63 -14 -106 -27 -115 -9 -5 -9 -10 0
-20 8 -11 6 -17 -9 -26 -13 -8 -18 -19 -14 -31 4 -13 -5 -30 -29 -54 -32 -33
-36 -35 -73 -26 -21 5 -47 8 -58 8 -35 0 3 -16 92 -38 81 -21 179 -27 198 -13
6 4 11 23 11 42 0 168 4 210 20 210 14 0 16 -8 10 -47 -3 -27 -9 -77 -12 -113
-6 -63 -5 -66 18 -77 20 -9 27 -8 36 6 10 14 12 14 18 -6 11 -40 20 -25 33 55
49 299 143 583 395 1192 43 102 83 199 91 215 7 17 38 95 68 175 30 80 72 186
92 235 45 108 63 154 119 305 24 63 102 273 175 465 72 193 148 395 168 450
108 299 268 678 418 992 89 184 326 597 429 747 23 32 46 66 51 75 6 9 27 42
48 74 20 31 37 60 37 62 0 3 16 25 35 51 19 25 38 56 41 70 3 13 10 24 14 24
4 0 20 30 36 68 l29 67 6 -64 c3 -34 11 -66 18 -70 15 -10 3 -41 -16 -41 -10
0 -12 -6 -7 -22 4 -13 8 -68 9 -123 2 -99 9 -135 26 -135 5 0 9 -11 9 -24 0
-14 5 -28 11 -32 6 -3 9 -19 5 -34 -3 -18 0 -33 9 -40 8 -7 15 -21 15 -32 0
-10 8 -30 17 -44 11 -18 13 -28 5 -33 -6 -3 -14 -46 -18 -95 -5 -66 -12 -94
-25 -107 -32 -32 -24 -42 29 -34 26 4 44 4 40 0 -8 -8 25 -80 49 -107 9 -10
13 -26 10 -38 -3 -11 -1 -20 5 -20 6 0 8 -9 4 -20 -3 -11 -9 -29 -12 -40 -5
-16 -2 -20 14 -20 12 0 26 8 31 18 9 14 10 15 11 1 0 -9 -17 -24 -40 -34 -47
-21 -49 -29 -12 -44 25 -10 27 -15 24 -56 -4 -41 -7 -45 -31 -46 -24 -2 -24
-2 -3 -6 13 -3 28 -15 34 -29 6 -13 15 -24 20 -24 4 0 8 -11 8 -25 0 -14 -4
-25 -10 -25 -5 0 -10 -11 -10 -25 0 -26 -15 -34 -23 -12 -2 6 -8 8 -13 4 -5
-4 -4 -11 2 -15 13 -8 24 -93 29 -221 3 -63 8 -97 17 -102 10 -6 8 -12 -7 -24
-19 -14 -19 -16 -2 -29 23 -18 22 -26 -5 -27 l-23 0 23 -11 c24 -12 32 -63 11
-70 -9 -3 -9 -13 -1 -38 24 -77 31 -114 23 -120 -4 -3 -10 -14 -13 -25 -3 -11
-9 -28 -13 -37 -6 -15 -2 -18 24 -18 27 0 31 -4 31 -26 0 -14 7 -32 15 -40 10
-11 12 -21 5 -39 -10 -26 -4 -55 11 -55 5 0 9 5 9 10 0 6 9 10 20 10 15 0 19
6 17 23 -1 16 3 22 18 22 27 0 35 13 35 58 0 41 6 45 27 20 13 -17 14 -16 9 6
-4 22 26 123 45 147 5 6 12 32 15 58 6 40 10 46 30 46 25 0 32 14 13 26 -6 3
-15 0 -20 -7 -6 -11 -9 -10 -15 4 -9 24 4 56 15 38 7 -11 14 -10 37 3 16 8 24
15 17 16 -7 0 -2 11 11 25 26 28 56 25 56 -7 0 -10 -4 -16 -10 -13 -6 3 -7 -1
-4 -9 4 -10 1 -16 -9 -16 -8 0 -18 6 -20 13 -3 6 -6 2 -6 -10 -1 -13 8 -32 18
-42 22 -22 10 -41 -26 -41 -27 0 -29 -12 -8 -34 22 -21 19 -26 -15 -26 -29 0
-40 -13 -20 -25 6 -3 10 -28 10 -56 0 -27 6 -58 13 -69 8 -15 9 -23 1 -28 -6
-4 -13 -19 -16 -34 -5 -25 -2 -28 21 -29 23 -2 24 -2 4 -6 -13 -2 -23 -9 -23
-16 0 -6 -10 -21 -22 -34 -21 -23 -21 -23 -1 -23 12 0 23 8 26 20 3 11 10 20
16 20 6 0 11 -9 11 -20 0 -11 -6 -20 -14 -20 -8 0 -17 -7 -20 -16 -9 -23 -7
-36 4 -29 6 3 10 -3 10 -14 0 -13 7 -21 17 -21 13 0 14 -3 5 -12 -7 -7 -12
-25 -12 -41 0 -25 3 -28 23 -22 14 4 18 3 9 -3 -7 -5 -15 -26 -18 -48 -9 -70
-14 -84 -28 -84 -18 0 -28 -40 -14 -57 7 -9 7 -17 -2 -27 -6 -8 -11 -25 -9
-38 2 -27 -10 -78 -23 -95 -13 -16 -1 -33 23 -33 22 0 25 -25 10 -78 -9 -30
-8 -32 13 -26 41 10 42 -50 2 -73 -12 -7 -12 -15 -3 -46 7 -20 14 -37 17 -37
17 0 -10 -272 -30 -311 -4 -9 -4 -22 1 -30 7 -11 9 -11 9 4 0 9 6 17 14 17 9
0 12 -7 9 -20 -3 -11 -9 -20 -14 -20 -14 0 -11 -38 4 -43 9 -3 8 -9 -4 -23
-24 -29 -30 -53 -17 -74 10 -15 9 -23 -6 -39 -14 -15 -15 -21 -6 -21 11 0 11
-3 2 -12 -17 -17 -15 -45 6 -57 15 -9 15 -10 -4 -11 -17 0 -21 -7 -22 -32 0
-18 4 -38 9 -44 6 -7 6 -27 1 -52 -5 -22 -6 -46 -2 -53 8 -12 4 -70 -7 -99 -4
-8 -7 -73 -9 -144 -2 -106 -5 -131 -18 -138 -20 -11 -22 -42 -2 -35 11 4 13
-13 9 -96 -3 -56 -9 -106 -14 -112 -5 -5 -9 -18 -9 -30 0 -11 -11 -27 -23 -36
-26 -19 -72 -35 -64 -22 3 5 -9 9 -26 10 -18 1 -24 -1 -14 -4 23 -6 53 -75 62
-138 12 -93 13 -96 43 -93 24 3 27 -1 29 -27 3 -29 2 -29 -9 -7 -6 12 -15 22
-21 22 -5 0 -4 -6 2 -14 13 -15 6 -40 -22 -76 l-19 -25 3 40 c3 36 -2 45 -49
93 -36 37 -56 68 -68 105 -16 53 -17 53 -83 76 -36 13 -71 27 -76 32 -12 9
-64 14 -115 10 -61 -3 -4 -23 183 -62 47 -10 61 -18 72 -39 8 -15 12 -30 9
-33 -4 -3 2 -18 13 -34 33 -49 46 -81 38 -94 -6 -8 -4 -10 5 -4 10 6 12 4 7
-9 -4 -10 -7 -21 -7 -26 0 -5 -15 -11 -32 -13 -29 -3 -28 -4 9 -5 23 -1 48 -5
57 -8 26 -10 18 -24 -14 -24 -17 0 -74 -7 -127 -16 -53 -8 -113 -12 -134 -9
-26 5 -52 0 -85 -13 -27 -11 -57 -23 -66 -26 -10 -3 -18 -10 -18 -15 0 -11 93
-4 125 9 22 9 208 40 242 40 11 0 26 -7 33 -15 10 -12 9 -15 -6 -15 -15 0 -16
-2 -5 -9 9 -6 3 -10 -20 -15 -111 -22 -112 -24 -9 -20 74 3 96 1 75 -6 -100
-30 -170 -42 -260 -45 -86 -3 -110 -7 -152 -28 -81 -42 -113 -73 -113 -113 0
-42 14 -44 30 -3 15 36 65 71 141 100 40 16 86 22 179 26 89 3 121 1 110 -6
-13 -9 -12 -11 5 -11 38 -1 50 -16 37 -45 -7 -14 -17 -23 -22 -20 -6 4 -8 -10
-4 -38 4 -30 2 -48 -7 -58 -26 -28 -59 -104 -59 -136 0 -18 -5 -33 -11 -33 -6
0 -1 -9 12 -20 l24 -20 -23 -19 c-14 -12 -18 -21 -10 -23 19 -7 -3 -30 -23
-25 -10 3 -21 1 -24 -4 -3 -4 1 -64 10 -131 9 -68 14 -137 10 -155 -4 -21 0
-43 10 -62 12 -25 13 -38 4 -73 -20 -79 -22 -100 -10 -107 8 -5 11 -34 10 -82
-2 -41 -2 -110 -1 -153 1 -51 -2 -82 -9 -87 -16 -9 -29 -150 -16 -166 14 -18
-9 -233 -24 -233 -5 0 -9 -7 -9 -16 0 -8 -4 -12 -10 -9 -5 3 -10 -3 -10 -14 0
-11 -4 -22 -9 -25 -26 -16 -30 -159 -5 -187 18 -20 18 -43 -1 -59 -19 -16 -19
-30 0 -30 8 0 15 -6 15 -14 0 -8 3 -22 6 -31 4 -10 2 -15 -7 -13 -11 2 -15
-19 -17 -103 -2 -100 -1 -107 18 -112 24 -6 27 -27 3 -27 -14 0 -13 -3 6 -16
17 -12 21 -22 17 -40 -5 -19 -2 -24 12 -24 29 0 50 -30 57 -85 4 -27 12 -58
17 -68 5 -9 5 -17 1 -16 -4 1 -17 0 -28 -1 -15 -2 -12 -4 10 -10 l30 -8 -36
-1 c-24 -1 -39 4 -43 14 -3 8 -12 15 -20 15 -8 0 -17 9 -21 19 -5 16 -12 18
-46 14 -31 -5 -47 -1 -69 16 -16 11 -34 21 -40 21 -7 0 -19 9 -28 19 -10 11
-38 30 -64 44 l-46 26 -11 -30 c-19 -56 -46 -27 -50 56 -2 27 -14 93 -28 145
-13 52 -26 124 -28 160 -2 36 -7 76 -11 89 -5 16 -4 22 3 18 6 -4 10 3 9 16
-1 12 2 36 7 52 10 33 24 127 32 220 3 33 8 68 11 77 3 9 -2 30 -10 47 -9 16
-17 52 -18 80 -1 28 -6 45 -10 38 -4 -6 -8 13 -10 43 -2 34 -8 55 -15 55 -6 0
-15 3 -18 7 -10 10 15 214 52 428 9 52 18 115 19 140 l4 45 -14 -30 c-23 -49
-62 -307 -70 -460 -2 -33 -6 -79 -10 -101 -9 -49 -9 -178 -1 -319 9 -150 21
-519 18 -524 -2 -2 -5 -2 -7 0 -4 4 -23 342 -27 494 -3 69 -16 100 -36 83 -10
-8 -13 -6 -13 5 0 9 5 19 10 22 16 10 12 114 -4 131 -19 18 -26 18 -26 -1 0
-8 6 -15 12 -15 7 0 -4 -9 -25 -20 -46 -25 -57 -25 -57 0 0 11 -5 20 -11 20
-6 0 -9 -7 -5 -15 3 -8 3 -22 0 -30 -5 -13 -8 -13 -21 0 -8 8 -11 19 -8 25 3
5 1 10 -5 10 -8 0 -10 -9 -6 -23 4 -19 0 -27 -22 -37 -26 -13 -26 -14 -4 -18
30 -5 28 -14 -7 -35 -38 -22 -50 -22 -44 3 5 19 4 19 -26 4 -35 -17 -35 -18
-21 -45 6 -10 7 -19 3 -19 -5 0 -13 10 -18 23 -14 31 -60 31 -59 -1 0 -12 -3
-22 -8 -22 -4 0 -8 5 -8 11 0 8 -5 8 -15 -1 -8 -7 -14 -18 -14 -24 4 -25 -14
-66 -30 -66 -22 0 -45 -36 -28 -44 7 -4 -7 -4 -30 -1 -27 3 -43 1 -43 -5 0 -6
-5 -8 -11 -4 -8 4 -7 9 2 15 12 8 11 11 -1 19 -24 15 -33 12 -27 -10 4 -18 2
-20 -16 -14 -12 3 -26 10 -32 15 -5 5 -16 9 -24 9 -12 0 -12 -3 -3 -12 19 -19
14 -25 -20 -31 -39 -6 -72 9 -64 29 3 8 2 14 -3 14 -5 0 -11 -9 -14 -21 -6
-22 -28 -18 -23 4 1 7 1 9 -1 5 -8 -14 -40 -9 -53 8 -8 8 -22 19 -32 25 -16 9
-17 7 -8 -16 13 -34 13 -35 -5 -29 -8 4 -22 1 -29 -5 -10 -8 -16 -9 -21 -1 -3
5 1 10 9 10 9 0 16 7 16 16 0 13 -6 15 -27 9 -16 -3 -35 -13 -44 -21 -9 -8
-23 -12 -32 -9 -8 4 -18 2 -21 -3 -3 -5 12 -12 34 -16 22 -3 40 -11 40 -17 0
-5 4 -8 9 -5 5 3 12 -4 15 -17 6 -20 7 -21 19 -5 14 17 32 18 197 3 58 -6 95
-25 46 -25 -15 0 -25 -4 -22 -9 3 -5 -1 -12 -10 -15 -24 -9 -31 -7 -14 4 11 7
5 10 -22 10 -42 0 -54 -2 -51 -10 1 -3 4 -12 7 -20 5 -11 -1 -15 -24 -16 -33
-1 -39 10 -14 24 21 12 3 25 -21 16 -10 -4 -15 -14 -12 -25 4 -16 -19 -49 -30
-41 -1 1 -16 2 -32 2 -29 0 -34 -11 -18 -37 12 -18 -3 -16 -25 4 -17 15 -19
15 -32 -3 -14 -18 -15 -18 -21 -1 -9 22 -35 23 -35 1 0 -13 -6 -15 -27 -9 -44
12 -122 8 -146 -8 -17 -11 -26 -11 -39 -3 -14 8 -20 6 -32 -9 -11 -15 -11 -22
-3 -27 9 -6 9 -8 1 -8 -7 0 -29 -17 -49 -37 -32 -32 -39 -35 -56 -25 -26 16
-29 15 -29 -9 0 -18 -2 -20 -16 -8 -12 10 -17 10 -23 1 -4 -7 -15 -10 -25 -6
-14 5 -15 9 -5 15 8 4 10 11 6 15 -4 4 -13 2 -20 -5 -9 -10 -9 -15 5 -25 10
-7 13 -17 8 -25 -5 -9 -9 -9 -11 -2 -3 7 -19 6 -54 -2 -32 -9 -44 -15 -33 -19
8 -4 20 -2 26 4 6 6 15 7 21 3 15 -9 4 -25 -13 -19 -7 3 -18 -5 -25 -18 -6
-13 -10 -16 -7 -7 2 10 -7 22 -24 33 -27 15 -29 15 -32 -1 -3 -16 -48 -27 -48
-11 0 15 -19 8 -24 -10 -3 -10 -16 -18 -28 -19 -21 -2 -22 -1 -6 11 24 18 12
26 -16 13 -13 -6 -21 -17 -19 -24 3 -7 -2 -13 -10 -13 -8 0 -17 7 -21 15 -3 8
-1 15 5 15 6 0 7 5 4 10 -3 6 -14 10 -23 10 -16 0 -25 17 -54 110 -6 19 -11
63 -12 96 -1 38 -5 60 -11 57 -11 -4 -35 71 -35 107 0 12 -7 31 -15 44 -30 45
-77 336 -78 481 0 39 9 189 20 335 11 146 21 299 21 339 0 58 4 78 17 87 12 9
17 31 18 94 2 68 6 85 22 97 19 14 19 14 1 11 -15 -2 -22 7 -33 46 -17 58 -12
70 11 23 17 -37 46 -67 46 -49 0 6 -5 14 -11 17 -12 8 -23 36 -34 84 -5 26 -4
32 6 26 9 -6 11 -3 6 9 -4 10 -7 22 -7 27 0 5 -4 9 -10 9 -5 0 -10 -6 -10 -13
0 -7 -11 -24 -25 -39 -28 -30 -55 -28 -55 4 0 10 -4 16 -10 13 -5 -3 -18 -2
-27 3 -10 5 -67 12 -128 15 l-110 5 78 -23 c43 -13 81 -26 84 -29 4 -3 -1 -14
-10 -24 -10 -10 -17 -23 -17 -29 0 -9 -25 -44 -47 -66 -5 -4 -24 -18 -43 -30
l-35 -23 -45 23 c-64 32 -70 28 -17 -13 25 -19 48 -42 51 -50 6 -15 -2 -15
-54 4 -8 3 4 -14 27 -38 53 -56 67 -116 34 -149 -12 -12 -21 -18 -21 -13 0 4
-4 2 -8 -3 -4 -6 -18 -16 -32 -23 -25 -11 -25 -11 5 -7 26 4 26 3 -5 -6 -19
-6 -46 -15 -60 -20 -41 -14 95 1 199 22 113 23 116 23 66 1 -138 -61 -497
-124 -700 -123 -43 0 -70 -5 -93 -19 -50 -30 -42 -51 12 -31 13 6 96 19 183
31 87 11 205 27 263 35 58 8 128 16 155 18 l50 4 1 -54 c0 -32 -4 -53 -10 -53
-6 0 -4 -5 4 -10 9 -6 11 -13 5 -18 -5 -4 -11 -20 -12 -37 -7 -109 -12 -143
-21 -165 -14 -35 -18 -370 -6 -447 7 -44 7 -64 0 -66 -8 -3 -7 -11 1 -24 7
-13 8 -24 2 -30 -6 -6 -4 -33 7 -73 10 -38 14 -84 11 -114 -2 -28 1 -96 9
-151 7 -55 14 -145 15 -200 1 -55 2 -120 3 -145 0 -25 5 -51 10 -59 14 -21 24
-143 14 -170 -5 -15 -5 -28 2 -36 6 -7 8 -19 4 -28 -3 -8 -1 -18 4 -21 6 -4 8
-46 5 -107 -4 -70 -3 -103 5 -108 8 -5 9 -17 3 -39 -5 -17 -7 -40 -4 -51 5
-21 -25 -70 -43 -71 -7 0 -15 -7 -18 -15 -4 -11 -17 -15 -45 -13 -32 1 -46 9
-73 41 -18 22 -38 44 -43 51 -6 6 -55 67 -108 136 -54 69 -120 152 -147 185
-95 115 -160 220 -160 256 0 41 -9 57 -41 73 -38 19 -114 201 -205 493 -48
153 -72 207 -35 77 92 -320 172 -525 229 -581 34 -34 34 -36 17 -49 -10 -8
-14 -14 -8 -14 5 0 57 -72 114 -161 57 -88 145 -215 194 -283 132 -180 271
-366 303 -406 16 -19 36 -48 45 -65 9 -16 37 -52 62 -79 25 -27 45 -52 45 -57
0 -4 16 -16 35 -28 22 -13 35 -28 35 -41 0 -17 3 -19 18 -11 23 12 42 -3 42
-33 0 -19 0 -20 14 -1 14 19 15 19 36 0 12 -11 31 -19 41 -17 13 2 20 -5 25
-22 7 -28 24 -36 24 -12 0 24 20 29 40 11 16 -15 22 -15 35 -5 12 10 16 9 21
-3 7 -20 -3 -37 -21 -37 -7 0 -18 -12 -23 -27 l-10 -28 -1 29 c-1 17 -5 26 -9
20 -4 -5 -5 -74 -1 -154 4 -80 7 -199 8 -265 l1 -120 -23 27 c-12 15 -33 32
-47 38 l-25 10 25 -4 26 -5 -1 87 c0 48 3 137 7 197 l7 110 -21 -65 c-11 -36
-24 -67 -28 -70 -12 -8 -37 -89 -55 -182 -15 -75 -20 -87 -40 -92 -13 -3 -31
-3 -40 0 -24 10 -11 29 19 27 29 -2 36 13 9 20 -15 4 -16 5 -2 6 11 1 19 14
23 39 10 54 56 203 72 232 23 43 64 152 59 160 -6 9 -55 10 -56 1 -6 -45 -11
-71 -20 -93 -6 -15 -9 -34 -6 -42 6 -16 -20 -69 -100 -201 -67 -110 -82 -124
-116 -118 -40 8 -35 35 5 33 47 -3 56 0 33 10 -17 7 -17 9 -2 9 9 1 17 7 17
15 0 7 25 64 55 127 39 82 47 104 28 79 -15 -19 -58 -64 -95 -100 -38 -36 -77
-78 -88 -95 -15 -22 -20 -25 -20 -12 0 26 15 53 72 125 26 34 45 62 42 62 -4
0 -28 -19 -54 -42 -65 -59 -153 -128 -158 -123 -3 2 10 22 28 45 18 22 26 39
19 38 -7 -2 -14 4 -16 13 -5 19 58 72 110 94 35 14 102 73 93 82 -2 3 -39 -18
-80 -46 -42 -29 -84 -54 -94 -58 -9 -3 -53 -31 -97 -61 -101 -70 -79 -41 65
87 l35 32 -60 -27 c-91 -39 -92 -39 -61 -6 27 29 25 47 -2 20 -6 -6 -15 -9
-18 -5 -4 4 4 15 17 26 l24 19 -27 7 c-16 4 -36 4 -45 0 -12 -4 -7 6 12 26
l30 32 -44 -7 -44 -7 24 21 24 21 -55 -6 -55 -6 38 24 c53 34 53 36 3 24 -36
-8 -49 -7 -68 5 -22 15 -103 34 -121 30 -5 -2 -6 2 -2 8 3 5 2 10 -3 10 -5 0
-15 14 -22 30 -18 45 -21 32 -8 -38 11 -57 14 -62 37 -63 14 0 20 -3 13 -6
-19 -7 -82 6 -82 18 0 6 5 7 10 4 14 -8 13 -2 -10 111 -11 55 -25 138 -30 186
-5 48 -15 102 -23 120 -19 43 -43 115 -52 152 -12 57 -35 102 -44 87 -6 -9
-11 -10 -15 -2 -4 6 -2 11 5 11 16 0 3 64 -22 110 -42 75 -57 95 -73 94 -9 -1
-16 2 -16 7 0 5 5 9 10 9 6 0 10 5 10 10 0 6 -7 10 -16 10 -13 0 -14 3 -5 14
10 11 9 21 -3 45 -9 16 -16 47 -16 67 0 32 8 45 58 94 31 32 63 59 70 61 17 6
5 39 -14 39 -8 0 -14 -4 -14 -9 0 -5 -28 -23 -61 -41 -45 -23 -60 -28 -56 -16
9 22 -6 20 -28 -4 -10 -11 -35 -23 -54 -26 -25 -4 -40 -13 -48 -30 -6 -13 -8
-24 -3 -24 4 0 11 7 14 16 8 20 19 12 23 -16 2 -17 -3 -20 -32 -20 -28 0 -35
-4 -35 -20 0 -32 -27 -23 -35 13 -7 28 -9 29 -12 10 -3 -15 -12 -23 -24 -23
-10 0 -19 -4 -19 -10 0 -12 -26 -14 -33 -2 -2 4 -2 1 -1 -5 4 -16 -8 -17 -24
-1 -7 7 -12 8 -12 4 0 -5 -12 -1 -26 9 -20 13 -28 14 -40 4 -11 -9 -14 -9 -14
0 0 7 -10 11 -23 9 -16 -2 -23 -11 -25 -31 -4 -30 3 -34 23 -13 9 9 29 12 57
9 24 -2 61 -5 83 -7 31 -2 39 -6 37 -19 -3 -18 13 -23 23 -7 3 6 17 10 30 10
16 0 27 9 36 28 10 23 19 29 43 28 17 -1 39 -10 50 -20 18 -18 18 -19 1 -33
-11 -7 -25 -13 -32 -13 -7 0 -13 -5 -13 -11 0 -6 -7 -9 -15 -5 -8 3 -15 1 -15
-3 0 -23 15 -43 37 -52 25 -9 23 -29 -2 -29 -7 0 -17 -9 -20 -20 -9 -29 -23
-25 -17 5 5 29 -3 32 -25 10 -19 -20 -36 -9 -21 14 14 23 4 51 -19 50 -10 0
-13 -3 -6 -5 8 -4 9 -13 3 -29 -5 -12 -7 -25 -4 -28 10 -10 -22 -25 -36 -17
-10 7 -11 10 -2 10 19 0 14 18 -7 25 -36 11 -82 -35 -48 -48 6 -3 3 -6 -9 -6
-27 -1 -36 9 -23 26 15 18 -10 17 -34 -1 -10 -8 -28 -12 -40 -10 -12 2 -16 2
-9 -2 21 -10 13 -25 -12 -20 -14 2 -41 0 -61 -7 -27 -8 -35 -15 -33 -30 2 -11
-2 -22 -9 -24 -6 -2 -13 6 -15 18 -3 21 -4 22 -20 6 -9 -9 -28 -17 -42 -17
-36 0 -74 -19 -79 -41 -3 -11 -11 -19 -17 -19 -7 0 -10 7 -6 16 5 13 3 14 -6
6 -7 -5 -33 -15 -58 -22 -25 -6 -58 -17 -75 -24 -16 -7 -57 -23 -90 -36 -33
-13 -64 -27 -70 -30 -5 -4 -25 -11 -44 -15 -21 -4 -35 -14 -39 -27 -3 -12 -10
-17 -20 -13 -16 6 -64 -7 -130 -36 -23 -11 -49 -19 -57 -19 -8 0 -37 -13 -63
-30 -27 -16 -54 -30 -61 -30 -8 0 -11 -226 -11 -870 l0 -870 3750 0 3750 0 0
1330 c0 1260 -1 1330 -17 1330 -17 1 -17 1 0 11 16 9 17 41 17 429 l0 420
-162 0 c-90 1 -523 3 -963 6 -791 5 -800 5 -817 26 -10 11 -18 28 -18 38 0 10
-7 23 -15 30 -12 10 -15 10 -15 -4 0 -9 -5 -16 -11 -16 -6 0 -8 9 -3 23 12 35
6 75 -30 224 l-34 138 19 80 c12 51 19 121 20 195 1 119 -19 300 -33 300 -5 0
-8 12 -7 28 1 15 -3 40 -10 55 -16 41 -14 88 6 102 15 11 15 18 -2 103 -9 51
-21 92 -25 92 -4 0 1 -39 11 -87 23 -111 23 -106 -4 -99 -23 5 -23 4 -24 -82
l0 -87 7 70 c5 54 7 29 10 -115 2 -102 4 -198 4 -215 1 -16 -1 -57 -5 -90 -4
-39 -7 8 -9 130 -4 157 -5 170 -7 73 -3 -98 -6 -116 -18 -111 -13 4 -15 -7
-13 -68 l2 -74 3 63 c2 35 9 62 15 62 6 0 8 -9 4 -23 -3 -12 -6 -43 -6 -69 0
-38 -3 -46 -15 -42 -12 5 -15 25 -15 89 0 49 4 85 10 87 7 2 11 70 11 188 0
142 -5 209 -20 290 -30 162 -34 213 -15 206 12 -4 14 -1 9 14 -3 11 -3 25 0
31 11 17 41 -22 49 -64 8 -43 13 -44 61 -16 42 25 49 21 40 -20 -8 -36 -25
-51 -25 -22 0 19 -2 20 -21 9 -21 -14 -21 -16 0 -113 8 -38 9 -39 10 -8 0 17
5 33 10 35 5 2 20 21 35 42 31 46 34 99 9 151 -18 35 -19 35 -67 31 -27 -2
-45 -1 -40 3 5 4 29 23 53 41 24 19 50 48 57 67 20 48 17 62 -7 28 -19 -28
-20 -28 -13 -5 3 14 12 36 19 50 14 27 19 49 70 320 59 313 88 484 88 513 0
15 3 27 7 27 4 0 7 12 8 28 0 15 3 45 7 67 4 22 9 63 10 91 1 28 7 66 13 85 6
19 18 97 27 174 9 77 23 192 31 255 8 63 17 147 20 185 3 39 8 77 11 85 3 8
10 39 14 68 5 28 13 76 17 105 5 28 14 65 20 80 15 35 15 40 1 31 -8 -4 -8 -1
-1 12 5 11 13 42 17 69 4 28 10 55 15 60 4 6 10 35 13 66 3 31 10 65 15 75 6
11 18 64 27 119 9 55 25 139 36 187 10 48 19 100 20 115 0 25 1 26 10 8 7 -16
8 -14 3 10 -8 43 6 220 17 204 6 -10 9 -3 9 21 0 47 7 165 9 165 7 0 11 146
19 720 5 352 12 647 15 655 3 8 11 130 17 270 5 140 18 332 29 425 17 153 32
308 36 375 1 14 5 85 10 158 l8 132 -742 0 c-605 0 -741 -2 -741 -13z m-120
-923 c0 -15 -6 -24 -15 -24 -10 0 -15 -10 -15 -32 0 -45 -18 -104 -36 -123 -9
-8 -13 -15 -9 -15 8 0 -27 -63 -40 -72 -5 -4 -17 -8 -26 -8 -12 0 -15 7 -11
25 2 15 0 25 -7 25 -26 0 -10 54 25 87 20 18 40 33 44 33 4 0 5 11 3 24 -4 17
1 27 16 35 12 7 21 19 21 28 0 21 30 54 41 47 5 -3 9 -16 9 -30z m35 -7784 c9
-57 29 -114 46 -131 10 -10 21 -29 25 -43 3 -13 14 -26 25 -29 12 -3 17 -11
13 -20 -3 -10 4 -17 23 -22 25 -7 26 -8 8 -15 -18 -7 -18 -9 -3 -15 9 -4 22
-4 28 0 5 3 10 1 10 -5 0 -6 5 -8 10 -5 6 3 10 1 10 -4 0 -6 -5 -11 -12 -11
-9 0 -9 -3 0 -12 9 -9 15 -9 24 0 14 14 32 16 23 3 -3 -6 4 -9 15 -8 11 1 20
5 20 9 0 4 12 8 28 8 21 0 24 -2 12 -10 -11 -7 -1 -10 35 -11 96 -3 131 -6
143 -12 6 -4 13 -3 17 3 4 6 11 8 16 4 5 -3 16 0 24 6 10 8 19 9 28 3 15 -13
47 -13 47 -1 0 5 -6 21 -14 36 -13 25 -13 28 2 28 10 1 25 4 34 8 13 6 22 0
35 -21 10 -15 24 -29 31 -31 21 -4 137 -104 134 -115 -1 -5 3 -16 10 -25 10
-12 10 -14 1 -8 -18 10 -16 -9 2 -24 8 -7 15 -18 15 -25 0 -7 7 -18 16 -25 8
-8 20 -22 26 -33 6 -11 -9 0 -33 24 -24 24 -43 47 -41 51 1 4 -8 12 -19 19
-19 10 -20 9 -14 -11 6 -17 4 -21 -6 -14 -11 6 -11 5 0 -9 8 -10 16 -15 19
-12 7 7 32 -15 32 -27 0 -6 -7 -5 -16 3 -9 7 0 -16 20 -52 20 -36 36 -70 36
-75 0 -5 -13 14 -29 42 -31 57 -98 147 -156 209 -34 36 -35 37 -11 5 131 -174
190 -275 168 -289 -7 -4 -15 -20 -18 -36 -5 -30 -23 -55 -82 -120 -21 -22 -62
-75 -92 -117 -41 -58 -61 -78 -78 -78 -12 0 -34 -7 -47 -16 -33 -22 -51 -13
-58 28 -30 169 -47 310 -42 342 3 23 1 44 -6 52 -6 8 -8 14 -4 14 4 0 3 6 -2
13 -17 20 -23 60 -12 73 23 28 -4 60 -47 55 -7 -1 -14 8 -17 19 -3 11 -11 20
-18 20 -10 0 -10 -3 -1 -12 18 -18 15 -28 -8 -28 -28 0 -25 -29 7 -64 21 -23
26 -38 24 -67 -1 -21 6 -53 14 -70 9 -17 19 -43 21 -58 7 -36 26 -93 38 -109
5 -7 9 -27 8 -45 0 -17 3 -36 7 -42 5 -5 12 -39 16 -74 5 -41 14 -70 26 -82
25 -25 25 -75 -1 -89 -16 -8 -26 -4 -55 22 -35 30 -36 34 -30 75 5 34 3 43 -8
43 -11 0 -13 7 -9 23 5 20 4 21 -13 7 -16 -14 -17 -13 -11 7 4 12 1 26 -7 34
-7 8 -22 33 -32 57 -10 23 -22 42 -27 42 -4 0 -8 5 -8 11 0 13 -39 51 -76 76
-14 9 -34 33 -44 54 -11 21 -31 49 -44 64 l-24 26 -21 -30 c-14 -20 -21 -46
-22 -83 -1 -33 -4 -42 -6 -23 -3 17 -9 34 -14 40 -11 11 -12 85 -1 85 4 0 8
11 8 24 2 27 54 134 103 211 33 52 42 87 18 66 -8 -6 -16 -8 -19 -5 -14 14
-79 -119 -103 -210 -25 -98 -34 -229 -16 -240 5 -3 11 -17 13 -31 4 -19 2 -23
-7 -15 -15 13 -35 108 -35 167 0 48 -19 52 -21 5 0 -24 -1 -25 -9 -7 -4 11 -6
34 -4 50 4 25 3 27 -5 10 -5 -11 -10 -15 -11 -10 -11 89 -10 98 20 145 17 26
57 68 90 94 63 50 73 70 40 81 -21 7 -50 -9 -50 -27 0 -6 -28 -49 -63 -97 -35
-47 -69 -95 -76 -106 -11 -18 -12 -18 -7 7 3 14 9 34 12 45 6 16 5 16 -9 -2
-21 -26 -22 -4 -2 35 10 19 12 36 7 51 l-9 22 -16 -24 c-9 -13 -17 -20 -17
-15 0 5 -7 3 -15 -4 -8 -7 -15 -8 -15 -3 0 5 21 26 46 47 40 34 44 40 29 48
-13 8 -20 5 -31 -11 -8 -11 -24 -26 -36 -32 -20 -11 -20 -11 -2 14 11 14 33
33 49 43 17 9 47 33 67 52 33 32 36 37 21 47 -14 11 -20 9 -35 -10 -10 -12
-31 -25 -46 -27 -27 -4 -29 -2 -26 29 1 18 -2 33 -8 33 -19 0 -1 76 64 273 16
48 32 111 36 140 6 49 7 45 19 -68 8 -66 15 -131 18 -145z m-1739 -275 c53
-121 127 -289 164 -372 37 -84 70 -150 75 -145 5 4 5 2 2 -5 -10 -16 3 -43 20
-43 10 0 13 -6 9 -16 -5 -12 -2 -15 10 -10 13 5 15 1 12 -19 -3 -14 -1 -28 4
-31 5 -3 6 -14 3 -24 -4 -12 2 -24 17 -34 15 -11 18 -16 8 -16 -8 0 -24 -8
-35 -17 -16 -13 -17 -15 -2 -10 9 4 17 2 17 -3 0 -11 -48 -26 -67 -22 -7 2
-13 -2 -13 -8 0 -5 -8 -10 -17 -10 -10 0 -30 -6 -45 -14 -15 -8 -37 -12 -50
-10 -18 3 -19 3 -5 -4 16 -7 15 -10 -10 -28 -25 -19 -76 -35 -153 -49 -25 -5
-24 -4 5 20 17 13 58 36 92 52 57 25 62 30 73 71 8 35 17 46 43 57 32 13 64 4
51 -16 -3 -5 -1 -9 5 -9 6 0 8 -7 4 -16 -5 -14 -3 -15 16 -4 17 9 21 18 17 34
-3 13 -3 26 1 30 13 12 10 46 -4 46 -8 0 -13 8 -11 18 1 9 -5 29 -15 43 -24
35 -123 265 -222 514 -46 116 -91 228 -100 250 -9 22 -12 35 -6 30 5 -6 54
-109 107 -230z m304 -810 c7 -8 17 -15 22 -15 15 0 158 -100 158 -111 0 -6 4
-8 9 -5 5 3 15 -2 22 -11 12 -15 12 -16 -3 -10 -12 4 -15 2 -11 -9 3 -7 9 -14
13 -14 4 0 13 -15 20 -32 28 -75 45 -113 54 -119 4 -4 6 -11 2 -17 -3 -6 -3
-12 1 -14 21 -9 63 -91 63 -123 0 -33 -2 -35 -32 -36 -18 -1 -37 -1 -42 0 -4
1 -19 -5 -32 -14 -30 -19 -49 -19 -95 3 -23 10 -39 24 -39 35 0 9 -6 17 -14
17 -26 0 -28 20 -4 29 18 8 19 10 5 10 -10 1 -27 6 -38 12 -15 8 -18 14 -9 24
8 9 7 14 -5 19 -10 4 -15 -1 -15 -14 0 -11 -5 -20 -11 -20 -5 0 -9 10 -7 23 2
16 -3 23 -19 25 -13 2 -23 8 -23 13 0 5 -11 7 -24 3 -17 -4 -27 -1 -34 12 -5
9 -20 18 -33 20 -13 1 -26 3 -29 5 -3 1 -14 2 -25 3 -33 2 -23 29 17 48 46 22
56 38 34 53 -9 7 -14 19 -11 27 6 14 65 41 82 36 13 -3 56 13 70 28 8 7 21 11
31 8 9 -2 3 3 -15 12 -29 16 -48 46 -36 58 3 3 15 0 27 -6 19 -10 20 -10 7 5
-7 10 -19 17 -27 17 -7 0 -18 9 -24 20 -12 23 2 27 20 5z m-408 -237 c3 -24
16 -60 29 -80 19 -30 30 -37 55 -38 17 0 43 -9 57 -20 15 -12 55 -34 89 -50
35 -15 74 -37 88 -48 14 -10 42 -25 63 -31 20 -7 43 -18 50 -25 16 -15 127
-65 156 -69 12 -2 56 -29 99 -60 118 -87 125 -91 154 -104 35 -15 36 -4 2 28
-31 29 -69 110 -65 137 1 8 -3 20 -10 28 -6 8 -8 21 -3 31 4 10 8 23 8 28 1 6
11 11 23 13 23 3 73 -52 73 -81 0 -8 4 -17 9 -19 12 -4 101 -176 101 -194 0
-11 -7 -11 -41 1 -60 22 -65 19 -30 -17 17 -18 30 -39 29 -48 -5 -23 -111 -18
-253 12 -66 14 -172 36 -235 47 -63 12 -128 26 -145 31 -50 15 -148 39 -185
45 -19 3 -44 9 -55 12 -34 11 -53 10 -48 -3 6 -17 -13 -27 -37 -19 -23 7 -26
28 -6 47 10 11 12 26 5 69 -5 30 -6 92 -2 139 5 47 7 129 5 183 -3 97 11 135
20 55z"/>
<path d="M5100 7454 c-13 -20 -23 -45 -23 -57 1 -11 -6 -26 -15 -34 -16 -12
-16 -14 1 -27 23 -18 24 -86 1 -86 -14 0 -14 -3 -4 -15 18 -22 51 -19 57 5 3
11 10 20 15 20 5 0 12 -9 15 -20 6 -24 19 -26 27 -5 8 21 53 19 65 -2 10 -17
10 -17 11 0 0 9 5 17 10 17 6 0 10 5 10 12 0 9 -3 9 -12 0 -19 -19 -27 -14
-26 18 1 17 -2 33 -5 36 -11 11 -27 -7 -27 -32 0 -15 -6 -24 -16 -24 -12 0
-15 6 -11 22 7 26 -8 48 -33 48 -10 0 -21 6 -23 13 -4 10 -6 10 -6 0 -2 -22
-31 -14 -31 8 0 16 4 19 21 14 17 -6 20 -3 19 17 -1 12 -2 38 -1 57 1 27 4 31
14 22 15 -12 27 -5 27 16 0 26 -35 12 -60 -23z"/>
<path d="M2670 4531 c0 -17 24 -77 37 -89 16 -17 72 -111 103 -176 13 -28 25
-45 28 -38 4 14 32 16 32 2 0 -5 -8 -13 -17 -18 -15 -9 -15 -13 1 -56 19 -49
30 -61 46 -51 6 4 4 15 -6 30 -8 13 -17 45 -19 71 -1 27 -8 50 -14 52 -6 2
-23 27 -37 55 -15 28 -52 90 -83 139 -51 80 -71 102 -71 79z"/>
<path d="M60 2864 c-14 -7 -33 -14 -42 -14 -10 0 -18 -5 -18 -11 0 -6 8 -8 18
-5 23 8 45 -34 36 -70 -7 -27 -8 -28 -34 -14 -19 10 -19 0 -20 -334 0 -269 2
-345 12 -349 10 -4 10 -8 2 -14 -8 -5 -12 -53 -12 -140 0 -141 2 -148 46 -117
13 9 57 27 98 40 41 14 99 35 127 48 29 13 62 27 75 31 12 3 22 11 22 17 0 5
7 7 16 4 9 -4 22 -2 28 2 6 5 24 12 39 16 17 4 25 11 21 18 -4 7 -3 8 4 4 6
-4 31 2 54 13 24 10 66 27 95 37 28 10 50 21 47 25 -2 4 15 10 38 14 44 8 101
42 92 57 -8 13 20 10 34 -4 9 -9 15 -9 24 0 7 7 20 12 29 12 10 0 20 4 24 10
3 5 -9 8 -30 6 -20 -1 -45 4 -55 11 -20 14 -28 53 -10 53 5 0 7 -6 4 -14 -3
-8 4 -19 16 -26 18 -10 24 -8 36 7 8 10 13 13 14 6 0 -20 28 -15 33 5 3 10 5
5 6 -12 1 -24 3 -27 16 -16 8 7 15 9 15 5 0 -4 6 -2 14 4 7 6 21 9 30 5 9 -3
16 -1 16 5 0 6 7 11 16 11 8 0 12 4 9 10 -3 6 1 7 9 4 18 -7 22 11 5 22 -7 4
-7 10 -1 16 14 14 35 0 28 -18 -3 -8 1 -14 10 -14 10 0 14 6 11 15 -4 8 -2 17
3 20 6 4 10 11 10 17 0 7 -5 6 -15 -2 -12 -10 -16 -8 -23 9 l-8 22 -22 -24
c-30 -31 -78 -26 -86 9 -4 14 -11 22 -17 19 -7 -5 -7 -11 1 -20 7 -9 6 -16 -5
-25 -13 -10 -15 -9 -16 11 -1 13 -1 28 0 32 1 5 -8 5 -20 2 -15 -5 -19 -4 -15
4 4 6 3 11 -1 11 -5 0 -15 21 -22 46 -17 55 -8 76 35 85 34 8 9 13 -42 10 -33
-2 -53 12 -34 24 6 4 8 15 5 26 -4 11 -2 19 4 19 6 0 11 -5 11 -11 0 -5 5 -7
10 -4 15 10 12 23 -7 28 -10 2 -6 3 10 2 16 -1 27 4 27 11 0 26 -13 44 -31 44
-10 0 -19 5 -19 11 0 6 -9 9 -19 6 -13 -3 -18 0 -15 8 3 7 1 16 -5 20 -7 4
-11 -7 -11 -29 0 -19 5 -38 10 -41 5 -3 10 1 10 9 0 20 16 21 23 2 4 -9 14
-12 26 -9 12 3 21 1 21 -6 0 -6 -13 -11 -29 -11 -17 0 -32 -4 -35 -8 -3 -5
-19 -7 -36 -4 -28 4 -30 3 -22 -19 12 -31 37 -40 27 -9 -5 15 -4 20 4 16 6 -4
11 -18 11 -32 0 -14 -4 -22 -10 -19 -5 3 -10 -3 -10 -14 0 -12 -4 -21 -10 -21
-5 0 -10 6 -10 14 0 23 -24 37 -40 23 -10 -10 -12 -9 -6 6 3 10 6 21 6 23 0 3
4 3 9 -1 5 -3 12 -1 16 5 3 5 -2 10 -12 11 -10 0 -13 3 -7 5 6 2 9 21 8 42 -3
32 -1 35 10 20 18 -25 21 -23 20 12 -2 44 -3 47 -14 30 -8 -13 -10 -12 -10 3
0 9 -4 17 -10 17 -5 0 -10 -7 -10 -15 0 -22 -18 -18 -31 6 -8 16 -14 18 -22 9
-9 -9 -8 -15 6 -25 14 -10 15 -14 5 -19 -7 -3 -3 -3 9 -1 29 8 40 -13 17 -30
-18 -13 -18 -14 -1 -15 9 0 17 -4 17 -8 0 -10 -46 -10 -55 0 -4 3 -18 4 -31 2
-19 -4 -24 0 -24 17 0 17 -5 20 -28 18 -17 -2 -36 3 -45 13 -21 21 -21 28 -2
28 8 0 15 -5 15 -12 0 -7 5 -5 12 4 7 9 22 18 33 21 15 4 13 5 -7 6 -22 1 -28
6 -28 24 0 16 -3 18 -9 8 -5 -7 -14 -10 -21 -6 -9 6 -9 9 1 16 10 6 8 9 -8 9
-30 0 -29 14 2 28 35 16 38 15 32 -7 -3 -14 -1 -18 9 -14 8 3 14 8 14 12 0 15
-41 51 -58 51 -26 0 -46 -16 -39 -32 3 -10 -2 -14 -17 -14 -16 1 -21 -5 -20
-21 0 -17 -5 -23 -21 -23 -30 0 -41 51 -21 91 13 27 5 52 -9 29 -3 -5 -17 -10
-31 -10 -14 0 -35 -11 -48 -25 -13 -14 -28 -25 -35 -25 -6 0 -11 -7 -11 -15 0
-8 -7 -15 -15 -15 -8 0 -15 -6 -15 -12 0 -8 -3 -9 -8 -3 -8 11 -37 13 -47 4
-3 -4 11 -10 32 -14 34 -6 52 -19 53 -36 0 -12 -55 4 -63 18 -6 10 -17 13 -35
8 -22 -5 -25 -4 -14 6 19 20 15 38 -8 32 -11 -3 -27 1 -36 8 -13 10 -17 10
-25 -2 -6 -10 -9 -10 -9 -1 0 6 9 21 20 32 11 11 15 20 8 20 -21 0 5 18 31 22
14 1 26 10 28 18 4 12 3 13 -5 1 -5 -7 -15 -10 -22 -6 -9 6 -9 10 1 16 12 8
11 11 -1 19 -12 8 -12 10 -1 10 11 0 11 3 1 15 -15 18 -46 18 -80 -1z"/>
<path d="M2230 1551 c7 -15 5 -31 -10 -66 -23 -54 -25 -74 -8 -110 13 -29 14
-29 57 -14 28 10 43 29 22 29 -13 0 -21 39 -9 46 5 3 7 12 4 20 -7 19 22 4 48
-25 11 -12 23 -21 29 -21 5 0 -8 19 -29 43 -22 23 -52 59 -68 80 -30 39 -54
51 -36 18z"/>
</g>
</svg>
