<?xml version="1.0" standalone="no"?>
<!DOCTYPE svg PUBLIC "-//W3C//DTD SVG 20010904//EN"
 "http://www.w3.org/TR/2001/REC-SVG-20010904/DTD/svg10.dtd">
<svg version="1.0" xmlns="http://www.w3.org/2000/svg"
 width="750.000000pt" height="1125.000000pt" viewBox="0 0 750.000000 1125.000000"
 preserveAspectRatio="xMidYMid meet">
<metadata>
Created by potrace 1.16, written by Peter Selinger 2001-2019
</metadata>
<g transform="translate(0.000000,1125.000000) scale(0.100000,-0.100000)"
fill="#000000" stroke="none">
<path d="M2860 10780 c-8 -5 -32 -8 -52 -4 -44 7 -132 -17 -200 -53 -33 -18
-52 -37 -67 -67 -29 -60 -108 -255 -119 -296 -21 -71 -36 -230 -23 -230 13 0
40 -68 34 -88 -3 -12 4 -32 17 -50 25 -34 27 -47 16 -164 -8 -96 0 -109 33
-55 27 44 101 100 101 77 0 -36 74 24 97 78 12 30 17 33 24 20 8 -14 14 -12
44 15 25 22 34 37 30 51 -3 12 -2 15 1 9 3 -7 19 -13 35 -13 22 0 34 8 49 33
26 42 25 63 -2 71 -22 7 -22 7 -3 15 12 5 23 4 27 -3 5 -7 17 -3 37 12 38 28
61 29 37 3 -17 -19 -17 -19 4 -14 12 3 31 21 43 39 12 19 27 32 32 30 6 -2 19
2 30 10 28 20 129 19 146 -3 8 -9 13 -24 11 -34 -2 -9 7 -24 18 -32 12 -8 22
-24 23 -36 1 -11 4 -21 7 -21 10 0 30 -65 30 -99 0 -24 6 -34 23 -40 14 -5 25
-4 29 3 5 7 8 6 8 -4 0 -13 1 -13 10 0 8 13 11 11 16 -7 8 -30 16 -29 53 9 83
85 110 164 89 261 -5 29 -11 61 -12 72 -2 11 -6 27 -10 36 -4 9 -6 20 -4 25 6
22 -23 73 -71 123 -30 32 -51 62 -51 76 0 17 -7 24 -31 29 -25 5 -30 10 -26
25 5 21 -20 65 -50 86 -11 8 -36 16 -54 18 -35 4 -69 20 -104 49 -27 22 -84
36 -180 43 -50 4 -86 2 -95 -5z"/>
<path d="M3250 9999 c-8 -17 -13 -37 -13 -45 0 -8 -4 -14 -9 -14 -4 0 -8 -9
-8 -19 0 -11 -5 -23 -10 -26 -6 -4 -8 -15 -5 -26 7 -22 -23 -79 -43 -79 -7 0
-27 7 -43 16 -17 8 -37 13 -44 10 -8 -3 -19 2 -26 10 -18 22 -64 44 -93 44
-14 0 -27 4 -30 9 -9 14 -56 20 -56 7 0 -6 10 -29 21 -51 20 -38 21 -40 4 -71
-13 -25 -14 -36 -6 -52 6 -11 11 -27 11 -36 0 -22 -53 -105 -67 -106 -8 0 -13
-13 -13 -30 0 -16 -4 -30 -10 -30 -11 0 -24 -64 -17 -84 4 -11 14 -12 44 -5
28 6 41 5 48 -5 6 -7 28 -19 50 -27 22 -7 44 -17 50 -21 5 -4 17 -8 26 -8 9 0
23 -8 30 -17 12 -14 12 -16 0 -8 -10 5 -12 4 -7 -3 4 -7 12 -12 18 -12 6 0 25
-14 42 -30 17 -17 58 -51 90 -75 33 -25 56 -45 53 -45 -4 0 3 -10 15 -22 13
-13 26 -22 30 -21 5 2 8 -2 8 -7 0 -16 1 -18 68 -85 71 -73 78 -101 38 -163
-42 -66 -59 -76 -108 -64 -23 6 -45 9 -49 6 -4 -2 -14 15 -22 38 -9 29 -20 43
-30 42 -9 -1 -14 2 -12 7 3 4 -29 58 -71 118 -78 113 -126 158 -231 217 -29
16 -53 32 -53 37 0 15 -30 6 -40 -12 -19 -37 -10 -112 23 -178 5 -13 8 -25 6
-27 -5 -5 -42 62 -60 109 -15 39 -24 14 -10 -28 10 -30 10 -31 -5 -12 -8 11
-17 30 -21 43 -3 12 -9 22 -14 22 -5 0 -6 -6 -3 -14 6 -16 -10 -50 -38 -80
-14 -15 -18 -16 -13 -5 10 25 -13 33 -27 9 -18 -28 -43 -28 -28 1 7 11 9 23 6
26 -8 8 -26 -7 -26 -23 0 -8 -4 -14 -10 -14 -5 0 -9 6 -7 13 1 7 -7 11 -22 9
-14 -1 -28 3 -32 10 -4 6 -22 16 -40 22 -42 14 -99 90 -81 108 9 9 12 8 13 -8
0 -17 1 -17 11 3 13 26 63 45 130 49 62 3 129 14 148 24 9 5 -3 7 -30 6 -25
-2 -51 2 -58 7 -20 16 -134 8 -154 -10 -13 -12 -18 -13 -18 -3 0 16 -70 7 -80
-11 -5 -7 -15 0 -29 20 -12 17 -18 31 -12 31 15 0 14 33 -1 48 -20 20 -28 14
-18 -13 12 -33 1 -32 -27 3 -12 15 -22 22 -23 15 0 -6 18 -34 40 -62 44 -55
47 -63 25 -55 -9 4 -15 1 -15 -8 0 -7 -9 -19 -20 -26 -19 -12 -20 -11 -14 15
5 23 4 26 -7 16 -16 -16 -29 -17 -29 -3 0 6 13 18 29 28 l29 17 -24 28 c-12
15 -25 23 -28 18 -10 -15 -66 -19 -66 -4 0 21 -14 15 -49 -21 -21 -21 -31 -41
-28 -50 3 -8 2 -18 -3 -21 -6 -4 -10 1 -10 9 0 26 -17 18 -40 -19 -12 -19 -27
-35 -33 -35 -8 0 -8 3 -2 8 6 4 16 21 23 37 10 22 10 27 1 18 -9 -10 -18 -7
-40 11 -15 13 -48 27 -74 30 -61 10 -74 -7 -75 -90 0 -48 6 -74 29 -118 l29
-57 26 33 c36 46 32 26 -10 -56 -19 -38 -32 -76 -29 -84 3 -9 0 -19 -7 -23 -8
-5 2 -21 36 -53 32 -30 47 -50 43 -60 -4 -9 -2 -16 4 -16 7 0 9 -10 5 -25 -5
-21 -3 -25 14 -25 17 0 19 -2 8 -14 -9 -9 -17 -11 -25 -5 -15 13 -26 -5 -18
-31 4 -11 11 -20 17 -20 5 0 8 7 4 15 -3 8 -1 15 5 15 5 0 14 -11 19 -25 10
-27 25 -33 33 -12 4 7 6 6 6 -5 1 -9 -5 -19 -11 -22 -9 -3 -7 -10 8 -23 37
-33 58 -73 45 -86 -8 -8 -11 -8 -12 1 -1 7 -3 17 -4 22 -1 6 -3 13 -4 16 0 3
-8 -2 -17 -11 -14 -14 -15 -18 -1 -33 8 -9 12 -22 10 -29 -8 -23 139 -243 222
-329 57 -60 85 -103 78 -120 -3 -8 -1 -14 4 -14 5 0 10 -15 11 -32 2 -18 9
-36 17 -40 11 -7 11 -13 -2 -39 -20 -40 -13 -180 14 -269 24 -80 102 -242 112
-235 5 2 14 19 21 37 6 18 16 42 21 53 4 11 21 52 37 90 22 54 33 69 47 67 14
-3 17 2 13 22 -3 14 -2 24 1 21 9 -5 24 6 38 30 6 11 16 19 22 17 6 -1 11 2
11 7 0 5 3 18 7 28 6 16 5 16 -10 4 -31 -25 -28 -5 3 22 16 15 30 32 30 39 0
6 3 8 6 5 4 -3 -8 -54 -27 -113 -26 -82 -35 -102 -39 -83 -6 24 -6 24 -20 -8
-8 -17 -18 -29 -24 -26 -5 3 -6 1 -2 -5 4 -6 2 -21 -4 -32 -15 -28 -4 -25 25
6 22 24 22 21 -9 -58 -19 -46 -57 -129 -85 -186 -28 -56 -51 -106 -51 -112 0
-5 -9 -14 -19 -20 -19 -9 -48 -76 -38 -86 5 -5 70 103 111 183 14 29 34 56 43
62 10 6 13 11 6 11 -8 0 -1 23 17 63 17 34 30 68 30 75 0 6 5 12 11 12 5 0 8
4 4 9 -8 15 65 133 86 138 10 3 16 10 12 16 -4 6 0 8 10 4 13 -5 17 -1 18 16
1 18 2 19 6 4 3 -10 11 -16 18 -13 8 3 15 0 18 -7 2 -8 9 -6 21 6 21 21 40 18
45 -8 2 -13 -1 -16 -13 -12 -10 4 -16 1 -16 -8 0 -7 -8 -16 -19 -20 -10 -3
-27 -17 -37 -31 -11 -15 -34 -42 -51 -62 -32 -34 -43 -62 -24 -62 16 0 22 18
9 24 -7 3 -4 5 7 3 12 -1 21 -11 23 -26 3 -16 9 -22 22 -18 14 3 16 0 12 -17
-5 -19 -4 -20 14 -6 10 8 29 21 42 28 21 12 22 11 22 -25 -1 -31 -3 -35 -11
-20 -12 21 -29 22 -29 2 0 -8 -9 -15 -20 -15 -11 0 -20 -6 -20 -12 0 -7 -5 -5
-11 5 -13 23 -25 22 -32 -3 -3 -11 -12 -20 -21 -20 -9 0 -16 -4 -16 -10 0 -14
23 -12 39 3 10 10 16 7 33 -15 15 -21 28 -28 55 -28 30 0 34 -3 31 -22 -4 -29
-34 -36 -41 -9 -3 15 -13 19 -36 19 -19 -1 -31 -6 -31 -15 0 -7 -4 -13 -10
-13 -5 0 -10 5 -10 10 0 6 -4 10 -10 10 -5 0 -10 -17 -10 -37 0 -26 -3 -34 -9
-24 -6 8 -19 12 -36 9 -19 -4 -25 -2 -21 8 6 16 -12 18 -48 4 -43 -16 -136
-120 -166 -185 -15 -34 -35 -67 -44 -74 -13 -11 -16 -34 -16 -117 0 -58 4
-112 9 -122 5 -9 14 -44 21 -77 6 -33 19 -89 27 -125 21 -89 27 -1157 6 -1207
-7 -17 -17 -76 -23 -130 -6 -54 -15 -138 -21 -188 -14 -117 -66 -440 -79 -485
-14 -52 -21 -180 -9 -180 6 0 7 5 4 11 -8 12 26 40 39 32 5 -4 1 -12 -9 -20
-12 -8 -14 -13 -6 -13 9 0 4 -12 -12 -33 -27 -36 -42 -110 -52 -267 -15 -224
-28 -348 -51 -495 -29 -187 -46 -252 -89 -355 -55 -127 -209 -432 -257 -505
-25 -39 -63 -101 -85 -140 -22 -38 -62 -108 -89 -155 -26 -47 -56 -91 -66 -98
-26 -19 -22 -61 8 -88 14 -13 29 -24 33 -24 5 0 11 -7 15 -15 3 -8 12 -12 21
-9 10 4 15 0 15 -12 1 -11 21 -35 46 -54 25 -19 62 -50 82 -68 43 -38 178
-129 242 -164 81 -44 125 -70 149 -89 13 -11 30 -19 37 -19 7 0 17 -7 22 -17
5 -9 20 -17 33 -18 13 -1 24 -8 24 -15 0 -7 20 -24 45 -36 l45 -23 -35 1 c-19
1 -96 -4 -170 -10 -74 -6 -171 -12 -215 -13 -44 -1 -83 -6 -86 -11 -4 -7 -13
-7 -25 0 -13 7 -95 6 -254 -4 -129 -7 -236 -13 -237 -14 -1 0 0 -6 3 -14 4
-10 -3 -13 -25 -10 -22 3 -31 -1 -31 -11 0 -8 -18 -26 -40 -40 -23 -14 -44
-33 -47 -41 -4 -11 -13 -14 -31 -9 -22 5 -24 4 -13 -8 7 -10 29 -15 56 -15 47
1 79 -17 71 -39 -3 -8 1 -33 9 -56 10 -30 11 -43 3 -48 -15 -9 7 -39 28 -39 8
0 14 -6 14 -12 0 -9 4 -8 11 2 8 11 12 12 16 3 5 -14 33 -18 33 -5 0 11 76 9
87 -1 4 -5 8 -14 8 -20 0 -7 15 -12 33 -12 19 0 32 -5 32 -12 0 -7 5 -13 10
-13 6 0 10 4 10 8 0 5 10 14 23 20 12 6 16 11 10 11 -7 1 -13 8 -13 16 0 10
10 15 29 15 17 0 33 5 36 10 4 7 13 7 26 0 24 -14 25 -34 0 -27 -11 2 -25 -3
-35 -14 -21 -25 -21 -43 0 -35 12 4 15 2 10 -9 -4 -10 1 -15 15 -15 11 0 30
-5 41 -11 15 -8 22 -8 28 1 5 9 9 9 14 1 4 -6 16 -11 27 -11 11 0 17 -5 14
-10 -4 -6 8 -10 29 -10 19 0 37 -4 40 -9 3 -5 58 -14 121 -21 107 -12 133 -21
103 -33 -7 -3 6 -6 29 -6 23 -1 45 -5 48 -11 8 -13 55 -13 55 0 0 6 7 10 15
10 8 0 15 -9 15 -20 0 -13 7 -20 20 -20 11 0 20 -5 20 -10 0 -6 18 -17 39 -26
22 -8 41 -24 44 -35 3 -10 2 -19 -3 -19 -4 0 -10 -6 -13 -14 -5 -12 0 -12 26
-5 41 12 40 12 33 -6 -4 -12 2 -15 27 -13 17 1 35 6 38 11 4 6 14 5 25 -2 11
-6 15 -11 10 -11 -5 0 -3 -7 4 -15 8 -9 22 -12 41 -8 29 5 42 -10 17 -20 -9
-3 -7 -7 6 -12 11 -5 21 -3 28 6 7 10 8 9 4 -7 -8 -27 21 -84 42 -85 9 -1 32
-3 50 -5 18 -2 31 -1 29 4 -3 4 1 13 9 20 8 7 14 10 14 8 0 -3 11 -1 24 4 25
9 76 -13 198 -83 179 -104 206 -111 433 -111 195 0 269 10 595 81 91 20 172
37 180 38 33 3 92 28 83 34 -15 10 -9 30 15 46 36 26 15 37 -28 15 -41 -21
-145 -50 -250 -69 -36 -7 -117 -28 -180 -46 -229 -67 -543 -94 -644 -56 -33
13 -79 58 -71 70 4 7 0 8 -11 4 -14 -5 -15 -3 -4 18 13 23 12 23 -5 9 -17 -14
-18 -13 -12 3 4 9 2 17 -4 17 -6 0 -9 6 -6 14 3 7 -1 23 -8 34 -8 10 -12 22
-9 25 9 9 -27 66 -72 113 -39 42 -64 58 -48 32 4 -7 3 -8 -4 -4 -6 4 -8 14 -5
23 4 11 3 14 -5 9 -8 -5 -12 2 -12 19 0 19 -5 25 -17 23 -10 -2 -17 3 -15 10
1 6 -1 11 -6 10 -4 -2 -24 14 -45 34 -21 21 -42 38 -47 38 -4 0 -10 3 -12 8
-1 4 -22 22 -45 40 -28 22 -43 28 -46 20 -3 -8 -6 -6 -6 5 -1 17 -21 25 -21 7
0 -5 9 -78 19 -162 11 -84 21 -173 22 -198 3 -48 6 -46 -58 -38 -7 1 -9 7 -4
17 4 9 6 65 4 124 -3 87 -1 107 9 101 10 -6 10 -5 1 7 -6 8 -14 50 -17 94 -3
44 -5 83 -6 87 0 4 -20 21 -45 38 -27 19 -45 39 -45 50 0 11 -9 25 -20 32 -11
7 -20 20 -20 30 0 18 33 33 50 23 5 -3 10 -1 10 5 0 13 43 -16 118 -78 29 -25
56 -42 60 -38 4 4 -1 12 -10 17 -11 6 -17 20 -16 34 3 30 2 30 27 3 17 -17 23
-19 36 -8 20 17 19 1 -2 -22 -9 -10 -14 -21 -10 -24 7 -7 69 61 79 87 4 11 12
19 17 19 6 0 36 -34 67 -75 31 -41 59 -75 61 -75 3 0 3 9 0 20 -6 24 -4 24 33
5 17 -9 30 -13 30 -10 0 3 9 1 21 -5 17 -10 21 -8 26 9 3 13 11 18 21 14 15
-4 15 -3 -1 10 -9 8 -16 25 -15 38 3 26 -11 29 -65 16 -26 -7 -29 -4 -48 38
-11 25 -22 45 -25 45 -2 0 -9 -10 -14 -22 -9 -23 -9 -23 -10 2 0 20 -2 22 -11
10 -8 -11 -9 -8 -4 14 3 17 15 42 26 57 19 26 88 69 112 69 7 0 23 7 36 16 16
12 20 19 12 27 -28 28 3 50 38 28 11 -7 12 -13 4 -23 -8 -11 -10 -44 -4 -81 0
-5 9 -6 19 -3 17 6 18 0 14 -56 -3 -39 -11 -70 -21 -81 -15 -17 -14 -20 2 -32
21 -15 22 -25 2 -25 -8 0 -15 -7 -15 -16 0 -10 6 -14 15 -10 8 3 15 1 15 -4 0
-5 7 -7 15 -4 21 9 45 -14 45 -42 0 -17 6 -24 19 -24 11 0 23 -5 27 -12 11
-18 13 -98 3 -98 -5 0 -9 -7 -9 -15 0 -12 5 -13 26 -5 21 9 29 7 40 -7 15 -21
17 -27 14 -65 -1 -18 3 -28 13 -28 8 0 22 -9 32 -20 10 -11 13 -20 7 -20 -7 0
-12 -11 -12 -25 0 -14 5 -25 10 -25 6 0 10 5 10 11 0 6 10 9 23 8 30 -3 77 21
105 54 13 15 28 24 33 21 6 -3 16 0 24 6 12 10 15 9 15 -4 0 -10 5 -14 10 -11
6 4 9 25 8 48 -2 30 1 41 10 39 16 -3 -13 46 -40 68 -40 34 -148 221 -148 257
0 9 -8 23 -18 32 -11 9 -22 29 -26 46 -4 16 -14 37 -23 45 -14 15 -39 60 -86
155 -13 28 -36 97 -50 155 -15 58 -43 152 -63 210 -20 58 -42 143 -49 190 -7
47 -22 132 -34 190 -64 313 -87 688 -56 925 9 62 15 192 15 297 0 106 5 199
11 214 19 51 29 177 20 264 -4 47 -9 76 -10 64 -1 -22 -30 -54 -49 -54 -6 0
-30 -18 -54 -41 -46 -44 -78 -65 -78 -52 0 5 9 17 21 27 13 11 19 25 16 37 -3
10 -1 22 4 25 5 3 9 14 9 26 0 11 8 22 20 25 21 6 28 47 10 58 -6 4 -1 15 12
26 13 12 17 18 11 14 -7 -3 -13 -2 -13 3 0 6 7 12 15 16 10 3 15 -1 15 -12 0
-9 9 -23 19 -29 17 -11 21 -9 26 8 11 33 -25 76 -58 70 -5 -1 -22 -3 -39 -5
-29 -4 -48 -19 -48 -41 0 -17 -39 -45 -45 -34 -10 15 -25 0 -18 -18 4 -11 3
-14 -5 -9 -7 4 -12 2 -12 -6 -1 -9 -4 -8 -13 3 -10 13 -25 16 -70 12 -50 -3
-56 -2 -46 10 8 8 21 12 31 9 14 -3 17 0 12 12 -4 10 -13 14 -24 11 -14 -4
-17 0 -17 20 0 18 4 25 13 21 9 -3 14 1 14 12 0 31 73 72 128 72 12 0 22 4 22
10 0 5 7 7 15 4 8 -3 22 1 30 10 9 9 29 16 44 16 35 0 126 -31 115 -39 -14
-10 -16 -32 -9 -113 4 -43 11 -78 17 -78 5 0 18 20 29 45 61 142 61 142 69
115 5 -16 8 -19 9 -7 1 21 21 23 21 1 0 -8 6 -21 13 -27 34 -31 109 -67 141
-67 11 0 32 -6 46 -13 14 -7 48 -19 75 -26 28 -7 59 -17 70 -21 67 -28 169
-16 191 23 19 32 84 56 142 51 63 -5 80 -14 139 -75 23 -24 51 -53 63 -64 58
-56 95 -95 133 -139 23 -28 51 -60 62 -71 35 -38 65 -84 65 -99 0 -24 11 -46
24 -46 6 0 19 -20 29 -45 11 -26 23 -42 30 -38 6 4 8 -2 4 -17 -3 -13 -2 -29
3 -35 6 -7 19 -50 31 -96 11 -46 24 -90 29 -99 9 -16 20 -67 70 -306 16 -78
38 -179 49 -225 11 -46 32 -133 46 -194 14 -60 37 -147 51 -193 l25 -82 -21
-108 c-11 -59 -24 -143 -30 -187 -11 -91 -16 -302 -6 -312 3 -3 7 11 8 33 0
21 3 50 5 64 2 14 5 36 6 50 2 14 9 35 15 47 7 12 12 27 12 33 0 7 6 26 14 43
8 18 19 46 25 62 11 30 11 30 7 -8 -3 -20 -3 -37 -2 -37 2 0 11 21 21 47 10
26 36 64 58 86 l39 39 -6 76 c-3 42 -9 109 -12 147 -3 39 -9 71 -13 73 -5 1
-5 22 0 45 4 23 11 68 14 100 4 31 10 55 15 52 5 -3 20 -58 35 -123 14 -64 30
-130 35 -146 6 -17 6 -32 2 -35 -4 -4 -8 -45 -10 -93 -2 -79 0 -88 18 -98 19
-10 39 -44 46 -78 1 -7 10 -24 18 -38 20 -29 17 -30 -28 -4 -19 12 -37 17 -40
12 -3 -5 -4 -61 -1 -123 2 -71 0 -118 -7 -126 -12 -15 5 -64 30 -86 32 -27
112 -38 120 -16 2 5 12 9 22 9 29 0 32 29 8 68 -19 30 -22 51 -23 133 0 54 3
92 7 86 4 -7 8 -20 8 -30 0 -9 4 -25 9 -35 22 -42 69 -183 78 -232 2 -14 8
-41 14 -60 17 -58 21 -93 11 -86 -5 3 -12 25 -16 48 -9 59 -26 108 -37 108 -5
0 -9 -7 -9 -16 0 -8 -7 -22 -15 -30 -8 -9 -15 -11 -15 -5 0 16 -26 13 -40 -4
-15 -18 -37 -20 -43 -2 -2 6 -3 4 -2 -5 4 -22 -48 -40 -94 -32 -26 4 -32 3
-21 -5 12 -8 9 -12 -13 -20 -15 -6 -27 -15 -27 -21 0 -8 -6 -8 -20 0 -11 6
-20 17 -20 25 0 7 -12 16 -27 18 -24 3 -23 4 7 6 27 1 31 4 20 11 -8 5 -27 10
-41 10 -14 0 -26 6 -27 13 -1 6 -6 48 -11 92 -4 44 -9 64 -9 44 -2 -25 -11
-47 -30 -67 -25 -27 -29 -28 -40 -14 -10 15 -11 14 -11 -5 -1 -13 -5 -23 -11
-23 -5 0 -10 -6 -10 -14 0 -10 -29 -16 -107 -25 -60 -6 -133 -16 -163 -22 -59
-12 -118 -38 -88 -39 9 0 20 5 23 10 3 6 15 10 26 10 16 0 18 -3 9 -19 -15
-28 -15 -28 38 -36 26 -4 41 -10 34 -12 -10 -4 -10 -8 -1 -19 9 -11 8 -14 -5
-14 -27 0 -18 -27 11 -35 21 -5 24 -8 12 -16 -11 -8 -9 -14 14 -34 15 -13 27
-29 27 -35 0 -5 -12 -10 -27 -11 -16 0 -21 -3 -13 -6 49 -16 83 -37 87 -54 3
-10 11 -19 18 -19 22 0 45 -36 45 -73 0 -35 1 -37 53 -51 28 -9 73 -20 100
-27 26 -6 50 -15 53 -20 3 -5 21 -9 40 -9 24 0 34 4 34 16 0 8 5 12 10 9 6 -4
10 9 10 32 0 28 3 34 10 23 18 -28 9 188 -12 269 -1 7 2 15 8 18 7 2 14 -29
18 -93 4 -53 14 -140 22 -192 16 -112 18 -162 4 -162 -5 0 -13 12 -16 26 -5
19 -9 23 -18 14 -8 -8 -7 -14 4 -21 13 -9 13 -10 0 -6 -8 2 -17 15 -20 29 -4
22 -8 24 -27 17 -22 -8 -32 -29 -15 -29 5 0 15 -16 22 -36 17 -42 36 -54 85
-54 31 0 36 3 42 30 3 17 9 30 14 30 5 0 9 9 9 20 0 17 7 20 41 20 24 0 38 4
34 10 -8 13 8 13 21 0 5 -5 34 -6 66 -3 42 4 58 10 61 23 3 10 14 18 28 18 59
0 275 63 314 91 47 33 118 142 101 153 -8 6 -7 8 2 8 14 0 17 36 3 44 -5 3
-16 -14 -24 -38 -8 -24 -28 -61 -44 -83 -22 -31 -31 -37 -40 -28 -7 7 -9 15
-7 18 3 3 1 14 -5 26 -6 11 -13 52 -15 90 -3 58 -8 74 -30 97 -23 25 -24 30
-11 44 8 9 15 21 15 27 0 6 12 9 26 7 15 -1 28 4 31 13 5 12 7 12 14 1 7 -10
9 -8 9 6 0 14 5 17 24 12 15 -4 31 1 46 14 13 11 27 20 31 20 4 0 11 9 14 20
4 11 10 18 15 15 14 -9 20 24 8 50 -9 20 -14 22 -25 13 -20 -16 -29 -1 -11 19
28 33 28 55 3 167 -14 61 -33 143 -41 181 -8 39 -30 140 -50 225 -20 85 -45
191 -55 235 -10 44 -27 116 -39 160 -12 44 -27 105 -35 135 -7 30 -25 100 -40
155 -15 55 -31 119 -35 142 -5 24 -34 143 -64 265 -30 123 -66 275 -81 338
-26 108 -44 162 -45 133 0 -25 -20 -12 -20 13 0 16 -4 23 -12 18 -7 -4 -8 -3
-4 4 9 14 -3 62 -16 62 -5 0 -6 -4 -3 -10 11 -18 -14 -11 -35 10 -24 24 -52
27 -43 4 5 -14 3 -14 -15 -3 -11 7 -24 24 -27 38 -4 17 -9 21 -14 12 -11 -18
-74 56 -68 80 3 10 -1 26 -9 36 -13 17 -13 17 -14 0 0 -14 -3 -15 -19 -5 -19
11 -34 45 -36 78 0 8 -6 25 -13 37 -6 12 -9 29 -6 37 4 11 0 16 -11 16 -13 0
-16 6 -11 24 3 14 2 28 -4 31 -6 3 -7 17 -4 30 3 13 -1 38 -9 55 -10 20 -12
30 -4 30 6 0 2 7 -9 15 -14 11 -16 15 -4 15 12 1 12 3 -2 14 -10 7 -18 16 -18
20 0 3 8 7 18 7 9 1 4 5 -13 9 -16 4 -22 8 -12 9 19 1 25 45 7 56 -6 4 -8 10
-5 15 3 5 -3 24 -14 43 -11 19 -18 37 -16 39 2 2 -9 12 -25 23 -18 12 -31 31
-35 51 -3 17 -19 50 -35 73 -17 22 -30 45 -30 51 0 14 -20 49 -48 84 -18 23
-20 31 -10 38 9 5 5 7 -12 6 -18 -2 -25 2 -25 15 0 10 -7 22 -15 27 -22 14 -4
23 27 15 33 -10 86 -5 99 8 9 8 -46 55 -74 63 -12 4 -27 15 -33 25 -5 11 -16
19 -25 19 -17 0 -58 25 -94 57 -14 13 -29 23 -33 23 -14 0 -77 52 -77 62 0 7
13 8 33 3 17 -4 38 -7 45 -8 6 0 12 -4 12 -9 0 -4 9 -8 20 -8 11 0 51 -16 89
-35 37 -19 73 -35 79 -35 6 0 12 -6 15 -12 2 -7 8 -10 12 -6 15 14 -53 73
-134 117 -14 8 -50 32 -80 54 -49 36 -98 66 -221 135 -25 13 -52 31 -61 38 -8
8 -21 14 -27 14 -6 0 -16 9 -22 19 -9 17 -7 18 18 10 15 -5 61 -18 102 -30 41
-12 80 -25 85 -30 6 -4 17 -4 24 1 19 11 -10 40 -67 69 -37 19 -94 55 -212
136 -19 13 -44 31 -54 41 -18 17 -19 17 -1 31 11 7 26 11 34 9 67 -19 81 -18
81 4 0 15 -11 25 -37 36 -62 24 -85 38 -116 67 -16 15 -32 27 -37 27 -4 0 -15
9 -24 19 -14 15 -16 29 -11 60 5 33 3 41 -14 50 -16 9 -19 18 -14 45 5 30 0
42 -38 88 -24 29 -51 59 -59 66 -13 11 -10 12 20 7 19 -3 70 -8 113 -12 93 -7
98 3 37 66 -22 22 -40 50 -40 60 0 11 -4 23 -10 26 -5 3 -10 -2 -10 -12 -1
-16 -2 -16 -12 2 -7 11 -20 41 -29 68 l-16 47 24 -15 23 -16 -7 43 c-10 51
-10 104 -1 353 3 105 3 208 -2 230 -4 22 -9 33 -10 25 -3 -21 -18 29 -18 60
l0 25 8 -25 c6 -19 7 -13 5 20 -5 58 -5 58 -15 35 -8 -18 -9 -18 -9 -2 -1 22
26 34 42 18 6 -6 19 -11 29 -11 9 0 33 -13 51 -30 42 -36 66 -38 96 -7 12 13
44 34 71 47 42 20 54 32 73 74 38 82 40 102 18 170 -10 33 -22 72 -25 86 -6
25 -60 60 -92 60 -8 0 -13 4 -9 9 8 14 -25 43 -41 37 -8 -3 -14 -1 -14 3 0 5
-12 14 -27 19 -27 10 -26 10 15 11 23 1 42 -3 42 -9 0 -5 5 -10 11 -10 6 0 9
7 5 15 -3 8 -1 15 4 15 17 0 11 32 -7 46 -18 13 -73 19 -73 8 0 -3 4 -14 10
-24 9 -16 3 -18 -56 -25 -77 -8 -98 -1 -25 9 47 6 82 26 47 26 -9 0 -16 5 -16
11 0 5 4 7 10 4 6 -4 9 4 7 17 -1 18 5 25 31 33 24 7 32 15 32 32 0 13 4 23 8
23 4 0 15 13 25 29 13 22 17 48 15 98 -2 83 8 165 23 174 8 5 8 8 0 13 -26 17
-10 28 30 22 38 -6 46 -3 94 33 50 38 75 74 61 88 -3 4 -6 -1 -6 -10 0 -30
-18 -18 -25 16 -4 17 -15 43 -25 57 -9 14 -16 30 -14 35 5 12 -92 51 -151 61
-22 4 -43 11 -46 17 -4 5 -15 -5 -25 -22 -22 -37 -40 -40 -46 -6 -3 13 -1 22
3 19 5 -3 9 2 9 10 0 9 -9 16 -20 16 -11 0 -19 3 -18 8 4 13 -35 102 -44 102
-6 0 -7 7 -4 16 3 8 2 13 -3 10 -5 -3 -12 14 -15 39 -4 24 -11 47 -17 50 -5 4
-9 15 -9 26 0 10 -4 19 -10 19 -5 0 -9 10 -8 23 2 32 -32 127 -46 127 -6 0 -4
5 4 10 13 8 12 10 -3 10 -10 0 -27 9 -39 20 -22 21 -46 17 -28 -5 7 -9 6 -16
-5 -25 -13 -10 -19 -10 -33 4 -10 9 -23 16 -28 16 -5 0 -2 -5 6 -11 12 -8 11
-9 -7 -7 -12 2 -23 -1 -24 -7 -3 -16 -73 -46 -78 -32 -2 6 1 13 7 15 8 2 9 9
2 22 -10 19 10 82 30 95 5 3 10 17 10 31 0 13 5 24 10 24 6 0 10 6 10 14 0 8
3 16 8 18 4 2 18 24 31 50 l24 48 -38 46 c-40 49 -121 113 -143 114 -7 0 -23
7 -35 14 -38 26 -59 14 -97 -57 -31 -57 -37 -63 -47 -49 -11 15 -12 15 -12 -5
-1 -28 -17 -30 -24 -3 -3 13 -10 18 -21 14 -9 -3 -16 -2 -16 4 0 5 7 12 15 16
8 3 15 17 15 31 0 21 -5 25 -32 26 -18 1 -38 1 -44 0 -7 -1 -11 10 -10 24 1
21 3 23 12 10 13 -17 69 -21 79 -5 15 25 24 6 19 -42 -3 -38 -2 -49 5 -38 6 8
11 23 11 32 0 11 5 15 15 12 20 -8 19 -31 -1 -42 -11 -6 -13 -12 -6 -16 6 -4
18 7 27 24 16 30 15 31 -15 61 -19 19 -36 29 -46 25 -20 -8 -84 22 -84 39 0 8
7 21 16 29 19 19 9 39 -16 31 -14 -5 -20 1 -25 26 -4 18 -3 35 4 42 13 13 -4
47 -23 47 -8 0 -19 -14 -26 -31z m91 -407 c9 -1 22 5 29 13 16 19 30 19 30 0
0 -18 12 -19 27 -4 12 12 106 2 98 -11 -3 -5 -1 -11 5 -15 14 -9 12 -27 -2
-23 -7 3 -19 -1 -26 -9 -11 -11 -18 -10 -42 2 -34 18 -72 19 -87 4 -13 -13
-83 -4 -108 14 -22 17 -9 50 16 42 13 -4 21 0 26 12 7 17 7 17 13 -2 3 -11 12
-21 21 -23z m431 -674 c-5 -22 -5 -22 21 -5 36 24 47 22 34 -7 -6 -13 -17 -22
-23 -19 -6 2 -14 -5 -17 -16 -7 -28 -25 -27 -36 2 -8 20 -9 19 -9 -8 1 -55
-11 -78 -39 -72 -19 3 -27 0 -30 -14 -3 -11 -10 -19 -15 -19 -5 0 -6 5 -2 11
9 16 -18 31 -28 16 -14 -21 -6 77 9 111 14 31 38 47 27 17 -4 -8 -1 -15 5 -15
6 0 11 5 11 11 0 6 6 9 14 6 8 -3 17 -1 20 6 5 9 7 9 12 0 4 -10 9 -9 21 2 21
22 32 18 25 -7z m-610 -821 c6 -29 -20 -57 -33 -36 -8 12 -11 11 -20 -3 -8
-15 -13 -16 -30 -5 -17 10 -22 9 -30 -6 -6 -9 -15 -14 -21 -11 -7 5 -9 1 -5
-9 3 -9 1 -19 -5 -23 -7 -4 -6 -9 3 -15 25 -15 36 -10 34 16 -2 15 2 25 10 25
8 0 11 -7 8 -19 -6 -23 13 -37 30 -22 8 6 18 6 27 1 9 -5 19 -5 27 2 8 6 13 6
13 1 0 -5 17 -15 38 -21 21 -7 59 -25 83 -42 24 -16 49 -30 56 -30 7 0 22 -13
34 -30 26 -35 49 -46 61 -28 6 10 8 9 8 -4 0 -9 5 -20 11 -24 8 -4 9 4 5 27
l-6 34 14 -30 c12 -26 12 -31 0 -38 -8 -4 -14 -13 -14 -19 0 -7 5 -7 14 1 11
10 16 8 21 -8 3 -12 11 -21 16 -21 5 0 9 -4 9 -9 0 -5 -11 -8 -25 -7 -14 0
-25 6 -25 12 0 6 -7 17 -15 24 -12 10 -15 10 -16 -1 0 -10 -2 -11 -6 -2 -2 7
-22 23 -44 35 -21 12 -39 27 -39 34 0 13 -65 29 -80 19 -6 -3 -10 1 -10 9 0 9
-9 16 -20 16 -11 0 -20 -7 -20 -16 0 -8 5 -12 10 -9 6 3 17 0 24 -8 13 -12 11
-16 -10 -26 -31 -14 -26 -21 36 -62 28 -18 50 -36 50 -41 0 -4 5 -8 11 -8 5 0
7 6 3 13 -4 6 10 -6 32 -29 80 -84 154 -194 130 -194 -7 0 -22 14 -34 30 -22
29 -52 41 -52 20 0 -10 -48 15 -60 31 -10 13 -70 21 -70 10 0 -6 6 -11 13 -11
8 0 22 -9 32 -20 10 -11 24 -20 30 -20 7 0 18 -7 25 -15 7 -8 19 -15 27 -15
16 0 44 -31 77 -84 l20 -31 -25 23 c-14 12 -29 22 -35 22 -5 1 -25 14 -44 30
-19 17 -41 30 -49 30 -17 0 -127 37 -161 55 -31 16 -88 26 -171 29 -78 2 -89
8 -89 49 0 24 -3 28 -10 17 -5 -8 -10 -10 -10 -4 0 15 20 31 45 36 20 3 29 33
10 33 -5 1 -20 6 -33 13 -12 7 -27 10 -32 7 -6 -3 -10 -2 -10 3 0 12 29 36 63
50 15 6 27 18 27 26 0 18 -35 27 -50 12 -17 -16 -2 81 18 116 14 24 14 29 -1
51 -16 25 -16 25 17 41 19 9 38 16 43 16 4 0 21 7 37 15 16 9 38 13 49 9 13
-4 17 -2 13 5 -10 16 2 31 23 31 12 0 20 -9 23 -23z m-145 -558 c32 6 46 5 54
-5 6 -8 15 -11 20 -9 10 7 100 -15 114 -26 14 -13 55 -11 56 4 0 10 2 10 6 0
2 -7 13 -13 23 -13 10 0 22 -5 25 -10 4 -6 10 -8 15 -5 4 3 11 -2 14 -11 3 -8
10 -12 16 -9 5 3 10 -3 10 -15 0 -17 -4 -19 -32 -15 -18 4 -36 11 -40 18 -6 9
-8 9 -8 -1 0 -9 -12 -7 -42 10 -24 13 -46 27 -49 32 -4 4 -9 4 -13 -2 -7 -12
-58 -3 -68 12 -6 8 -8 8 -8 0 0 -12 -79 -11 -135 1 -16 3 -38 6 -47 6 -10 0
-18 7 -18 15 0 8 9 14 20 14 12 0 20 7 20 17 0 15 1 16 13 1 10 -14 20 -15 54
-9z m123 -93 c14 -2 45 -11 69 -20 24 -9 51 -16 61 -16 10 0 20 -6 23 -14 3
-8 24 -17 47 -21 25 -4 39 -12 37 -18 -3 -7 -10 -11 -16 -9 -6 1 -11 -3 -11
-9 0 -8 -4 -8 -12 -1 -7 5 -27 8 -45 6 -21 -2 -33 1 -37 11 -6 18 -32 20 -42
4 -8 -13 44 -58 68 -59 9 0 19 -4 23 -9 3 -6 13 -9 23 -9 34 1 71 -22 88 -54
15 -28 18 -30 24 -14 5 17 8 16 24 -9 18 -28 14 -47 -6 -27 -16 16 -28 15 -28
-3 0 -8 5 -15 10 -15 6 0 14 -8 17 -17 11 -27 35 -52 47 -47 6 2 16 -7 23 -21
13 -29 13 -29 -23 -10 -33 17 -64 20 -64 5 0 -5 10 -12 23 -15 13 -4 32 -22
42 -42 11 -19 21 -30 23 -23 3 7 -2 16 -9 21 -7 4 -11 11 -7 14 14 15 39 -47
47 -114 7 -65 -1 -93 -15 -56 -8 20 -43 19 -51 -1 -5 -14 26 -54 44 -54 14 -1
60 -54 67 -77 6 -18 3 -20 -12 -16 -11 2 -23 0 -26 -6 -9 -14 -56 -15 -56 -1
0 6 -9 10 -19 10 -11 0 -21 6 -24 13 -2 6 -8 8 -13 4 -4 -4 -3 -17 4 -27 7
-11 12 -28 12 -37 0 -10 9 -24 20 -31 11 -7 20 -21 20 -31 0 -10 8 -21 18 -23
15 -4 22 -21 49 -120 5 -22 -5 -23 -26 -4 -26 22 -61 30 -61 13 0 -9 -5 -17
-10 -19 -6 -2 -13 -21 -17 -43 -3 -22 -11 -43 -17 -47 -8 -5 -8 -13 1 -26 8
-13 8 -23 1 -30 -5 -5 -10 -42 -9 -80 0 -39 -3 -73 -7 -76 -5 -3 -7 -35 -6
-73 3 -76 -2 -103 -19 -103 -15 0 -21 -96 -7 -105 17 -11 11 -102 -11 -170
-12 -36 -25 -65 -28 -65 -4 0 -5 -34 -4 -75 2 -69 1 -75 -17 -75 -15 0 -20 -7
-21 -27 -3 -91 0 -165 10 -218 8 -40 8 -61 1 -63 -13 -5 -13 -82 0 -82 6 0 4
-15 -5 -37 -9 -20 -12 -39 -7 -42 24 -16 22 -166 -3 -297 -5 -22 -35 -29 -35
-8 0 7 -8 10 -20 7 -11 -3 -20 0 -20 6 0 6 -7 11 -15 11 -8 0 -15 -5 -15 -10
0 -7 -6 -7 -19 0 -11 5 -29 10 -40 10 -12 0 -26 9 -33 19 -11 18 -13 18 -24 3
-10 -14 -12 -14 -18 5 -8 24 -46 21 -46 -3 0 -21 -18 -17 -25 5 -7 22 -45 59
-45 43 0 -6 7 -18 16 -27 15 -15 14 -15 -10 -9 -16 4 -26 2 -26 -5 0 -6 -14
-11 -31 -11 -24 0 -30 -4 -25 -15 3 -8 2 -15 -2 -16 -4 0 -28 -3 -54 -5 -43
-5 -47 -3 -50 18 -2 13 0 38 3 57 6 28 4 37 -14 52 -17 15 -18 18 -4 13 13 -5
16 -2 11 10 -3 9 -1 23 6 31 9 10 9 15 1 15 -6 0 -11 7 -11 15 0 8 8 15 18 15
11 0 18 8 19 20 2 23 -7 26 -25 8 -17 -17 -15 3 3 38 8 16 15 39 15 52 0 15 8
26 25 32 19 7 25 17 26 42 1 18 3 25 6 16 2 -10 8 -18 13 -18 5 0 7 7 4 15 -4
10 -2 13 8 10 23 -9 178 -11 178 -2 0 4 -4 7 -10 7 -5 0 -10 13 -10 29 0 17
-4 33 -10 36 -5 3 -10 18 -10 32 0 16 -7 27 -20 30 -22 6 -27 29 -8 35 8 3 4
12 -10 26 -15 15 -22 37 -25 74 -3 41 -5 48 -11 31 -5 -13 -12 -23 -17 -23
-14 0 -11 24 6 46 18 24 19 34 1 34 -22 0 -29 19 -15 36 9 11 10 17 1 23 -6 3
-10 20 -8 36 3 24 9 31 32 36 l29 7 -27 1 c-28 1 -37 14 -18 26 5 3 7 12 3 20
-3 8 0 15 6 15 6 0 8 7 4 16 -5 13 -2 15 18 9 21 -6 22 -5 8 6 -22 19 -30 47
-16 53 7 2 3 5 -8 5 -17 1 -17 3 -5 11 13 8 12 10 -2 10 -22 0 -25 48 -5 56 8
3 14 11 14 19 0 18 -14 20 -20 3 -2 -7 -10 7 -17 32 -10 38 -13 42 -22 25 -8
-13 -7 -24 1 -36 6 -11 11 -22 11 -26 0 -5 -4 -2 -9 6 -10 16 -31 6 -31 -15 0
-17 -20 -19 -20 -1 -1 6 -7 -1 -15 -18 -7 -16 -14 -26 -14 -21 -1 6 -7 1 -15
-10 -12 -15 -17 -17 -27 -6 -11 10 -10 12 3 12 10 0 19 15 27 44 11 43 47 116
58 116 3 0 3 -10 0 -22 -6 -20 -5 -20 11 -5 13 13 13 20 4 29 -7 7 -12 21 -11
33 0 12 3 15 6 6 5 -11 7 -11 14 0 6 10 9 11 9 2 0 -7 11 -13 25 -13 23 0 29
8 23 27 -2 4 -14 7 -28 5 -23 -1 -23 -1 5 11 29 12 49 57 25 57 -6 0 -8 5 -5
10 4 6 11 7 17 4 7 -5 9 2 6 20 -3 14 -1 29 4 32 4 3 6 10 2 15 -4 6 -11 6
-20 -2 -11 -9 -14 -8 -14 5 0 9 7 19 15 23 11 4 14 14 11 32 -12 68 -20 97
-29 102 -9 6 18 52 51 87 20 22 12 87 -10 86 -22 -2 -22 0 -3 19 22 23 30 67
12 67 -9 0 -19 5 -23 12 -4 7 -3 8 5 4 6 -4 14 0 18 9 3 10 0 21 -8 26 -11 7
-11 9 3 9 22 0 34 42 19 67 -10 17 -10 17 -11 -2 0 -11 -5 -27 -10 -35 -8 -11
-10 0 -10 40 1 30 -1 72 -4 93 -3 23 -1 35 4 32 13 -8 13 1 0 26 -9 15 -7 19
7 19 15 0 16 2 3 10 -13 8 -12 11 4 23 18 14 17 55 -2 43 -4 -2 -14 -1 -22 5
-10 6 -11 9 -2 9 6 0 12 7 12 15 0 9 6 12 16 8 14 -5 14 -3 3 15 -7 11 -18 18
-24 14 -5 -3 -5 1 2 9 6 8 13 25 16 39 4 25 4 25 12 3 10 -32 18 -29 31 11 9
28 7 38 -9 60 -22 30 -17 43 10 31 10 -5 24 -7 31 -6 8 1 19 -3 26 -8 7 -6 39
-15 72 -20 32 -5 70 -13 84 -17 24 -7 24 -7 8 10 -21 20 -33 60 -23 75 3 6 -1
11 -9 11 -9 0 -16 6 -16 14 0 10 -11 14 -32 14 -54 -1 -103 9 -162 31 -65 24
-92 26 -100 9 -3 -7 -5 -4 -3 7 3 24 60 33 84 14 12 -11 17 -10 27 2 12 17 40
14 29 -3 -4 -7 2 -9 17 -5 12 3 34 1 49 -5 31 -12 101 -17 101 -7 0 3 -3 21
-6 38 -5 23 -12 31 -28 30 -11 0 -15 -3 -8 -6 6 -2 12 -11 12 -19 0 -10 -6
-11 -25 -4 -15 6 -26 6 -30 -1 -4 -5 -19 -1 -36 11 -16 12 -33 18 -39 15 -13
-8 -40 19 -40 39 0 16 36 16 140 2z m2465 -5838 c20 -21 22 -29 15 -68 -4 -24
-13 -46 -19 -48 -6 -2 -8 -8 -5 -14 10 -17 -115 2 -162 24 -48 22 -84 53 -84
72 0 23 24 35 101 54 83 21 117 16 154 -20z"/>
<path d="M3230 7265 c0 -13 34 -80 44 -87 7 -5 6 -8 -3 -8 -11 0 -11 -3 -1
-15 6 -8 9 -18 6 -23 -7 -11 15 -72 27 -72 4 0 3 10 -4 22 -10 18 -9 20 6 15
9 -4 24 -7 33 -7 13 0 13 -2 -3 -13 -25 -19 -10 -40 25 -34 15 3 32 1 37 -4
15 -15 22 1 16 34 -3 15 -12 27 -19 27 -8 0 -17 6 -20 14 -3 8 -13 12 -26 8
-20 -5 -20 -2 -14 50 7 55 7 55 -26 70 -45 21 -78 31 -78 23z"/>
</g>
</svg>
