<?xml version="1.0" standalone="no"?>
<!DOCTYPE svg PUBLIC "-//W3C//DTD SVG 20010904//EN"
 "http://www.w3.org/TR/2001/REC-SVG-20010904/DTD/svg10.dtd">
<svg version="1.0" xmlns="http://www.w3.org/2000/svg"
 width="750.000000pt" height="1125.000000pt" viewBox="0 0 750.000000 1125.000000"
 preserveAspectRatio="xMidYMid meet">
<metadata>
Created by potrace 1.16, written by Peter Selinger 2001-2019
</metadata>
<g transform="translate(0.000000,1125.000000) scale(0.100000,-0.100000)"
fill="#000000" stroke="none">
<path d="M4110 9191 c-87 -27 -149 -76 -254 -200 -183 -218 -459 -659 -615
-984 -123 -255 -309 -631 -349 -702 -98 -178 -189 -348 -233 -435 -27 -52 -60
-113 -73 -135 -14 -22 -41 -71 -62 -110 -20 -38 -55 -101 -78 -140 -22 -38
-57 -100 -76 -137 -49 -94 -150 -258 -214 -348 -30 -41 -93 -133 -142 -205
-225 -332 -379 -498 -719 -774 -125 -101 -271 -222 -310 -257 -16 -14 -75 -63
-130 -108 -110 -89 -340 -316 -477 -471 -115 -129 -143 -185 -143 -285 0 -71
3 -80 41 -140 l40 -65 56 -3 c30 -2 109 6 175 18 158 26 163 26 132 -3 -13
-13 -27 -22 -32 -20 -4 2 -7 0 -7 -4 0 -5 -10 -20 -22 -34 -13 -14 -29 -36
-37 -49 l-13 -23 79 6 c43 3 124 15 179 27 54 11 122 25 149 30 175 36 560
130 795 194 30 8 100 27 155 41 85 23 357 102 515 150 65 20 285 98 358 128
64 26 80 22 39 -10 -36 -28 -232 -248 -309 -348 -158 -202 -479 -713 -550
-875 -28 -65 -32 -86 -33 -160 0 -78 3 -92 34 -153 46 -90 66 -96 226 -67 63
11 128 20 145 20 32 0 40 -14 14 -28 -8 -5 -16 -16 -18 -25 -1 -9 -6 -20 -10
-24 -4 -4 -14 -23 -22 -42 -13 -30 -13 -37 0 -49 12 -13 29 -13 108 -4 93 10
429 89 673 157 72 20 144 40 160 45 17 4 104 28 195 54 91 26 208 58 260 72
52 15 154 44 225 66 72 22 175 53 230 70 150 45 437 137 460 148 11 5 43 16
70 24 250 72 660 254 844 375 97 63 211 169 211 195 0 15 -3 16 -15 6 -26 -21
-16 -2 13 27 95 94 170 216 211 343 12 36 35 137 51 225 17 88 46 226 66 307
l35 146 36 7 c46 8 98 58 87 83 -4 9 -6 33 -5 52 1 19 4 97 6 172 5 148 6 156
92 458 46 162 162 502 204 600 6 14 25 66 41 115 17 50 45 126 63 170 18 44
45 112 61 150 15 39 45 108 67 155 21 47 62 139 89 205 28 66 63 149 78 185
49 117 73 240 78 400 7 268 -49 461 -258 880 -65 129 -132 269 -150 310 -62
142 -138 285 -175 328 -109 126 -271 105 -427 -55 -176 -181 -173 -176 -783
-1228 -230 -397 -353 -638 -412 -811 -33 -97 -37 -122 -41 -229 -3 -99 0 -134
17 -198 30 -109 104 -252 199 -382 l80 -109 7 -104 c10 -145 0 -433 -18 -522
-22 -104 -64 -234 -99 -303 -28 -57 -31 -59 -61 -53 -254 47 -587 79 -837 80
-212 1 -245 -1 -339 -22 -57 -13 -129 -34 -159 -48 -67 -30 -74 -30 -62 -1 16
36 100 379 100 407 0 31 -40 75 -116 125 -30 20 -54 37 -54 39 0 37 38 198 66
277 76 220 205 434 444 739 47 59 105 135 129 169 24 33 50 61 57 61 24 0 18
-724 -10 -1303 -4 -75 -3 -78 22 -95 39 -25 173 -23 227 3 l40 20 -1 100 c-1
55 -13 224 -28 375 -56 602 -70 1020 -35 1097 8 18 62 81 120 140 146 149 343
390 390 478 51 94 57 155 34 330 -46 360 -82 459 -287 790 -154 248 -304 450
-362 488 -28 19 -85 27 -116 18z"/>
</g>
</svg>
