<?xml version="1.0" standalone="no"?>
<!DOCTYPE svg PUBLIC "-//W3C//DTD SVG 20010904//EN"
 "http://www.w3.org/TR/2001/REC-SVG-20010904/DTD/svg10.dtd">
<svg version="1.0" xmlns="http://www.w3.org/2000/svg"
 width="750.000000pt" height="1125.000000pt" viewBox="0 0 750.000000 1125.000000"
 preserveAspectRatio="xMidYMid meet">
<metadata>
Created by potrace 1.16, written by Peter Selinger 2001-2019
</metadata>
<g transform="translate(0.000000,1125.000000) scale(0.100000,-0.100000)"
fill="#000000" stroke="none">
<path d="M0 9654 l0 -34 123 -2 c67 -1 145 -3 172 -4 197 -7 1403 -16 2270
-18 680 -1 1043 -4 1047 -11 4 -6 8 -2 8 9 0 13 3 16 13 8 9 -7 522 -20 927
-23 8 0 673 0 1478 0 l1462 1 0 30 c0 17 -6 31 -12 31 -7 1 -92 3 -188 5 -96
2 -182 4 -190 4 -8 1 -343 1 -745 1 -401 -1 -1092 1 -1535 4 -443 3 -1217 7
-1720 10 -1734 10 -2785 16 -2947 19 l-163 3 0 -33z"/>
<path d="M3601 8966 c-8 -10 -23 -13 -46 -9 -44 7 -95 -24 -136 -83 -16 -24
-42 -50 -58 -58 -51 -27 -98 -90 -110 -148 -18 -87 -41 -278 -41 -339 0 -50 4
-62 30 -91 17 -18 30 -35 30 -39 0 -16 46 -18 58 -2 11 15 12 14 12 -9 0 -15
5 -30 10 -33 6 -4 9 -12 8 -18 -1 -7 12 -41 29 -77 34 -71 52 -150 34 -150
-29 0 7 -108 47 -144 12 -10 19 -23 15 -29 -3 -5 -1 -7 4 -4 6 4 37 -5 68 -18
70 -31 97 -24 171 42 27 25 43 42 37 38 -7 -3 -13 0 -14 7 -1 7 -2 28 -4 46
-1 17 2 32 7 32 5 0 6 5 3 10 -3 6 -2 10 4 10 6 0 8 7 5 15 -4 8 1 26 10 40
20 30 20 45 1 45 -8 0 -15 -5 -15 -11 0 -8 -4 -9 -13 0 -8 6 -18 7 -22 3 -5
-4 -4 2 0 13 5 11 10 38 11 60 1 22 7 60 13 85 15 61 14 70 -6 69 -11 0 -13
-3 -5 -6 11 -4 18 -33 7 -33 -10 0 -83 49 -90 60 -12 20 -27 10 -21 -15 7 -28
-5 -33 -24 -10 -7 8 -27 17 -46 21 -39 7 -40 11 -19 50 8 16 15 41 15 56 0 37
14 42 36 13 10 -13 31 -29 46 -36 33 -14 97 -4 105 17 3 7 11 14 18 14 7 0 19
10 27 22 l15 22 26 -28 c27 -29 32 -60 27 -168 -1 -32 2 -38 19 -38 24 0 38
19 21 30 -8 5 0 14 23 29 52 32 58 43 63 123 4 61 2 79 -16 113 -13 24 -28 83
-36 144 -9 58 -20 114 -26 125 -6 12 -34 44 -62 71 -28 28 -78 80 -112 118
-49 55 -65 67 -91 67 -17 0 -36 -6 -42 -14z"/>
<path d="M3623 7683 c-20 -3 -34 -11 -38 -23 -3 -10 -28 -55 -55 -101 -54 -89
-54 -89 -42 -89 13 0 45 32 62 62 8 15 19 27 24 27 5 -1 12 5 16 11 4 7 26 14
49 15 23 2 39 -1 36 -6 -4 -5 1 -6 9 -3 11 4 16 0 16 -10 0 -9 5 -16 10 -16 6
0 23 -15 39 -32 35 -40 52 -30 26 15 -26 45 -109 156 -115 155 -3 -1 -19 -3
-37 -5z"/>
<path d="M4433 7341 c-6 -54 -18 -110 -26 -123 -8 -12 -18 -33 -22 -45 -5 -19
-2 -23 14 -23 19 0 21 -4 15 -42 -4 -24 -11 -44 -16 -46 -4 -2 -8 -25 -8 -50
0 -36 -5 -50 -20 -59 -31 -20 -40 12 -40 148 0 98 -3 121 -12 111 -16 -16 -17
-162 -3 -432 17 -340 9 -557 -24 -619 -6 -11 -11 -30 -11 -42 0 -18 -3 -19
-15 -9 -21 17 -84 30 -91 18 -3 -5 7 -23 22 -40 l29 -31 -25 7 c-75 20 -134
27 -212 25 -83 -3 -88 -2 -108 23 -29 38 -92 44 -496 48 -100 1 -148 6 -165
16 -113 65 -141 66 -234 4 -82 -54 -89 -46 -93 103 -4 136 -5 141 -32 127 -27
-14 -26 2 1 19 18 11 23 11 30 -1 6 -8 9 5 9 36 0 35 -5 53 -17 62 -17 12 -17
13 3 14 18 0 22 8 28 56 7 62 3 74 -24 74 -10 0 -21 6 -23 13 -3 6 -6 3 -7 -8
-1 -12 -6 -4 -13 19 -14 46 -44 66 -33 21 20 -80 20 -79 -24 -103 -57 -30 -88
-28 -127 8 -37 34 -53 36 -114 14 -24 -9 -53 -18 -64 -19 -109 -17 -154 -28
-201 -49 -30 -14 -54 -27 -54 -31 0 -3 18 4 39 15 22 11 64 23 94 26 57 7 131
-2 123 -14 -10 -17 16 -53 52 -71 43 -22 48 -31 66 -106 11 -47 14 -50 41 -48
17 1 22 -1 12 -4 -27 -7 -18 -47 13 -53 14 -3 20 -8 14 -12 -6 -4 -23 0 -38 7
-28 15 -28 14 -22 -11 4 -14 31 -49 61 -79 30 -29 55 -61 55 -69 0 -11 10 -16
33 -16 18 0 37 -4 43 -9 5 -5 29 -20 54 -34 88 -49 165 -96 181 -112 9 -8 26
-15 38 -15 12 0 20 -4 17 -8 -2 -4 20 -21 50 -36 47 -25 53 -31 41 -43 -12
-12 -19 -11 -48 5 -19 11 -60 27 -91 36 -60 17 -67 23 -45 45 10 10 9 11 -5 6
-10 -4 -41 -39 -70 -79 -62 -85 -88 -114 -88 -98 0 7 -9 12 -19 12 -15 0 -18
5 -14 23 4 18 3 19 -6 7 -7 -10 -11 -11 -11 -2 0 6 -6 12 -14 12 -8 0 -16 7
-18 16 -3 15 -95 53 -130 54 -9 0 -19 6 -22 13 -3 8 -16 0 -36 -23 -20 -22
-28 -28 -24 -15 4 11 12 26 17 33 14 18 18 70 6 77 -5 4 -17 1 -25 -6 -8 -6
-32 -12 -54 -12 -37 0 -39 -1 -26 -16 14 -15 12 -17 -24 -18 -30 -2 -40 2 -40
13 0 8 -4 12 -10 9 -5 -3 -10 -2 -10 2 0 9 -52 43 -66 43 -5 0 2 -7 14 -16 24
-16 30 -36 10 -29 -19 7 -90 -64 -83 -83 3 -8 -2 -25 -10 -38 -10 -15 -11 -24
-4 -24 6 0 9 -7 5 -15 -3 -8 -1 -15 5 -15 6 0 8 -4 5 -9 -3 -5 -33 -12 -66
-16 -33 -4 -57 -11 -54 -16 3 -5 10 -7 15 -4 5 3 6 -1 3 -9 -4 -11 0 -16 10
-16 9 0 16 -4 16 -10 0 -5 -6 -10 -12 -10 -10 0 -10 -2 0 -9 9 -5 -1 -8 -27
-8 -22 0 -38 4 -35 8 9 14 -21 10 -42 -6 -16 -12 -159 -14 -1046 -15 l-1028 0
0 -34 0 -34 602 -1 c1011 -1 1059 -2 1173 -13 61 -6 125 -10 143 -9 17 1 32
-3 32 -9 0 -7 6 -8 18 -2 20 10 82 -4 82 -18 0 -6 9 -10 21 -10 15 0 19 -4 15
-16 -8 -21 11 -45 29 -37 9 3 19 -5 26 -21 7 -14 16 -23 20 -20 5 3 26 2 46
-2 21 -4 32 -9 25 -12 -10 -3 -10 -7 -1 -18 8 -9 8 -14 1 -14 -6 0 0 -11 13
-25 14 -13 25 -35 25 -48 0 -15 8 -28 22 -35 13 -6 17 -11 9 -11 -11 -1 -11
-4 -1 -16 9 -11 15 -12 20 -5 4 7 12 5 21 -6 12 -16 12 -17 -3 -11 -24 9 -33
-10 -13 -29 9 -9 13 -24 10 -35 -4 -13 -2 -19 9 -19 9 0 16 7 16 15 0 8 5 15
10 15 14 0 12 -28 -2 -33 -10 -3 -10 -7 0 -20 11 -13 11 -16 0 -20 -7 -2 1 -2
17 1 30 4 30 4 11 -17 -11 -11 -14 -21 -8 -21 6 0 12 6 15 13 5 14 31 -41 28
-60 -1 -7 5 -14 14 -14 8 -1 20 -3 25 -4 6 -1 22 -3 36 -4 38 -2 18 -21 -22
-21 -21 0 -33 -4 -29 -10 3 -5 15 -10 25 -10 14 0 20 -8 22 -32 2 -21 9 -34
18 -34 8 -1 23 -2 34 -3 15 -1 16 -4 6 -16 -11 -13 -8 -15 16 -16 23 -1 24 -3
7 -6 -20 -4 -52 -63 -35 -63 4 0 0 -5 -8 -11 -12 -8 -12 -10 5 -8 37 3 55 -1
55 -11 0 -6 -3 -9 -7 -9 -27 4 -53 -2 -47 -12 3 -6 17 -9 30 -6 27 5 42 -8 19
-17 -8 -3 -12 -12 -9 -20 3 -8 -2 -16 -13 -19 -12 -3 -8 -5 10 -6 32 -1 27
-20 -6 -22 -14 -1 -9 -4 13 -9 23 -5 28 -8 13 -9 -25 -1 -31 -16 -10 -25 9 -3
7 -9 -5 -19 -24 -19 -23 -41 0 -35 20 6 23 -15 7 -41 -5 -9 -2 -19 11 -28 10
-8 18 -21 16 -30 -3 -11 1 -14 14 -9 14 5 15 4 4 -9 -16 -20 -44 -20 -36 0 4
11 -2 15 -21 15 l-26 0 24 -23 c30 -30 56 -39 63 -24 3 7 3 -1 1 -18 -2 -16
-4 -33 -4 -37 -1 -5 -9 -8 -18 -8 -16 0 -15 -3 4 -18 22 -17 23 -31 14 -164
-1 -14 -10 -18 -38 -18 -35 0 -36 0 -18 -20 18 -20 41 -28 30 -10 -4 6 2 6 17
0 13 -6 31 -13 41 -16 19 -7 23 -24 6 -24 -7 0 -18 -8 -25 -17 -9 -12 -13 -14
-14 -5 0 7 -5 10 -10 7 -11 -7 12 -35 29 -35 19 0 12 -17 -9 -23 -10 -3 -21 0
-23 7 -2 6 -8 8 -12 4 -4 -4 0 -14 9 -23 9 -9 16 -12 16 -5 0 6 5 8 10 5 8 -5
8 -11 1 -19 -6 -7 -7 -23 -4 -36 5 -17 3 -21 -6 -15 -14 8 -4 -13 20 -45 9
-13 10 -13 5 2 -8 28 9 29 32 3 19 -21 19 -24 4 -30 -16 -6 -16 -7 1 -19 24
-18 21 -26 -8 -26 -28 0 -29 -3 -15 -31 8 -14 7 -19 -2 -19 -9 0 -9 -3 2 -10
10 -6 11 -10 3 -10 -9 0 -10 -7 -3 -24 6 -16 5 -27 -3 -35 -9 -10 -6 -11 13
-8 14 2 19 2 13 0 -7 -3 -13 -9 -13 -14 0 -5 -8 -9 -17 -9 -15 0 -14 -2 3 -15
10 -8 26 -15 34 -15 12 0 16 -13 18 -52 1 -29 8 -55 14 -59 7 -5 9 -12 4 -16
-4 -4 -13 0 -20 10 -21 27 -26 20 -9 -14 10 -20 20 -28 30 -25 9 4 13 1 10 -6
-2 -7 -13 -12 -23 -10 -18 2 -18 2 -1 -9 14 -8 17 -18 12 -40 -5 -22 -2 -31
10 -35 12 -5 13 -9 4 -14 -8 -6 -6 -11 9 -19 18 -9 20 -16 12 -36 -7 -18 -5
-28 5 -39 12 -12 11 -15 -8 -21 -21 -6 -22 -6 -2 -15 18 -8 17 -9 -7 -9 -16
-1 -28 -6 -28 -12 0 -5 4 -8 9 -4 6 3 16 -2 23 -10 7 -9 22 -25 33 -37 17 -18
17 -20 3 -15 -20 7 -35 -9 -16 -16 7 -3 -5 -6 -27 -7 -35 -1 -37 -2 -17 -11
13 -5 21 -13 18 -18 -3 -5 12 -16 35 -25 37 -15 46 -36 14 -36 -8 0 -11 -7 -8
-20 4 -14 -1 -21 -22 -26 -19 -5 -23 -10 -16 -17 8 -8 14 -8 23 1 15 15 38 16
38 2 0 -5 -5 -10 -11 -10 -6 0 -17 -6 -25 -14 -12 -13 -10 -14 18 -12 18 2 25
1 16 -1 -22 -5 -23 -17 -2 -37 14 -15 13 -17 -7 -25 l-23 -8 22 -12 c14 -8 22
-20 21 -34 -3 -38 1 -57 12 -57 6 0 17 -6 25 -14 15 -16 19 -30 6 -22 -5 3 -8
-13 -8 -35 1 -24 7 -43 16 -49 8 -5 11 -12 7 -16 -4 -4 0 -16 10 -26 15 -17
15 -18 -8 -18 -17 0 -20 -3 -10 -9 10 -7 8 -12 -10 -24 -19 -14 -20 -19 -9
-32 11 -13 9 -15 -10 -15 -35 0 -17 -11 19 -12 27 -1 70 -28 44 -28 -10 0 -10
-96 0 -107 15 -15 5 -25 -19 -19 -19 5 -25 3 -22 -6 3 -7 17 -12 34 -11 16 1
23 0 17 -3 -18 -8 -16 -22 5 -27 15 -4 15 -5 -2 -6 -14 -1 -17 -6 -12 -25 4
-18 1 -25 -15 -29 -18 -5 -19 -8 -8 -20 9 -10 16 -11 20 -4 10 14 39 1 39 -18
0 -8 7 -15 15 -15 8 0 15 -8 15 -17 -1 -15 -5 -13 -25 9 -29 33 -35 35 -35 8
0 -11 7 -20 15 -20 8 0 15 -6 15 -13 0 -7 9 -23 20 -35 12 -12 16 -22 10 -22
-17 0 -11 -42 8 -56 9 -7 36 -14 60 -14 23 0 42 -5 42 -11 0 -5 -4 -7 -10 -4
-5 3 -18 1 -27 -4 -16 -9 -14 -10 10 -11 26 0 40 -19 15 -21 -7 0 -33 -2 -58
-5 -25 -2 -247 -6 -495 -8 -247 -2 -460 -6 -473 -9 -22 -6 -173 -9 -1007 -22
-171 -3 -478 -8 -683 -12 l-372 -6 0 -503 c0 -392 3 -503 13 -507 9 -4 9 -6 0
-6 -10 -1 -13 -37 -13 -145 0 -129 2 -145 18 -149 16 -4 16 -5 0 -6 -14 -1
-18 -9 -17 -33 0 -18 3 -28 5 -22 3 6 16 9 29 6 15 -2 25 0 25 7 0 6 5 11 10
11 6 0 10 -4 10 -9 0 -10 -39 -27 -52 -23 -5 1 -8 -5 -8 -13 0 -8 -4 -15 -9
-15 -6 0 -10 -94 -10 -225 l-1 -225 2395 0 c1588 0 2394 3 2390 10 -3 6 -1 10
4 10 6 0 11 -4 11 -10 0 -15 633 -13 648 2 9 9 12 9 12 0 0 -17 491 -16 502 1
6 9 8 9 8 0 0 -7 5 -13 10 -13 6 0 10 7 10 15 0 8 9 15 20 15 22 0 27 -15 8
-23 -8 -3 -6 -6 5 -6 9 -1 17 6 17 14 0 8 4 15 10 15 5 0 9 10 7 22 -2 19 2
23 22 20 32 -3 39 -11 21 -22 -8 -6 -10 -10 -5 -10 6 0 2 -5 -7 -11 -33 -19
-19 -27 42 -26 57 1 75 9 48 20 -9 4 -10 6 -1 6 6 1 19 -7 29 -16 12 -12 19
-14 21 -6 3 8 12 9 26 4 12 -4 60 -8 107 -9 75 -2 83 -1 67 12 -11 8 -14 17
-8 20 5 4 13 1 16 -5 4 -5 13 -8 20 -5 7 2 16 -2 19 -10 3 -8 17 -13 33 -13
l28 2 -27 4 c-39 6 -35 24 5 19 17 -2 31 -9 29 -16 -2 -7 13 -10 45 -8 44 3
48 5 48 29 0 19 4 26 18 25 10 -1 22 -7 27 -15 7 -12 11 -12 24 -2 8 7 23 11
32 9 16 -3 16 -4 -1 -21 -11 -11 -26 -16 -39 -13 -12 3 -28 1 -36 -4 -10 -7 8
-10 58 -10 41 0 71 4 68 9 -3 5 0 11 8 14 8 3 17 -1 20 -9 7 -19 282 -21 289
-1 4 9 6 9 6 0 1 -9 49 -12 181 -12 l180 -1 0 30 c0 25 -4 30 -24 30 -14 0
-28 5 -32 11 -3 6 -19 9 -35 7 -18 -3 -30 1 -34 10 -3 9 -13 12 -29 8 -16 -4
-28 0 -37 11 -13 14 -11 16 19 11 26 -4 35 -1 41 13 6 17 9 17 33 4 26 -13 51
-4 28 10 -5 3 -10 16 -10 27 0 12 3 18 7 15 3 -4 13 -2 20 5 11 9 17 9 24 -3
6 -10 9 -11 9 -1 0 7 -7 15 -15 18 -8 4 -15 12 -15 20 0 8 -7 14 -16 14 -8 0
-12 -5 -9 -10 3 -6 -1 -10 -9 -10 -9 0 -16 -8 -16 -19 0 -31 -17 -34 -24 -5
-6 21 -11 25 -28 21 -20 -6 -20 -5 -5 10 13 13 19 14 31 3 9 -7 16 -8 16 -3 0
5 -9 16 -20 26 -17 14 -20 14 -20 2 0 -16 -9 -19 -34 -9 -21 8 -8 34 18 34 24
0 46 17 46 36 0 7 -22 14 -52 16 -29 3 -56 12 -62 20 -6 8 -28 21 -49 29 -29
10 -34 15 -22 22 10 5 22 4 33 -5 15 -12 16 -11 3 4 -9 12 -10 18 -2 18 6 0
11 5 11 10 0 6 -17 8 -42 4 -28 -4 -38 -2 -30 4 11 7 10 10 -3 16 -24 9 -37 7
-30 -4 6 -11 -42 -26 -52 -16 -4 3 2 6 13 6 14 0 16 2 6 9 -11 7 -11 11 2 24
22 21 20 27 -8 27 -19 0 -23 -4 -19 -19 5 -21 -12 -37 -22 -21 -3 5 -11 10
-17 10 -7 0 -6 -5 1 -14 15 -17 2 -27 -26 -20 -24 7 -28 50 -6 72 11 11 17 12
29 2 12 -11 13 -10 8 4 -5 13 -14 16 -32 13 -13 -3 -35 1 -49 8 l-25 13 23 7
c14 5 25 3 27 -4 2 -6 19 -11 37 -11 19 0 37 -5 40 -10 5 -8 12 -7 23 2 12 10
14 10 8 1 -8 -15 33 -16 74 -3 24 8 24 8 3 9 -22 1 -22 2 -5 19 9 11 20 17 23
16 3 -2 29 0 57 5 32 5 53 4 55 -2 1 -5 10 -2 19 7 9 9 18 11 20 6 2 -6 16 -6
40 2 31 9 39 8 53 -5 9 -9 13 -21 10 -27 -3 -5 1 -10 9 -10 9 0 16 7 16 15 0
8 8 15 18 16 13 0 12 2 -5 9 -13 5 -23 16 -23 24 0 23 -50 30 -67 9 -8 -10
-12 -13 -9 -7 9 17 -22 26 -43 12 -10 -6 -26 -8 -35 -5 -28 11 -17 23 21 24
20 1 42 7 47 15 6 7 25 12 41 12 17 -1 33 3 36 9 4 6 17 0 30 -13 16 -15 20
-24 12 -27 -19 -7 -16 -33 5 -40 9 -4 20 -11 24 -17 5 -7 8 -4 8 7 0 9 -7 17
-15 17 -8 0 -15 5 -15 11 0 6 7 9 15 5 13 -4 15 7 15 72 l0 77 -32 10 c-37 12
-68 9 -68 -7 0 -6 11 -8 25 -6 14 3 25 1 25 -3 0 -5 7 -9 16 -9 8 0 12 -5 9
-10 -4 -7 -12 -7 -25 0 -13 7 -21 7 -25 0 -3 -5 1 -10 9 -10 9 0 16 -4 16 -8
0 -4 -30 -9 -66 -10 -61 -3 -66 -1 -61 17 2 10 1 25 -4 32 -7 11 -9 11 -9 1 0
-7 -4 -11 -9 -7 -5 3 -16 -2 -24 -10 -9 -8 -20 -15 -26 -15 -6 0 -11 -4 -11
-10 0 -5 -9 -10 -21 -10 -11 0 -17 4 -14 10 3 5 -3 10 -14 10 -11 0 -22 -4
-25 -9 -8 -12 -56 -20 -56 -10 0 5 5 9 12 9 6 0 9 2 6 5 -3 3 -24 -1 -47 -8
-43 -15 -57 -8 -18 11 20 10 21 11 2 11 -11 1 -30 4 -42 7 -18 5 -23 1 -29
-20 -3 -14 -13 -26 -21 -26 -11 0 -13 4 -6 13 5 6 10 23 11 37 1 22 -3 26 -28
25 -17 0 -30 -4 -30 -10 1 -5 10 -10 20 -9 13 0 20 -6 20 -18 0 -12 -7 -18
-21 -18 -18 0 -19 -2 -9 -15 10 -12 10 -15 -3 -15 -9 0 -19 5 -22 10 -4 6 -11
8 -16 4 -6 -3 -5 -12 3 -22 11 -15 10 -14 -8 0 -11 10 -35 21 -52 24 -26 5
-32 12 -33 33 l-1 26 -7 -25 c-4 -14 -16 -26 -26 -28 -18 -2 -18 -2 -3 8 9 5
15 18 14 28 -2 13 -13 17 -52 17 -27 0 -58 6 -69 12 -24 15 -11 16 31 4 19 -5
37 -5 48 1 12 7 21 7 29 -1 6 -6 21 -11 34 -11 16 0 21 -4 16 -16 -6 -17 15
-36 30 -27 5 3 3 9 -4 14 -11 7 -11 9 1 9 13 0 13 1 0 10 -13 8 -12 10 3 10 9
0 17 4 17 9 0 5 -10 7 -22 4 -22 -4 -23 -4 -4 11 25 20 50 21 43 2 -3 -8 1
-20 9 -26 11 -10 14 -9 14 4 0 9 6 16 13 16 8 0 14 7 14 15 0 8 -7 15 -16 15
-14 0 -14 2 -1 10 8 5 11 10 5 11 -5 0 -1 4 10 9 16 6 14 8 -12 7 -24 0 -30
-4 -26 -16 5 -13 3 -14 -8 -3 -18 17 -30 15 -22 -4 5 -14 1 -16 -28 -11 -23 3
-40 0 -51 -11 -17 -14 -18 -13 -18 8 0 17 -4 21 -19 17 -12 -3 -23 4 -35 24
-10 16 -22 29 -28 29 -7 0 -6 -5 1 -14 8 -10 9 -16 1 -21 -5 -3 -10 -2 -10 4
0 5 -9 9 -21 8 l-21 -1 21 -17 c12 -10 21 -21 21 -25 0 -4 -5 -3 -12 4 -7 7
-20 12 -30 12 -10 0 -18 4 -18 9 0 6 -15 11 -32 13 -18 2 -32 7 -30 11 2 5 -4
14 -13 21 -16 11 -16 14 -1 28 14 15 14 17 -1 22 -8 4 -21 2 -28 -4 -9 -8 -15
-7 -18 2 -3 7 -6 3 -6 -9 -1 -13 -7 -23 -15 -23 -8 0 -21 -3 -30 -6 -12 -4
-16 0 -16 15 0 25 -3 26 -36 5 -19 -13 -28 -14 -37 -5 -8 8 -7 11 3 11 13 0
13 2 0 11 -13 9 -12 10 2 5 18 -5 78 23 78 36 0 5 -3 7 -7 7 -34 -6 -76 4 -94
22 l-21 21 7 -24 c4 -12 11 -24 16 -26 10 -4 -10 -62 -22 -62 -13 0 -11 18 4
23 6 3 2 6 -10 6 -12 1 -28 4 -37 7 -12 5 -16 0 -16 -17 0 -17 -3 -20 -12 -11
-13 13 6 42 28 42 8 0 14 5 14 10 0 6 8 10 18 11 13 0 14 2 2 6 -8 4 -20 13
-26 22 -10 13 -14 13 -28 2 -9 -7 -16 -21 -16 -30 0 -9 -5 -23 -10 -31 -7 -12
-11 -10 -18 10 -6 16 -6 29 0 37 5 7 6 18 2 24 -5 9 -1 10 14 7 12 -4 25 -2
28 4 3 5 18 9 32 8 70 -5 82 -1 82 26 0 21 4 24 20 19 11 -3 30 1 46 12 27 17
27 17 22 -5 -5 -18 -2 -22 15 -22 18 0 19 2 7 10 -14 9 -7 15 14 11 5 -1 12 2
15 7 9 15 51 25 51 13 0 -6 -5 -11 -12 -11 -6 0 -8 -3 -5 -7 4 -3 -1 -12 -11
-19 -9 -7 -12 -14 -6 -14 16 0 54 39 55 58 0 10 3 12 6 5 2 -7 21 -13 41 -13
33 1 35 2 20 14 -10 7 -18 17 -18 22 0 4 5 3 12 -4 7 -7 35 -12 62 -12 37 0
47 3 36 10 -16 10 -17 10 65 14 17 1 37 6 45 11 8 5 15 4 18 -3 2 -6 10 -8 18
-5 12 4 12 8 2 21 -11 13 -10 14 7 5 11 -6 42 -10 68 -9 27 2 42 -1 35 -5 -8
-5 9 -8 40 -7 28 0 52 5 52 11 0 5 9 2 20 -8 17 -16 20 -16 15 -3 -6 14 -2 15
22 9 21 -6 37 -3 62 12 27 17 35 18 42 6 8 -12 10 -12 18 0 5 7 14 10 20 7 6
-4 11 -2 11 3 0 6 -9 11 -20 11 -11 0 -20 5 -20 11 0 18 45 5 52 -16 6 -19 6
-18 7 3 1 26 16 29 29 6 8 -15 10 -15 15 0 9 23 44 20 50 -5 5 -17 9 -19 27
-9 11 6 18 16 14 22 -4 7 -10 6 -16 -3 -7 -11 -8 -9 -6 6 2 13 15 22 41 28
l37 9 0 249 0 249 -27 -7 c-27 -8 -652 -11 -826 -4 -72 3 -85 5 -71 15 9 7 15
21 13 31 -3 15 -13 19 -47 20 -40 1 -42 0 -42 -27 0 -15 5 -28 10 -28 6 0 10
-4 10 -10 0 -6 -35 -10 -84 -10 l-84 0 -6 30 c-3 17 -9 43 -12 59 l-5 30 518
-1 c708 0 653 -2 653 22 0 18 -7 20 -75 20 -49 0 -75 -4 -75 -11 0 -8 -4 -8
-14 0 -16 13 -1106 10 -1145 -4 -18 -6 -22 -5 -16 4 6 10 -170 12 -846 9
l-854 -3 3 455 c3 378 6 464 20 510 8 30 16 60 16 65 1 6 10 25 20 44 24 45
51 147 66 246 7 44 21 118 32 165 24 95 36 323 21 380 -7 26 -15 36 -34 39
-13 1 -27 8 -30 13 -13 21 -30 -29 -19 -57 11 -29 0 -119 -24 -195 l-14 -45 3
85 c1 47 4 90 5 95 1 6 2 12 1 15 -1 3 -4 22 -6 43 -3 27 0 40 10 44 20 7 19
25 -2 21 -11 -2 -23 11 -37 39 -15 29 -27 42 -42 43 -26 0 -50 25 -34 35 16
10 2 24 -19 18 -13 -3 -31 7 -55 31 -22 21 -36 30 -36 21 0 -8 -4 -15 -10 -15
-5 0 -10 7 -10 16 0 10 -6 13 -18 10 -12 -4 -37 10 -77 44 -65 55 -80 74 -69
91 4 7 0 9 -14 5 -17 -6 -19 -3 -15 14 4 14 1 20 -8 18 -7 -2 -15 5 -17 15 -3
16 -1 17 20 5 12 -7 35 -25 51 -40 15 -16 30 -28 34 -28 4 0 2 5 -5 12 -7 7
-8 17 -1 30 7 13 6 18 -3 18 -9 0 -9 3 0 12 10 10 17 10 32 0 11 -6 27 -12 35
-12 9 0 21 -5 28 -10 72 -60 107 -80 107 -61 0 10 -124 132 -187 184 -53 44
-94 92 -86 101 11 10 42 7 50 -6 4 -7 22 -18 40 -24 29 -11 32 -10 37 10 3 12
3 33 0 46 -4 16 -3 21 3 13 5 -7 22 -14 37 -15 15 -1 32 -8 38 -15 6 -7 18
-13 28 -13 17 0 110 -87 110 -102 0 -4 5 -8 11 -8 18 0 -1 42 -43 97 -43 57
-155 152 -236 202 -30 17 -64 43 -76 56 -22 24 -88 65 -138 86 -18 7 -28 19
-28 31 0 14 -5 18 -15 14 -10 -4 -29 7 -50 29 -40 40 -41 42 -17 48 16 4 16 5
0 6 -10 0 -18 6 -18 11 0 6 8 10 18 10 9 0 28 3 41 7 17 4 22 3 17 -5 -5 -8
-2 -10 8 -6 9 4 18 -1 22 -10 3 -9 14 -16 24 -16 10 0 20 -8 22 -17 3 -17 38
-25 48 -11 3 4 18 8 33 10 16 3 32 10 36 17 5 7 11 9 14 4 3 -5 -5 -21 -19
-36 -29 -32 -30 -37 -4 -37 11 0 20 5 20 11 0 8 4 8 15 -1 12 -10 18 -9 31 4
18 19 12 46 -11 46 -9 0 -13 5 -10 11 4 6 -1 17 -11 24 -17 12 -21 11 -34 -5
-11 -14 -22 -18 -39 -13 -23 6 -23 7 -5 14 16 7 17 8 2 8 -10 1 -18 6 -18 12
0 5 -5 7 -11 4 -6 -4 -8 -13 -5 -21 3 -8 -1 -14 -8 -14 -9 0 -12 7 -9 20 3 11
10 20 15 20 6 0 8 7 4 15 -3 9 0 15 9 15 8 0 19 8 24 18 9 15 10 15 11 -5 0
-15 -6 -23 -17 -23 -16 0 -16 -1 -1 -16 12 -13 20 -14 37 -5 11 7 21 18 21 26
0 9 10 15 25 15 14 0 25 5 25 10 0 6 -6 10 -14 10 -8 0 -18 5 -22 12 -5 7 -3
8 5 4 7 -5 17 -1 24 7 10 14 55 24 122 27 19 1 19 1 3 14 -10 7 -18 17 -18 22
0 4 5 3 11 -3 8 -8 20 -8 34 -3 17 7 25 5 29 -6 3 -8 12 -14 20 -14 15 0 27
-33 17 -46 -9 -13 -42 -14 -62 -3 -11 6 -26 4 -42 -4 -24 -13 -24 -14 -6 -25
10 -7 27 -12 38 -12 10 0 21 -6 24 -14 3 -8 20 -14 41 -14 l34 0 -4 77 c-5 79
-23 121 -51 121 -9 0 -13 3 -10 7 4 3 1 16 -7 27 -7 12 -13 40 -13 62 0 23 -3
46 -7 53 -10 15 -13 191 -3 191 4 0 7 -8 8 -17 0 -10 3 -13 5 -6 3 7 12 9 20
6 8 -3 14 0 14 6 0 6 -6 11 -13 11 -8 0 -14 6 -14 13 0 9 9 12 24 9 13 -2 23
-8 23 -13 0 -16 18 -9 22 9 6 23 60 52 65 35 6 -18 23 -16 23 2 0 8 13 16 33
19 69 12 325 32 377 30 85 -3 269 -3 1003 2 602 4 678 3 683 -11 8 -19 33 -19
48 0 12 16 232 24 659 25 l217 0 0 30 0 30 -1460 -5 c-898 -4 -1460 -2 -1460
3 0 15 -37 21 -49 9 -8 -8 -11 -7 -11 3 0 17 -61 120 -72 120 -4 0 4 -19 17
-42 30 -52 33 -78 8 -52 -17 16 -18 16 -21 1 -2 -10 -11 -16 -20 -15 -9 2 -16
-3 -14 -9 1 -8 -8 -13 -23 -13 -14 0 -25 -4 -25 -10 0 -5 -17 -12 -37 -16 -21
-3 -47 -14 -58 -24 -21 -18 -83 -45 -89 -39 -101 117 -174 197 -189 208 -17
12 -19 12 -13 -6 5 -15 1 -19 -24 -21 -16 -1 -41 -7 -56 -12 -21 -9 -29 -7
-39 7 -15 20 -4 32 30 33 17 0 18 2 5 10 -11 7 -3 9 25 4 31 -4 44 -2 54 10
18 21 6 33 -14 16 -13 -11 -14 -10 -9 5 5 13 14 16 37 11 24 -5 38 0 71 27 23
18 74 55 114 82 90 61 105 77 106 117 1 18 4 35 7 38 17 15 49 102 49 134 0
32 3 37 17 32 9 -4 20 -2 23 5 5 8 18 8 46 0 48 -13 194 -15 194 -2 0 11 -84
52 -145 71 -48 16 -105 51 -105 65 1 28 95 102 104 82 3 -6 3 -1 0 13 -4 14
-14 34 -24 45 -39 44 -42 60 -31 183 11 115 33 713 27 719 -1 2 -8 -42 -13
-96z m-555 -2983 c65 -90 70 -135 46 -415 -5 -63 -5 -92 -3 -848 0 -330 -1
-618 -3 -640 -3 -22 -28 -96 -57 -163 -28 -68 -58 -149 -66 -179 -16 -60 -25
-78 -25 -48 0 26 -37 147 -76 246 -18 48 -33 102 -33 120 0 19 2 124 5 234 6
266 -11 542 -41 665 -43 175 -47 222 -35 400 9 142 24 247 30 215 1 -5 5 3 9
19 8 38 29 46 24 9 -4 -24 -1 -28 22 -29 16 -1 24 3 22 10 -2 6 -12 10 -21 10
-23 -2 -20 13 4 19 10 3 21 0 23 -7 6 -17 37 12 37 35 0 13 7 19 23 19 13 0
26 3 30 6 9 9 -19 34 -40 35 -10 0 -13 3 -5 6 6 2 12 9 12 13 0 5 11 21 24 35
19 21 25 23 30 10 3 -8 10 -15 16 -15 6 0 8 5 4 12 -4 7 -9 23 -10 37 -2 13
-8 29 -13 34 -6 6 -11 16 -11 21 0 6 5 5 12 -2 15 -15 58 -16 58 -2 0 6 -9 10
-20 10 -25 0 -27 20 -2 20 13 1 11 6 -12 26 -19 17 -32 22 -40 15 -7 -6 -17
-6 -26 -1 -10 7 -11 10 -2 10 6 0 12 5 12 11 0 5 -4 7 -10 4 -5 -3 -10 1 -10
11 0 15 2 15 24 1 17 -12 26 -13 35 -4 8 8 11 5 11 -11 0 -12 5 -22 11 -22 5
0 7 5 4 10 -3 6 0 10 7 9 19 -1 55 -17 40 -18 -13 -1 -7 -21 6 -21 11 0 12 40
1 41 -5 1 -13 3 -19 4 -5 1 -14 3 -20 4 -5 0 -10 5 -10 11 0 5 8 7 18 4 15 -5
15 -4 2 8 -9 7 -21 24 -28 38 l-12 25 3 -24 c3 -29 -29 -54 -42 -32 -5 7 -20
14 -34 14 -22 0 -24 2 -12 13 16 17 29 18 19 3 -5 -9 1 -10 22 -5 16 4 33 14
37 22 4 8 10 14 12 14 2 0 22 -24 43 -52z m-884 -11 c10 -9 24 -17 32 -17 8 0
14 -2 14 -4 0 -2 3 -11 6 -19 3 -9 0 -17 -8 -20 -7 -2 -5 -3 4 -2 10 2 22 -3
29 -11 6 -8 18 -14 26 -14 20 0 29 -30 12 -42 -10 -6 -7 -7 10 -3 17 5 22 4
19 -6 -3 -8 -13 -14 -24 -14 -19 0 -21 -5 -10 -28 5 -9 7 -9 12 1 8 17 24 5
24 -20 0 -15 -5 -19 -17 -14 -17 5 -17 5 -1 -6 15 -11 15 -13 0 -25 -15 -11
-15 -14 -2 -24 13 -9 12 -10 -3 -5 -10 3 -23 6 -28 6 -5 0 -9 7 -9 15 0 10 -7
15 -17 13 -13 -2 -19 5 -21 25 -3 27 12 38 21 15 2 -7 7 -10 11 -7 3 3 3 16
-2 28 -7 19 -9 20 -29 6 -29 -20 -35 -59 -11 -79 10 -9 18 -22 18 -30 0 -9 7
-12 19 -9 10 3 22 0 25 -6 5 -7 -2 -11 -16 -11 -27 -1 -58 -22 -58 -39 0 -7 5
-9 10 -6 6 3 10 -1 10 -9 0 -9 -9 -16 -20 -16 -11 0 -20 -7 -20 -15 0 -8 -9
-15 -20 -15 -22 0 -27 -25 -7 -34 9 -4 9 -8 1 -11 -7 -3 -9 -15 -6 -27 3 -14
1 -19 -6 -14 -8 5 -12 -2 -12 -19 0 -14 -5 -34 -12 -44 -10 -16 -6 -26 26 -68
20 -27 59 -68 86 -92 28 -24 50 -52 50 -63 0 -10 4 -26 9 -36 38 -76 44 -108
27 -144 -9 -17 -13 -34 -9 -37 14 -10 15 -52 3 -67 -16 -18 -30 -18 -30 1 0 8
5 15 10 15 6 0 10 7 10 16 0 13 -3 14 -13 5 -18 -14 -52 21 -44 43 4 9 2 18
-3 21 -5 3 -10 -7 -12 -22 -3 -23 -5 -20 -9 14 -2 23 -1 39 3 37 19 -12 5 14
-23 44 -16 17 -24 32 -17 32 9 0 9 3 -2 10 -8 5 -11 12 -8 16 4 3 -3 16 -15
28 -12 11 -22 26 -22 31 -1 29 -29 116 -41 126 -16 13 -19 49 -4 49 6 0 10 -5
10 -12 0 -6 3 -9 6 -5 11 10 -7 47 -23 47 -9 0 -13 6 -10 15 4 8 2 17 -3 20
-5 3 0 21 10 40 11 19 15 35 10 35 -6 0 -10 7 -10 15 0 9 -6 18 -14 21 -8 3
-16 14 -19 25 -4 16 1 19 31 20 33 2 34 2 8 6 -22 4 -26 7 -15 14 11 7 11 11
1 17 -6 5 -12 19 -12 33 -2 72 -3 77 -15 73 -18 -7 -26 24 -16 66 5 19 9 28
10 18 1 -11 7 -15 22 -11 12 4 25 0 31 -8 8 -11 9 -10 4 3 -7 25 11 32 31 13
11 -11 18 -13 23 -5 4 6 13 8 22 5 28 -11 36 18 11 44 -13 13 -23 19 -23 14 0
-6 -6 -13 -14 -16 -11 -4 -14 3 -13 29 2 31 5 34 25 29 24 -6 32 18 10 32 -7
4 -19 16 -26 25 -11 14 -11 16 1 14 8 -1 22 -9 31 -19z m1376 -800 c0 -10 -6
-17 -12 -16 -25 3 -38 -1 -38 -12 0 -5 4 -8 9 -5 15 9 19 -29 4 -42 -10 -10
-13 -10 -14 0 0 7 -5 -1 -10 -18 -7 -24 -16 -33 -40 -38 -17 -3 -28 -10 -25
-14 3 -5 -2 -9 -10 -9 -9 0 -18 12 -21 29 -3 15 -10 25 -15 22 -5 -3 -7 -12
-4 -20 3 -8 1 -14 -4 -14 -14 0 -12 -27 3 -33 7 -3 5 -6 -6 -6 -15 -1 -17 6
-13 46 5 46 17 63 47 63 10 0 15 8 15 23 -1 18 6 23 39 28 22 3 34 7 28 8 -7
0 -13 6 -13 12 0 7 11 8 32 4 25 -6 30 -4 25 8 -3 8 -3 18 1 21 8 8 22 -15 22
-37z m1900 -1687 c1 -8 2 -34 1 -57 l-1 -43 -410 0 c-282 0 -410 3 -410 11 0
5 -4 7 -10 4 -5 -3 -10 0 -10 7 0 9 -3 10 -8 2 -4 -6 -17 -15 -30 -19 -22 -6
-23 -4 -20 26 3 31 1 33 -32 35 -20 2 -42 4 -50 6 -9 2 -16 -6 -18 -19 -2 -13
-8 -23 -14 -23 -5 0 -8 -7 -4 -15 5 -13 -19 -15 -174 -15 -108 0 -181 4 -185
10 -10 16 -72 12 -79 -5 -4 -12 -11 -13 -33 -4 -19 7 -29 7 -31 0 -2 -6 -20
-11 -40 -11 -28 0 -33 3 -22 10 12 7 12 10 1 10 -7 0 -11 6 -8 15 4 8 2 17 -3
20 -6 4 -10 -1 -10 -10 0 -8 -8 -19 -17 -22 -15 -6 -15 -7 3 -15 12 -5 3 -6
-26 -3 -25 2 -46 4 -47 4 -1 1 0 15 4 33 5 26 4 30 -10 25 -10 -4 -24 2 -36
14 -17 19 -19 19 -26 2 -5 -10 -9 -31 -10 -46 -3 -33 -10 -42 -24 -32 -12 7
-15 104 -3 106 29 6 185 8 927 14 462 4 842 9 844 11 7 6 19 -9 21 -26z"/>
<path d="M2152 6411 c-13 -8 -5 -51 9 -51 5 0 9 -8 9 -17 1 -16 2 -16 16 2 14
18 15 14 12 -55 l-3 -75 25 4 c50 7 55 6 58 -17 2 -12 13 -27 25 -34 20 -10
21 -10 8 5 -22 27 -7 43 63 61 36 10 66 22 66 26 0 9 -109 24 -118 16 -3 -3
-14 2 -24 11 -18 16 -19 16 -9 -11 14 -34 14 -49 1 -41 -5 3 -10 14 -10 24 0
68 -90 175 -128 152z"/>
</g>
</svg>
