<?xml version="1.0" standalone="no"?>
<!DOCTYPE svg PUBLIC "-//W3C//DTD SVG 20010904//EN"
 "http://www.w3.org/TR/2001/REC-SVG-20010904/DTD/svg10.dtd">
<svg version="1.0" xmlns="http://www.w3.org/2000/svg"
 width="750.000000pt" height="1125.000000pt" viewBox="0 0 750.000000 1125.000000"
 preserveAspectRatio="xMidYMid meet">
<metadata>
Created by potrace 1.16, written by Peter Selinger 2001-2019
</metadata>
<g transform="translate(0.000000,1125.000000) scale(0.100000,-0.100000)"
fill="#000000" stroke="none">
<path d="M4628 7502 c7 -5 -8 -8 -39 -8 -45 1 -54 -3 -74 -28 -15 -19 -29 -27
-39 -23 -20 8 -396 -177 -537 -264 -53 -32 -102 -59 -108 -59 -28 0 -71 -35
-71 -57 0 -18 -15 -31 -70 -60 -57 -31 -70 -43 -70 -62 0 -14 -17 -45 -38 -70
-99 -119 -162 -232 -168 -305 -4 -44 0 -59 28 -110 49 -88 69 -100 187 -104
87 -4 109 -1 183 23 128 42 331 144 457 229 62 42 116 74 119 72 7 -8 -55
-107 -123 -196 -92 -120 -231 -278 -414 -470 -282 -296 -321 -337 -347 -366
-68 -77 -225 -266 -269 -324 -27 -36 -52 -67 -55 -70 -4 -3 -39 -45 -80 -95
-127 -158 -238 -265 -410 -396 -180 -138 -271 -192 -472 -281 -83 -36 -143
-68 -145 -77 -2 -9 -18 -26 -36 -37 -87 -56 -147 -93 -194 -120 -29 -16 -53
-32 -53 -35 0 -3 -29 -21 -65 -39 -36 -18 -65 -37 -65 -41 0 -5 -7 -9 -15 -9
-8 0 -15 -4 -15 -10 0 -5 -7 -10 -15 -10 -8 0 -15 -5 -15 -11 0 -5 -4 -8 -9
-5 -5 3 -24 -4 -42 -17 -19 -12 -45 -28 -59 -35 -14 -6 -32 -16 -40 -22 -31
-20 -151 -90 -154 -90 -5 0 -215 -128 -261 -160 -22 -15 -139 -93 -260 -173
-121 -80 -240 -165 -264 -190 -48 -50 -69 -109 -63 -176 3 -34 8 -41 30 -45
42 -8 146 -9 417 -3 138 3 239 3 225 0 -14 -3 -27 -8 -30 -12 -5 -6 -21 -15
-127 -72 -36 -19 -47 -29 -37 -33 27 -10 224 -6 424 9 107 8 348 27 535 40
334 25 390 31 407 41 4 3 8 0 8 -5 0 -6 -20 -25 -44 -43 -24 -18 -108 -83
-187 -145 -79 -61 -216 -167 -304 -234 -289 -221 -333 -270 -350 -392 l-6 -47
38 -18 c33 -15 75 -17 338 -17 165 1 291 -1 280 -3 -11 -3 -31 -9 -45 -15 -14
-6 -27 -11 -30 -11 -27 -5 -70 -31 -70 -42 0 -8 -9 -14 -19 -14 -11 0 -23 -4
-26 -10 -3 -5 -15 -10 -26 -10 -11 0 -17 -4 -14 -10 3 -5 0 -10 -8 -10 -19 0
-62 -38 -53 -48 21 -20 655 -1 1121 34 105 8 370 27 589 44 644 49 849 76
1151 155 226 59 485 164 545 221 8 8 27 24 43 35 15 12 26 26 25 32 -1 7 19
35 46 62 64 67 125 162 170 265 39 90 169 454 216 605 125 401 168 521 241
667 55 110 135 238 149 238 12 0 12 -90 0 -290 -12 -193 -34 -352 -70 -493
l-27 -109 31 -19 c17 -10 61 -28 98 -40 76 -23 120 -19 171 15 30 21 32 25 32
86 1 36 -5 119 -12 185 -38 357 -36 674 6 908 17 96 23 112 57 155 69 85 160
185 266 295 159 164 205 254 228 437 36 297 -6 462 -221 861 -152 285 -197
375 -225 453 -16 47 -23 80 -18 84 128 87 187 124 212 133 27 9 32 17 38 57 9
59 10 109 1 118 -12 13 -54 -6 -162 -75 l-110 -70 -7 47 c-4 26 -12 48 -18 50
-5 2 -10 14 -10 27 0 32 -53 92 -105 119 -23 11 -58 30 -77 40 -36 19 -36 19
-70 -2 -29 -18 -40 -20 -69 -12 -80 23 -195 5 -399 -62 -197 -66 -433 -191
-616 -328 -76 -57 -110 -77 -119 -70 -22 18 -63 104 -81 170 -20 75 -21 115
-3 186 12 48 11 54 -16 110 -15 32 -33 70 -39 84 -10 22 -19 25 -66 28 -33 1
-50 -1 -42 -6z m-90 -189 c14 -28 15 -181 1 -251 -11 -55 -21 -73 -74 -135
-198 -233 -563 -444 -814 -473 -81 -9 -165 10 -201 46 -35 34 -38 45 -9 29 15
-8 19 -8 15 0 -4 6 -3 11 1 11 5 0 24 28 42 63 41 74 137 196 166 209 12 5 30
25 40 44 26 49 41 60 61 43 8 -7 13 -21 11 -31 -5 -16 -3 -16 25 -2 16 8 31
21 34 29 3 7 23 20 44 29 23 9 40 23 44 38 14 50 280 228 476 320 118 55 125
57 138 31z m1441 -44 c21 -8 33 -19 37 -37 3 -15 13 -49 21 -75 8 -26 12 -54
9 -62 -3 -8 -1 -29 4 -46 8 -28 6 -37 -14 -59 -13 -14 -36 -48 -51 -77 -23
-44 -26 -58 -19 -90 4 -21 8 -44 7 -50 0 -7 4 -10 9 -7 6 4 8 -1 4 -12 -3 -11
-1 -26 4 -34 8 -12 10 -9 10 11 0 16 7 30 16 33 26 10 30 -2 13 -33 -15 -26
-13 -46 7 -70 2 -2 14 10 28 25 13 16 27 26 30 23 6 -5 -41 -99 -49 -99 -2 0
-15 4 -28 9 -19 7 -33 30 -58 90 -19 47 -40 83 -50 86 -10 3 -81 -24 -166 -63
-220 -103 -404 -179 -563 -233 -78 -26 -87 -25 -100 19 -7 20 -39 93 -73 161
-46 94 -58 128 -50 140 21 33 152 135 253 196 265 158 475 235 726 264 6 0 25
-4 43 -10z m-109 -664 c0 -22 -122 -239 -179 -319 -119 -167 -195 -335 -250
-553 -37 -148 -71 -350 -71 -425 0 -71 -2 -79 -37 -129 -96 -140 -198 -344
-345 -689 -110 -258 -232 -500 -270 -535 -10 -10 -49 -6 -183 16 -319 53 -473
69 -680 69 l-194 0 36 60 36 61 -7 92 c-6 78 -4 102 14 157 40 122 155 315
268 449 115 135 289 308 342 339 25 14 77 47 117 74 40 26 79 48 87 48 26 0
45 11 40 24 -5 12 94 84 166 121 18 10 40 24 48 31 7 8 20 14 28 14 8 0 14 3
14 8 0 4 17 16 38 27 48 26 53 29 124 95 33 30 80 82 105 114 39 52 43 64 38
95 -3 20 -1 60 4 89 9 45 5 166 -12 362 -2 23 6 27 118 66 147 50 391 148 505
202 87 41 100 46 100 37z m151 -1146 c62 -14 89 -25 89 -35 0 -12 4 -12 20 -4
16 8 20 8 20 -3 0 -8 -9 -17 -20 -20 -11 -3 -24 -15 -28 -27 l-8 -21 -27 21
c-27 22 -57 21 -57 0 0 -7 8 -9 21 -5 16 5 20 3 17 -6 -6 -16 -35 -16 -93 0
-22 5 -57 13 -77 16 -46 7 -48 18 -8 35 17 7 29 18 27 24 -4 10 20 46 31 46 2
0 44 -9 93 -21z"/>
<path d="M4828 5409 c-2 -6 -33 -13 -68 -15 -55 -3 -68 -8 -85 -29 -12 -14
-28 -25 -37 -25 -9 0 -20 -5 -24 -12 -4 -7 -3 -8 4 -4 17 10 15 2 -9 -41 -12
-20 -17 -39 -11 -41 5 -1 8 -22 6 -45 -2 -23 -6 -166 -8 -317 -6 -325 -25
-524 -62 -638 -22 -67 -19 -78 32 -108 59 -34 120 -35 207 -2 27 10 27 12 23
77 -3 36 -14 138 -25 226 -28 224 -34 368 -22 529 13 167 24 231 66 353 18 52
28 96 24 98 -4 3 -9 0 -11 -6z"/>
</g>
</svg>
