<?xml version="1.0" standalone="no"?>
<!DOCTYPE svg PUBLIC "-//W3C//DTD SVG 20010904//EN"
 "http://www.w3.org/TR/2001/REC-SVG-20010904/DTD/svg10.dtd">
<svg version="1.0" xmlns="http://www.w3.org/2000/svg"
 width="750.000000pt" height="1125.000000pt" viewBox="0 0 750.000000 1125.000000"
 preserveAspectRatio="xMidYMid meet">
<metadata>
Created by potrace 1.16, written by Peter Selinger 2001-2019
</metadata>
<g transform="translate(0.000000,1125.000000) scale(0.100000,-0.100000)"
fill="#000000" stroke="none">
<path d="M2799 10796 c-68 -20 -91 -34 -197 -119 -129 -104 -192 -173 -227
-252 -29 -63 -51 -176 -40 -201 8 -18 9 -17 12 4 6 32 20 27 28 -10 5 -21 3
-34 -4 -36 -7 -2 -6 -13 4 -33 18 -34 25 -38 18 -8 -4 15 -2 20 6 18 15 -5 15
-6 1 -76 -7 -31 -10 -82 -8 -112 4 -51 4 -54 -7 -27 -12 29 -13 29 -24 8 -18
-34 -14 -80 10 -92 14 -8 17 -15 11 -23 -10 -13 -10 -42 1 -67 3 -8 8 -31 9
-50 2 -25 9 -38 26 -45 13 -6 22 -19 22 -31 0 -30 37 -74 78 -91 18 -8 32 -19
29 -26 -2 -7 -21 -66 -42 -132 -20 -66 -49 -142 -63 -170 -46 -92 -202 -477
-233 -575 -23 -75 -116 -430 -165 -635 -74 -307 -116 -843 -74 -936 16 -36 58
-223 52 -233 -3 -5 -10 -2 -17 7 -7 10 -15 17 -19 17 -10 0 -7 -28 5 -32 5 -2
12 -19 15 -38 4 -19 10 -37 15 -40 4 -3 6 -16 2 -28 -3 -12 -8 -20 -12 -18 -3
2 -7 -9 -8 -25 -1 -16 0 -29 2 -29 2 0 22 37 44 83 45 92 90 147 120 147 14 0
23 9 27 25 3 13 14 27 24 30 10 3 38 27 62 53 23 26 49 46 56 44 7 -2 22 4 34
13 13 8 26 15 30 15 12 0 9 -38 -3 -46 -6 -3 -20 -25 -31 -48 -10 -22 -28 -55
-39 -72 -24 -38 -49 -150 -49 -220 0 -28 -7 -73 -15 -100 -8 -27 -15 -80 -15
-117 0 -61 2 -69 23 -77 14 -6 16 -9 6 -9 -13 -1 -17 -17 -22 -84 -3 -46 -1
-103 5 -128 5 -24 11 -91 13 -149 2 -58 4 -113 4 -122 1 -11 6 -15 16 -12 20
8 19 -13 0 -24 -14 -7 -14 -23 0 -148 9 -76 20 -149 25 -162 6 -13 10 -34 10
-48 0 -14 7 -38 14 -53 8 -15 12 -37 10 -49 -3 -11 2 -46 11 -78 9 -32 19 -77
21 -99 2 -22 9 -63 14 -90 20 -92 28 -139 34 -205 3 -36 8 -85 11 -110 l4 -45
-10 40 c-6 22 -14 56 -18 75 -7 30 -9 25 -12 -40 -2 -41 -3 -217 -2 -390 1
-232 5 -337 16 -398 15 -80 15 -85 -4 -118 -25 -46 -25 -142 2 -254 11 -47 22
-102 26 -122 3 -23 16 -47 34 -62 16 -14 31 -37 35 -52 7 -29 -11 -78 -26 -69
-9 6 -14 -10 -13 -43 1 -6 -3 -12 -8 -12 -5 0 -9 -5 -9 -11 0 -6 -13 -31 -30
-56 -16 -24 -30 -49 -30 -55 0 -6 -3 -8 -7 -5 -10 11 -28 -23 -43 -78 -16 -64
-33 -105 -42 -105 -5 0 -7 -3 -6 -7 1 -5 -10 -46 -25 -93 -99 -323 -143 -638
-141 -1015 0 -172 14 -272 50 -372 15 -40 14 -47 -7 -110 -12 -37 -23 -74 -24
-82 0 -9 -7 -28 -15 -44 -12 -25 -11 -29 8 -48 12 -11 22 -23 22 -26 0 -3 -9
2 -19 11 -18 16 -20 16 -39 -11 -11 -15 -33 -56 -50 -90 l-31 -61 -78 -4 c-43
-2 -84 0 -90 5 -21 15 -42 0 -64 -47 -19 -38 -28 -45 -63 -52 -27 -6 -42 -15
-44 -27 -3 -16 1 -17 34 -11 30 5 35 4 29 -7 -23 -40 -38 -49 -75 -43 -30 5
-48 0 -94 -26 -31 -18 -62 -40 -69 -49 -6 -10 -38 -29 -70 -44 -77 -35 -76
-60 3 -99 30 -15 65 -28 77 -28 13 0 36 -17 57 -41 l35 -42 80 7 c48 5 104 3
143 -4 93 -18 309 -16 396 3 41 9 95 28 120 43 115 67 122 69 211 66 51 -2 92
-9 104 -17 11 -7 26 -11 34 -8 13 5 15 -4 12 -58 l-4 -64 45 0 45 0 -2 53 c-2
51 -1 54 32 73 19 12 35 24 35 28 0 29 232 70 248 44 5 -8 13 -9 22 -3 8 6 25
10 36 10 13 0 24 8 27 19 4 15 -3 23 -27 31 -18 7 -26 14 -18 17 8 3 18 1 24
-5 12 -12 89 4 100 21 4 7 29 11 63 11 50 -1 73 8 43 18 -8 3 -4 10 11 17 19
11 25 11 32 0 7 -11 9 -11 9 2 0 26 26 42 47 30 13 -7 22 -6 34 5 24 22 99 21
133 -1 25 -17 27 -22 21 -54 -4 -20 -8 -52 -9 -71 -2 -45 -16 -90 -27 -90 -5
0 -27 -12 -49 -26 -36 -24 -41 -25 -55 -10 -32 31 -85 15 -110 -34 -10 -19
-24 -30 -42 -32 -17 -2 -29 -10 -31 -20 -2 -10 -17 -31 -33 -49 -16 -17 -29
-39 -29 -48 0 -17 -57 -58 -161 -115 -76 -41 -102 -67 -97 -93 4 -24 42 -35
218 -68 173 -31 182 -34 175 -46 -4 -5 5 -9 19 -9 13 0 26 -6 29 -12 5 -16
454 -14 532 2 58 12 113 42 122 68 11 28 31 43 71 54 20 5 45 17 55 26 15 13
22 14 39 3 11 -7 23 -10 26 -7 3 3 -1 6 -9 7 -8 0 -6 4 6 9 37 16 93 10 147
-15 55 -26 93 -32 102 -16 3 5 -1 11 -9 15 -9 3 -12 12 -8 22 4 11 14 14 34
10 15 -3 29 -1 31 5 2 5 32 16 68 24 118 27 134 33 158 68 33 50 27 101 -13
102 -5 0 -11 9 -13 19 -3 14 1 18 14 14 17 -4 19 0 15 39 -1 23 -7 43 -12 43
-5 0 -9 -4 -9 -10 0 -5 -4 -10 -10 -10 -12 0 -14 26 -2 33 4 2 1 2 -7 0 -7 -2
-20 2 -29 9 -8 7 -17 12 -19 11 -15 -12 -45 1 -55 22 -10 22 -13 24 -21 10 -8
-15 -11 -15 -28 4 -23 24 -24 31 -5 31 7 0 19 7 26 15 13 16 63 10 95 -12 23
-15 115 -18 115 -3 0 6 14 10 30 10 31 0 41 16 15 26 -22 9 -9 23 15 17 11 -3
20 -1 20 3 0 5 -39 19 -88 32 -125 34 -120 32 -99 43 9 6 22 7 27 4 19 -11 80
6 80 24 1 18 62 61 87 61 13 0 13 3 3 15 -10 12 -8 16 15 25 15 6 25 15 23 22
-7 19 -24 20 -42 3 -15 -15 -17 -15 -22 0 -4 10 -1 21 7 26 10 6 4 9 -18 9
-17 0 -44 5 -60 12 -27 11 -27 12 -5 15 36 7 25 18 -19 21 -33 2 -40 0 -36
-12 5 -12 -2 -14 -31 -10 -53 7 -112 26 -112 36 0 4 -11 8 -24 8 -30 0 -28 -4
-96 150 -31 69 -86 183 -123 254 -71 136 -131 313 -223 656 -39 146 -172 560
-234 730 -21 58 -72 209 -114 335 -114 351 -123 371 -202 490 -19 28 -49 95
-68 150 -19 55 -46 132 -61 170 l-27 70 -4 425 c-4 431 -12 575 -41 755 -22
140 -22 158 2 169 26 12 225 416 248 506 14 51 21 54 63 27 43 -27 83 -69 101
-107 15 -30 36 -63 44 -70 3 -3 16 -31 28 -64 25 -69 59 -115 84 -115 9 -1 17
4 17 9 0 6 13 10 28 10 23 0 33 9 60 53 17 28 41 60 52 69 11 10 20 27 20 38
0 20 23 62 47 88 7 7 13 32 13 55 0 23 9 85 20 137 11 52 20 113 20 135 0 22
6 72 14 110 9 39 23 106 32 150 41 195 90 365 106 365 5 0 8 6 8 13 0 7 8 31
19 53 114 239 141 311 146 387 10 160 40 389 55 432 37 101 43 179 21 295 -29
158 -56 249 -115 389 -30 69 -57 137 -61 151 -16 53 -127 259 -184 339 -33 47
-94 122 -136 168 -42 45 -96 106 -119 136 -24 29 -60 65 -80 80 -19 15 -67 65
-106 112 -102 120 -293 268 -550 425 -44 27 -47 37 -29 120 12 55 26 62 77 37
22 -11 68 -14 125 -8 4 1 7 11 7 24 0 12 10 40 21 62 l22 40 -24 70 c-23 67
-26 70 -58 73 -18 2 -38 -1 -44 -7 -20 -20 -24 -11 -30 63 -7 80 -40 179 -81
245 -14 22 -26 45 -26 49 0 5 -26 38 -59 73 -124 136 -276 178 -452 125z
m-213 -490 c3 -8 15 -16 26 -19 14 -4 19 -11 14 -22 -8 -21 14 -55 36 -55 10
0 23 9 30 20 7 11 21 20 32 20 14 0 17 -5 11 -22 -3 -13 -9 -33 -12 -45 -7
-30 -34 -38 -51 -16 -10 14 -24 17 -68 15 -54 -4 -54 -4 -69 32 -8 19 -15 47
-15 60 0 37 54 63 66 32z m484 -7686 c15 -39 68 -162 137 -315 51 -114 227
-467 281 -565 51 -91 127 -204 168 -250 45 -49 56 -88 43 -148 -5 -26 -12 -65
-15 -88 l-6 -41 -162 -7 c-124 -5 -164 -10 -172 -21 -6 -8 -24 -15 -39 -15
-18 0 -25 -4 -22 -13 3 -9 -7 -12 -37 -11 -23 0 -49 -6 -58 -14 -24 -20 -23
-35 2 -22 16 9 18 8 14 -5 -4 -8 -15 -15 -25 -15 -10 0 -19 -4 -19 -9 0 -5
-20 -12 -46 -16 -34 -5 -48 -12 -56 -30 -16 -35 -96 -47 -132 -20 -16 12 -17
18 -8 27 7 7 12 17 12 22 0 6 -5 3 -11 -6 -5 -10 -14 -18 -20 -18 -15 0 17 54
50 86 34 32 34 51 -1 184 -11 41 -24 128 -28 192 -7 94 -14 127 -34 167 -14
27 -30 52 -36 56 -6 4 6 35 29 78 51 93 86 228 106 402 9 77 25 212 35 299 11
88 20 162 20 165 0 12 18 -17 30 -49z m-355 -1660 c16 -17 16 -20 2 -20 -9 0
-19 5 -22 10 -3 6 -9 10 -13 10 -10 0 -9 -52 1 -67 5 -8 4 -13 -2 -13 -6 0
-11 -6 -11 -12 -1 -7 -10 -24 -21 -38 -19 -23 -28 -25 -100 -25 -43 0 -79 -4
-79 -9 0 -5 -3 -7 -6 -4 -12 13 29 69 93 127 56 50 74 61 104 61 23 0 42 -7
54 -20z"/>
</g>
</svg>
