<?xml version="1.0" standalone="no"?>
<!DOCTYPE svg PUBLIC "-//W3C//DTD SVG 20010904//EN"
 "http://www.w3.org/TR/2001/REC-SVG-20010904/DTD/svg10.dtd">
<svg version="1.0" xmlns="http://www.w3.org/2000/svg"
 width="750.000000pt" height="1125.000000pt" viewBox="0 0 750.000000 1125.000000"
 preserveAspectRatio="xMidYMid meet">
<metadata>
Created by potrace 1.16, written by Peter Selinger 2001-2019
</metadata>
<g transform="translate(0.000000,1125.000000) scale(0.100000,-0.100000)"
fill="#000000" stroke="none">
<path d="M3234 11230 c-18 -12 -38 -35 -45 -52 -7 -18 -32 -53 -56 -80 -23
-26 -47 -65 -52 -85 -14 -52 -31 -189 -38 -303 -3 -55 -11 -104 -20 -116 -25
-40 -27 -113 -4 -189 14 -43 19 -80 15 -98 -4 -20 -3 -27 5 -23 6 4 11 18 11
31 0 23 17 35 50 35 25 0 64 -56 55 -78 -6 -14 -9 -12 -17 11 -8 21 -16 27
-39 27 -16 0 -29 -3 -29 -6 0 -12 62 -64 71 -58 5 3 9 0 9 -6 0 -6 -6 -13 -14
-16 -18 -7 -10 -37 15 -60 23 -21 24 -43 4 -70 -21 -28 -18 -43 10 -54 31 -12
31 -20 0 -86 -18 -38 -33 -56 -50 -60 -14 -3 -25 -10 -25 -14 0 -4 -31 -5 -68
-2 l-68 4 -56 -58 c-30 -33 -66 -71 -79 -85 -13 -14 -67 -48 -119 -76 -52 -27
-104 -54 -115 -60 -11 -6 -58 -29 -105 -51 -110 -52 -178 -105 -206 -162 -13
-26 -34 -112 -50 -205 -36 -205 -40 -416 -10 -510 23 -71 22 -138 -2 -310 -14
-97 -17 -192 -16 -500 1 -213 6 -416 12 -461 11 -78 17 -92 158 -345 80 -145
151 -270 157 -277 7 -9 8 -86 3 -235 -10 -313 -14 -446 -21 -732 -8 -284 -11
-273 75 -295 104 -27 108 -30 120 -84 6 -27 17 -92 26 -145 17 -106 45 -222
69 -291 12 -33 19 -106 25 -270 5 -124 16 -292 25 -375 8 -82 22 -238 30 -345
20 -247 30 -328 60 -465 14 -62 38 -243 55 -415 17 -168 39 -377 50 -465 11
-88 31 -259 45 -380 45 -386 108 -839 130 -945 8 -36 27 -123 44 -195 38 -169
39 -197 13 -279 -17 -53 -21 -81 -16 -120 9 -72 26 -100 114 -191 74 -76 78
-84 85 -136 4 -31 5 -114 3 -185 -5 -147 4 -187 48 -198 25 -7 37 -3 40 12 6
28 18 52 26 52 5 0 6 -4 3 -10 -3 -5 0 -10 8 -10 8 0 26 -11 41 -25 15 -14 24
-25 20 -25 -4 0 1 -7 12 -15 16 -12 90 -14 477 -15 303 0 456 3 452 10 -3 6
-22 10 -41 10 -21 0 -33 4 -29 10 3 6 19 10 34 10 39 0 64 21 59 51 -2 17 -25
39 -83 78 -44 29 -71 50 -60 46 23 -8 92 -16 153 -17 47 0 56 -12 17 -22 -29
-7 -24 -26 6 -26 11 0 39 9 62 19 27 12 65 19 105 20 52 0 64 -3 75 -21 21
-35 123 -96 184 -109 73 -16 748 -18 764 -2 6 6 -21 19 -83 38 l-93 29 80 11
c104 15 125 23 125 44 0 21 -26 45 -94 89 -33 21 -43 32 -30 32 29 0 69 24 69
40 0 9 9 14 20 13 11 -1 40 8 65 20 44 22 44 22 15 25 -17 2 -36 8 -42 14 -7
6 -34 11 -60 13 -31 2 -51 9 -60 21 -12 16 -10 19 14 30 l28 12 -33 1 c-18 1
-42 -3 -52 -9 -13 -7 -21 -6 -30 5 -7 8 -9 15 -4 16 5 1 27 4 49 7 22 3 85 6
140 6 86 1 103 4 119 21 13 14 20 16 23 8 6 -18 30 -16 30 2 0 15 -32 24 -100
28 -42 2 -50 21 -11 24 30 2 46 13 21 13 -9 0 -17 4 -17 9 0 9 49 24 125 38
31 6 67 33 44 33 -27 0 7 18 51 28 l45 10 -65 0 c-36 0 -242 -7 -459 -16
l-394 -17 -18 40 c-9 22 -28 67 -40 100 -12 33 -41 106 -65 161 -23 56 -46
117 -49 136 l-6 33 108 18 c136 23 216 43 422 107 90 27 169 50 177 50 25 0
24 19 -6 132 -47 182 -198 811 -291 1218 -56 243 -96 433 -205 969 -51 255
-107 511 -123 570 -16 58 -41 156 -55 216 -14 61 -42 164 -61 230 -19 66 -67
248 -105 404 -39 156 -86 338 -106 404 -36 124 -36 136 7 137 14 0 13 12 -8
103 -30 132 -61 314 -68 397 -3 36 -10 85 -15 110 -5 25 -16 90 -24 146 -8 55
-29 145 -46 200 -37 114 -152 383 -212 494 -54 100 -200 323 -250 383 -34 41
-41 58 -49 115 -4 37 -8 96 -9 132 0 36 -4 79 -9 96 -16 57 2 104 76 204 49
65 73 106 77 133 4 22 22 94 42 161 32 109 36 140 46 316 11 212 1 324 -43
475 -20 65 -27 75 -115 161 -96 94 -253 214 -333 254 -24 12 -68 48 -98 80
-29 32 -85 80 -123 106 -73 50 -88 74 -45 74 44 0 93 27 120 67 61 89 179 282
206 334 27 55 49 149 49 216 0 25 -5 32 -22 36 -22 3 -22 4 4 15 32 13 42 50
34 135 -3 34 -8 94 -12 132 -9 111 -28 177 -80 272 -26 48 -55 103 -65 121
-17 32 -45 64 -114 133 l-29 29 -236 0 c-218 0 -237 -2 -266 -20z m-479 -3380
c-3 -16 1 -44 11 -69 15 -38 15 -43 0 -60 -9 -9 -19 -32 -22 -49 -4 -21 -16
-36 -33 -45 -31 -14 -40 -57 -17 -80 9 -9 16 -18 16 -22 0 -10 -54 -75 -62
-75 -12 0 -9 213 3 325 l12 100 49 2 c49 1 49 1 43 -27z m1158 -4763 c5 18 6
37 2 43 -8 13 5 80 16 80 5 0 18 -9 29 -20 23 -23 95 -28 103 -7 2 6 8 9 12 5
12 -12 -38 -48 -57 -42 -13 4 -18 0 -18 -16 0 -16 4 -20 19 -15 10 3 24 -1 31
-10 17 -21 30 -19 30 5 0 11 5 20 10 20 6 0 19 -9 30 -20 22 -22 40 -26 40
-10 0 6 18 10 40 10 39 0 40 -1 41 -37 0 -30 2 -34 8 -18 5 11 7 36 5 55 l-4
35 10 -35 c15 -51 32 -151 31 -180 0 -14 5 -38 12 -55 12 -29 12 -28 18 35 l6
65 1 -75 c1 -41 -2 -90 -7 -108 -6 -18 -6 -30 -1 -27 4 3 6 -14 4 -37 -3 -35
-2 -37 4 -13 14 56 49 -380 63 -785 14 -429 27 -618 46 -709 l19 -84 -23 -47
c-28 -60 -39 -135 -33 -229 l5 -73 69 -64 c59 -55 66 -64 45 -63 -13 0 -114
-6 -224 -15 -283 -22 -251 -28 -286 52 -59 129 -82 202 -69 218 14 16 10 75
-20 319 -49 396 -53 482 -46 1140 3 341 9 690 13 775 l8 155 5 -125 c4 -93 7
-117 13 -93z m677 -2705 c0 -46 -2 -50 -42 -79 -24 -16 -59 -36 -78 -43 -19
-8 -38 -19 -42 -24 -5 -7 -19 -4 -44 9 -21 11 -31 21 -23 24 8 2 20 11 28 18
7 8 25 22 38 31 24 15 24 16 7 29 -21 16 -23 15 51 43 33 12 69 26 80 31 11 4
21 8 23 8 1 1 2 -21 2 -47z"/>
</g>
</svg>
