<?xml version="1.0" standalone="no"?>
<!DOCTYPE svg PUBLIC "-//W3C//DTD SVG 20010904//EN"
 "http://www.w3.org/TR/2001/REC-SVG-20010904/DTD/svg10.dtd">
<svg version="1.0" xmlns="http://www.w3.org/2000/svg"
 width="750.000000pt" height="1125.000000pt" viewBox="0 0 750.000000 1125.000000"
 preserveAspectRatio="xMidYMid meet">
<metadata>
Created by potrace 1.16, written by Peter Selinger 2001-2019
</metadata>
<g transform="translate(0.000000,1125.000000) scale(0.100000,-0.100000)"
fill="#000000" stroke="none">
<path d="M6545 7040 c3 -5 21 -10 39 -10 19 0 39 -6 45 -14 11 -13 4 -14 -46
-9 -32 3 -56 3 -53 0 6 -7 168 -30 215 -31 17 -1 35 -7 41 -15 6 -8 18 -11 27
-8 9 3 22 0 29 -7 21 -20 58 -38 58 -27 0 8 148 -64 160 -78 12 -15 160 -121
169 -121 5 0 11 -7 15 -15 3 -8 10 -15 16 -15 12 0 -2 20 -39 53 -13 12 -31
30 -40 40 -8 9 -21 17 -27 17 -7 0 -14 5 -16 12 -2 6 -15 13 -28 15 -30 4 -50
21 -45 36 3 7 -32 28 -83 51 -48 21 -113 52 -145 68 -83 42 -310 87 -292 58z"/>
<path d="M6053 7000 c-89 -26 -280 -110 -344 -152 -30 -19 -83 -52 -119 -73
-249 -147 -597 -438 -731 -612 -73 -94 -31 -74 84 41 119 119 176 170 364 323
71 59 341 234 421 275 37 18 69 36 72 39 3 4 29 15 58 24 28 10 52 21 52 26 0
5 3 8 8 7 4 -2 36 9 72 24 36 14 87 32 113 39 26 6 46 17 44 23 -2 6 3 16 12
23 14 11 12 12 -14 12 -16 0 -58 -9 -92 -19z"/>
<path d="M4305 6048 c-16 -17 -100 -99 -185 -183 -85 -83 -194 -197 -242 -251
-94 -108 -147 -160 -403 -394 -457 -418 -595 -549 -595 -566 0 -14 33 -44 49
-44 7 0 10 4 7 9 -3 5 2 19 12 31 16 20 22 21 67 12 28 -5 55 -11 60 -13 6 -2
12 1 14 6 2 6 -17 16 -43 23 -42 12 -45 15 -35 33 6 12 8 23 6 26 -3 2 -8 -5
-12 -16 -3 -12 -12 -21 -18 -21 -7 0 -20 -9 -30 -20 -9 -11 -24 -20 -32 -20
-8 0 -15 -5 -15 -11 0 -5 -5 -7 -11 -4 -6 5 -2 13 13 23 13 9 26 21 30 28 7
11 138 133 368 343 173 158 269 248 383 357 103 99 127 119 111 92 -4 -8 -3
-10 2 -5 5 5 9 14 9 20 1 7 7 11 15 9 8 -2 12 -1 9 3 -4 3 9 21 27 41 19 19
34 39 34 45 0 5 4 8 8 5 5 -3 15 6 23 20 7 14 21 30 31 35 10 5 18 15 18 22 0
15 116 127 131 127 6 0 8 4 4 9 -3 6 25 40 62 78 106 106 139 132 162 126 25
-6 39 21 21 42 -16 19 -19 18 -55 -17z"/>
<path d="M4723 6012 c10 -10 17 -22 17 -26 0 -3 -35 -53 -77 -109 -42 -56
-100 -136 -128 -177 -28 -41 -68 -99 -88 -127 -21 -31 -32 -53 -24 -53 14 0
25 11 86 93 47 62 56 69 45 35 -3 -13 -3 -20 1 -16 4 4 9 23 10 42 4 39 45
103 56 85 4 -7 24 11 52 46 37 48 45 64 40 87 -3 16 -1 28 5 28 5 0 8 -10 4
-22 -8 -31 10 -16 33 29 10 21 21 40 22 42 2 3 10 -4 18 -15 9 -12 14 -14 15
-6 0 26 -22 54 -55 68 -45 19 -51 18 -32 -4z"/>
<path d="M4870 5912 c0 -5 45 -48 99 -97 55 -49 98 -92 95 -96 -2 -4 0 -10 6
-14 5 -3 10 -1 10 5 0 6 5 8 10 5 6 -4 8 -10 5 -15 -3 -5 5 -14 17 -21 22 -12
22 -11 8 7 -15 18 -14 18 10 2 14 -9 24 -22 22 -28 -1 -6 2 -9 7 -6 14 9 41
-4 41 -20 0 -8 8 -14 19 -14 17 0 47 -26 45 -39 -2 -12 55 -40 61 -30 10 15
-14 38 -90 88 -69 44 -190 141 -293 233 -50 46 -72 58 -72 40z"/>
<path d="M6010 5776 c0 -8 -3 -21 -6 -30 -4 -10 -1 -16 9 -16 10 0 13 7 10 20
-3 12 0 20 6 20 7 0 9 -4 6 -10 -9 -14 19 -12 33 2 16 16 16 -4 0 -21 -11 -11
-10 -12 1 -6 9 5 19 1 28 -11 11 -14 16 -16 22 -6 8 14 41 6 41 -10 0 -6 -7
-7 -16 -4 -8 3 -12 2 -9 -3 3 -5 1 -12 -5 -16 -18 -11 -11 -27 10 -20 12 4 20
2 20 -6 0 -9 3 -9 14 0 11 9 15 9 19 -1 3 -8 9 -4 15 12 6 14 11 19 11 13 1
-19 31 -15 38 5 4 9 17 27 30 39 13 12 23 24 23 26 0 1 -17 4 -37 4 -21 1 -54
4 -73 6 -19 3 -60 6 -90 7 -30 2 -65 7 -77 11 -17 6 -23 5 -23 -5z"/>
<path d="M4830 5659 c0 -6 -9 -67 -20 -137 -30 -200 -62 -607 -46 -591 3 3 10
56 16 119 7 63 18 128 26 144 9 19 14 65 14 135 0 58 7 151 15 205 18 117 18
136 5 136 -5 0 -10 -5 -10 -11z"/>
<path d="M5954 5337 c-39 -34 -115 -100 -169 -147 -54 -47 -128 -112 -165
-145 -36 -33 -111 -98 -165 -145 -204 -176 -252 -218 -369 -325 -67 -60 -191
-178 -276 -261 -85 -83 -177 -171 -205 -195 -27 -24 -53 -49 -57 -56 -5 -6
-37 -30 -73 -52 -36 -23 -63 -46 -60 -51 3 -5 1 -11 -5 -15 -6 -4 -8 -11 -5
-16 4 -5 1 -9 -4 -9 -6 0 -11 -6 -11 -13 0 -8 -8 -18 -18 -23 -10 -5 -52 -33
-95 -63 l-77 -55 18 -30 c10 -17 27 -32 38 -34 18 -4 18 -3 1 10 -17 13 -14
17 45 63 35 27 105 91 156 142 52 51 96 93 98 93 2 0 -3 -12 -13 -27 l-17 -28
22 19 c15 13 20 26 16 38 -4 15 -1 19 12 16 11 -2 19 3 19 12 0 8 7 14 16 13
8 -2 31 13 50 33 34 36 34 37 4 18 -44 -28 147 161 248 244 48 41 85 77 82 82
-3 5 5 12 18 15 15 4 24 13 23 23 -1 10 8 18 21 20 15 2 20 8 16 19 -5 12 -2
15 10 10 9 -3 19 -1 23 5 5 7 2 8 -7 3 -12 -8 -12 -6 0 8 7 9 21 17 30 18 11
0 12 2 3 6 -9 3 1 14 27 30 23 13 41 31 41 39 0 8 5 14 12 14 6 0 8 3 5 7 -4
3 4 13 17 22 99 66 154 107 150 113 -3 4 6 13 20 20 22 9 24 14 13 26 -10 13
-9 15 6 9 9 -3 17 -2 17 3 0 6 5 10 11 10 7 0 25 14 41 30 15 17 33 30 38 30
6 0 10 7 10 15 0 8 9 19 21 25 11 6 43 34 71 61 28 27 70 61 94 75 24 14 44
28 44 31 0 2 -6 1 -12 -2 -7 -4 3 7 22 24 19 17 38 31 42 31 4 0 8 5 8 11 0
14 41 48 58 49 7 0 10 5 6 11 -4 8 1 9 16 4 15 -5 20 -4 16 4 -4 6 -1 11 7 11
8 0 32 16 53 35 22 19 51 40 66 47 l27 13 -21 22 c-12 13 -24 23 -27 23 -3 0
-38 -28 -77 -63z"/>
<path d="M6086 5148 c-160 -201 -310 -425 -404 -603 -46 -87 -112 -237 -112
-255 0 -10 -10 -26 -22 -34 -12 -9 -17 -16 -11 -16 14 0 -3 -81 -20 -95 -7 -5
-12 -28 -13 -50 0 -22 -8 -80 -17 -130 -8 -49 -20 -135 -26 -190 -34 -317 -41
-375 -47 -389 -4 -11 -1 -16 10 -16 9 0 16 6 15 13 -3 21 13 77 22 77 5 0 6
13 3 30 -7 32 2 80 14 80 4 0 6 -21 3 -46 -2 -25 2 -51 8 -57 15 -15 14 -44
-1 -49 -7 -3 -3 -7 9 -10 20 -5 23 0 33 51 6 31 15 66 20 79 6 13 10 38 10 57
0 27 -4 35 -17 35 -14 0 -15 -2 -4 -9 7 -5 11 -15 9 -22 -3 -10 -10 -7 -23 8
-17 20 -42 23 -30 3 3 -4 -3 -14 -12 -21 -15 -13 -16 -7 -9 76 12 154 16 197
31 285 24 137 32 172 63 266 102 306 292 633 555 957 44 54 77 100 74 103 -3
3 -53 -54 -111 -128z"/>
<path d="M6298 5113 c-46 -49 -198 -265 -255 -361 -188 -319 -368 -774 -463
-1167 -23 -93 -43 -178 -46 -187 -9 -29 13 -20 25 10 6 15 18 59 26 97 51 230
128 484 203 660 16 39 46 111 67 160 72 169 211 431 307 576 52 79 102 150
111 157 14 12 17 10 23 -13 8 -31 -19 -83 -117 -230 -140 -209 -300 -534 -406
-825 -32 -89 -98 -323 -138 -489 -10 -41 -26 -82 -36 -92 -24 -24 -3 -26 29
-3 15 10 22 25 22 46 0 54 50 259 100 411 84 251 210 533 348 777 73 129 149
240 138 200 -4 -14 -9 -33 -10 -42 -1 -10 -5 -21 -9 -24 -4 -4 -7 -12 -7 -18
0 -6 5 -4 10 4 8 12 10 10 10 -8 0 -13 -4 -21 -9 -18 -5 3 -11 -8 -15 -25 -9
-48 -7 -99 4 -99 7 0 9 -13 5 -32 -13 -78 -23 -246 -16 -283 l7 -40 12 60 c7
33 26 167 42 299 17 131 37 268 45 303 8 36 12 69 9 75 -4 6 7 7 28 3 26 -5
35 -3 35 7 0 9 -11 13 -36 11 -31 -2 -32 -1 -11 6 14 4 40 7 58 7 38 -2 39 1
7 37 -17 19 -36 29 -55 29 -34 1 -34 2 -20 29 15 26 8 24 -22 -8z"/>
<path d="M4089 5057 c-49 -61 -94 -164 -174 -402 -26 -76 -58 -161 -71 -187
l-24 -48 22 0 c21 1 30 21 96 223 68 206 116 322 171 411 28 45 15 47 -20 3z"/>
<path d="M5665 4848 c-4 -16 -12 -28 -17 -28 -6 0 -8 -7 -4 -15 3 -8 -3 -20
-12 -27 -24 -18 -62 -73 -62 -91 0 -8 -7 -21 -17 -28 -15 -13 -15 -12 -5 8 17
30 15 41 -2 17 -8 -10 -12 -29 -9 -41 3 -14 -3 -34 -16 -52 -12 -16 -21 -36
-21 -45 0 -9 -5 -16 -11 -16 -6 0 -9 -8 -7 -17 2 -10 -3 -24 -12 -31 -8 -8 -9
-11 -3 -7 7 3 20 2 28 -3 14 -7 13 -11 -5 -32 -11 -13 -19 -29 -16 -36 3 -7
-4 -20 -16 -30 -24 -23 -46 -60 -28 -49 9 6 9 2 0 -14 -6 -12 -16 -18 -22 -15
-7 5 -9 0 -6 -14 4 -12 3 -22 -1 -22 -3 0 -12 -10 -20 -21 -12 -21 -12 -21 21
1 l33 24 -22 -25 c-13 -14 -23 -34 -23 -45 0 -11 -5 -25 -12 -32 -7 -7 -11
-30 -10 -52 2 -25 -2 -40 -9 -40 -7 0 -9 -11 -5 -34 5 -25 3 -35 -8 -39 -8 -3
-14 -15 -13 -26 1 -24 8 -26 27 -8 9 7 7 2 -3 -15 -9 -15 -14 -34 -11 -42 3
-8 1 -24 -6 -35 -6 -12 -8 -21 -6 -21 3 0 13 14 21 31 9 17 19 29 21 26 6 -5
-15 -47 -41 -82 -13 -19 -13 -21 5 -22 11 -1 20 3 20 8 0 6 -5 7 -11 3 -7 -4
-10 -1 -7 7 3 8 11 14 19 15 34 2 39 5 39 20 0 14 -3 14 -15 4 -9 -8 -15 -9
-15 -2 0 6 4 13 9 16 5 3 12 21 15 40 4 21 14 37 25 41 13 4 17 12 14 25 -3
11 -9 17 -14 14 -5 -3 -9 -1 -9 5 0 5 9 13 20 16 16 5 18 10 10 26 -13 23 -5
39 18 39 13 0 14 2 3 9 -13 9 -7 51 8 51 4 0 6 14 3 30 -3 21 0 30 10 30 10 0
13 10 10 37 -4 31 -2 35 13 29 14 -5 15 -3 8 6 -14 17 2 62 19 52 7 -5 9 -2 6
7 -8 21 10 61 24 54 7 -4 4 1 -6 9 -11 9 -15 16 -9 16 6 0 13 9 16 21 4 13 10
18 18 13 8 -4 10 -3 5 5 -11 17 4 53 19 47 11 -4 12 0 3 19 -9 20 -14 23 -32
14 -20 -10 -20 -10 -2 5 10 9 23 13 27 10 5 -3 9 0 9 6 0 7 6 10 13 7 10 -4
13 2 9 19 -2 13 -9 24 -14 24 -5 0 -6 -4 -3 -10 3 -5 1 -10 -4 -10 -6 0 -11 7
-11 15 0 8 4 15 9 15 5 0 11 8 14 18 2 9 8 26 13 37 7 18 6 18 -9 6 -9 -7 -17
-23 -17 -35 0 -17 -2 -18 -10 -6 -6 10 -4 21 9 35 30 33 37 49 18 42 -21 -8
-21 -4 -1 40 10 21 22 32 30 29 8 -3 13 0 11 7 -1 7 5 11 13 9 8 -2 12 0 8 4
-4 4 -2 14 4 23 10 12 8 12 -8 -1 -29 -25 -37 -22 -18 7 9 13 14 30 11 37 -2
7 -8 1 -12 -14z"/>
<path d="M2752 4598 c-18 -18 -15 -36 8 -48 18 -10 29 -50 14 -50 -4 0 -22 14
-41 30 -38 34 -46 36 -63 15 -16 -20 -5 -45 20 -45 11 0 20 -6 20 -13 0 -16
51 -12 87 5 13 6 26 8 30 5 8 -9 -29 -37 -39 -31 -20 13 -24 -11 -11 -68 19
-83 61 -189 81 -208 10 -8 30 -31 46 -50 80 -98 96 -111 116 -100 11 6 20 15
20 21 0 6 -4 7 -10 4 -5 -3 -10 -1 -10 5 0 6 -3 10 -7 8 -5 -2 -30 19 -57 45
-27 26 -42 45 -33 41 22 -8 21 2 -4 37 -11 16 -17 33 -14 39 3 6 -3 23 -14 39
-39 54 -21 41 81 -59 56 -55 107 -99 112 -97 17 6 20 39 4 48 -7 5 -19 7 -25
4 -7 -2 -18 6 -23 18 -11 21 -11 21 4 3 9 -11 16 -15 16 -10 0 16 -21 33 -34
28 -7 -3 -21 4 -31 16 -10 11 -24 20 -30 20 -7 0 -28 17 -46 38 -46 50 -132
162 -125 162 10 0 67 -62 107 -117 21 -28 43 -54 49 -58 17 -10 11 21 -9 46
-10 13 -28 44 -40 69 -12 25 -16 36 -9 25 7 -11 34 -40 59 -65 42 -41 62 -56
156 -112 l32 -19 16 35 c9 19 23 40 31 47 15 13 20 34 5 24 -5 -3 -13 0 -16 6
-4 5 -14 8 -22 5 -9 -4 -11 -2 -7 6 5 8 2 9 -10 5 -10 -4 -15 -3 -11 3 3 6 -1
10 -10 10 -9 0 -13 5 -9 11 4 8 -1 9 -17 4 -17 -4 -20 -3 -10 3 11 8 9 13 -12
26 -13 9 -44 44 -68 78 -24 33 -53 69 -64 80 -19 18 -20 18 -28 -4 -7 -17 -11
-19 -15 -8 -3 8 -11 21 -19 28 -11 11 -13 11 -13 -2 0 -24 -23 -19 -50 9 -26
28 -40 31 -58 13z"/>
<path d="M2657 4413 c-12 -20 -18 -151 -8 -157 7 -5 11 6 12 31 1 22 5 7 10
-37 5 -41 13 -104 19 -140 14 -82 70 -260 82 -260 5 0 7 8 4 18 -3 9 -8 31
-11 47 -5 29 -5 29 11 -5 20 -45 21 -45 38 -31 12 10 12 21 -5 78 -10 36 -21
68 -25 72 -4 3 -3 -4 0 -16 12 -40 23 -123 16 -123 -7 0 -20 53 -41 165 -6 33
-18 80 -26 103 -18 53 -10 67 11 21 15 -32 15 -26 2 31 -4 14 12 -10 34 -52
22 -43 43 -78 45 -78 3 0 -2 14 -11 31 -19 38 -45 109 -39 109 3 0 23 -35 44
-77 53 -103 51 -75 -3 73 -24 65 -47 136 -51 157 -9 44 -20 54 -34 29 -7 -13
-6 -35 4 -72 19 -71 12 -75 -14 -8 l-21 53 6 -50 c3 -27 8 -58 11 -67 2 -10 0
-18 -5 -18 -6 0 -15 23 -22 50 -7 28 -17 50 -22 50 -10 0 -7 30 7 63 7 16 -9
25 -18 10z"/>
<path d="M2599 4193 c0 -63 -3 -82 -10 -68 -7 14 -8 4 -5 -35 3 -30 10 -118
17 -195 6 -77 13 -142 15 -144 2 -2 4 22 5 55 l1 59 12 -62 c15 -74 20 -81 41
-59 15 14 15 30 5 153 -16 180 -26 212 -23 71 2 -69 0 -108 -6 -99 -5 7 -9 61
-10 120 -1 59 -7 136 -13 171 -5 36 -10 77 -9 93 0 15 -4 27 -9 27 -6 0 -10
-39 -11 -87z"/>
<path d="M3495 4249 c33 -4 109 -12 168 -18 115 -11 251 -39 355 -73 80 -25
74 -34 -8 -13 -90 23 -84 12 7 -14 43 -13 149 -46 236 -74 113 -37 162 -49
173 -42 26 17 14 29 -50 53 -33 12 -79 29 -101 38 -22 8 -69 24 -105 35 -36
11 -74 25 -85 30 -84 38 -411 90 -558 88 -92 -2 -92 -2 -32 -10z"/>
<path d="M4794 4231 c3 -5 -20 -32 -52 -60 -31 -28 -51 -51 -44 -51 6 0 -10
-28 -38 -62 -44 -56 -106 -111 -247 -220 -55 -43 -62 -59 -20 -47 22 6 33 5
39 -4 6 -9 12 -9 29 1 12 8 30 15 41 17 31 6 88 29 88 35 0 3 -12 13 -27 22
-16 10 -22 18 -15 19 16 2 24 4 44 13 20 9 41 -1 33 -15 -12 -18 14 -8 61 25
36 24 48 39 47 55 -2 14 3 21 15 21 14 0 15 -2 2 -10 -8 -5 -10 -10 -5 -10 6
1 21 10 34 21 21 17 22 22 10 30 -13 8 -6 13 14 10 5 -1 7 4 5 11 -3 7 -18 13
-33 13 -36 0 -41 15 -15 45 11 13 20 32 20 42 0 12 4 17 12 12 8 -5 9 -1 4 12
-6 15 -5 16 5 7 10 -10 8 -21 -6 -53 -16 -36 -17 -43 -4 -50 11 -8 15 -2 17
28 2 20 8 40 14 43 7 5 4 17 -9 35 -19 28 -21 60 -2 49 5 -4 6 1 3 9 -3 9 -10
16 -16 16 -5 0 -7 -4 -4 -9z"/>
<path d="M3500 4185 c52 -18 109 -38 125 -45 17 -7 35 -14 40 -15 6 -1 25 -7
43 -14 24 -10 32 -19 32 -37 0 -15 6 -24 15 -24 8 0 15 7 15 15 0 8 6 15 14
15 27 0 201 -71 349 -142 138 -67 149 -70 164 -55 16 16 16 18 -2 32 -72 53
-334 170 -550 245 -44 15 -79 33 -77 39 3 15 -15 14 -20 -1 -3 -9 -16 -8 -49
5 -29 11 -71 17 -119 16 l-75 -1 95 -33z"/>
<path d="M2410 4128 c0 -7 -11 -23 -24 -37 -13 -15 -34 -54 -46 -89 -13 -35
-26 -58 -30 -53 -6 11 -43 -70 -56 -121 -3 -16 -9 -28 -13 -28 -15 0 -31 51
-25 76 7 27 -20 57 -44 49 -19 -7 -8 25 40 115 l40 75 -40 -45 c-22 -25 -38
-49 -35 -53 3 -5 -2 -14 -11 -20 -9 -7 -25 -30 -35 -52 -16 -31 -20 -35 -21
-18 0 12 5 25 10 28 17 11 11 42 -10 48 -12 3 -20 0 -20 -7 0 -6 -8 -13 -17
-14 -20 -2 -93 -16 -168 -32 -82 -18 -178 -33 -208 -32 -18 1 -25 -3 -21 -10
5 -7 -3 -9 -25 -6 -22 3 -31 1 -31 -10 0 -12 -3 -12 -15 -2 -9 7 -15 8 -15 2
0 -5 -15 -12 -32 -16 -18 -3 -42 -8 -53 -10 -93 -20 -120 -23 -132 -19 -7 3
-13 1 -13 -3 0 -5 -14 -10 -31 -11 -17 -1 -37 -7 -44 -13 -6 -5 -14 -7 -17 -4
-3 3 -28 -2 -54 -10 -27 -8 -96 -29 -154 -46 -208 -63 -310 -102 -340 -130
-33 -31 -39 -59 -12 -61 23 -2 77 -1 77 1 0 1 23 4 50 6 28 3 91 11 140 19
170 27 421 53 530 56 62 1 84 -3 160 -32 11 -4 41 -13 68 -19 26 -7 50 -17 53
-21 10 -18 22 -8 16 13 -4 18 -2 20 14 13 10 -4 26 -8 36 -9 9 -1 22 -7 30
-13 15 -13 105 0 123 18 7 7 5 8 -7 4 -20 -8 -21 -1 -8 30 5 11 9 15 9 8 1 -7
8 -10 16 -7 13 5 14 2 5 -21 -5 -14 -10 -31 -10 -36 0 -5 32 -9 71 -9 39 0 69
-3 67 -7 -3 -5 -11 -22 -18 -40 -17 -40 -52 -55 -121 -52 -80 2 -1097 -11
-1223 -16 -60 -3 -111 -7 -114 -10 -2 -2 -2 -11 1 -20 5 -13 35 -15 194 -16
103 -1 213 -4 243 -8 l55 -7 -62 -8 c-35 -5 -63 -13 -63 -17 0 -5 -11 -9 -25
-9 -28 0 -34 -15 -9 -24 24 -9 688 -7 882 4 l172 9 101 66 c85 56 99 68 88 81
-10 13 -14 13 -29 -1 -9 -8 -29 -15 -43 -15 -21 0 -27 5 -27 20 0 27 23 70 50
95 18 16 23 17 31 5 8 -13 12 -12 27 7 14 18 32 23 107 29 82 6 89 5 76 -10
-10 -12 -31 -16 -87 -16 -40 0 -76 -4 -79 -10 -4 -6 17 -10 57 -10 35 0 73 -3
84 -6 24 -6 30 3 50 86 l13 55 -3 -57 c-3 -63 3 -69 34 -38 11 11 26 20 33 20
7 0 22 7 33 15 18 14 18 14 -10 15 l-29 0 6 103 c9 145 16 349 10 304 -4 -37
-23 -43 -23 -8 0 10 -7 24 -15 31 -12 10 -15 10 -15 -4 0 -9 -4 -16 -10 -16
-6 0 -10 -29 -10 -67 0 -67 -29 -343 -37 -353 -6 -6 -143 -17 -143 -10 0 7
125 426 136 454 3 7 -2 16 -10 19 -9 4 -16 1 -16 -5z"/>
<path d="M3475 4090 c22 -11 47 -20 56 -20 8 0 25 -9 37 -20 12 -11 54 -32 94
-46 100 -36 227 -104 325 -174 68 -49 84 -56 94 -44 13 16 -8 38 -73 76 -21
12 -38 25 -38 29 0 28 -239 157 -305 164 -11 1 -58 12 -105 24 -125 32 -129
33 -85 11z"/>
<path d="M3254 4023 c8 -36 96 -116 141 -130 41 -13 195 -102 195 -114 0 -18
-23 -20 -48 -3 l-27 17 24 -27 c28 -30 46 -33 60 -8 9 16 11 16 43 -2 18 -11
35 -23 38 -27 6 -9 80 0 80 10 0 11 -59 33 -71 25 -8 -4 -9 -3 -5 5 4 6 0 14
-11 18 -21 8 -47 25 -163 109 -47 34 -96 67 -110 74 -22 11 -20 7 10 -25 l35
-37 -39 16 c-44 18 -107 70 -126 104 -18 31 -33 28 -26 -5z"/>
<path d="M6116 3828 c-11 -34 -23 -123 -19 -134 13 -33 129 -47 157 -18 11 10
16 34 16 75 0 58 0 59 -29 59 -16 0 -48 7 -71 15 -51 18 -50 18 -54 3z"/>
<path d="M4128 3746 c-10 -7 -16 -15 -13 -18 3 -2 -4 -4 -16 -3 -11 1 -25 8
-30 16 -5 8 -9 9 -9 4 0 -6 4 -15 9 -20 5 -6 12 -21 16 -35 7 -24 7 -24 -11
-9 -21 19 -86 18 -92 0 -2 -6 -8 -9 -13 -5 -5 3 -9 -2 -9 -12 0 -13 -7 -16
-32 -12 -44 7 -58 1 -59 -25 -1 -17 -2 -18 -6 -5 -7 26 -94 23 -100 -3 -7 -24
-23 -14 -24 14 0 12 -3 16 -6 10 -2 -7 -21 -13 -42 -13 -46 0 -61 -14 -61 -58
0 -30 2 -33 16 -21 12 10 20 10 35 1 14 -9 19 -9 19 -1 0 8 6 7 18 -3 9 -9 23
-13 30 -11 7 3 11 -1 10 -9 -2 -7 3 -11 12 -9 80 20 77 19 50 20 -49 2 -70 13
-70 35 0 13 3 16 8 9 4 -6 24 -14 44 -18 21 -4 42 -13 49 -21 6 -8 18 -14 26
-14 15 0 15 13 -2 52 -6 15 -2 16 27 8 18 -5 45 -12 61 -15 15 -3 27 -12 27
-20 0 -11 12 -15 43 -17 34 -1 36 -2 11 -5 l-31 -4 2 -62 c2 -42 13 -87 33
-139 27 -66 41 -87 109 -151 111 -106 201 -179 212 -173 5 4 103 -60 217 -140
115 -80 222 -153 239 -161 28 -15 29 -15 16 1 -12 15 -256 204 -352 273 -27
19 -131 108 -163 138 -6 6 -25 21 -43 33 -18 13 -50 41 -72 62 -28 28 -45 38
-57 33 -11 -4 -15 -2 -11 4 4 5 -5 21 -18 33 -14 13 -25 30 -25 38 0 9 -3 13
-6 9 -9 -8 -63 102 -64 128 0 12 12 0 31 -34 44 -76 213 -244 372 -369 92 -74
85 -59 -10 19 -200 163 -315 284 -349 365 -26 62 -14 57 45 -17 73 -93 198
-215 321 -315 84 -68 158 -119 383 -265 61 -39 61 -42 9 -54 -34 -7 -34 -18 0
-36 11 -6 18 -7 15 -1 -4 5 11 15 32 22 29 9 43 10 60 1 32 -18 25 -26 -26
-29 -51 -3 -64 -9 -46 -20 6 -4 34 -27 63 -52 29 -25 60 -50 69 -56 13 -10 13
-16 3 -38 -6 -15 -19 -29 -27 -32 -35 -14 -65 5 -222 141 -22 20 -43 31 -45
26 -3 -11 -177 -41 -193 -34 -22 10 83 -80 132 -113 65 -43 69 -50 47 -75 -27
-30 -95 -20 -134 21 -3 3 -27 23 -55 44 l-50 39 43 -45 43 -45 -31 -7 c-38 -7
-91 15 -143 61 -21 18 -37 35 -37 38 0 3 12 5 28 5 15 0 37 3 49 6 21 6 21 7
6 30 -8 13 -20 24 -27 23 -7 0 -6 -2 2 -6 29 -11 8 -23 -43 -23 -30 0 -55 4
-55 10 0 5 -6 7 -12 5 -8 -3 -32 26 -58 66 -44 70 -129 192 -150 216 -5 7 -10
15 -10 17 0 3 -15 25 -32 48 -18 24 -50 75 -71 113 -57 105 -71 130 -78 135
-3 3 -11 21 -17 40 -11 32 -11 30 -7 -29 3 -35 9 -69 14 -75 18 -23 91 -167
91 -180 0 -20 55 -120 121 -219 33 -49 56 -93 53 -98 -3 -5 -27 -9 -54 -9 -27
0 -51 -4 -55 -10 -7 -12 5 -60 16 -60 5 0 6 6 3 14 -6 15 34 26 92 26 19 0 34
3 34 8 0 4 -22 46 -49 95 -52 92 -57 120 -6 39 38 -62 143 -165 161 -158 8 3
27 -15 49 -48 20 -30 42 -60 50 -66 21 -17 19 -36 -6 -54 -39 -27 -78 3 -146
111 -39 61 -49 71 -64 63 -10 -6 -35 -10 -56 -11 -30 0 -34 -2 -18 -9 18 -7
16 -9 -13 -15 -36 -8 -36 -17 -1 -87 26 -51 24 -76 -6 -90 -22 -10 -29 -8 -50
12 -14 13 -25 28 -25 33 0 24 -54 127 -67 127 -28 0 -93 -25 -89 -35 2 -6 28
-9 58 -7 55 3 56 2 67 -29 17 -50 14 -69 -11 -71 -13 0 -30 -2 -38 -2 -27 -3
-50 18 -57 54 -7 33 -8 31 -13 -25 l-5 -60 -37 -3 c-43 -4 -44 -1 -53 143 -3
50 -8 108 -10 130 l-4 40 10 -35 c22 -73 45 -76 65 -9 16 52 18 83 5 74 -10
-5 -24 32 -37 95 -3 19 -15 51 -25 70 -11 19 -19 43 -19 53 0 10 -4 16 -9 13
-14 -9 -19 14 -27 128 -4 59 -9 105 -11 102 -2 -2 -6 -29 -8 -60 -2 -31 -7
-62 -11 -68 -4 -6 -3 -8 3 -5 13 8 20 -30 28 -153 4 -52 10 -138 15 -190 5
-52 8 -96 6 -98 -2 -2 -24 -4 -49 -5 -43 -1 -45 -2 -51 -37 -12 -70 -12 -70
55 -70 60 0 60 0 57 -27 -2 -19 -12 -32 -33 -42 -16 -8 -34 -20 -38 -28 -4 -7
-23 -13 -42 -13 -33 0 -33 0 -24 32 14 52 10 57 -10 11 -20 -43 -45 -63 -80
-63 -27 0 -27 28 -2 95 10 28 22 71 26 98 7 45 19 60 27 35 12 -34 58 50 74
132 l8 45 6 -40 c4 -28 8 -4 14 86 5 69 6 134 3 145 -2 10 -5 -10 -6 -46 -2
-42 -5 -58 -10 -45 -4 11 -7 41 -6 68 1 41 -1 47 -19 47 -21 1 -21 1 -1 16 14
11 16 18 8 21 -7 3 -13 16 -13 31 0 14 -2 23 -4 21 -5 -5 -12 -53 -26 -183 -6
-55 -13 -102 -16 -105 -4 -3 -4 23 0 59 3 36 8 126 10 200 l5 135 -9 -105 c-5
-58 -14 -154 -20 -215 -6 -60 -12 -115 -12 -122 -1 -7 -6 -9 -11 -6 -6 4 -7 1
-1 -8 13 -21 5 -72 -14 -86 -9 -8 -11 -13 -4 -13 7 0 12 -8 12 -19 0 -21 -40
-31 -125 -31 -37 0 -46 3 -35 10 13 9 13 12 -4 25 -18 14 -18 15 7 26 15 7 24
16 21 21 -3 4 -10 6 -15 3 -5 -4 -9 -1 -9 6 0 7 -10 -1 -22 -17 -13 -17 -28
-29 -35 -27 -15 5 -41 -34 -49 -76 l-7 -34 34 6 c19 4 59 9 89 12 30 3 74 8
98 11 34 4 42 2 42 -10 0 -10 -9 -17 -22 -17 -13 -1 -74 -4 -137 -8 -84 -4
-116 -10 -119 -20 -4 -11 16 -13 117 -6 72 4 121 3 121 -2 0 -15 -45 -53 -61
-53 -9 0 -22 -11 -29 -25 -14 -27 -9 -26 -132 -16 -5 1 -8 10 -8 20 0 35 -19
33 -57 -6 -20 -21 -37 -33 -39 -28 -3 6 -43 8 -111 3 -60 -4 -162 -5 -228 -2
-257 11 -469 15 -958 19 -373 3 -512 7 -523 16 -11 9 -14 8 -14 -5 0 -30 19
-54 52 -67 22 -8 106 -14 243 -16 116 -2 221 -6 235 -9 23 -5 22 -7 -15 -20
-22 -7 -41 -18 -43 -24 -2 -5 -10 -10 -17 -10 -19 0 -85 -32 -85 -41 0 -32
211 -42 778 -36 499 5 662 13 777 38 28 6 172 13 322 15 150 2 284 9 298 14
15 6 63 10 108 10 45 0 98 5 117 11 19 6 83 12 141 14 58 1 130 8 160 14 30 6
97 17 150 26 53 8 110 22 128 31 17 9 64 20 104 26 72 10 184 43 202 59 5 5
18 9 29 9 24 0 179 86 251 140 42 31 95 87 206 215 17 19 16 21 -19 38 -28 15
-33 15 -23 3 11 -13 8 -22 -20 -58 -41 -53 -45 -55 -91 -68 -37 -11 -38 -11
-22 -35 28 -42 -19 -93 -75 -80 -17 4 -48 -1 -79 -13 l-51 -20 -58 28 c-32 15
-66 36 -75 46 -16 18 -15 19 18 20 19 0 42 8 50 16 14 14 12 18 -28 45 -23 16
-72 47 -108 68 -120 72 -300 193 -388 263 -129 102 -281 251 -330 323 -32 48
-35 54 -10 24 69 -83 156 -170 240 -239 152 -124 190 -152 308 -225 120 -75
398 -217 406 -208 3 2 -14 16 -38 29 -125 71 -351 204 -405 238 -110 68 -362
279 -411 344 -23 31 -82 150 -82 166 0 6 -23 20 -35 20 -2 0 -1 -8 2 -19 3
-10 0 -22 -6 -25 -6 -4 -11 -2 -11 4 0 7 -7 9 -16 6 -14 -5 -15 -4 -5 8 13 16
7 36 -10 36 -6 0 -7 -4 -4 -10 3 -5 -1 -10 -9 -10 -13 0 -49 39 -70 77 -6 12
30 7 49 -7 14 -11 129 -22 148 -14 16 6 13 34 -5 34 -5 0 -6 -4 -3 -10 3 -5 0
-10 -8 -10 -12 0 -67 50 -67 61 0 7 42 3 64 -7 13 -5 21 -3 24 4 2 7 11 12 20
12 11 0 6 10 -18 35 -37 38 -46 41 -72 21z m684 -1123 c78 -65 82 -70 62 -76
-55 -15 -97 -17 -111 -6 -12 10 -19 10 -35 0 -13 -8 -18 -9 -13 -1 9 14 -16
34 -79 65 -45 22 -47 24 -25 29 22 5 60 9 141 14 16 1 39 -9 60 -25z m-578
-95 c38 -59 34 -66 -36 -67 -52 -1 -83 16 -113 61 -29 43 -27 45 45 51 25 2
51 4 58 5 7 1 27 -22 46 -50z"/>
<path d="M4238 3650 c16 -19 15 -30 -4 -30 -8 0 -12 5 -9 10 3 6 1 10 -5 10
-7 0 -9 -8 -5 -19 7 -22 -26 -46 -51 -37 -11 4 -12 2 -1 -14 6 -11 16 -20 20
-20 5 0 6 -7 3 -16 -10 -26 53 -131 117 -196 32 -33 61 -57 64 -54 3 3 -9 17
-26 32 -18 14 -30 28 -28 30 2 2 42 -16 88 -39 108 -56 141 -67 162 -55 13 7
15 5 11 -7 -5 -12 1 -15 28 -15 19 0 38 -3 41 -6 9 -9 93 -39 197 -70 99 -30
184 -58 329 -108 114 -40 159 -45 59 -7 -35 13 -76 30 -93 37 -16 6 -67 26
-113 44 -45 18 -81 34 -79 36 1 2 86 -24 187 -56 102 -33 186 -60 186 -60 1 0
7 14 14 30 16 38 5 53 -11 16 -14 -30 -27 -33 -36 -10 -4 11 -8 12 -13 4 -12
-19 -65 3 -63 25 1 12 -2 14 -10 6 -15 -15 -32 -14 -19 2 8 9 4 12 -16 13 -15
1 -21 -1 -14 -3 20 -8 14 -22 -8 -16 -11 3 -17 10 -13 16 3 6 1 7 -5 3 -10 -6
-120 25 -292 80 -48 16 -312 134 -370 167 -114 62 -151 84 -202 119 -31 22
-58 48 -61 59 -6 22 -3 24 15 7 71 -67 340 -230 355 -215 2 3 -31 24 -74 46
-43 22 -106 64 -141 92 -35 28 -81 61 -103 74 -23 12 -36 25 -31 29 19 11 64
-14 126 -70 57 -52 111 -82 296 -166 134 -61 613 -190 692 -187 15 1 9 5 -17
11 -267 65 -352 88 -485 134 -307 105 -444 185 -533 313 -17 25 -33 39 -35 33
-3 -10 -7 -10 -20 0 -14 10 -15 10 -4 -2z"/>
<path d="M4308 3635 c47 -89 352 -263 487 -278 l50 -6 -65 25 c-36 13 -54 22
-40 19 193 -40 481 -75 604 -74 l111 2 -114 8 c-233 17 -492 67 -656 127 -44
16 -113 37 -152 46 -40 10 -73 22 -73 27 0 5 -7 9 -15 9 -8 0 -15 4 -15 8 0 5
-17 18 -38 30 -21 12 -51 34 -67 49 -20 20 -25 22 -17 8z"/>
<path d="M3973 3363 c1 -24 1 -43 -1 -43 -2 0 -9 15 -17 33 -19 43 -19 13 1
-43 56 -163 223 -435 353 -572 36 -39 34 -44 -21 -50 -19 -2 -25 -7 -20 -15 6
-9 24 -11 59 -6 l51 6 -54 64 c-93 109 -216 283 -201 283 2 0 17 -19 32 -42
70 -106 202 -246 280 -297 22 -14 46 -32 53 -39 8 -6 23 -17 35 -23 12 -6 -31
42 -95 107 -114 116 -233 254 -246 284 -3 8 -21 34 -39 58 -18 24 -33 50 -33
58 0 8 -4 14 -9 14 -5 0 -15 16 -21 35 -6 19 -15 35 -20 35 -4 0 -10 8 -13 18
-4 9 -22 53 -42 97 -34 77 -35 79 -32 38z"/>
<path d="M3795 3113 c1 -111 22 -204 81 -377 13 -38 22 -72 19 -75 -12 -12
-59 -11 -68 1 -6 9 -7 8 -3 -5 3 -10 6 -30 6 -43 0 -21 4 -24 33 -23 l32 1
-30 7 -30 7 39 8 c28 5 41 4 47 -6 14 -21 10 3 -11 70 -25 81 -25 98 2 47 11
-22 25 -43 30 -46 5 -3 8 -10 6 -15 -1 -5 9 -10 24 -12 32 -4 35 -17 -27 143
-24 61 -51 137 -60 170 -9 33 -23 70 -31 83 -8 12 -12 22 -8 22 4 0 1 7 -6 15
-10 12 -10 15 1 15 9 0 8 4 -4 13 -9 6 -19 27 -22 46 -13 75 -21 56 -20 -46z"/>
<path d="M3355 3024 c-15 -11 -17 -17 -7 -23 10 -6 10 -10 -2 -21 -9 -7 -13
-17 -10 -22 3 -5 -2 -15 -12 -23 -17 -12 -22 -11 -41 7 -13 12 -23 16 -23 10
0 -7 5 -12 10 -12 6 0 10 -4 10 -9 0 -5 -10 -7 -22 -3 -14 3 -19 2 -14 -6 4
-7 1 -12 -9 -12 -9 0 -13 -4 -10 -10 3 -5 0 -10 -7 -10 -9 0 -10 -2 -1 -8 8
-5 7 -12 -4 -27 -12 -15 -14 -16 -10 -3 5 14 2 16 -17 8 -13 -5 -27 -6 -30 -3
-3 4 -6 1 -6 -5 0 -5 6 -13 13 -15 9 -4 9 -6 0 -6 -6 -1 -15 4 -18 9 -3 6 -11
10 -16 10 -6 0 -8 -3 -6 -7 3 -5 -17 -8 -44 -7 -27 0 -49 -3 -49 -7 0 -4 -17
-5 -37 -3 -110 10 -162 11 -158 4 3 -4 -6 -10 -20 -12 -13 -3 -23 -2 -21 1 2
3 -7 7 -20 7 -20 2 -23 -1 -13 -12 8 -9 8 -14 1 -14 -6 0 -14 5 -17 10 -8 12
-37 9 -47 -5 -5 -6 -11 -6 -19 2 -9 9 -15 9 -25 -1 -8 -9 -32 -12 -69 -10 -31
2 -68 -1 -82 -7 -31 -12 -91 -21 -118 -19 -29 3 -70 2 -160 -3 -54 -4 -82 -1
-87 6 -5 8 -8 8 -8 1 0 -7 -24 -10 -65 -9 -37 1 -65 -2 -65 -8 0 -5 -7 -4 -15
3 -12 10 -15 10 -15 0 0 -7 -7 -10 -15 -7 -8 4 -17 2 -21 -4 -4 -6 -11 -6 -20
2 -8 6 -14 8 -14 3 0 -5 -23 -10 -50 -11 -92 -4 -165 -13 -168 -21 -1 -5 -15
-7 -30 -5 -29 5 -136 -17 -192 -39 -88 -34 -141 -87 -109 -110 19 -12 643 3
874 22 61 4 171 9 245 10 312 2 501 12 542 28 25 10 93 16 128 11 32 -4 61 1
55 11 -3 6 1 10 9 10 9 0 16 7 16 15 0 8 4 15 9 15 4 0 13 15 19 33 l10 32 1
-32 c1 -20 -5 -35 -15 -41 -13 -7 -14 -14 -6 -28 9 -16 12 -13 27 21 19 43 75
211 80 235 1 8 4 22 7 30 34 103 34 107 3 84z"/>
</g>
</svg>
