<?xml version="1.0" standalone="no"?>
<!DOCTYPE svg PUBLIC "-//W3C//DTD SVG 20010904//EN"
 "http://www.w3.org/TR/2001/REC-SVG-20010904/DTD/svg10.dtd">
<svg version="1.0" xmlns="http://www.w3.org/2000/svg"
 width="1564.000000pt" height="412.000000pt" viewBox="0 0 1564.000000 412.000000"
 preserveAspectRatio="xMidYMid meet">
<metadata>
Created by potrace 1.16, written by Peter Selinger 2001-2019
</metadata>
<g transform="translate(0.000000,412.000000) scale(0.100000,-0.100000)"
fill="#000000" stroke="none">
<path d="M50 4098 c-8 -13 -19 -38 -25 -57 -7 -22 -8 -690 -5 -1996 l5 -1962
29 -41 29 -42 7741 0 7741 0 30 45 c17 24 33 45 38 45 4 0 7 884 7 1965 l0
1964 -25 37 c-14 20 -25 43 -25 50 0 12 -1223 14 -7763 14 l-7762 0 -15 -22z
m15131 -430 c8 -7 28 -31 45 -53 l29 -40 3 -1503 c2 -1666 7 -1546 -62 -1595
l-31 -22 -5875 0 c-5859 0 -5875 0 -5902 20 -15 11 -37 38 -48 61 -20 40 -20
57 -20 1525 0 977 4 1497 10 1521 6 20 23 50 39 67 l29 31 5884 0 c4693 0
5887 -3 5899 -12z m-13131 -492 c361 -94 559 -434 465 -797 -57 -219 -222
-377 -460 -440 -68 -18 -119 -22 -332 -26 l-253 -6 0 -513 0 -514 155 0 c145
0 155 -1 155 -19 0 -10 -7 -22 -16 -25 -22 -8 -860 -6 -909 2 -25 5 -40 13
-40 22 0 12 27 16 155 20 l155 5 3 1110 c1 611 0 1120 -3 1133 -5 21 -9 22
-144 22 -154 0 -171 3 -171 32 0 19 10 19 588 15 513 -3 595 -6 652 -21z"/>
<path d="M7140 3237 c-7 -12 -44 -116 -82 -232 -38 -115 -121 -367 -184 -560
-190 -581 -454 -1385 -482 -1470 l-27 -80 -145 -6 c-80 -4 -151 -7 -157 -8
-19 -2 -16 -38 3 -45 20 -8 738 -8 758 0 9 3 16 14 16 24 0 10 -7 21 -16 24
-9 3 -98 6 -199 6 -101 0 -186 3 -188 8 -2 4 19 81 49 172 29 91 77 244 107
340 l54 175 353 3 c276 2 355 -1 362 -10 4 -7 22 -58 39 -113 17 -55 64 -205
106 -333 42 -128 73 -235 70 -238 -3 -3 -73 -5 -156 -5 -177 2 -203 -3 -199
-33 l3 -21 495 -3 c272 -1 505 0 518 3 13 3 22 13 22 25 0 26 -19 30 -175 33
l-130 2 -56 170 c-31 94 -114 346 -184 560 -70 215 -130 399 -135 410 -4 11
-41 121 -80 245 -40 124 -122 371 -182 550 -60 179 -116 346 -124 371 -16 54
-35 66 -54 36z m-85 -734 c25 -76 53 -158 60 -183 7 -25 59 -181 115 -347 57
-170 99 -310 96 -319 -5 -14 -16 -16 -68 -10 -33 3 -177 6 -319 6 -197 0 -259
3 -259 12 0 7 51 170 114 363 63 192 133 410 157 483 23 72 45 132 49 132 4 0
29 -62 55 -137z"/>
<path d="M3887 3203 c-12 -3 -17 -12 -15 -26 3 -21 9 -22 148 -27 l145 -5 5
-63 c3 -34 3 -541 1 -1127 l-3 -1065 -137 0 c-75 0 -142 -4 -149 -9 -8 -5 -12
-17 -10 -27 3 -18 22 -19 469 -22 406 -2 468 0 479 13 10 12 10 18 0 30 -9 11
-44 15 -154 17 l-141 3 -3 548 c-1 380 1 554 9 568 10 20 18 20 192 17 161 -3
187 -6 228 -24 98 -45 179 -151 220 -287 18 -60 41 -249 54 -452 15 -219 48
-321 126 -388 96 -83 305 -87 499 -11 69 27 100 49 100 70 0 9 -21 3 -65 -17
-121 -54 -224 -32 -253 56 -8 23 -18 121 -22 225 -18 369 -31 441 -105 565
-67 111 -153 175 -317 234 -55 20 -100 41 -101 46 0 6 13 14 29 19 240 71 373
165 441 312 39 87 53 150 53 248 -1 94 -13 146 -58 236 -55 112 -141 195 -264
254 -176 86 -199 88 -833 92 -302 1 -558 0 -568 -3z m1149 -77 c102 -32 182
-133 221 -279 24 -87 24 -385 0 -474 -23 -88 -59 -153 -106 -196 -87 -79 -133
-88 -406 -85 l-220 3 -3 508 c-1 358 1 514 9 529 11 20 16 20 233 15 163 -3
234 -9 272 -21z"/>
<path d="M8490 3203 c-79 -4 -103 -14 -82 -35 9 -9 62 -15 160 -18 l147 -5 3
-1127 2 -1128 -93 0 c-52 0 -122 -3 -156 -6 -56 -6 -62 -9 -59 -28 3 -21 7
-21 313 -24 171 -1 320 0 333 3 26 6 30 40 6 49 -9 3 -74 6 -144 6 -92 0 -131
4 -136 12 -9 15 -13 2128 -5 2128 6 0 202 -312 210 -334 2 -6 23 -40 46 -76
24 -36 62 -96 85 -135 24 -38 92 -151 153 -250 60 -99 147 -241 192 -315 45
-74 119 -196 165 -270 46 -74 107 -173 135 -220 29 -47 76 -123 105 -170 29
-47 79 -130 111 -185 32 -55 82 -136 111 -180 l53 -80 63 -3 62 -3 0 1159 c0
887 3 1161 12 1170 8 8 55 12 144 12 125 0 133 1 139 21 4 11 4 24 0 27 -8 9
-610 15 -642 7 -26 -6 -32 -40 -7 -49 9 -3 76 -6 149 -6 113 0 134 -2 139 -16
8 -22 5 -1642 -3 -1674 -6 -22 -11 -17 -54 55 -26 44 -68 112 -92 150 -24 39
-60 97 -80 130 -20 33 -55 92 -79 130 -24 39 -71 115 -105 170 -33 55 -96 159
-141 230 -44 72 -84 139 -90 150 -5 11 -41 70 -79 130 -38 61 -107 172 -153
248 -45 76 -90 149 -98 162 -8 13 -34 54 -57 92 -23 37 -46 73 -51 80 -6 9
-81 13 -282 16 -151 2 -309 2 -350 0z"/>
<path d="M10777 3203 c-12 -3 -17 -12 -15 -26 3 -21 9 -22 153 -27 l150 -5 3
-1127 2 -1128 -119 0 c-152 0 -183 -6 -179 -34 l3 -21 851 -3 c993 -3 894 -15
905 114 10 101 11 424 2 532 -5 76 -8 83 -26 80 -17 -3 -26 -28 -64 -178 -69
-283 -135 -393 -273 -459 l-55 -26 -347 -3 c-330 -3 -348 -2 -349 15 -4 56 3
1122 8 1141 5 22 8 22 162 22 86 0 173 -5 194 -11 86 -24 127 -90 163 -263 18
-86 36 -114 55 -85 5 8 8 184 6 394 -2 365 -3 380 -21 380 -16 0 -22 -14 -37
-85 -22 -108 -43 -165 -76 -208 -42 -56 -70 -62 -273 -62 l-180 0 0 498 c0
374 3 501 12 510 9 9 85 12 279 12 361 0 400 -9 500 -112 90 -92 144 -218 169
-398 12 -83 21 -100 45 -80 15 12 16 47 13 317 -2 236 -6 306 -16 312 -7 4
-108 11 -224 14 -235 8 -1393 7 -1421 0z"/>
<path d="M12792 3201 c-8 -5 -12 -17 -10 -27 3 -17 15 -19 145 -22 102 -2 144
-6 152 -16 8 -9 10 -325 9 -1127 l-3 -1114 -140 -5 c-77 -3 -146 -9 -152 -13
-18 -11 -16 -34 3 -41 21 -8 1832 -8 1862 0 49 13 52 38 52 382 0 254 -3 322
-13 331 -26 21 -45 -11 -63 -99 -61 -308 -153 -476 -292 -532 -56 -23 -61 -23
-481 -23 l-424 0 2 1120 c1 616 5 1122 7 1125 3 3 76 7 162 10 l157 5 0 25 0
25 -480 2 c-264 2 -486 -1 -493 -6z"/>
<path d="M1477 3143 c-4 -3 -7 -272 -7 -596 l0 -589 228 4 c263 5 288 11 374
88 113 100 158 256 158 537 -1 341 -103 517 -321 553 -70 11 -422 14 -432 3z"/>
</g>
</svg>
